<svg width="12" height="13" viewBox="0 0 12 13" fill="none" xmlns="http://www.w3.org/2000/svg">
<g clip-path="url(#clip0_17847_18779)">
<path d="M11.5 6.00001H6.49999V0.999992C6.49999 0.723852 6.27614 0.5 6 0.5C5.72386 0.5 5.50001 0.723852 5.50001 0.999992V5.99998H0.499992C0.223852 6.00001 0 6.22386 0 6.5C0 6.77614 0.223852 6.99999 0.499992 6.99999H5.49998V12C5.49998 12.2761 5.72384 12.5 5.99998 12.5C6.27612 12.5 6.49997 12.2761 6.49997 12V6.99999H11.5C11.7761 6.99999 12 6.77614 12 6.5C12 6.22386 11.7761 6.00001 11.5 6.00001Z" fill="#212121"/>
</g>
<defs>
<clipPath id="clip0_17847_18779">
<rect width="12" height="12" fill="white" transform="translate(0 0.5)"/>
</clipPath>
</defs>
</svg>
