<svg width="17" height="17" viewBox="0 0 17 17" fill="none" xmlns="http://www.w3.org/2000/svg">
<path d="M15.7687 7.8393H9.16155V1.23216C9.16155 1.05692 9.09194 0.888868 8.96803 0.76496C8.84413 0.641052 8.67607 0.571442 8.50084 0.571442V0.571442C8.32561 0.571442 8.15755 0.641052 8.03364 0.76496C7.90973 0.888868 7.84012 1.05692 7.84012 1.23216V7.8393H1.23298C1.05775 7.8393 0.889692 7.90891 0.765784 8.03282C0.641876 8.15673 0.572266 8.32478 0.572266 8.50001H0.572266C0.572266 8.67525 0.641876 8.8433 0.765784 8.96721C0.889692 9.09112 1.05775 9.16073 1.23298 9.16073H7.84012V15.7679C7.84012 15.9431 7.90973 16.1112 8.03364 16.2351C8.15755 16.359 8.32561 16.4286 8.50084 16.4286C8.67607 16.4286 8.84413 16.359 8.96803 16.2351C9.09194 16.1112 9.16155 15.9431 9.16155 15.7679V9.16073H15.7687C15.9439 9.16073 16.112 9.09112 16.2359 8.96721C16.3598 8.8433 16.4294 8.67525 16.4294 8.50001C16.4294 8.32478 16.3598 8.15673 16.2359 8.03282C16.112 7.90891 15.9439 7.8393 15.7687 7.8393Z" fill="#212121"/>
</svg>
