<svg width="18" height="18" viewBox="0 0 18 18" fill="none" xmlns="http://www.w3.org/2000/svg">
<g id="fi-rr-power" clip-path="url(#clip0_17867_20748)">
<path id="Vector" d="M11.2508 2.88565C11.2532 3.0348 11.2991 3.18001 11.3829 3.3034C11.4667 3.4268 11.5848 3.52299 11.7226 3.58016C12.9543 4.12209 13.9958 5.01978 14.7136 6.15798C15.4314 7.29618 15.7926 8.62293 15.7508 9.96791C15.7218 11.7581 14.9828 13.4635 13.6964 14.7088C12.41 15.9541 10.6816 16.6374 8.89134 16.6084C7.10113 16.5794 5.39578 15.8404 4.15044 14.5539C2.90511 13.2675 2.2218 11.5391 2.25084 9.74891C2.25257 8.44107 2.6342 7.16191 3.34933 6.06691C4.06446 4.97192 5.08229 4.10825 6.27909 3.5809C6.41693 3.5234 6.53499 3.42691 6.61879 3.30328C6.70259 3.17965 6.74848 3.03424 6.75084 2.8849C6.75103 2.76206 6.72105 2.64105 6.66352 2.53251C6.606 2.42397 6.52269 2.33122 6.42093 2.26241C6.31916 2.19361 6.20205 2.15085 6.0799 2.1379C5.95774 2.12496 5.83427 2.14221 5.72034 2.18815C3.9798 2.94276 2.55251 4.27416 1.67886 5.9581C0.805219 7.64204 0.538611 9.57561 0.923947 11.4331C1.30928 13.2907 2.32301 14.9587 3.79439 16.1561C5.26577 17.3536 7.10489 18.0074 9.00196 18.0074C10.899 18.0074 12.7382 17.3536 14.2095 16.1561C15.6809 14.9587 16.6946 13.2907 17.08 11.4331C17.4653 9.57561 17.1987 7.64204 16.3251 5.9581C15.4514 4.27416 14.0241 2.94276 12.2836 2.18815C12.1695 2.14171 12.0457 2.12409 11.9232 2.13684C11.8007 2.1496 11.6832 2.19234 11.5811 2.26129C11.479 2.33023 11.3954 2.42327 11.3379 2.53216C11.2803 2.64106 11.2504 2.76247 11.2508 2.88565Z" fill="#212121"/>
<path id="Vector_2" d="M9.75001 0.75C9.75001 0.335786 9.41422 0 9 0C8.58579 0 8.25 0.335786 8.25 0.75V5.25C8.25 5.66421 8.58579 6 9 6C9.41422 6 9.75001 5.66421 9.75001 5.25V0.75Z" fill="#212121"/>
</g>
<defs>
<clipPath id="clip0_17867_20748">
<rect width="18" height="18" fill="white"/>
</clipPath>
</defs>
</svg>
