<svg width="11" height="6" viewBox="0 0 11 6" fill="none" xmlns="http://www.w3.org/2000/svg">
<path d="M9.75029 5.97931C9.65707 5.97985 9.56466 5.96198 9.47836 5.92673C9.39206 5.89148 9.31356 5.83955 9.24738 5.7739L6.00321 2.52265C5.93736 2.45626 5.85902 2.40357 5.7727 2.36761C5.68639 2.33164 5.5938 2.31313 5.50029 2.31313C5.40679 2.31313 5.3142 2.33164 5.22789 2.36761C5.14157 2.40357 5.06323 2.45626 4.99738 2.52265L1.75321 5.7739C1.61983 5.90728 1.43892 5.98221 1.25029 5.98221C1.06166 5.98221 0.880759 5.90728 0.747377 5.7739C0.613996 5.64052 0.539063 5.45961 0.539062 5.27098C0.539062 5.17758 0.557459 5.0851 0.593202 4.99881C0.628945 4.91251 0.681333 4.83411 0.747377 4.76807L3.99863 1.52391C4.40234 1.13605 4.94046 0.919434 5.50029 0.919434C6.06013 0.919434 6.59825 1.13605 7.00196 1.52391L10.2532 4.76807C10.3196 4.83391 10.3723 4.91226 10.4083 4.99857C10.4442 5.08489 10.4627 5.17747 10.4627 5.27098C10.4627 5.36449 10.4442 5.45707 10.4083 5.54339C10.3723 5.62971 10.3196 5.70805 10.2532 5.7739C10.187 5.83955 10.1085 5.89148 10.0222 5.92673C9.93593 5.96198 9.84351 5.97985 9.75029 5.97931Z" fill="#212121"/>
</svg>
