<svg width="18" height="18" viewBox="0 0 18 18" fill="none" xmlns="http://www.w3.org/2000/svg">
<g id="fi-sr-life-ring" clip-path="url(#clip0_17400_8806)">
<path id="Vector" d="M5.24995 9.00009C5.2501 8.2653 5.46746 7.54695 5.8747 6.93534L2.1337 3.19434C0.756273 4.8152 0 6.873 0 9.00009C0 11.1272 0.756273 13.185 2.1337 14.8058L5.8747 11.0648C5.46746 10.4532 5.2501 9.73488 5.24995 9.00009V9.00009Z" fill="#212121"/>
<path id="Vector_2" d="M15.866 3.19434L12.125 6.93534C12.5324 7.54689 12.7497 8.26528 12.7497 9.00009C12.7497 9.73489 12.5324 10.4533 12.125 11.0648L15.866 14.8058C17.2434 13.185 17.9997 11.1272 17.9997 9.00009C17.9997 6.873 17.2434 4.8152 15.866 3.19434V3.19434Z" fill="#212121"/>
<path id="Vector_3" d="M8.99911 12.7498C8.26432 12.7496 7.54597 12.5322 6.93436 12.125L3.19336 15.866C4.81422 17.2434 6.87202 17.9997 8.99911 17.9997C11.1262 17.9997 13.184 17.2434 14.8049 15.866L11.0639 12.125C10.4522 12.5322 9.7339 12.7496 8.99911 12.7498Z" fill="#212121"/>
<path id="Vector_4" d="M8.99911 5.25044C9.7339 5.25059 10.4522 5.46795 11.0639 5.87519L14.8049 2.13419C13.184 0.756761 11.1262 0.000488281 8.99911 0.000488281C6.87202 0.000488281 4.81422 0.756761 3.19336 2.13419L6.93436 5.87519C7.54597 5.46795 8.26432 5.25059 8.99911 5.25044V5.25044Z" fill="#212121"/>
</g>
<defs>
<clipPath id="clip0_17400_8806">
<rect width="18" height="18" fill="white"/>
</clipPath>
</defs>
</svg>
