<svg width="13" height="13" viewBox="0 0 13 13" fill="none" xmlns="http://www.w3.org/2000/svg">
<g id="fi-sr-calendar">
<g id="icon">
<path d="M4 7.5C4 7.22386 4.22386 7 4.5 7C4.77614 7 5 7.22386 5 7.5C5 7.77614 4.77614 8 4.5 8C4.22386 8 4 7.77614 4 7.5Z" fill="#212121"/>
<path d="M4.5 9C4.22386 9 4 9.22386 4 9.5C4 9.77614 4.22386 10 4.5 10C4.77614 10 5 9.77614 5 9.5C5 9.22386 4.77614 9 4.5 9Z" fill="#212121"/>
<path d="M6 7.5C6 7.22386 6.22386 7 6.5 7C6.77614 7 7 7.22386 7 7.5C7 7.77614 6.77614 8 6.5 8C6.22386 8 6 7.77614 6 7.5Z" fill="#212121"/>
<path d="M6.5 9C6.22386 9 6 9.22386 6 9.5C6 9.77614 6.22386 10 6.5 10C6.77614 10 7 9.77614 7 9.5C7 9.22386 6.77614 9 6.5 9Z" fill="#212121"/>
<path d="M8 7.5C8 7.22386 8.22386 7 8.5 7C8.77614 7 9 7.22386 9 7.5C9 7.77614 8.77614 8 8.5 8C8.22386 8 8 7.77614 8 7.5Z" fill="#212121"/>
<path d="M8.5 9C8.22386 9 8 9.22386 8 9.5C8 9.77614 8.22386 10 8.5 10C8.77614 10 9 9.77614 9 9.5C9 9.22386 8.77614 9 8.5 9Z" fill="#212121"/>
<path fill-rule="evenodd" clip-rule="evenodd" d="M3.5 1.5C3.5 1.22386 3.72386 1 4 1C4.27614 1 4.5 1.22386 4.5 1.5V2H8.5V1.5C8.5 1.22386 8.72386 1 9 1C9.27614 1 9.5 1.22386 9.5 1.5V2H10C10.8284 2 11.5 2.67157 11.5 3.5V10.5C11.5 11.3284 10.8284 12 10 12H3C2.17157 12 1.5 11.3284 1.5 10.5V3.5C1.5 2.67157 2.17157 2 3 2H3.5V1.5ZM8.5 3V3.5C8.5 3.77614 8.72386 4 9 4C9.27614 4 9.5 3.77614 9.5 3.5V3H10C10.2761 3 10.5 3.22386 10.5 3.5V5H2.5V3.5C2.5 3.22386 2.72386 3 3 3H3.5V3.5C3.5 3.77614 3.72386 4 4 4C4.27614 4 4.5 3.77614 4.5 3.5V3H8.5ZM2.5 6V10.5C2.5 10.7761 2.72386 11 3 11H10C10.2761 11 10.5 10.7761 10.5 10.5V6H2.5Z" fill="#212121"/>
</g>
</g>
</svg>
