<svg width="12" height="12" viewBox="0 0 12 12" fill="none" xmlns="http://www.w3.org/2000/svg">
<g clip-path="url(#clip0_4990_20237)">
<path d="M11.2423 5.48765L5.99976 8.63365L0.757256 5.48765C0.643544 5.41943 0.507387 5.39916 0.378737 5.43133C0.250087 5.46349 0.139483 5.54544 0.0712556 5.65915C0.00302869 5.77286 -0.0172321 5.90902 0.0149304 6.03767C0.0470929 6.16632 0.129044 6.27693 0.242756 6.34515L5.74276 9.64515C5.82052 9.69187 5.90953 9.71656 6.00026 9.71656C6.09098 9.71656 6.17999 9.69187 6.25776 9.64515L11.7578 6.34515C11.8715 6.27693 11.9534 6.16632 11.9856 6.03767C12.0177 5.90902 11.9975 5.77286 11.9293 5.65915C11.861 5.54544 11.7504 5.46349 11.6218 5.43133C11.4931 5.39916 11.357 5.41943 11.2433 5.48765H11.2423Z" fill="#212121"/>
<path d="M11.2423 7.77141L5.99975 10.9169L0.757254 7.77141C0.70095 7.73762 0.638543 7.71526 0.573597 7.7056C0.50865 7.69593 0.442436 7.69915 0.378735 7.71508C0.315034 7.73101 0.255094 7.75932 0.202336 7.79841C0.149578 7.8375 0.105037 7.8866 0.0712542 7.94291C0.0374716 7.99921 0.0151098 8.06162 0.00544548 8.12656C-0.00421883 8.19151 -0.000996362 8.25773 0.0149289 8.32143C0.0470914 8.45008 0.129043 8.56068 0.242754 8.62891L5.74275 11.9289C5.82052 11.9756 5.90953 12.0003 6.00025 12.0003C6.09098 12.0003 6.17999 11.9756 6.25775 11.9289L11.7578 8.62891C11.8715 8.56068 11.9534 8.45008 11.9856 8.32143C12.0177 8.19278 11.9975 8.05662 11.9293 7.94291C11.861 7.82919 11.7504 7.74724 11.6218 7.71508C11.4931 7.68292 11.357 7.70318 11.2433 7.77141H11.2423Z" fill="#212121"/>
<path d="M5.99984 7.38673C5.73013 7.38658 5.46553 7.31313 5.23434 7.17423L0.242342 4.17873C0.168416 4.13427 0.107247 4.07145 0.0647822 3.99637C0.0223171 3.92128 0 3.83649 0 3.75023C0 3.66397 0.0223171 3.57917 0.0647822 3.50409C0.107247 3.429 0.168416 3.36618 0.242342 3.32173L5.23434 0.326226C5.46553 0.187341 5.73014 0.113968 5.99984 0.113968C6.26954 0.113968 6.53415 0.187341 6.76534 0.326226L11.7573 3.32173C11.8313 3.36618 11.8924 3.429 11.9349 3.50409C11.9774 3.57917 11.9997 3.66397 11.9997 3.75023C11.9997 3.83649 11.9774 3.92128 11.9349 3.99637C11.8924 4.07145 11.8313 4.13427 11.7573 4.17873L6.76534 7.17423C6.53415 7.31313 6.26955 7.38658 5.99984 7.38673V7.38673ZM1.47184 3.75023L5.74984 6.31673C5.8254 6.36192 5.9118 6.38579 5.99984 6.38579C6.08789 6.38579 6.17428 6.36192 6.24984 6.31673L10.5278 3.75023L6.24984 1.18373C6.17428 1.13853 6.08789 1.11466 5.99984 1.11466C5.9118 1.11466 5.8254 1.13853 5.74984 1.18373V1.18373L1.47184 3.75023Z" fill="#212121"/>
</g>
<defs>
<clipPath id="clip0_4990_20237">
<rect width="12" height="12" fill="white"/>
</clipPath>
</defs>
</svg>
