<svg width="15" height="15" viewBox="0 0 15 15" fill="none" xmlns="http://www.w3.org/2000/svg">
<g id="fi-sr-car" clip-path="url(#clip0_17374_20143)">
<path id="Vector" d="M0.201377 7.38989C0.219237 7.33262 0.227243 7.27288 0.247565 7.21622L1.90908 2.64243C2.12606 2.04895 2.51997 1.53637 3.03759 1.17392C3.55521 0.811479 4.1716 0.616638 4.8035 0.615723H9.9765C10.6085 0.616596 11.225 0.811492 11.7426 1.17406C12.2603 1.53664 12.6541 2.0494 12.8709 2.64305L14.5337 7.21622C14.554 7.27288 14.562 7.33262 14.5799 7.38989H0.201377ZM12.3167 8.62156V9.85322C12.3167 10.0166 12.2518 10.1732 12.1363 10.2887C12.0208 10.4042 11.8642 10.4691 11.7008 10.4691C11.5375 10.4691 11.3809 10.4042 11.2654 10.2887C11.1499 10.1732 11.085 10.0166 11.085 9.85322V8.62156H3.695V9.85322C3.695 10.0166 3.63012 10.1732 3.51463 10.2887C3.39914 10.4042 3.2425 10.4691 3.07917 10.4691C2.91584 10.4691 2.7592 10.4042 2.64371 10.2887C2.52822 10.1732 2.46333 10.0166 2.46333 9.85322V8.62156H0V9.85322C0.000787266 10.4517 0.175947 11.0369 0.504059 11.5374C0.832171 12.0379 1.29901 12.4319 1.8475 12.6713V13.5482C1.8475 13.8749 1.97726 14.1882 2.20825 14.4191C2.43923 14.6501 2.75251 14.7799 3.07917 14.7799C3.40583 14.7799 3.7191 14.6501 3.95009 14.4191C4.18107 14.1882 4.31083 13.8749 4.31083 13.5482V12.9324H10.4692V13.5482C10.4692 13.8749 10.5989 14.1882 10.8299 14.4191C11.0609 14.6501 11.3742 14.7799 11.7008 14.7799C12.0275 14.7799 12.3408 14.6501 12.5718 14.4191C12.8027 14.1882 12.9325 13.8749 12.9325 13.5482V12.6713C13.481 12.4319 13.9478 12.0379 14.2759 11.5374C14.6041 11.0369 14.7792 10.4517 14.78 9.85322V8.62156H12.3167Z" fill="#212121"/>
</g>
<defs>
<clipPath id="clip0_17374_20143">
<rect width="14.78" height="14.78" fill="white"/>
</clipPath>
</defs>
</svg>
