<svg width="19" height="18" viewBox="0 0 19 18" fill="none" xmlns="http://www.w3.org/2000/svg">
<path d="M16.2312 2.68043C15.9578 1.95923 15.4614 1.33633 14.809 0.895908C14.1566 0.455487 13.3797 0.218779 12.5833 0.217773H6.06369C5.26728 0.218779 4.49038 0.455487 3.83799 0.895908C3.1856 1.33633 2.68918 1.95923 2.41582 2.68043L0.320227 8.23805C0.114121 8.78541 0.0090479 9.36335 0.00976931 9.94566V10.694C0.0111542 11.2722 0.152139 11.8423 0.421564 12.3589C0.690989 12.8756 1.08146 13.3247 1.56206 13.6707C1.56206 13.6767 1.56206 13.6812 1.56206 13.6872V15.1838C1.56206 15.7791 1.80737 16.3501 2.24404 16.7711C2.68071 17.1921 3.27295 17.4287 3.89049 17.4287C4.50803 17.4287 5.10027 17.1921 5.53694 16.7711C5.97361 16.3501 6.21892 15.7791 6.21892 15.1838V14.4355H12.4281V15.1838C12.4281 15.7791 12.6734 16.3501 13.1101 16.7711C13.5467 17.1921 14.139 17.4287 14.7565 17.4287C15.374 17.4287 15.9663 17.1921 16.403 16.7711C16.8396 16.3501 17.0849 15.7791 17.0849 15.1838V13.6872C17.0849 13.6812 17.0849 13.6767 17.0849 13.6707C17.5655 13.3247 17.956 12.8756 18.2254 12.3589C18.4949 11.8423 18.6358 11.2722 18.6372 10.694V9.94566C18.638 9.36359 18.5329 8.78588 18.3268 8.23879L16.2312 2.68043ZM3.87652 3.19226C4.04062 2.75987 4.33828 2.38638 4.72935 2.12213C5.12043 1.85787 5.58613 1.71556 6.06369 1.71437H12.5833C13.0611 1.71525 13.5272 1.85742 13.9186 2.1217C14.3099 2.38597 14.6078 2.75963 14.772 3.19226L16.4702 7.70077H2.17599L3.87652 3.19226ZM4.66663 15.1838C4.66663 15.3822 4.58486 15.5726 4.43931 15.7129C4.29375 15.8532 4.09634 15.9321 3.89049 15.9321C3.68464 15.9321 3.48723 15.8532 3.34167 15.7129C3.19612 15.5726 3.11435 15.3822 3.11435 15.1838V14.3606C3.3698 14.4106 3.62982 14.4357 3.89049 14.4355H4.66663V15.1838ZM15.5326 15.1838C15.5326 15.3822 15.4509 15.5726 15.3053 15.7129C15.1598 15.8532 14.9624 15.9321 14.7565 15.9321C14.5507 15.9321 14.3532 15.8532 14.2077 15.7129C14.0621 15.5726 13.9804 15.3822 13.9804 15.1838V14.4355H14.7565C15.0172 14.4357 15.2772 14.4106 15.5326 14.3606V15.1838ZM17.0849 10.694C17.0849 11.2893 16.8396 11.8603 16.403 12.2813C15.9663 12.7023 15.374 12.9389 14.7565 12.9389H3.89049C3.27295 12.9389 2.68071 12.7023 2.24404 12.2813C1.80737 11.8603 1.56206 11.2893 1.56206 10.694V9.94566C1.56522 9.69369 1.59671 9.44279 1.65597 9.19736H3.11435V9.94566C3.11435 10.1441 3.19612 10.3345 3.34167 10.4748C3.48723 10.6151 3.68464 10.694 3.89049 10.694C4.09634 10.694 4.29375 10.6151 4.43931 10.4748C4.58486 10.3345 4.66663 10.1441 4.66663 9.94566V9.19736H13.9804V9.94566C13.9804 10.1441 14.0621 10.3345 14.2077 10.4748C14.3532 10.6151 14.5507 10.694 14.7565 10.694C14.9624 10.694 15.1598 10.6151 15.3053 10.4748C15.4509 10.3345 15.5326 10.1441 15.5326 9.94566V9.19736H16.991C17.0503 9.44279 17.0818 9.69369 17.0849 9.94566V10.694Z" fill="#49454F"/>
</svg>
