<svg width="13" height="12" viewBox="0 0 13 12" fill="none" xmlns="http://www.w3.org/2000/svg">
<g id="fi-rr-car" clip-path="url(#clip0_13230_2576)">
<path id="Vector" d="M10.95 2.1455C10.7739 1.66361 10.4541 1.2474 10.0338 0.953117C9.61355 0.658836 9.11306 0.500672 8.6 0.5H4.4C3.88694 0.500672 3.38646 0.658836 2.96618 0.953117C2.54591 1.2474 2.22611 1.66361 2.05 2.1455L0.700002 5.859C0.567227 6.22474 0.499538 6.61091 0.500002 7V7.5C0.500895 7.8864 0.591719 8.26728 0.765285 8.61251C0.938851 8.95773 1.19039 9.25781 1.5 9.489C1.5 9.493 1.5 9.496 1.5 9.5V10.5C1.5 10.8978 1.65804 11.2794 1.93934 11.5607C2.22065 11.842 2.60218 12 3 12C3.39783 12 3.77936 11.842 4.06066 11.5607C4.34197 11.2794 4.5 10.8978 4.5 10.5V10H8.5V10.5C8.5 10.8978 8.65804 11.2794 8.93934 11.5607C9.22065 11.842 9.60218 12 10 12C10.3978 12 10.7794 11.842 11.0607 11.5607C11.342 11.2794 11.5 10.8978 11.5 10.5V9.5C11.5 9.496 11.5 9.493 11.5 9.489C11.8096 9.25781 12.0612 8.95773 12.2347 8.61251C12.4083 8.26728 12.4991 7.8864 12.5 7.5V7C12.5005 6.61107 12.4328 6.22505 12.3 5.8595L10.95 2.1455ZM2.991 2.4875C3.09672 2.19858 3.28847 1.94902 3.54041 1.77245C3.79234 1.59588 4.09235 1.50079 4.4 1.5H8.6C8.90782 1.50059 9.20805 1.59558 9.46019 1.77217C9.71232 1.94875 9.90423 2.19842 10.01 2.4875L11.104 5.5H1.8955L2.991 2.4875ZM3.5 10.5C3.5 10.6326 3.44732 10.7598 3.35356 10.8536C3.25979 10.9473 3.13261 11 3 11C2.86739 11 2.74022 10.9473 2.64645 10.8536C2.55268 10.7598 2.5 10.6326 2.5 10.5V9.95C2.66457 9.98342 2.83208 10.0002 3 10H3.5V10.5ZM10.5 10.5C10.5 10.6326 10.4473 10.7598 10.3536 10.8536C10.2598 10.9473 10.1326 11 10 11C9.86739 11 9.74022 10.9473 9.64645 10.8536C9.55268 10.7598 9.5 10.6326 9.5 10.5V10H10C10.1679 10.0002 10.3354 9.98342 10.5 9.95V10.5ZM11.5 7.5C11.5 7.89782 11.342 8.27936 11.0607 8.56066C10.7794 8.84196 10.3978 9 10 9H3C2.60218 9 2.22065 8.84196 1.93934 8.56066C1.65804 8.27936 1.5 7.89782 1.5 7.5V7C1.50204 6.83164 1.52233 6.66399 1.5605 6.5H2.5V7C2.5 7.13261 2.55268 7.25979 2.64645 7.35355C2.74022 7.44732 2.86739 7.5 3 7.5C3.13261 7.5 3.25979 7.44732 3.35356 7.35355C3.44732 7.25979 3.5 7.13261 3.5 7V6.5H9.5V7C9.5 7.13261 9.55268 7.25979 9.64645 7.35355C9.74022 7.44732 9.86739 7.5 10 7.5C10.1326 7.5 10.2598 7.44732 10.3536 7.35355C10.4473 7.25979 10.5 7.13261 10.5 7V6.5H11.4395C11.4777 6.66399 11.498 6.83163 11.5 7V7.5Z" fill="#212121"/>
</g>
<defs>
<clipPath id="clip0_13230_2576">
<rect width="12" height="12" fill="white" transform="translate(0.5)"/>
</clipPath>
</defs>
</svg>
