<svg width="18" height="18" viewBox="0 0 18 18" fill="none" xmlns="http://www.w3.org/2000/svg">
<g id="Group">
<path id="Vector" d="M17.1231 6.87759L14.2139 3.96834C13.9159 3.68058 13.4412 3.68884 13.1534 3.98679C12.8727 4.27743 12.8727 4.73822 13.1534 5.02886L16.0627 7.93811C16.1491 8.02625 16.2246 8.12447 16.2877 8.23061C16.2764 8.23061 16.2674 8.2246 16.2562 8.2246L4.49315 8.24861C4.07894 8.24861 3.74316 8.58439 3.74316 8.9986C3.74316 9.41281 4.07894 9.74859 4.49315 9.74859L16.2517 9.72457C16.2726 9.72457 16.2899 9.71406 16.3102 9.71259C16.2436 9.83947 16.1593 9.95615 16.0597 10.0591L13.1504 12.9683C12.8525 13.2561 12.8442 13.7309 13.132 14.0288C13.4197 14.3268 13.8945 14.335 14.1924 14.0473C14.1987 14.0412 14.2049 14.0351 14.2109 14.0288L17.1202 11.1196C18.2913 9.94806 18.2913 8.04906 17.1202 6.87759H17.1231Z" fill="#212121"/>
<path id="Vector_2" d="M5.25096 16.5H3.75095C2.50832 16.5 1.50095 15.4926 1.50095 14.25V3.75001C1.50095 2.50738 2.50832 1.50001 3.75095 1.50001H5.25096C5.66518 1.50001 6.00095 1.16423 6.00095 0.750023C6.00095 0.335813 5.66521 0 5.25096 0H3.75095C1.68095 0.00249609 0.00347266 1.67998 0.000976562 3.75001V14.25C0.00347266 16.32 1.68095 17.9975 3.75099 18H5.251C5.66521 18 6.00099 17.6642 6.00099 17.25C6.00099 16.8358 5.66521 16.5 5.25096 16.5Z" fill="#212121"/>
</g>
</svg>
