<svg width="11" height="11" viewBox="0 0 11 11" fill="none" xmlns="http://www.w3.org/2000/svg">
<g id="fi-sr-check" clip-path="url(#clip0_17555_5794)">
<path id="Vector" d="M1.13064 6.95271L2.86647 8.68855C3.10088 8.92289 3.41876 9.05453 3.75022 9.05453C4.08167 9.05453 4.39956 8.92289 4.63397 8.68855L9.9948 3.32771C10.0707 3.24913 10.1127 3.14388 10.1117 3.03463C10.1108 2.92538 10.067 2.82087 9.98973 2.74362C9.91247 2.66637 9.80797 2.62255 9.69872 2.6216C9.58947 2.62065 9.48422 2.66265 9.40563 2.73855L4.0448 8.09938C3.96667 8.17749 3.8607 8.22137 3.75022 8.22137C3.63973 8.22137 3.53377 8.17749 3.45564 8.09938L1.7198 6.36355C1.64122 6.28765 1.53597 6.24565 1.42672 6.2466C1.31747 6.24755 1.21296 6.29137 1.13571 6.36862C1.05846 6.44587 1.01464 6.55038 1.01369 6.65963C1.01274 6.76888 1.05474 6.87413 1.13064 6.95271V6.95271Z" fill="#C7C7CC"/>
</g>
<defs>
<clipPath id="clip0_17555_5794">
<rect width="10" height="10" fill="white" transform="translate(0.5 0.5)"/>
</clipPath>
</defs>
</svg>
