<svg width="20" height="21" viewBox="0 0 20 21" fill="none" xmlns="http://www.w3.org/2000/svg">
<g id="fi-sr-envelope" clip-path="url(#clip0_16455_3143)">
<path id="Vector" d="M19.9617 5.48633L12.9467 12.5013C12.1645 13.2815 11.1048 13.7197 10 13.7197C8.89521 13.7197 7.83552 13.2815 7.05333 12.5013L0.0383333 5.48633C0.0266667 5.61799 0 5.73716 0 5.86799V15.868C0.00132321 16.9727 0.440735 18.0317 1.22185 18.8128C2.00296 19.5939 3.062 20.0333 4.16667 20.0347H15.8333C16.938 20.0333 17.997 19.5939 18.7782 18.8128C19.5593 18.0317 19.9987 16.9727 20 15.868V5.86799C20 5.73716 19.9733 5.61799 19.9617 5.48633Z" fill="#212121"/>
<path id="Vector_2" d="M11.7685 11.3228L19.3801 3.71034C19.0114 3.09894 18.4913 2.59287 17.8701 2.24095C17.2489 1.88902 16.5474 1.70312 15.8335 1.70117H4.16678C3.4528 1.70312 2.75137 1.88902 2.13014 2.24095C1.50891 2.59287 0.988849 3.09894 0.620117 3.71034L8.23179 11.3228C8.70143 11.7906 9.33727 12.0532 10.0001 12.0532C10.663 12.0532 11.2988 11.7906 11.7685 11.3228Z" fill="#212121"/>
</g>
<defs>
<clipPath id="clip0_16455_3143">
<rect width="20" height="20" fill="white" transform="translate(0 0.867188)"/>
</clipPath>
</defs>
</svg>
