<svg width="14" height="15" viewBox="0 0 14 15" fill="none" xmlns="http://www.w3.org/2000/svg">
<g id="fi-rr-angle-small-right">
<path id="Vector" d="M8.9831 6.26314L6.3056 3.58564C6.1963 3.477 6.04845 3.41602 5.89435 3.41602C5.74024 3.41602 5.59239 3.477 5.4831 3.58564C5.42842 3.63987 5.38502 3.70439 5.35541 3.77547C5.32579 3.84656 5.31055 3.9228 5.31055 3.99981C5.31055 4.07682 5.32579 4.15306 5.35541 4.22415C5.38502 4.29523 5.42842 4.35975 5.4831 4.41398L8.16643 7.08564C8.2211 7.13987 8.2645 7.20439 8.29412 7.27548C8.32373 7.34656 8.33898 7.4228 8.33898 7.49981C8.33898 7.57682 8.32373 7.65306 8.29412 7.72415C8.2645 7.79523 8.2211 7.85975 8.16643 7.91398L5.4831 10.5856C5.37325 10.6947 5.31124 10.843 5.31069 10.9977C5.31014 11.1525 5.37111 11.3012 5.48018 11.4111C5.58925 11.5209 5.73749 11.5829 5.89228 11.5835C6.04708 11.584 6.19575 11.523 6.3056 11.414L8.9831 8.73648C9.31081 8.40835 9.49489 7.96356 9.49489 7.49981C9.49489 7.03606 9.31081 6.59127 8.9831 6.26314Z" fill="#212121"/>
</g>
</svg>
