<svg width="14" height="15" viewBox="0 0 14 15" fill="none" xmlns="http://www.w3.org/2000/svg">
<g id="fi-sr-money" clip-path="url(#clip0_16970_21676)">
<path id="Vector" d="M11.0833 2.8335H2.91667C2.1434 2.83442 1.40208 3.14201 0.855295 3.68879C0.308514 4.23557 0.00092625 4.9769 0 5.75016L0 9.25016C0.00092625 10.0234 0.308514 10.7648 0.855295 11.3115C1.40208 11.8583 2.1434 12.1659 2.91667 12.1668H11.0833C11.8566 12.1659 12.5979 11.8583 13.1447 11.3115C13.6915 10.7648 13.9991 10.0234 14 9.25016V5.75016C13.9991 4.9769 13.6915 4.23557 13.1447 3.68879C12.5979 3.14201 11.8566 2.83442 11.0833 2.8335ZM2.33333 10.4168C2.21796 10.4168 2.10518 10.3826 2.00925 10.3185C1.91332 10.2544 1.83855 10.1633 1.7944 10.0567C1.75025 9.95014 1.7387 9.83285 1.76121 9.71969C1.78372 9.60654 1.83927 9.5026 1.92085 9.42102C2.00243 9.33944 2.10637 9.28388 2.21953 9.26137C2.33269 9.23886 2.44998 9.25041 2.55657 9.29457C2.66316 9.33872 2.75426 9.41348 2.81836 9.50941C2.88245 9.60534 2.91667 9.71812 2.91667 9.8335C2.91667 9.98821 2.85521 10.1366 2.74581 10.246C2.63642 10.3554 2.48804 10.4168 2.33333 10.4168ZM2.33333 5.75016C2.21796 5.75016 2.10518 5.71595 2.00925 5.65185C1.91332 5.58776 1.83855 5.49665 1.7944 5.39006C1.75025 5.28347 1.7387 5.16618 1.76121 5.05303C1.78372 4.93987 1.83927 4.83593 1.92085 4.75435C2.00243 4.67277 2.10637 4.61721 2.21953 4.5947C2.33269 4.5722 2.44998 4.58375 2.55657 4.6279C2.66316 4.67205 2.75426 4.74682 2.81836 4.84275C2.88245 4.93868 2.91667 5.05146 2.91667 5.16683C2.91667 5.32154 2.85521 5.46991 2.74581 5.57931C2.63642 5.6887 2.48804 5.75016 2.33333 5.75016ZM7 9.8335C6.53851 9.8335 6.08738 9.69665 5.70367 9.44026C5.31995 9.18387 5.02088 8.81945 4.84428 8.39309C4.66768 7.96673 4.62147 7.49757 4.7115 7.04495C4.80153 6.59233 5.02376 6.17657 5.35008 5.85025C5.67641 5.52392 6.09217 5.3017 6.54479 5.21166C6.99741 5.12163 7.46657 5.16784 7.89293 5.34444C8.31929 5.52105 8.68371 5.82012 8.94009 6.20383C9.19649 6.58755 9.33333 7.03867 9.33333 7.50016C9.33333 8.119 9.0875 8.71249 8.64992 9.15008C8.21233 9.58766 7.61884 9.8335 7 9.8335ZM11.6667 10.4168C11.5513 10.4168 11.4385 10.3826 11.3426 10.3185C11.2467 10.2544 11.1719 10.1633 11.1277 10.0567C11.0836 9.95014 11.072 9.83285 11.0945 9.71969C11.117 9.60654 11.1726 9.5026 11.2542 9.42102C11.3358 9.33944 11.4397 9.28388 11.5529 9.26137C11.666 9.23886 11.7833 9.25041 11.8899 9.29457C11.9965 9.33872 12.0876 9.41348 12.1517 9.50941C12.2158 9.60534 12.25 9.71812 12.25 9.8335C12.25 9.98821 12.1885 10.1366 12.0791 10.246C11.9697 10.3554 11.8214 10.4168 11.6667 10.4168ZM11.6667 5.75016C11.5513 5.75016 11.4385 5.71595 11.3426 5.65185C11.2467 5.58776 11.1719 5.49665 11.1277 5.39006C11.0836 5.28347 11.072 5.16618 11.0945 5.05303C11.117 4.93987 11.1726 4.83593 11.2542 4.75435C11.3358 4.67277 11.4397 4.61721 11.5529 4.5947C11.666 4.5722 11.7833 4.58375 11.8899 4.6279C11.9965 4.67205 12.0876 4.74682 12.1517 4.84275C12.2158 4.93868 12.25 5.05146 12.25 5.16683C12.25 5.32154 12.1885 5.46991 12.0791 5.57931C11.9697 5.6887 11.8214 5.75016 11.6667 5.75016ZM8.16667 7.50016C8.16667 7.73091 8.09824 7.95647 7.97005 8.14833C7.84185 8.34019 7.65964 8.48972 7.44646 8.57802C7.23328 8.66632 6.99871 8.68943 6.77239 8.64441C6.54608 8.5994 6.3382 8.48828 6.17504 8.32512C6.01188 8.16196 5.90077 7.95408 5.85575 7.72777C5.81073 7.50146 5.83384 7.26688 5.92214 7.0537C6.01044 6.84052 6.15998 6.65831 6.35183 6.53011C6.54369 6.40192 6.76925 6.3335 7 6.3335C7.30942 6.3335 7.60616 6.45641 7.82496 6.6752C8.04375 6.894 8.16667 7.19074 8.16667 7.50016Z" fill="#212121"/>
</g>
<defs>
<clipPath id="clip0_16970_21676">
<rect width="14" height="14" fill="white" transform="translate(0 0.5)"/>
</clipPath>
</defs>
</svg>
