<svg width="14" height="15" viewBox="0 0 14 15" fill="none" xmlns="http://www.w3.org/2000/svg">
<g id="fi-rr-money" clip-path="url(#clip0_17918_22530)">
<path id="Vector" d="M11.0833 12.1673H2.91667C2.1434 12.1664 1.40208 11.8588 0.855295 11.312C0.308514 10.7652 0.00092625 10.0239 0 9.25065L0 5.75065C0.00092625 4.97739 0.308514 4.23606 0.855295 3.68928C1.40208 3.1425 2.1434 2.83491 2.91667 2.83398H11.0833C11.8566 2.83491 12.5979 3.1425 13.1447 3.68928C13.6915 4.23606 13.9991 4.97739 14 5.75065V9.25065C13.9991 10.0239 13.6915 10.7652 13.1447 11.312C12.5979 11.8588 11.8566 12.1664 11.0833 12.1673ZM2.91667 4.00065C2.45254 4.00065 2.00742 4.18503 1.67923 4.51321C1.35104 4.8414 1.16667 5.28652 1.16667 5.75065V9.25065C1.16667 9.71478 1.35104 10.1599 1.67923 10.4881C2.00742 10.8163 2.45254 11.0007 2.91667 11.0007H11.0833C11.5475 11.0007 11.9926 10.8163 12.3208 10.4881C12.649 10.1599 12.8333 9.71478 12.8333 9.25065V5.75065C12.8333 5.28652 12.649 4.8414 12.3208 4.51321C11.9926 4.18503 11.5475 4.00065 11.0833 4.00065H2.91667ZM7 9.83398C6.53851 9.83398 6.08738 9.69714 5.70367 9.44075C5.31995 9.18436 5.02088 8.81994 4.84428 8.39358C4.66768 7.96722 4.62147 7.49806 4.7115 7.04544C4.80153 6.59282 5.02376 6.17706 5.35008 5.85073C5.67641 5.52441 6.09217 5.30218 6.54479 5.21215C6.99741 5.12212 7.46657 5.16833 7.89293 5.34493C8.31929 5.52154 8.68371 5.82061 8.94009 6.20432C9.19649 6.58804 9.33333 7.03916 9.33333 7.50065C9.33333 8.11949 9.0875 8.71298 8.64992 9.15057C8.21233 9.58815 7.61884 9.83398 7 9.83398ZM7 6.33398C6.76925 6.33398 6.54369 6.40241 6.35183 6.5306C6.15998 6.6588 6.01044 6.84101 5.92214 7.05419C5.83384 7.26737 5.81073 7.50195 5.85575 7.72826C5.90077 7.95457 6.01188 8.16245 6.17504 8.32561C6.3382 8.48877 6.54608 8.59988 6.77239 8.6449C6.99871 8.68992 7.23328 8.66681 7.44646 8.57851C7.65964 8.49021 7.84185 8.34067 7.97005 8.14882C8.09824 7.95696 8.16667 7.7314 8.16667 7.50065C8.16667 7.19123 8.04375 6.89449 7.82496 6.67569C7.60616 6.4569 7.30942 6.33398 7 6.33398ZM2.91667 5.16732C2.80129 5.16732 2.68851 5.20153 2.59258 5.26563C2.49666 5.32972 2.42189 5.42083 2.37774 5.52742C2.33359 5.63401 2.32203 5.7513 2.34454 5.86445C2.36705 5.97761 2.42261 6.08155 2.50419 6.16313C2.58577 6.24471 2.68971 6.30027 2.80286 6.32278C2.91602 6.34528 3.03331 6.33373 3.1399 6.28958C3.24649 6.24543 3.33759 6.17066 3.40169 6.07473C3.46579 5.97881 3.5 5.86602 3.5 5.75065C3.5 5.59594 3.43854 5.44757 3.32915 5.33817C3.21975 5.22878 3.07138 5.16732 2.91667 5.16732ZM10.5 5.75065C10.5 5.86602 10.5342 5.97881 10.5983 6.07473C10.6624 6.17066 10.7535 6.24543 10.8601 6.28958C10.9667 6.33373 11.084 6.34528 11.1971 6.32278C11.3103 6.30027 11.4142 6.24471 11.4958 6.16313C11.5774 6.08155 11.6329 5.97761 11.6555 5.86445C11.678 5.7513 11.6664 5.63401 11.6223 5.52742C11.5781 5.42083 11.5033 5.32972 11.4074 5.26563C11.3115 5.20153 11.1987 5.16732 11.0833 5.16732C10.9286 5.16732 10.7802 5.22878 10.6709 5.33817C10.5615 5.44757 10.5 5.59594 10.5 5.75065ZM2.91667 8.66732C2.80129 8.66732 2.68851 8.70153 2.59258 8.76563C2.49666 8.82972 2.42189 8.92083 2.37774 9.02742C2.33359 9.13401 2.32203 9.2513 2.34454 9.36445C2.36705 9.47761 2.42261 9.58155 2.50419 9.66313C2.58577 9.74471 2.68971 9.80027 2.80286 9.82278C2.91602 9.84528 3.03331 9.83373 3.1399 9.78958C3.24649 9.74543 3.33759 9.67066 3.40169 9.57473C3.46579 9.47881 3.5 9.36602 3.5 9.25065C3.5 9.09594 3.43854 8.94757 3.32915 8.83817C3.21975 8.72878 3.07138 8.66732 2.91667 8.66732ZM10.5 9.25065C10.5 9.36602 10.5342 9.47881 10.5983 9.57473C10.6624 9.67066 10.7535 9.74543 10.8601 9.78958C10.9667 9.83373 11.084 9.84528 11.1971 9.82278C11.3103 9.80027 11.4142 9.74471 11.4958 9.66313C11.5774 9.58155 11.6329 9.47761 11.6555 9.36445C11.678 9.2513 11.6664 9.13401 11.6223 9.02742C11.5781 8.92083 11.5033 8.82972 11.4074 8.76563C11.3115 8.70153 11.1987 8.66732 11.0833 8.66732C10.9286 8.66732 10.7802 8.72878 10.6709 8.83817C10.5615 8.94757 10.5 9.09594 10.5 9.25065Z" fill="#212121"/>
</g>
<defs>
<clipPath id="clip0_17918_22530">
<rect width="14" height="14" fill="white" transform="translate(0 0.5)"/>
</clipPath>
</defs>
</svg>
