<svg width="11" height="6" viewBox="0 0 11 6" fill="none" xmlns="http://www.w3.org/2000/svg">
<path d="M9.93392 0.995975C9.8725 0.934047 9.79942 0.884894 9.71891 0.85135C9.63839 0.817807 9.55203 0.800537 9.46481 0.800537C9.37759 0.800537 9.29123 0.817807 9.21072 0.85135C9.1302 0.884894 9.05713 0.934047 8.9957 0.995975L5.96963 4.02204C5.90821 4.08397 5.83513 4.13312 5.75462 4.16666C5.67411 4.20021 5.58775 4.21748 5.50052 4.21748C5.4133 4.21748 5.32694 4.20021 5.24643 4.16666C5.16591 4.13312 5.09284 4.08397 5.03142 4.02204L2.00535 0.995975C1.94392 0.934047 1.87085 0.884894 1.79033 0.85135C1.70982 0.817807 1.62346 0.800537 1.53624 0.800537C1.44902 0.800537 1.36266 0.817807 1.28214 0.85135C1.20163 0.884894 1.12855 0.934047 1.06713 0.995975C0.944072 1.11977 0.875 1.28723 0.875 1.46178C0.875 1.63633 0.944072 1.80379 1.06713 1.92758L4.09981 4.96025C4.47146 5.33144 4.97525 5.53994 5.50052 5.53994C6.02579 5.53994 6.52959 5.33144 6.90124 4.96025L9.93392 1.92758C10.057 1.80379 10.126 1.63633 10.126 1.46178C10.126 1.28723 10.057 1.11977 9.93392 0.995975V0.995975Z" fill="#212121"/>
</svg>
