<svg width="16" height="15" viewBox="0 0 16 15" fill="none" xmlns="http://www.w3.org/2000/svg">
<g clip-path="url(#clip0_12965_9720)">
<path d="M7.45093 1.61147L7.44644 11.2602C7.44644 11.426 7.51402 11.585 7.6343 11.7022C7.75459 11.8194 7.91773 11.8852 8.08784 11.8852C8.25794 11.8852 8.42108 11.8194 8.54137 11.7022C8.66165 11.585 8.72923 11.426 8.72923 11.2602L8.73372 1.6221L10.6015 3.44272C10.7217 3.55989 10.8848 3.62572 11.0549 3.62572C11.225 3.62572 11.3881 3.55989 11.5084 3.44272V3.44272C11.6286 3.32552 11.6962 3.16658 11.6962 3.00085C11.6962 2.83512 11.6286 2.67618 11.5084 2.55897L9.44887 0.5496C9.27018 0.375363 9.05801 0.237144 8.82447 0.142841C8.59094 0.0485381 8.34063 0 8.08784 0C7.83504 0 7.58473 0.0485381 7.3512 0.142841C7.11767 0.237144 6.90549 0.375363 6.7268 0.5496L4.66728 2.5571C4.54704 2.6743 4.47949 2.83325 4.47949 2.99897C4.47949 3.1647 4.54704 3.32364 4.66728 3.44085V3.44085C4.78756 3.55802 4.95067 3.62384 5.12075 3.62384C5.29082 3.62384 5.45394 3.55802 5.57421 3.44085L7.45093 1.61147Z" fill="#49454F"/>
<path d="M14.5013 10.625V13.125C14.5013 13.2908 14.4337 13.4497 14.3134 13.5669C14.1931 13.6841 14.03 13.75 13.8599 13.75H2.31481C2.1447 13.75 1.98156 13.6841 1.86127 13.5669C1.74099 13.4497 1.67341 13.2908 1.67341 13.125V10.625C1.67341 10.4592 1.60584 10.3003 1.48555 10.1831C1.36527 10.0658 1.20213 10 1.03202 10V10C0.86191 10 0.698769 10.0658 0.578485 10.1831C0.4582 10.3003 0.390625 10.4592 0.390625 10.625L0.390625 13.125C0.390625 13.6223 0.593351 14.0992 0.954204 14.4508C1.31506 14.8024 1.80448 15 2.31481 15H13.8599C14.3702 15 14.8596 14.8024 15.2205 14.4508C15.5813 14.0992 15.7841 13.6223 15.7841 13.125V10.625C15.7841 10.4592 15.7165 10.3003 15.5962 10.1831C15.4759 10.0658 15.3128 10 15.1427 10C14.9726 10 14.8094 10.0658 14.6891 10.1831C14.5689 10.3003 14.5013 10.4592 14.5013 10.625Z" fill="#49454F"/>
</g>
<defs>
<clipPath id="clip0_12965_9720">
<rect width="15.3934" height="15" fill="white" transform="translate(0.390625)"/>
</clipPath>
</defs>
</svg>
