<svg width="16" height="16" viewBox="0 0 16 16" fill="none" xmlns="http://www.w3.org/2000/svg">
<g id="fi-rr-edit" clip-path="url(#clip0_16219_18358)">
<path id="Vector" d="M12.2351 0.955856L4.47657 8.7144C4.18024 9.00913 3.94532 9.35971 3.7854 9.74585C3.62549 10.132 3.54375 10.546 3.54493 10.9639V11.8186C3.54493 11.9874 3.61198 12.1492 3.73132 12.2686C3.85066 12.3879 4.01252 12.4549 4.1813 12.4549H5.03593C5.45387 12.4561 5.8679 12.3744 6.25403 12.2145C6.64017 12.0546 6.99075 11.8196 7.28548 11.5233L15.044 3.76476C15.4159 3.39196 15.6248 2.88689 15.6248 2.36031C15.6248 1.83374 15.4159 1.32866 15.044 0.955856C14.6658 0.594333 14.1628 0.392578 13.6396 0.392578C13.1164 0.392578 12.6133 0.594333 12.2351 0.955856V0.955856ZM14.1442 2.86495L6.38566 10.6235C6.02683 10.9801 5.54185 11.1809 5.03593 11.1822H4.81766V10.9639C4.81899 10.458 5.01975 9.97305 5.37639 9.61422L13.1349 1.85567C13.2709 1.72583 13.4516 1.65337 13.6396 1.65337C13.8275 1.65337 14.0083 1.72583 14.1442 1.85567C14.2778 1.98964 14.3528 2.17111 14.3528 2.36031C14.3528 2.54951 14.2778 2.73098 14.1442 2.86495V2.86495Z" fill="#212121"/>
<path id="Vector_2" d="M14.9996 6.07719C14.8309 6.07719 14.669 6.14424 14.5497 6.26358C14.4303 6.38292 14.3633 6.54478 14.3633 6.71355V9.90874H11.8178C11.3115 9.90874 10.8259 10.1099 10.4679 10.4679C10.1099 10.8259 9.90874 11.3115 9.90874 11.8178V14.3633H3.5451C3.03878 14.3633 2.55319 14.1621 2.19517 13.8041C1.83714 13.4461 1.63601 12.9605 1.63601 12.4542V3.5451C1.63601 3.03878 1.83714 2.55319 2.19517 2.19517C2.55319 1.83714 3.03878 1.63601 3.5451 1.63601H9.2991C9.46788 1.63601 9.62974 1.56896 9.74908 1.44962C9.86842 1.33028 9.93546 1.16842 9.93546 0.999645C9.93546 0.830871 9.86842 0.669009 9.74908 0.549668C9.62974 0.430327 9.46788 0.363281 9.2991 0.363281H3.5451C2.70154 0.364292 1.89282 0.699843 1.29633 1.29633C0.699843 1.89282 0.364292 2.70154 0.363281 3.5451L0.363281 12.4542C0.364292 13.2978 0.699843 14.1065 1.29633 14.703C1.89282 15.2994 2.70154 15.635 3.5451 15.636H10.7634C11.1814 15.6372 11.5955 15.5555 11.9818 15.3956C12.368 15.2356 12.7187 15.0007 13.0136 14.7044L14.7037 13.0129C15.0001 12.7182 15.2351 12.3676 15.3951 11.9815C15.5552 11.5954 15.637 11.1813 15.636 10.7634V6.71355C15.636 6.54478 15.569 6.38292 15.4496 6.26358C15.3303 6.14424 15.1684 6.07719 14.9996 6.07719ZM12.1137 13.8046C11.8579 14.0597 11.5344 14.2364 11.1815 14.3136V11.8178C11.1815 11.6491 11.2485 11.4872 11.3679 11.3679C11.4872 11.2485 11.6491 11.1815 11.8178 11.1815H14.3156C14.2368 11.5337 14.0604 11.8566 13.8065 12.1131L12.1137 13.8046Z" fill="#212121"/>
</g>
<defs>
<clipPath id="clip0_16219_18358">
<rect width="15.2727" height="15.2727" fill="white" transform="translate(0.363281 0.363281)"/>
</clipPath>
</defs>
</svg>
