<svg width="11" height="11" viewBox="0 0 11 11" fill="none" xmlns="http://www.w3.org/2000/svg">
<g id="fi-rr-exclamation" clip-path="url(#clip0_17555_10131)">
<path id="Vector" d="M5.5 0.5C4.5111 0.5 3.5444 0.793245 2.72215 1.34265C1.89991 1.89206 1.25904 2.67295 0.880605 3.58658C0.502166 4.50021 0.40315 5.50555 0.596076 6.47545C0.789002 7.44536 1.26521 8.33627 1.96447 9.03553C2.66373 9.7348 3.55465 10.211 4.52455 10.4039C5.49446 10.5969 6.49979 10.4978 7.41342 10.1194C8.32705 9.74096 9.10794 9.1001 9.65735 8.27785C10.2068 7.45561 10.5 6.48891 10.5 5.5C10.4986 4.17436 9.97132 2.90342 9.03395 1.96605C8.09658 1.02868 6.82564 0.501434 5.5 0.5V0.5ZM5.5 9.66667C4.67591 9.66667 3.87033 9.4223 3.18513 8.96446C2.49992 8.50662 1.96587 7.85587 1.6505 7.09451C1.33514 6.33316 1.25263 5.49538 1.4134 4.68712C1.57417 3.87887 1.97101 3.13644 2.55372 2.55372C3.13644 1.971 3.87887 1.57417 4.68713 1.41339C5.49538 1.25262 6.33316 1.33514 7.09452 1.6505C7.85588 1.96587 8.50662 2.49992 8.96446 3.18512C9.4223 3.87033 9.66667 4.67591 9.66667 5.5C9.66546 6.6047 9.22608 7.6638 8.44494 8.44494C7.6638 9.22608 6.6047 9.66545 5.5 9.66667V9.66667Z" fill="#C7C7CC"/>
<path id="Vector_2" d="M5.50065 2.5835C5.39015 2.5835 5.28416 2.62739 5.20602 2.70554C5.12788 2.78368 5.08398 2.88966 5.08398 3.00016V6.3335C5.08398 6.444 5.12788 6.54998 5.20602 6.62812C5.28416 6.70626 5.39015 6.75016 5.50065 6.75016C5.61116 6.75016 5.71714 6.70626 5.79528 6.62812C5.87342 6.54998 5.91732 6.444 5.91732 6.3335V3.00016C5.91732 2.88966 5.87342 2.78368 5.79528 2.70554C5.71714 2.62739 5.61116 2.5835 5.50065 2.5835Z" fill="#C7C7CC"/>
<path id="Vector_3" d="M5.91732 8.00017C5.91732 7.77005 5.73077 7.5835 5.50065 7.5835C5.27053 7.5835 5.08398 7.77005 5.08398 8.00017C5.08398 8.23029 5.27053 8.41683 5.50065 8.41683C5.73077 8.41683 5.91732 8.23029 5.91732 8.00017Z" fill="#C7C7CC"/>
</g>
<defs>
<clipPath id="clip0_17555_10131">
<rect width="10" height="10" fill="white" transform="translate(0.5 0.5)"/>
</clipPath>
</defs>
</svg>
