<svg width="13" height="14" viewBox="0 0 13 14" fill="none" xmlns="http://www.w3.org/2000/svg">
<g id="fi-rr-eye" clip-path="url(#clip0_11646_26358)">
<path id="Vector" d="M12.6056 5.11628C11.7655 3.74482 9.85445 1.44385 6.50046 1.44385C3.14646 1.44385 1.23546 3.74482 0.39533 5.11628C0.135616 5.53733 -0.00195312 6.02258 -0.00195312 6.5176C-0.00195313 7.01263 0.135616 7.49788 0.39533 7.91893C1.23546 9.29039 3.14646 11.5914 6.50046 11.5914C9.85445 11.5914 11.7655 9.29039 12.6056 7.91893C12.8653 7.49788 13.0029 7.01263 13.0029 6.5176C13.0029 6.02258 12.8653 5.53733 12.6056 5.11628ZM11.682 7.35047C10.9605 8.52648 9.32741 10.5055 6.50046 10.5055C3.6735 10.5055 2.04037 8.52648 1.31887 7.35047C1.16457 7.1002 1.08284 6.81181 1.08284 6.5176C1.08284 6.2234 1.16457 5.93501 1.31887 5.68474C2.04037 4.50873 3.6735 2.52972 6.50046 2.52972C9.32741 2.52972 10.9605 4.50656 11.682 5.68474C11.8363 5.93501 11.9181 6.2234 11.9181 6.5176C11.9181 6.81181 11.8363 7.1002 11.682 7.35047Z" fill="#212121"/>
<path id="Vector_2" d="M6.49935 3.80273C5.96369 3.80273 5.44006 3.96195 4.99468 4.26024C4.5493 4.55854 4.20216 4.98251 3.99718 5.47856C3.79219 5.9746 3.73856 6.52044 3.84306 7.04704C3.94756 7.57363 4.2055 8.05735 4.58427 8.437C4.96304 8.81666 5.44562 9.07521 5.97098 9.17996C6.49635 9.2847 7.0409 9.23094 7.53578 9.02547C8.03067 8.82001 8.45365 8.47206 8.75125 8.02563C9.04884 7.5792 9.20768 7.05434 9.20768 6.51743C9.20682 5.79771 8.9212 5.10772 8.41348 4.5988C7.90576 4.08988 7.21738 3.8036 6.49935 3.80273ZM6.49935 8.14624C6.17796 8.14624 5.86378 8.05071 5.59655 7.87174C5.32932 7.69276 5.12104 7.43837 4.99805 7.14075C4.87505 6.84312 4.84287 6.51562 4.90557 6.19966C4.96827 5.8837 5.12304 5.59347 5.3503 5.36568C5.57756 5.13789 5.86711 4.98276 6.18233 4.91991C6.49755 4.85706 6.82428 4.88932 7.12121 5.0126C7.41814 5.13588 7.67193 5.34465 7.85049 5.6125C8.02904 5.88036 8.12435 6.19528 8.12435 6.51743C8.12435 6.94941 7.95315 7.36371 7.6484 7.66917C7.34365 7.97463 6.93033 8.14624 6.49935 8.14624Z" fill="#212121"/>
</g>
<defs>
<clipPath id="clip0_11646_26358">
<rect width="13" height="13.0305" fill="white" transform="translate(0 0.00244141)"/>
</clipPath>
</defs>
</svg>
