<svg width="18" height="18" viewBox="0 0 18 18" fill="none" xmlns="http://www.w3.org/2000/svg">
<path fill-rule="evenodd" clip-rule="evenodd" d="M10.4999 2.25C10.0857 2.25 9.74991 2.58579 9.74991 3C9.74991 3.41421 10.0857 3.75 10.4999 3.75H11.5566C11.9059 3.75 12.2089 3.99106 12.2874 4.33135L12.5234 5.35383L7.20296 5.945C6.93717 5.97453 6.66824 5.95644 6.40879 5.89158L2.49308 4.91264C1.22672 4.59605 0 5.55385 0 6.8592C0 7.80533 0.660925 8.62289 1.58604 8.82113L5.13787 9.58224C5.29715 9.61637 5.43915 9.70094 5.54441 9.82086L4.8325 10.3746C4.32565 9.98298 3.69002 9.75 2.99997 9.75C1.34313 9.75 0 11.0931 0 12.75C0 14.4069 1.34313 15.75 2.99997 15.75C4.65681 15.75 5.99995 14.4069 5.99995 12.75C5.99995 12.3265 5.9122 11.9235 5.75389 11.5582L6.24829 11.1737L6.78953 12.2562C7.17066 13.0184 7.94974 13.4999 8.80197 13.4999H9.19787C10.0501 13.4999 10.8292 13.0184 11.2103 12.2562L13.1985 8.27966L13.6158 10.0877C12.6556 10.5879 11.9999 11.5924 11.9999 12.75C11.9999 14.4069 13.343 15.75 14.9999 15.75C16.6567 15.75 17.9998 14.4069 17.9998 12.75C17.9998 11.1191 16.6985 9.79216 15.0775 9.75099L14.9042 9H15.3958C15.5122 9 15.627 9.02711 15.7312 9.07918L16.9144 9.67082C17.2849 9.85606 17.7354 9.70589 17.9207 9.33541C18.1059 8.96493 17.9557 8.51442 17.5852 8.32918L16.402 7.73754C16.0896 7.58133 15.7451 7.5 15.3958 7.5H14.558L14.385 6.75H14.9999C15.4141 6.75 15.7499 6.41421 15.7499 6C15.7499 5.58579 15.4141 5.25 14.9999 5.25H14.0388L13.749 3.99407C13.5134 2.97317 12.6043 2.25 11.5566 2.25H10.4999ZM13.9766 11.6514L14.2691 12.9186C14.3622 13.3223 14.7649 13.5739 15.1685 13.4808C15.5721 13.3877 15.8238 12.985 15.7306 12.5814L15.4381 11.3136C16.0535 11.5012 16.5012 12.0733 16.5012 12.75C16.5012 13.5792 15.829 14.2513 14.9999 14.2513C14.1707 14.2513 13.4985 13.5792 13.4985 12.75C13.4985 12.3162 13.6825 11.9254 13.9766 11.6514ZM2.99997 11.2487C3.20042 11.2487 3.39169 11.2879 3.56651 11.3592L2.53951 12.158C2.21255 12.4123 2.15365 12.8835 2.40795 13.2105C2.66225 13.5374 3.13346 13.5964 3.46041 13.342L4.4872 12.5434C4.49649 12.611 4.5013 12.6799 4.5013 12.75C4.5013 13.5792 3.82913 14.2513 2.99997 14.2513C2.17081 14.2513 1.49865 13.5792 1.49865 12.75C1.49865 11.9208 2.17081 11.2487 2.99997 11.2487ZM1.49999 6.8592C1.49999 6.52971 1.80963 6.28794 2.12928 6.36786L6.04499 7.34679C6.4774 7.4549 6.92562 7.48504 7.36861 7.43582L12.2125 6.8976L9.86868 11.5854C9.74164 11.8394 9.48194 11.9999 9.19787 11.9999H8.80197C8.51789 11.9999 8.2582 11.8394 8.13116 11.5854L6.99317 9.30936C6.6875 8.69801 6.1205 8.25875 5.45216 8.11554L1.90033 7.35442C1.66682 7.30439 1.49999 7.09802 1.49999 6.8592Z" fill="#212121"/>
</svg>
