<svg width="18" height="18" viewBox="0 0 18 18" fill="none" xmlns="http://www.w3.org/2000/svg">
<g clip-path="url(#clip0_19526_50086)">
<path d="M14.25 18H12.75C12.5511 18 12.3603 17.921 12.2197 17.7803C12.079 17.6397 12 17.4489 12 17.25C12 17.0511 12.079 16.8603 12.2197 16.7197C12.3603 16.579 12.5511 16.5 12.75 16.5H14.25C14.8467 16.5 15.419 16.2629 15.841 15.841C16.2629 15.419 16.5 14.8467 16.5 14.25V12.75C16.5 12.5511 16.579 12.3603 16.7197 12.2197C16.8603 12.079 17.0511 12 17.25 12C17.4489 12 17.6397 12.079 17.7803 12.2197C17.921 12.3603 18 12.5511 18 12.75V14.25C17.9988 15.2442 17.6033 16.1973 16.9003 16.9003C16.1973 17.6033 15.2442 17.9988 14.25 18V18Z" fill="#212121"/>
<path d="M0.75 6C0.551088 6 0.360322 5.92098 0.21967 5.78033C0.0790176 5.63968 0 5.44891 0 5.25V3.75C0.00119089 2.7558 0.396661 1.80267 1.09966 1.09966C1.80267 0.396661 2.7558 0.00119089 3.75 0L5.25 0C5.44891 0 5.63968 0.0790176 5.78033 0.21967C5.92098 0.360322 6 0.551088 6 0.75C6 0.948912 5.92098 1.13968 5.78033 1.28033C5.63968 1.42098 5.44891 1.5 5.25 1.5H3.75C3.15326 1.5 2.58097 1.73705 2.15901 2.15901C1.73705 2.58097 1.5 3.15326 1.5 3.75V5.25C1.5 5.44891 1.42098 5.63968 1.28033 5.78033C1.13968 5.92098 0.948912 6 0.75 6V6Z" fill="#212121"/>
<path d="M5.25 18H3.75C2.7558 17.9988 1.80267 17.6033 1.09966 16.9003C0.396661 16.1973 0.00119089 15.2442 0 14.25L0 12.75C0 12.5511 0.0790176 12.3603 0.21967 12.2197C0.360322 12.079 0.551088 12 0.75 12C0.948912 12 1.13968 12.079 1.28033 12.2197C1.42098 12.3603 1.5 12.5511 1.5 12.75V14.25C1.5 14.8467 1.73705 15.419 2.15901 15.841C2.58097 16.2629 3.15326 16.5 3.75 16.5H5.25C5.44891 16.5 5.63968 16.579 5.78033 16.7197C5.92098 16.8603 6 17.0511 6 17.25C6 17.4489 5.92098 17.6397 5.78033 17.7803C5.63968 17.921 5.44891 18 5.25 18Z" fill="#212121"/>
<path d="M17.25 6C17.0511 6 16.8603 5.92098 16.7197 5.78033C16.579 5.63968 16.5 5.44891 16.5 5.25V3.75C16.5 3.15326 16.2629 2.58097 15.841 2.15901C15.419 1.73705 14.8467 1.5 14.25 1.5H12.75C12.5511 1.5 12.3603 1.42098 12.2197 1.28033C12.079 1.13968 12 0.948912 12 0.75C12 0.551088 12.079 0.360322 12.2197 0.21967C12.3603 0.0790176 12.5511 0 12.75 0L14.25 0C15.2442 0.00119089 16.1973 0.396661 16.9003 1.09966C17.6033 1.80267 17.9988 2.7558 18 3.75V5.25C18 5.44891 17.921 5.63968 17.7803 5.78033C17.6397 5.92098 17.4489 6 17.25 6Z" fill="#212121"/>
</g>
<defs>
<clipPath id="clip0_19526_50086">
<rect width="18" height="18" fill="white"/>
</clipPath>
</defs>
</svg>
