<svg width="18" height="18" viewBox="0 0 18 18" fill="none" xmlns="http://www.w3.org/2000/svg">
<g clip-path="url(#clip0_19526_27075)">
<path d="M18 13.5V14.25C17.9988 15.2442 17.6033 16.1973 16.9003 16.9003C16.1973 17.6033 15.2442 17.9988 14.25 18H13.5C13.3011 18 13.1103 17.921 12.9697 17.7803C12.829 17.6397 12.75 17.4489 12.75 17.25C12.75 17.0511 12.829 16.8603 12.9697 16.7197C13.1103 16.579 13.3011 16.5 13.5 16.5H14.25C14.8467 16.5 15.419 16.2629 15.841 15.841C16.2629 15.419 16.5 14.8467 16.5 14.25V13.5C16.5 13.3011 16.579 13.1103 16.7197 12.9697C16.8603 12.829 17.0511 12.75 17.25 12.75C17.4489 12.75 17.6397 12.829 17.7803 12.9697C17.921 13.1103 18 13.3011 18 13.5ZM14.25 0H13.5C13.3011 0 13.1103 0.0790176 12.9697 0.21967C12.829 0.360322 12.75 0.551088 12.75 0.75C12.75 0.948912 12.829 1.13968 12.9697 1.28033C13.1103 1.42098 13.3011 1.5 13.5 1.5H14.25C14.8467 1.5 15.419 1.73705 15.841 2.15901C16.2629 2.58097 16.5 3.15326 16.5 3.75V4.5C16.5 4.69891 16.579 4.88968 16.7197 5.03033C16.8603 5.17098 17.0511 5.25 17.25 5.25C17.4489 5.25 17.6397 5.17098 17.7803 5.03033C17.921 4.88968 18 4.69891 18 4.5V3.75C17.9988 2.7558 17.6033 1.80267 16.9003 1.09966C16.1973 0.396661 15.2442 0.00119089 14.25 0V0ZM17.25 6.75C17.0511 6.75 16.8603 6.82902 16.7197 6.96967C16.579 7.11032 16.5 7.30109 16.5 7.5V10.5C16.5 10.6989 16.579 10.8897 16.7197 11.0303C16.8603 11.171 17.0511 11.25 17.25 11.25C17.4489 11.25 17.6397 11.171 17.7803 11.0303C17.921 10.8897 18 10.6989 18 10.5V7.5C18 7.30109 17.921 7.11032 17.7803 6.96967C17.6397 6.82902 17.4489 6.75 17.25 6.75ZM4.5 16.5H3.75C3.15326 16.5 2.58097 16.2629 2.15901 15.841C1.73705 15.419 1.5 14.8467 1.5 14.25V13.5C1.5 13.3011 1.42098 13.1103 1.28033 12.9697C1.13968 12.829 0.948912 12.75 0.75 12.75C0.551088 12.75 0.360322 12.829 0.21967 12.9697C0.0790176 13.1103 0 13.3011 0 13.5L0 14.25C0.00119089 15.2442 0.396661 16.1973 1.09966 16.9003C1.80267 17.6033 2.7558 17.9988 3.75 18H4.5C4.69891 18 4.88968 17.921 5.03033 17.7803C5.17098 17.6397 5.25 17.4489 5.25 17.25C5.25 17.0511 5.17098 16.8603 5.03033 16.7197C4.88968 16.579 4.69891 16.5 4.5 16.5ZM4.5 0H3.75C2.7558 0.00119089 1.80267 0.396661 1.09966 1.09966C0.396661 1.80267 0.00119089 2.7558 0 3.75L0 4.5C0 4.69891 0.0790176 4.88968 0.21967 5.03033C0.360322 5.17098 0.551088 5.25 0.75 5.25C0.948912 5.25 1.13968 5.17098 1.28033 5.03033C1.42098 4.88968 1.5 4.69891 1.5 4.5V3.75C1.5 3.15326 1.73705 2.58097 2.15901 2.15901C2.58097 1.73705 3.15326 1.5 3.75 1.5H4.5C4.69891 1.5 4.88968 1.42098 5.03033 1.28033C5.17098 1.13968 5.25 0.948912 5.25 0.75C5.25 0.551088 5.17098 0.360322 5.03033 0.21967C4.88968 0.0790176 4.69891 0 4.5 0V0ZM0.75 11.25C0.948912 11.25 1.13968 11.171 1.28033 11.0303C1.42098 10.8897 1.5 10.6989 1.5 10.5V7.5C1.5 7.30109 1.42098 7.11032 1.28033 6.96967C1.13968 6.82902 0.948912 6.75 0.75 6.75C0.551088 6.75 0.360322 6.82902 0.21967 6.96967C0.0790176 7.11032 0 7.30109 0 7.5L0 10.5C0 10.6989 0.0790176 10.8897 0.21967 11.0303C0.360322 11.171 0.551088 11.25 0.75 11.25ZM7.5 1.5H10.449C10.6479 1.5 10.8387 1.42098 10.9793 1.28033C11.12 1.13968 11.199 0.948912 11.199 0.75C11.199 0.551088 11.12 0.360322 10.9793 0.21967C10.8387 0.0790176 10.6479 0 10.449 0L7.5 0C7.30109 0 7.11032 0.0790176 6.96967 0.21967C6.82902 0.360322 6.75 0.551088 6.75 0.75C6.75 0.948912 6.82902 1.13968 6.96967 1.28033C7.11032 1.42098 7.30109 1.5 7.5 1.5ZM10.5 16.5H7.5C7.30109 16.5 7.11032 16.579 6.96967 16.7197C6.82902 16.8603 6.75 17.0511 6.75 17.25C6.75 17.4489 6.82902 17.6397 6.96967 17.7803C7.11032 17.921 7.30109 18 7.5 18H10.5C10.6989 18 10.8897 17.921 11.0303 17.7803C11.171 17.6397 11.25 17.4489 11.25 17.25C11.25 17.0511 11.171 16.8603 11.0303 16.7197C10.8897 16.579 10.6989 16.5 10.5 16.5Z" fill="#212121"/>
</g>
<defs>
<clipPath id="clip0_19526_27075">
<rect width="18" height="18" fill="white"/>
</clipPath>
</defs>
</svg>
