<svg width="18" height="18" viewBox="0 0 18 18" fill="none" xmlns="http://www.w3.org/2000/svg">
<g clip-path="url(#clip0_19526_46086)">
<path d="M5.25 0C5.05109 0 4.86032 0.0790176 4.71967 0.21967C4.57902 0.360322 4.5 0.551088 4.5 0.75V2.25C4.5 2.84674 4.26295 3.41903 3.84099 3.84099C3.41903 4.26295 2.84674 4.5 2.25 4.5H0.75C0.551088 4.5 0.360322 4.57902 0.21967 4.71967C0.0790176 4.86032 0 5.05109 0 5.25C0 5.44891 0.0790176 5.63968 0.21967 5.78033C0.360322 5.92098 0.551088 6 0.75 6H2.25C3.2442 5.99881 4.19733 5.60334 4.90034 4.90034C5.60334 4.19733 5.99881 3.2442 6 2.25V0.75C6 0.551088 5.92098 0.360322 5.78033 0.21967C5.63968 0.0790176 5.44891 0 5.25 0V0Z" fill="#212121"/>
<path d="M17.25 12H15.75C14.7558 12.0012 13.8027 12.3967 13.0997 13.0997C12.3967 13.8027 12.0012 14.7558 12 15.75V17.25C12 17.4489 12.079 17.6397 12.2197 17.7803C12.3603 17.921 12.5511 18 12.75 18C12.9489 18 13.1397 17.921 13.2803 17.7803C13.421 17.6397 13.5 17.4489 13.5 17.25V15.75C13.5 15.1533 13.737 14.581 14.159 14.159C14.581 13.737 15.1533 13.5 15.75 13.5H17.25C17.4489 13.5 17.6397 13.421 17.7803 13.2803C17.921 13.1397 18 12.9489 18 12.75C18 12.5511 17.921 12.3603 17.7803 12.2197C17.6397 12.079 17.4489 12 17.25 12Z" fill="#212121"/>
<path d="M15.75 6H17.25C17.4489 6 17.6397 5.92098 17.7803 5.78033C17.921 5.63968 18 5.44891 18 5.25C18 5.05109 17.921 4.86032 17.7803 4.71967C17.6397 4.57902 17.4489 4.5 17.25 4.5H15.75C15.1533 4.5 14.581 4.26295 14.159 3.84099C13.737 3.41903 13.5 2.84674 13.5 2.25V0.75C13.5 0.551088 13.421 0.360322 13.2803 0.21967C13.1397 0.0790176 12.9489 0 12.75 0C12.5511 0 12.3603 0.0790176 12.2197 0.21967C12.079 0.360322 12 0.551088 12 0.75V2.25C12.0012 3.2442 12.3967 4.19733 13.0997 4.90034C13.8027 5.60334 14.7558 5.99881 15.75 6Z" fill="#212121"/>
<path d="M2.25 12H0.75C0.551088 12 0.360322 12.079 0.21967 12.2197C0.0790176 12.3603 0 12.5511 0 12.75C0 12.9489 0.0790176 13.1397 0.21967 13.2803C0.360322 13.421 0.551088 13.5 0.75 13.5H2.25C2.84674 13.5 3.41903 13.737 3.84099 14.159C4.26295 14.581 4.5 15.1533 4.5 15.75V17.25C4.5 17.4489 4.57902 17.6397 4.71967 17.7803C4.86032 17.921 5.05109 18 5.25 18C5.44891 18 5.63968 17.921 5.78033 17.7803C5.92098 17.6397 6 17.4489 6 17.25V15.75C5.99881 14.7558 5.60334 13.8027 4.90034 13.0997C4.19733 12.3967 3.2442 12.0012 2.25 12Z" fill="#212121"/>
</g>
<defs>
<clipPath id="clip0_19526_46086">
<rect width="18" height="18" fill="white"/>
</clipPath>
</defs>
</svg>
