<svg width="16" height="16" viewBox="0 0 16 16" fill="none" xmlns="http://www.w3.org/2000/svg">
<g clip-path="url(#clip0_19650_44262)">
<path d="M9.28865 2.66667C9.83094 2.6672 10.3509 2.88286 10.7343 3.26632C11.1178 3.64978 11.3335 4.16971 11.334 4.712C11.334 4.88881 11.4042 5.05838 11.5292 5.1834C11.6543 5.30843 11.8238 5.37867 12.0007 5.37867C12.1775 5.37867 12.347 5.30843 12.4721 5.1834C12.5971 5.05838 12.6673 4.88881 12.6673 4.712V4.66667C12.6673 4.654 12.6673 4.64267 12.6673 4.63C12.6451 3.74849 12.2794 2.91052 11.6483 2.2947C11.0171 1.67889 10.1704 1.33392 9.28865 1.33333H8.66732V0.666667C8.66732 0.489856 8.59708 0.320286 8.47205 0.195262C8.34703 0.0702379 8.17746 0 8.00065 0C7.82384 0 7.65427 0.0702379 7.52925 0.195262C7.40422 0.320286 7.33398 0.489856 7.33398 0.666667V1.33333H6.71265C5.91086 1.33419 5.13551 1.62016 4.52518 2.14012C3.91485 2.66008 3.50932 3.38015 3.38109 4.17162C3.25285 4.96308 3.41026 5.77436 3.82518 6.46044C4.2401 7.14652 4.88549 7.66268 5.64598 7.91667L7.33398 8.48V13.3333H6.71265C6.17036 13.3328 5.65043 13.1171 5.26697 12.7337C4.88351 12.3502 4.66785 11.8303 4.66732 11.288C4.66732 11.1112 4.59708 10.9416 4.47206 10.8166C4.34703 10.6916 4.17746 10.6213 4.00065 10.6213C3.82384 10.6213 3.65427 10.6916 3.52925 10.8166C3.40422 10.9416 3.33398 11.1112 3.33398 11.288V11.3333C3.33398 11.346 3.33398 11.3573 3.33398 11.37C3.35623 12.2515 3.72189 13.0895 4.35303 13.7053C4.98416 14.3211 5.83086 14.6661 6.71265 14.6667H7.33398V15.3333C7.33398 15.5101 7.40422 15.6797 7.52925 15.8047C7.65427 15.9298 7.82384 16 8.00065 16C8.17746 16 8.34703 15.9298 8.47205 15.8047C8.59708 15.6797 8.66732 15.5101 8.66732 15.3333V14.6667H9.28865C10.0904 14.6658 10.8658 14.3798 11.4761 13.8599C12.0865 13.3399 12.492 12.6199 12.6202 11.8284C12.7485 11.0369 12.591 10.2256 12.1761 9.53956C11.7612 8.85348 11.1158 8.33732 10.3553 8.08333L8.66732 7.52V2.66667H9.28865ZM9.93532 9.34733C10.3963 9.50075 10.7876 9.81323 11.0391 10.2288C11.2907 10.6444 11.3861 11.136 11.3083 11.6155C11.2305 12.0951 10.9846 12.5313 10.6145 12.846C10.2445 13.1608 9.77446 13.3335 9.28865 13.3333H8.66732V8.92467L9.93532 9.34733ZM7.33398 7.07533L6.06732 6.65267C5.60648 6.49929 5.21526 6.18691 4.96367 5.77146C4.71209 5.356 4.61656 4.86457 4.69419 4.38512C4.77181 3.90566 5.01752 3.46948 5.38734 3.15463C5.75716 2.83978 6.22696 2.6668 6.71265 2.66667H7.33398V7.07533Z" fill="white"/>
</g>
<defs>
<clipPath id="clip0_19650_44262">
<rect width="16" height="16" fill="white"/>
</clipPath>
</defs>
</svg>
