<svg width="18" height="19" viewBox="0 0 18 19" fill="none" xmlns="http://www.w3.org/2000/svg">
<g clip-path="url(#clip0_19336_42906)">
<path d="M17.25 12.3574C17.1339 12.3574 17.0194 12.3305 16.9155 12.2787L15.4155 11.5287C15.2375 11.4398 15.1021 11.2838 15.039 11.095C14.976 10.9063 14.9906 10.7002 15.0795 10.5222C15.1684 10.3441 15.3244 10.2087 15.5132 10.1457C15.7019 10.0827 15.908 10.0973 16.086 10.1862L17.586 10.9362C17.7374 11.0116 17.8588 11.136 17.9306 11.2892C18.0024 11.4424 18.0203 11.6154 17.9813 11.78C17.9424 11.9446 17.849 12.0912 17.7162 12.1961C17.5835 12.3009 17.4192 12.3577 17.25 12.3574ZM16.0853 5.53242L17.5853 4.78242C17.7633 4.69351 17.8987 4.53752 17.9617 4.34876C18.0247 4.16 18.0102 3.95395 17.9213 3.77592C17.8323 3.5979 17.6763 3.46248 17.4876 3.39947C17.2988 3.33646 17.0928 3.35101 16.9148 3.43992L15.4148 4.18992C15.2367 4.27884 15.1013 4.43483 15.0383 4.62358C14.9753 4.81234 14.9898 5.0184 15.0788 5.19642C15.1677 5.37445 15.3237 5.50986 15.5124 5.57287C15.7012 5.63589 15.9072 5.62134 16.0853 5.53242ZM18 7.85742C18 7.65851 17.921 7.46774 17.7803 7.32709C17.6397 7.18644 17.4489 7.10742 17.25 7.10742H15.75C15.5511 7.10742 15.3603 7.18644 15.2197 7.32709C15.079 7.46774 15 7.65851 15 7.85742C15 8.05633 15.079 8.2471 15.2197 8.38775C15.3603 8.5284 15.5511 8.60742 15.75 8.60742H17.25C17.4489 8.60742 17.6397 8.5284 17.7803 8.38775C17.921 8.2471 18 8.05633 18 7.85742ZM13.5 14.6074V1.10742C13.5 0.908509 13.421 0.717744 13.2803 0.577092C13.1397 0.43644 12.9489 0.357422 12.75 0.357422C12.5511 0.357422 12.3603 0.43644 12.2197 0.577092C12.079 0.717744 12 0.908509 12 1.10742C12 3.31917 10.0628 4.10742 8.25 4.10742H3C2.20435 4.10742 1.44129 4.42349 0.87868 4.9861C0.316071 5.54871 0 6.31177 0 7.10742L0 8.60742C0 9.40307 0.316071 10.1661 0.87868 10.7287C1.44129 11.2914 2.20435 11.6074 3 11.6074H8.25C10.0628 11.6074 12 12.3957 12 14.6074C12 14.8063 12.079 14.9971 12.2197 15.1378C12.3603 15.2784 12.5511 15.3574 12.75 15.3574C12.9489 15.3574 13.1397 15.2784 13.2803 15.1378C13.421 14.9971 13.5 14.8063 13.5 14.6074ZM6.1395 13.1074H3C2.65081 13.106 2.30297 13.064 1.9635 12.9822L3.8385 17.1687C3.99597 17.5225 4.25264 17.8231 4.57743 18.0341C4.90222 18.2451 5.2812 18.3574 5.6685 18.3574C5.97664 18.357 6.27978 18.2795 6.55029 18.1319C6.8208 17.9844 7.05008 17.7715 7.21723 17.5126C7.38439 17.2537 7.4841 16.9572 7.50729 16.6499C7.53048 16.3426 7.47641 16.0344 7.35 15.7534L6.1395 13.1074Z" fill="#212121"/>
</g>
<defs>
<clipPath id="clip0_19336_42906">
<rect width="18" height="18" fill="white" transform="translate(0 0.357422)"/>
</clipPath>
</defs>
</svg>
