<svg width="18" height="18" viewBox="0 0 18 18" fill="none" xmlns="http://www.w3.org/2000/svg">
<path d="M15.3503 12.9744C15.3346 12.9519 14.1826 11.6132 14.1826 11.6132C14.6011 11.3048 14.8834 10.8458 14.9696 10.3331C15.0558 9.82037 14.9393 9.29424 14.6446 8.86593C14.6258 8.83893 13.2308 7.29768 13.2308 7.29768C13.5798 7.12171 13.8643 6.84008 14.0438 6.49293C14.1982 6.19557 14.2676 5.86137 14.2443 5.52711C14.2211 5.19286 14.106 4.8715 13.9118 4.59843C13.8961 4.57443 10.4146 0.633932 10.4146 0.633932C10.2319 0.442825 10.0125 0.290718 9.76943 0.186797C9.52638 0.0828755 9.26479 0.0292969 9.00045 0.0292969C8.73611 0.0292969 8.47452 0.0828755 8.23147 0.186797C7.98841 0.290718 7.76895 0.442825 7.58632 0.633932C7.58632 0.633932 4.10482 4.57443 4.08832 4.59693C3.85243 4.91474 3.733 5.30401 3.75007 5.69943C3.75186 5.97866 3.86408 6.24583 4.06223 6.44257C4.26038 6.63931 4.52834 6.74964 4.80757 6.74943H9.00007C9.19899 6.74943 9.38975 6.82845 9.5304 6.9691C9.67106 7.10975 9.75007 7.30052 9.75007 7.49943C9.75007 7.69834 9.67106 7.88911 9.5304 8.02976C9.38975 8.17041 9.19899 8.24943 9.00007 8.24943H3.90457C3.90457 8.24943 3.37432 8.83743 3.35557 8.86443C3.12831 9.21412 3.00503 9.62116 3.00007 10.0382C2.99527 10.172 3.01852 10.3054 3.06832 10.4297C3.17978 10.681 3.36376 10.8933 3.59667 11.0393C3.82958 11.1854 4.10081 11.2585 4.37557 11.2494H9.75007C9.94899 11.2494 10.1398 11.3285 10.2804 11.4691C10.4211 11.6098 10.5001 11.8005 10.5001 11.9994C10.5001 12.1983 10.4211 12.3891 10.2804 12.5298C10.1398 12.6704 9.94899 12.7494 9.75007 12.7494H2.83657C2.83657 12.7494 2.66557 12.9504 2.64982 12.9744C2.32753 13.4451 2.19482 14.0201 2.27826 14.5844C2.36169 15.1487 2.65511 15.6607 3.09982 16.0179C3.49331 16.3367 3.98624 16.5071 4.49257 16.4994H8.25007V17.2494C8.25007 17.4483 8.32909 17.6391 8.46974 17.7798C8.6104 17.9204 8.80116 17.9994 9.00007 17.9994C9.19899 17.9994 9.38975 17.9204 9.5304 17.7798C9.67106 17.6391 9.75007 17.4483 9.75007 17.2494V16.4994H13.5076C14.0154 16.5074 14.5097 16.3364 14.9041 16.0164C15.3476 15.6586 15.6399 15.1467 15.7227 14.5828C15.8054 14.0189 15.6724 13.4446 15.3503 12.9744Z" fill="#212121"/>
</svg>
