<svg width="28" height="28" viewBox="0 0 28 28" fill="none" xmlns="http://www.w3.org/2000/svg">
<path d="M22.1667 4.66797H5.83333C4.28681 4.66982 2.80415 5.285 1.71059 6.37856C0.617029 7.47212 0.0018525 8.95477 0 10.5013L0 17.5013C0.0018525 19.0478 0.617029 20.5305 1.71059 21.624C2.80415 22.7176 4.28681 23.3328 5.83333 23.3346H22.1667C23.7132 23.3328 25.1959 22.7176 26.2894 21.624C27.383 20.5305 27.9981 19.0478 28 17.5013V10.5013C27.9981 8.95477 27.383 7.47212 26.2894 6.37856C25.1959 5.285 23.7132 4.66982 22.1667 4.66797ZM4.66667 19.8346C4.43592 19.8346 4.21036 19.7662 4.0185 19.638C3.82664 19.5098 3.67711 19.3276 3.58881 19.1144C3.5005 18.9013 3.4774 18.6667 3.52242 18.4404C3.56743 18.2141 3.67855 18.0062 3.84171 17.843C4.00487 17.6798 4.21275 17.5687 4.43906 17.5237C4.66537 17.4787 4.89995 17.5018 5.11313 17.5901C5.32631 17.6784 5.50852 17.8279 5.63671 18.0198C5.76491 18.2117 5.83333 18.4372 5.83333 18.668C5.83333 18.9774 5.71042 19.2741 5.49162 19.4929C5.27283 19.7117 4.97609 19.8346 4.66667 19.8346ZM4.66667 10.5013C4.43592 10.5013 4.21036 10.4329 4.0185 10.3047C3.82664 10.1765 3.67711 9.99428 3.58881 9.7811C3.5005 9.56792 3.4774 9.33334 3.52242 9.10703C3.56743 8.88072 3.67855 8.67284 3.84171 8.50968C4.00487 8.34652 4.21275 8.2354 4.43906 8.19039C4.66537 8.14537 4.89995 8.16847 5.11313 8.25678C5.32631 8.34508 5.50852 8.49461 5.63671 8.68647C5.76491 8.87833 5.83333 9.10389 5.83333 9.33464C5.83333 9.64405 5.71042 9.9408 5.49162 10.1596C5.27283 10.3784 4.97609 10.5013 4.66667 10.5013ZM14 18.668C13.077 18.668 12.1748 18.3943 11.4073 17.8815C10.6399 17.3687 10.0418 16.6399 9.68856 15.7872C9.33535 14.9344 9.24294 13.9961 9.423 13.0909C9.60307 12.1856 10.0475 11.3541 10.7002 10.7015C11.3528 10.0488 12.1843 9.60437 13.0896 9.4243C13.9948 9.24424 14.9331 9.33665 15.7859 9.68986C16.6386 10.0431 17.3674 10.6412 17.8802 11.4086C18.393 12.1761 18.6667 13.0783 18.6667 14.0013C18.6667 15.239 18.175 16.426 17.2998 17.3011C16.4247 18.1763 15.2377 18.668 14 18.668ZM23.3333 19.8346C23.1026 19.8346 22.877 19.7662 22.6852 19.638C22.4933 19.5098 22.3438 19.3276 22.2555 19.1144C22.1672 18.9013 22.1441 18.6667 22.1891 18.4404C22.2341 18.2141 22.3452 18.0062 22.5084 17.843C22.6715 17.6798 22.8794 17.5687 23.1057 17.5237C23.332 17.4787 23.5666 17.5018 23.7798 17.5901C23.993 17.6784 24.1752 17.8279 24.3034 18.0198C24.4316 18.2117 24.5 18.4372 24.5 18.668C24.5 18.9774 24.3771 19.2741 24.1583 19.4929C23.9395 19.7117 23.6428 19.8346 23.3333 19.8346ZM23.3333 10.5013C23.1026 10.5013 22.877 10.4329 22.6852 10.3047C22.4933 10.1765 22.3438 9.99428 22.2555 9.7811C22.1672 9.56792 22.1441 9.33334 22.1891 9.10703C22.2341 8.88072 22.3452 8.67284 22.5084 8.50968C22.6715 8.34652 22.8794 8.2354 23.1057 8.19039C23.332 8.14537 23.5666 8.16847 23.7798 8.25678C23.993 8.34508 24.1752 8.49461 24.3034 8.68647C24.4316 8.87833 24.5 9.10389 24.5 9.33464C24.5 9.64405 24.3771 9.9408 24.1583 10.1596C23.9395 10.3784 23.6428 10.5013 23.3333 10.5013ZM16.3333 14.0013C16.3333 14.4628 16.1965 14.9139 15.9401 15.2976C15.6837 15.6813 15.3193 15.9804 14.8929 16.157C14.4666 16.3336 13.9974 16.3798 13.5448 16.2898C13.0922 16.1998 12.6764 15.9775 12.3501 15.6512C12.0238 15.3249 11.8015 14.9091 11.7115 14.4565C11.6215 14.0039 11.6677 13.5347 11.8443 13.1084C12.0209 12.682 12.32 12.3176 12.7037 12.0612C13.0874 11.8048 13.5385 11.668 14 11.668C14.6188 11.668 15.2123 11.9138 15.6499 12.3514C16.0875 12.789 16.3333 13.3825 16.3333 14.0013Z" fill="white"/>
</svg>
