<svg width="18" height="18" viewBox="0 0 18 18" fill="none" xmlns="http://www.w3.org/2000/svg">
<g clip-path="url(#clip0_24059_50224)">
<path d="M0.24525 9C0.267 8.93025 0.27675 8.8575 0.3015 8.7885L2.325 3.21825C2.58925 2.49547 3.06897 1.87122 3.69936 1.42981C4.32975 0.988404 5.08043 0.751115 5.85 0.75H12.15C12.9197 0.751064 13.6705 0.98842 14.3009 1.42998C14.9313 1.87155 15.411 2.49602 15.675 3.219L17.7 8.7885C17.7248 8.8575 17.7345 8.93025 17.7562 9H0.24525ZM15 10.5V12C15 12.1989 14.921 12.3897 14.7803 12.5303C14.6397 12.671 14.4489 12.75 14.25 12.75C14.0511 12.75 13.8603 12.671 13.7197 12.5303C13.579 12.3897 13.5 12.1989 13.5 12V10.5H4.5V12C4.5 12.1989 4.42098 12.3897 4.28033 12.5303C4.13968 12.671 3.94891 12.75 3.75 12.75C3.55109 12.75 3.36032 12.671 3.21967 12.5303C3.07902 12.3897 3 12.1989 3 12V10.5H0V12C0.000958782 12.7288 0.214279 13.4416 0.613874 14.0511C1.01347 14.6606 1.58202 15.1405 2.25 15.432V16.5C2.25 16.8978 2.40804 17.2794 2.68934 17.5607C2.97064 17.842 3.35218 18 3.75 18C4.14782 18 4.52936 17.842 4.81066 17.5607C5.09196 17.2794 5.25 16.8978 5.25 16.5V15.75H12.75V16.5C12.75 16.8978 12.908 17.2794 13.1893 17.5607C13.4706 17.842 13.8522 18 14.25 18C14.6478 18 15.0294 17.842 15.3107 17.5607C15.592 17.2794 15.75 16.8978 15.75 16.5V15.432C16.418 15.1405 16.9865 14.6606 17.3861 14.0511C17.7857 13.4416 17.999 12.7288 18 12V10.5H15Z" fill="#212121"/>
</g>
<defs>
<clipPath id="clip0_24059_50224">
<rect width="18" height="18" fill="white"/>
</clipPath>
</defs>
</svg>
