<svg width="16" height="16" viewBox="0 0 16 16" fill="none" xmlns="http://www.w3.org/2000/svg">
<g clip-path="url(#clip0_18027_27362)">
<path d="M8 9.99414C6.89544 9.99414 6 10.8896 6 11.9941V15.9941H10V11.9941C10 10.8896 9.10456 9.99414 8 9.99414Z" fill="#212121"/>
<path d="M11.3333 11.9939V15.9939H14C15.1046 15.9939 16 15.0985 16 13.9939V7.91329C16.0002 7.56694 15.8656 7.23413 15.6247 6.98529L9.95934 0.8606C8.95972 -0.220963 7.27259 -0.287369 6.19103 0.712256C6.13966 0.759756 6.09016 0.809225 6.04269 0.8606L0.387344 6.98329C0.139156 7.23316 -9.37027e-05 7.5711 4.73072e-08 7.92329V13.9939C4.73072e-08 15.0985 0.895437 15.9939 2 15.9939H4.66666V11.9939C4.67912 10.1761 6.14684 8.69157 7.91894 8.64882C9.75031 8.60463 11.3194 10.1144 11.3333 11.9939Z" fill="#212121"/>
<path d="M8 9.99414C6.89544 9.99414 6 10.8896 6 11.9941V15.9941H10V11.9941C10 10.8896 9.10456 9.99414 8 9.99414Z" fill="#212121"/>
</g>
<defs>
<clipPath id="clip0_18027_27362">
<rect width="16" height="16" fill="white"/>
</clipPath>
</defs>
</svg>
