<svg width="18" height="18" viewBox="0 0 18 18" fill="none" xmlns="http://www.w3.org/2000/svg">
<g clip-path="url(#clip0_19526_34354)">
<path d="M4.40107 11.6881C3.61007 10.9574 3.00673 10.047 2.64211 9.03379C2.27748 8.02059 2.1623 6.93447 2.30632 5.86733C2.44872 4.78528 2.85137 3.75389 3.47976 2.86157C4.10815 1.96924 4.94354 1.2426 5.91433 0.743909C6.88511 0.245222 7.96235 -0.0106335 9.05369 -0.00172838C10.145 0.00717675 11.218 0.280577 12.1805 0.79504C13.143 1.3095 13.9664 2.04968 14.5802 2.95214C15.1939 3.8546 15.5797 4.89242 15.7044 5.97666C15.8291 7.06089 15.6891 8.1592 15.2963 9.17744C14.9035 10.1957 14.2696 11.1035 13.4491 11.8231C12.9207 12.2774 12.5104 12.8531 12.2536 13.5008H9.75007V8.11283C10.1872 7.95827 10.566 7.67241 10.8345 7.29436C11.103 6.9163 11.2481 6.46453 11.2501 6.00083C11.2501 5.80192 11.1711 5.61115 11.0304 5.4705C10.8897 5.32985 10.699 5.25083 10.5001 5.25083C10.3012 5.25083 10.1104 5.32985 9.96974 5.4705C9.82909 5.61115 9.75007 5.80192 9.75007 6.00083C9.75007 6.19974 9.67105 6.39051 9.5304 6.53116C9.38975 6.67181 9.19898 6.75083 9.00007 6.75083C8.80116 6.75083 8.61039 6.67181 8.46974 6.53116C8.32909 6.39051 8.25007 6.19974 8.25007 6.00083C8.25007 5.80192 8.17105 5.61115 8.0304 5.4705C7.88975 5.32985 7.69898 5.25083 7.50007 5.25083C7.30116 5.25083 7.11039 5.32985 6.96974 5.4705C6.82909 5.61115 6.75007 5.80192 6.75007 6.00083C6.75199 6.46453 6.89713 6.9163 7.16563 7.29436C7.43414 7.67241 7.81289 7.95827 8.25007 8.11283V13.5008H5.67232C5.38559 12.8112 4.95173 12.1926 4.40107 11.6881ZM6.00007 15.0008V15.2333C6.00086 15.9671 6.29269 16.6705 6.81153 17.1894C7.33036 17.7082 8.03383 18 8.76757 18.0008H9.23257C9.96631 18 10.6698 17.7082 11.1886 17.1894C11.7074 16.6705 11.9993 15.9671 12.0001 15.2333V15.0008H6.00007Z" fill="#212121"/>
</g>
<defs>
<clipPath id="clip0_19526_34354">
<rect width="18" height="18" fill="white"/>
</clipPath>
</defs>
</svg>
