<svg width="18" height="19" viewBox="0 0 18 19" fill="none" xmlns="http://www.w3.org/2000/svg">
<g clip-path="url(#clip0_19336_42948)">
<path d="M9 0.232422C7.21997 0.232422 5.47991 0.760263 3.99987 1.7492C2.51983 2.73813 1.36628 4.14374 0.685088 5.78827C0.00389957 7.43281 -0.17433 9.24241 0.172937 10.9882C0.520204 12.7341 1.37737 14.3377 2.63604 15.5964C3.89472 16.8551 5.49836 17.7122 7.24419 18.0595C8.99002 18.4068 10.7996 18.2285 12.4442 17.5473C14.0887 16.8661 15.4943 15.7126 16.4832 14.2326C17.4722 12.7525 18 11.0125 18 9.23242C17.9974 6.84627 17.0484 4.55858 15.3611 2.87131C13.6738 1.18404 11.3862 0.235003 9 0.232422V0.232422ZM9 15.2324C8.85167 15.2324 8.70666 15.1884 8.58333 15.106C8.45999 15.0236 8.36386 14.9065 8.30709 14.7694C8.25033 14.6324 8.23548 14.4816 8.26442 14.3361C8.29335 14.1906 8.36479 14.057 8.46967 13.9521C8.57456 13.8472 8.7082 13.7758 8.85369 13.7468C8.99917 13.7179 9.14997 13.7327 9.28702 13.7895C9.42406 13.8463 9.54119 13.9424 9.62361 14.0657C9.70602 14.1891 9.75 14.3341 9.75 14.4824C9.75 14.6813 9.67099 14.8721 9.53033 15.0128C9.38968 15.1534 9.19892 15.2324 9 15.2324ZM10.4475 9.61192C10.2262 9.75031 10.0452 9.94453 9.92275 10.1751C9.8003 10.4056 9.74073 10.6643 9.75 10.9252V11.4824C9.75 11.6813 9.67099 11.8721 9.53033 12.0128C9.38968 12.1534 9.19892 12.2324 9 12.2324C8.80109 12.2324 8.61033 12.1534 8.46967 12.0128C8.32902 11.8721 8.25 11.6813 8.25 11.4824V10.9252C8.23892 10.396 8.36968 9.87348 8.6287 9.41189C8.88772 8.9503 9.26556 8.56645 9.723 8.30017C10.0001 8.14755 10.2219 7.91122 10.3566 7.62498C10.4913 7.33873 10.532 7.01722 10.473 6.70642C10.4146 6.41032 10.2692 6.13837 10.0554 5.92529C9.84169 5.71221 9.56928 5.56769 9.273 5.51017C9.0568 5.47015 8.83443 5.47816 8.62166 5.53362C8.40889 5.58908 8.21091 5.69064 8.04174 5.83111C7.87258 5.97158 7.73637 6.14752 7.64275 6.34648C7.54913 6.54543 7.5004 6.76254 7.5 6.98242C7.5 7.18133 7.42099 7.3721 7.28033 7.51275C7.13968 7.6534 6.94892 7.73242 6.75 7.73242C6.55109 7.73242 6.36033 7.6534 6.21967 7.51275C6.07902 7.3721 6 7.18133 6 6.98242C6.00019 6.4533 6.14032 5.93364 6.40617 5.47616C6.67202 5.01868 7.05414 4.63964 7.51377 4.37751C7.97339 4.11538 8.49417 3.97947 9.02327 3.98357C9.55238 3.98768 10.071 4.13165 10.5265 4.40088C10.982 4.67011 11.3582 5.05502 11.6169 5.51657C11.8756 5.97813 12.0077 6.4999 11.9997 7.02896C11.9916 7.55801 11.8438 8.07554 11.5712 8.52904C11.2986 8.98254 10.911 9.35587 10.4475 9.61117V9.61192Z" fill="#212121"/>
</g>
<defs>
<clipPath id="clip0_19336_42948">
<rect width="18" height="18" fill="white" transform="translate(0 0.232422)"/>
</clipPath>
</defs>
</svg>
