<svg width="18" height="19" viewBox="0 0 18 19" fill="none" xmlns="http://www.w3.org/2000/svg">
<g clip-path="url(#clip0_24064_52783)">
<path d="M17.25 9.23243H9.74999V1.73241C9.74999 1.3182 9.41421 0.982422 9 0.982422C8.58579 0.982422 8.25001 1.3182 8.25001 1.73241V9.2324H0.749988C0.335777 9.23243 0 9.56821 0 9.98242C0 10.3966 0.335777 10.7324 0.749988 10.7324H8.24998V18.2324C8.24998 18.6466 8.58575 18.9824 8.99996 18.9824C9.41417 18.9824 9.74995 18.6466 9.74995 18.2324V10.7324H17.2499C17.6642 10.7324 17.9999 10.3966 17.9999 9.98242C18 9.56821 17.6642 9.23243 17.25 9.23243Z" fill="#212121"/>
</g>
<defs>
<clipPath id="clip0_24064_52783">
<rect width="18" height="18" fill="white" transform="translate(0 0.982422)"/>
</clipPath>
</defs>
</svg>
