<svg width="18" height="19" viewBox="0 0 18 19" fill="none" xmlns="http://www.w3.org/2000/svg">
<g clip-path="url(#clip0_19336_42937)">
<path d="M12 2.91992C12 4.54217 9.885 6.55817 8.83125 7.40342C8.66636 7.53561 8.46134 7.60765 8.25 7.60765C8.03866 7.60765 7.83364 7.53561 7.66875 7.40342C6.615 6.55742 4.5 4.54217 4.5 2.91992C4.47635 2.39809 4.66034 1.88812 5.01172 1.5016C5.36311 1.11508 5.85328 0.883461 6.375 0.857422C6.89672 0.883461 7.38689 1.11508 7.73828 1.5016C8.08966 1.88812 8.27365 2.39809 8.25 2.91992C8.22635 2.39809 8.41034 1.88812 8.76172 1.5016C9.11311 1.11508 9.60328 0.883461 10.125 0.857422C10.6467 0.883461 11.1369 1.11508 11.4883 1.5016C11.8397 1.88812 12.0237 2.39809 12 2.91992ZM17.5035 10.1199L11.7285 16.4267C11.0254 17.1933 10.1705 17.8053 9.21813 18.2238C8.26576 18.6423 7.23675 18.8581 6.1965 18.8574H3C2.20435 18.8574 1.44129 18.5414 0.87868 17.9787C0.316071 17.4161 0 16.6531 0 15.8574V12.1074C0 11.3118 0.316071 10.5487 0.87868 9.9861C1.44129 9.42349 2.20435 9.10742 3 9.10742H8.84025C9.08817 9.1079 9.33284 9.16379 9.55638 9.27099C9.77992 9.3782 9.97667 9.53401 10.1322 9.72704C10.2878 9.92007 10.3983 10.1454 10.4555 10.3866C10.5128 10.6279 10.5155 10.8788 10.4633 11.1212C10.3821 11.4602 10.1992 11.7663 9.93912 11.9985C9.67907 12.2306 9.35427 12.3778 9.00825 12.4202L5.886 12.8574C5.68922 12.8857 5.51169 12.9909 5.39243 13.1499C5.27317 13.309 5.22194 13.5089 5.25 13.7057C5.27805 13.9026 5.38317 14.0803 5.54225 14.1997C5.70133 14.3191 5.90133 14.3705 6.09825 14.3424L9.28725 13.8924C10.0384 13.7818 10.725 13.4057 11.2226 12.8324C11.7203 12.259 11.9961 11.5264 12 10.7672C11.9963 10.6066 11.98 10.4466 11.9513 10.2887L14.6078 7.48592C14.9581 7.1066 15.4442 6.88131 15.9601 6.85925C16.476 6.83719 16.9796 7.02015 17.361 7.36817C17.7405 7.71596 17.9681 8.19895 17.9947 8.713C18.0214 9.22706 17.845 9.731 17.5035 10.1162V10.1199Z" fill="#212121"/>
</g>
<defs>
<clipPath id="clip0_19336_42937">
<rect width="18" height="18" fill="white" transform="translate(0 0.857422)"/>
</clipPath>
</defs>
</svg>
