<svg width="16" height="17" viewBox="0 0 16 17" fill="none" xmlns="http://www.w3.org/2000/svg">
<g clip-path="url(#clip0_19537_44492)">
<path d="M12.7475 12.7618L15.3602 10.1491C15.7844 9.70454 16.0212 9.11363 16.0212 8.49911C16.0212 7.88459 15.7844 7.29369 15.3602 6.84911L12.7475 4.23644C12.56 4.04885 12.3057 3.94342 12.0404 3.94336C11.7752 3.9433 11.5208 4.0486 11.3332 4.23611C11.1456 4.42362 11.0402 4.67797 11.0401 4.94321C11.0401 5.20845 11.1454 5.46285 11.3329 5.65045L13.1862 7.50445L1.01953 7.51978C0.754315 7.51978 0.499961 7.62514 0.312424 7.81267C0.124888 8.00021 0.0195313 8.25456 0.0195312 8.51978V8.51978C0.0195313 8.785 0.124888 9.03935 0.312424 9.22689C0.499961 9.41442 0.754315 9.51978 1.01953 9.51978L13.1735 9.50445L11.3329 11.3478C11.1507 11.5364 11.0499 11.789 11.0522 12.0512C11.0545 12.3134 11.1596 12.5642 11.345 12.7496C11.5305 12.935 11.7813 13.0402 12.0435 13.0425C12.3057 13.0447 12.5583 12.9439 12.7469 12.7618H12.7475Z" fill="white"/>
</g>
<defs>
<clipPath id="clip0_19537_44492">
<rect width="16" height="16" fill="white" transform="translate(0 0.5)"/>
</clipPath>
</defs>
</svg>
