<svg width="16" height="16" viewBox="0 0 16 16" fill="none" xmlns="http://www.w3.org/2000/svg">
<path d="M4.66671 9.33268C4.66671 8.96449 4.96518 8.66602 5.33337 8.66602C5.70156 8.66602 6.00004 8.96449 6.00004 9.33268C6.00004 9.70087 5.70156 9.99935 5.33337 9.99935C4.96518 9.99935 4.66671 9.70087 4.66671 9.33268Z" fill="#212121"/>
<path d="M5.33337 11.3327C4.96518 11.3327 4.66671 11.6312 4.66671 11.9993C4.66671 12.3675 4.96518 12.666 5.33337 12.666C5.70156 12.666 6.00004 12.3675 6.00004 11.9993C6.00004 11.6312 5.70156 11.3327 5.33337 11.3327Z" fill="#212121"/>
<path d="M7.33337 9.33268C7.33337 8.96449 7.63185 8.66602 8.00004 8.66602C8.36823 8.66602 8.66671 8.96449 8.66671 9.33268C8.66671 9.70087 8.36823 9.99935 8.00004 9.99935C7.63185 9.99935 7.33337 9.70087 7.33337 9.33268Z" fill="#212121"/>
<path d="M8.00004 11.3327C7.63185 11.3327 7.33337 11.6312 7.33337 11.9993C7.33337 12.3675 7.63185 12.666 8.00004 12.666C8.36823 12.666 8.66671 12.3675 8.66671 11.9993C8.66671 11.6312 8.36823 11.3327 8.00004 11.3327Z" fill="#212121"/>
<path d="M10 9.33268C10 8.96449 10.2985 8.66602 10.6667 8.66602C11.0349 8.66602 11.3334 8.96449 11.3334 9.33268C11.3334 9.70087 11.0349 9.99935 10.6667 9.99935C10.2985 9.99935 10 9.70087 10 9.33268Z" fill="#212121"/>
<path d="M10.6667 11.3327C10.2985 11.3327 10 11.6312 10 11.9993C10 12.3675 10.2985 12.666 10.6667 12.666C11.0349 12.666 11.3334 12.3675 11.3334 11.9993C11.3334 11.6312 11.0349 11.3327 10.6667 11.3327Z" fill="#212121"/>
<path fill-rule="evenodd" clip-rule="evenodd" d="M4.00004 1.33268C4.00004 0.964492 4.29852 0.666016 4.66671 0.666016C5.0349 0.666016 5.33337 0.964492 5.33337 1.33268V1.99935H10.6667V1.33268C10.6667 0.964492 10.9652 0.666016 11.3334 0.666016C11.7016 0.666016 12 0.964492 12 1.33268V1.99935H12.6667C13.7713 1.99935 14.6667 2.89478 14.6667 3.99935V13.3327C14.6667 14.4373 13.7713 15.3327 12.6667 15.3327H3.33337C2.2288 15.3327 1.33337 14.4373 1.33337 13.3327V3.99935C1.33337 2.89478 2.22881 1.99935 3.33337 1.99935H4.00004V1.33268ZM10.6667 3.33268V3.99935C10.6667 4.36754 10.9652 4.66602 11.3334 4.66602C11.7016 4.66602 12 4.36754 12 3.99935V3.33268H12.6667C13.0349 3.33268 13.3334 3.63116 13.3334 3.99935V5.99935H2.66671V3.99935C2.66671 3.63116 2.96518 3.33268 3.33337 3.33268H4.00004V3.99935C4.00004 4.36754 4.29852 4.66602 4.66671 4.66602C5.0349 4.66602 5.33337 4.36754 5.33337 3.99935V3.33268H10.6667ZM2.66671 7.33268V13.3327C2.66671 13.7009 2.96518 13.9993 3.33337 13.9993H12.6667C13.0349 13.9993 13.3334 13.7009 13.3334 13.3327V7.33268H2.66671Z" fill="#212121"/>
</svg>
