<svg width="18" height="19" viewBox="0 0 18 19" fill="none" xmlns="http://www.w3.org/2000/svg">
<g clip-path="url(#clip0_19336_42959)">
<path d="M17.1231 7.48501L14.2139 4.57576C13.9159 4.288 13.4412 4.29627 13.1534 4.59422C12.8727 4.88485 12.8727 5.34565 13.1534 5.63628L16.0627 8.54553C16.1491 8.63367 16.2246 8.7319 16.2877 8.83803C16.2764 8.83803 16.2674 8.83202 16.2562 8.83202L4.49315 8.85603C4.07894 8.85603 3.74316 9.19181 3.74316 9.60602C3.74316 10.0202 4.07894 10.356 4.49315 10.356L16.2517 10.332C16.2726 10.332 16.2899 10.3215 16.3102 10.32C16.2436 10.4469 16.1593 10.5636 16.0597 10.6665L13.1504 13.5758C12.8525 13.8635 12.8442 14.3383 13.132 14.6362C13.4197 14.9342 13.8945 14.9425 14.1924 14.6547C14.1987 14.6487 14.2049 14.6425 14.2109 14.6362L17.1202 11.727C18.2913 10.5555 18.2913 8.65649 17.1202 7.48501H17.1231Z" fill="#212121"/>
<path d="M5.25096 17.1074H3.75095C2.50832 17.1074 1.50095 16.1 1.50095 14.8574V4.35743C1.50095 3.1148 2.50832 2.10743 3.75095 2.10743H5.25096C5.66518 2.10743 6.00095 1.77166 6.00095 1.35745C6.00095 0.943234 5.66521 0.607422 5.25096 0.607422H3.75095C1.68095 0.609918 0.00347266 2.2874 0.000976562 4.35743V14.8574C0.00347266 16.9274 1.68095 18.605 3.75099 18.6074H5.251C5.66521 18.6074 6.00099 18.2716 6.00099 17.8574C6.00099 17.4432 5.66521 17.1074 5.25096 17.1074Z" fill="#212121"/>
</g>
<defs>
<clipPath id="clip0_19336_42959">
<rect width="18" height="18" fill="white" transform="translate(0 0.607422)"/>
</clipPath>
</defs>
</svg>
