<svg width="18" height="18" viewBox="0 0 18 18" fill="none" xmlns="http://www.w3.org/2000/svg">
<g clip-path="url(#clip0_19365_47729)">
<path d="M9.0004 0.03125C7.01585 0.0334333 5.11321 0.822706 3.70985 2.22592C2.30649 3.62914 1.51703 5.53171 1.51465 7.51625C1.51465 9.44375 3.00715 12.4602 5.9509 16.4818C6.30134 16.9618 6.76019 17.3524 7.2901 17.6217C7.82001 17.8909 8.406 18.0313 9.0004 18.0313C9.59479 18.0313 10.1808 17.8909 10.7107 17.6217C11.2406 17.3524 11.6995 16.9618 12.0499 16.4818C14.9936 12.4602 16.4862 9.44375 16.4862 7.51625C16.4838 5.53171 15.6943 3.62914 14.2909 2.22592C12.8876 0.822706 10.9849 0.0334333 9.0004 0.03125ZM9.0004 10.4998C8.40705 10.4998 7.82704 10.3238 7.33369 9.99416C6.84034 9.66451 6.45582 9.19598 6.22876 8.6478C6.0017 8.09962 5.94229 7.49642 6.05804 6.91448C6.1738 6.33254 6.45952 5.79799 6.87908 5.37843C7.29864 4.95887 7.83319 4.67315 8.41513 4.55739C8.99707 4.44164 9.60027 4.50105 10.1484 4.72811C10.6966 4.95517 11.1652 5.33969 11.4948 5.83304C11.8245 6.32639 12.0004 6.90641 12.0004 7.49975C12.0004 8.2954 11.6843 9.05846 11.1217 9.62107C10.5591 10.1837 9.79605 10.4998 9.0004 10.4998Z" fill="#212121"/>
</g>
<defs>
<clipPath id="clip0_19365_47729">
<rect width="18" height="18" fill="white"/>
</clipPath>
</defs>
</svg>
