<svg width="18" height="18" viewBox="0 0 18 18" fill="none" xmlns="http://www.w3.org/2000/svg">
<g clip-path="url(#clip0_19365_33350)">
<path d="M18 16.499C18 16.6979 17.921 16.8887 17.7803 17.0293C17.6397 17.17 17.4489 17.249 17.25 17.249H0.75C0.551088 17.249 0.360322 17.17 0.21967 17.0293C0.0790176 16.8887 0 16.6979 0 16.499C0 16.3001 0.0790176 16.1093 0.21967 15.9686C0.360322 15.828 0.551088 15.749 0.75 15.749H17.25C17.4489 15.749 17.6397 15.828 17.7803 15.9686C17.921 16.1093 18 16.3001 18 16.499ZM1.5 14.249H16.5C16.6989 14.249 16.8897 14.17 17.0303 14.0293C17.171 13.8887 17.25 13.6979 17.25 13.499V12.749C17.2473 10.692 16.4769 8.71005 15.0897 7.19119C13.7025 5.67234 11.7983 4.72592 9.75 4.53723V3.54123C10.036 3.37613 10.2595 3.12128 10.3858 2.81621C10.5122 2.51115 10.5344 2.17291 10.4489 1.85396C10.3634 1.53501 10.1751 1.25317 9.91314 1.05216C9.65118 0.851144 9.3302 0.742188 9 0.742188C8.6698 0.742188 8.34882 0.851144 8.08686 1.05216C7.82489 1.25317 7.63657 1.53501 7.55111 1.85396C7.46565 2.17291 7.48782 2.51115 7.61418 2.81621C7.74054 3.12128 7.96404 3.37613 8.25 3.54123V4.53723C6.20167 4.72592 4.29751 5.67234 2.9103 7.19119C1.5231 8.71005 0.752723 10.692 0.75 12.749V13.499C0.75 13.6979 0.829018 13.8887 0.96967 14.0293C1.11032 14.17 1.30109 14.249 1.5 14.249Z" fill="#212121"/>
</g>
<defs>
<clipPath id="clip0_19365_33350">
<rect width="18" height="18" fill="white"/>
</clipPath>
</defs>
</svg>
