<svg width="14" height="15" viewBox="0 0 14 15" fill="none" xmlns="http://www.w3.org/2000/svg">
<g clip-path="url(#clip0_19365_28511)">
<path d="M11.0833 2.83398H2.91667C2.1434 2.83491 1.40208 3.1425 0.855295 3.68928C0.308514 4.23606 0.00092625 4.97739 0 5.75065L0 9.25065C0.00092625 10.0239 0.308514 10.7652 0.855295 11.312C1.40208 11.8588 2.1434 12.1664 2.91667 12.1673H11.0833C11.8566 12.1664 12.5979 11.8588 13.1447 11.312C13.6915 10.7652 13.9991 10.0239 14 9.25065V5.75065C13.9991 4.97739 13.6915 4.23606 13.1447 3.68928C12.5979 3.1425 11.8566 2.83491 11.0833 2.83398ZM2.33333 10.4173C2.21796 10.4173 2.10518 10.3831 2.00925 10.319C1.91332 10.2549 1.83855 10.1638 1.7944 10.0572C1.75025 9.95063 1.7387 9.83334 1.76121 9.72018C1.78372 9.60703 1.83927 9.50309 1.92085 9.42151C2.00243 9.33992 2.10637 9.28437 2.21953 9.26186C2.33269 9.23935 2.44998 9.2509 2.55657 9.29505C2.66316 9.33921 2.75426 9.41397 2.81836 9.5099C2.88245 9.60583 2.91667 9.71861 2.91667 9.83398C2.91667 9.98869 2.85521 10.1371 2.74581 10.2465C2.63642 10.3559 2.48804 10.4173 2.33333 10.4173ZM2.33333 5.75065C2.21796 5.75065 2.10518 5.71644 2.00925 5.65234C1.91332 5.58824 1.83855 5.49714 1.7944 5.39055C1.75025 5.28396 1.7387 5.16667 1.76121 5.05351C1.78372 4.94036 1.83927 4.83642 1.92085 4.75484C2.00243 4.67326 2.10637 4.6177 2.21953 4.59519C2.33269 4.57268 2.44998 4.58424 2.55657 4.62839C2.66316 4.67254 2.75426 4.74731 2.81836 4.84324C2.88245 4.93916 2.91667 5.05195 2.91667 5.16732C2.91667 5.32203 2.85521 5.4704 2.74581 5.5798C2.63642 5.68919 2.48804 5.75065 2.33333 5.75065ZM7 9.83398C6.53851 9.83398 6.08738 9.69714 5.70367 9.44075C5.31995 9.18436 5.02088 8.81994 4.84428 8.39358C4.66768 7.96722 4.62147 7.49806 4.7115 7.04544C4.80153 6.59282 5.02376 6.17706 5.35008 5.85073C5.67641 5.52441 6.09217 5.30218 6.54479 5.21215C6.99741 5.12212 7.46657 5.16833 7.89293 5.34493C8.31929 5.52154 8.68371 5.82061 8.94009 6.20432C9.19649 6.58804 9.33333 7.03916 9.33333 7.50065C9.33333 8.11949 9.0875 8.71298 8.64992 9.15057C8.21233 9.58815 7.61884 9.83398 7 9.83398ZM11.6667 10.4173C11.5513 10.4173 11.4385 10.3831 11.3426 10.319C11.2467 10.2549 11.1719 10.1638 11.1277 10.0572C11.0836 9.95063 11.072 9.83334 11.0945 9.72018C11.117 9.60703 11.1726 9.50309 11.2542 9.42151C11.3358 9.33992 11.4397 9.28437 11.5529 9.26186C11.666 9.23935 11.7833 9.2509 11.8899 9.29505C11.9965 9.33921 12.0876 9.41397 12.1517 9.5099C12.2158 9.60583 12.25 9.71861 12.25 9.83398C12.25 9.98869 12.1885 10.1371 12.0791 10.2465C11.9697 10.3559 11.8214 10.4173 11.6667 10.4173ZM11.6667 5.75065C11.5513 5.75065 11.4385 5.71644 11.3426 5.65234C11.2467 5.58824 11.1719 5.49714 11.1277 5.39055C11.0836 5.28396 11.072 5.16667 11.0945 5.05351C11.117 4.94036 11.1726 4.83642 11.2542 4.75484C11.3358 4.67326 11.4397 4.6177 11.5529 4.59519C11.666 4.57268 11.7833 4.58424 11.8899 4.62839C11.9965 4.67254 12.0876 4.74731 12.1517 4.84324C12.2158 4.93916 12.25 5.05195 12.25 5.16732C12.25 5.32203 12.1885 5.4704 12.0791 5.5798C11.9697 5.68919 11.8214 5.75065 11.6667 5.75065ZM8.16667 7.50065C8.16667 7.7314 8.09824 7.95696 7.97005 8.14882C7.84185 8.34067 7.65964 8.49021 7.44646 8.57851C7.23328 8.66681 6.99871 8.68992 6.77239 8.6449C6.54608 8.59988 6.3382 8.48877 6.17504 8.32561C6.01188 8.16245 5.90077 7.95457 5.85575 7.72826C5.81073 7.50195 5.83384 7.26737 5.92214 7.05419C6.01044 6.84101 6.15998 6.6588 6.35183 6.5306C6.54369 6.40241 6.76925 6.33398 7 6.33398C7.30942 6.33398 7.60616 6.4569 7.82496 6.67569C8.04375 6.89449 8.16667 7.19123 8.16667 7.50065Z" fill="#212121"/>
</g>
<defs>
<clipPath id="clip0_19365_28511">
<rect width="14" height="14" fill="white" transform="translate(0 0.5)"/>
</clipPath>
</defs>
</svg>
