<svg width="15" height="15" viewBox="0 0 15 15" fill="none" xmlns="http://www.w3.org/2000/svg">
<g clip-path="url(#clip0_19365_28540)">
<path d="M7.57227 0.5C6.1878 0.5 4.83442 0.910543 3.68328 1.67971C2.53213 2.44888 1.63493 3.54213 1.10511 4.82122C0.575299 6.1003 0.436675 7.50777 0.706772 8.86563C0.976868 10.2235 1.64355 11.4708 2.62252 12.4497C3.60149 13.4287 4.84877 14.0954 6.20664 14.3655C7.5645 14.6356 8.97197 14.497 10.2511 13.9672C11.5301 13.4373 12.6234 12.5401 13.3926 11.389C14.1617 10.2378 14.5723 8.88447 14.5723 7.5C14.5703 5.6441 13.8321 3.86479 12.5198 2.55247C11.2075 1.24015 9.42817 0.502007 7.57227 0.5V0.5ZM7.57227 13.3333C6.41854 13.3333 5.29073 12.9912 4.33144 12.3502C3.37216 11.7093 2.62448 10.7982 2.18297 9.73232C1.74146 8.66642 1.62594 7.49353 1.85102 6.36197C2.0761 5.23042 2.63167 4.19102 3.44748 3.37521C4.26329 2.5594 5.30269 2.00383 6.43424 1.77875C7.5658 1.55367 8.73869 1.66919 9.80459 2.1107C10.8705 2.55221 11.7815 3.29989 12.4225 4.25917C13.0635 5.21846 13.4056 6.34628 13.4056 7.5C13.4039 9.04658 12.7888 10.5293 11.6952 11.6229C10.6016 12.7165 9.11884 13.3316 7.57227 13.3333Z" fill="#212121"/>
<path d="M7.57073 4C7.41602 4 7.26765 4.06146 7.15825 4.17085C7.04885 4.28025 6.9874 4.42862 6.9874 4.58333V7.10625L5.02098 8.33824C4.88948 8.42039 4.79599 8.55142 4.7611 8.7025C4.7262 8.85357 4.75274 9.01232 4.8349 9.14383C4.91705 9.27533 5.04807 9.36881 5.19915 9.40371C5.35022 9.43861 5.50898 9.41206 5.64048 9.32991L7.88048 7.92991C7.96511 7.87688 8.03471 7.80302 8.08262 7.71538C8.13052 7.62775 8.15512 7.52928 8.15406 7.42941V4.58333C8.15406 4.42862 8.0926 4.28025 7.98321 4.17085C7.87381 4.06146 7.72544 4 7.57073 4Z" fill="#212121"/>
</g>
<defs>
<clipPath id="clip0_19365_28540">
<rect width="14" height="14" fill="white" transform="translate(0.572266 0.5)"/>
</clipPath>
</defs>
</svg>
