<svg width="14" height="15" viewBox="0 0 14 15" fill="none" xmlns="http://www.w3.org/2000/svg">
<g clip-path="url(#clip0_19365_46349)">
<path d="M0 11.584C0.00092625 12.3572 0.308514 13.0986 0.855295 13.6454C1.40208 14.1921 2.1434 14.4997 2.91667 14.5007H11.0833C11.8566 14.4997 12.5979 14.1921 13.1447 13.6454C13.6915 13.0986 13.9991 12.3572 14 11.584V6.33398H0V11.584ZM9.91667 8.95898C10.0897 8.95898 10.2589 9.0103 10.4028 9.10645C10.5467 9.20259 10.6588 9.33925 10.7251 9.49914C10.7913 9.65902 10.8086 9.83495 10.7749 10.0047C10.7411 10.1744 10.6578 10.3303 10.5354 10.4527C10.413 10.5751 10.2571 10.6584 10.0874 10.6922C9.91764 10.7259 9.7417 10.7086 9.58182 10.6424C9.42193 10.5762 9.28528 10.464 9.18913 10.3201C9.09298 10.1762 9.04167 10.007 9.04167 9.83398C9.04167 9.60192 9.13385 9.37936 9.29795 9.21527C9.46204 9.05117 9.6846 8.95898 9.91667 8.95898ZM7 8.95898C7.17306 8.95898 7.34223 9.0103 7.48612 9.10645C7.63002 9.20259 7.74217 9.33925 7.80839 9.49914C7.87462 9.65902 7.89195 9.83495 7.85819 10.0047C7.82442 10.1744 7.74109 10.3303 7.61872 10.4527C7.49635 10.5751 7.34044 10.6584 7.1707 10.6922C7.00097 10.7259 6.82504 10.7086 6.66515 10.6424C6.50527 10.5762 6.36861 10.464 6.27246 10.3201C6.17632 10.1762 6.125 10.007 6.125 9.83398C6.125 9.60192 6.21719 9.37936 6.38128 9.21527C6.54538 9.05117 6.76794 8.95898 7 8.95898ZM4.08333 8.95898C4.25639 8.95898 4.42556 9.0103 4.56946 9.10645C4.71335 9.20259 4.8255 9.33925 4.89173 9.49914C4.95795 9.65902 4.97528 9.83495 4.94152 10.0047C4.90776 10.1744 4.82442 10.3303 4.70205 10.4527C4.57968 10.5751 4.42377 10.6584 4.25404 10.6922C4.0843 10.7259 3.90837 10.7086 3.74849 10.6424C3.5886 10.5762 3.45194 10.464 3.3558 10.3201C3.25965 10.1762 3.20833 10.007 3.20833 9.83398C3.20833 9.60192 3.30052 9.37936 3.46461 9.21527C3.62871 9.05117 3.85127 8.95898 4.08333 8.95898Z" fill="#212121"/>
<path d="M11.0833 1.66667H10.5V1.08333C10.5 0.928624 10.4385 0.780251 10.3291 0.670854C10.2197 0.561458 10.0714 0.5 9.91667 0.5C9.76196 0.5 9.61358 0.561458 9.50419 0.670854C9.39479 0.780251 9.33333 0.928624 9.33333 1.08333V1.66667H4.66667V1.08333C4.66667 0.928624 4.60521 0.780251 4.49581 0.670854C4.38642 0.561458 4.23804 0.5 4.08333 0.5C3.92862 0.5 3.78025 0.561458 3.67085 0.670854C3.56146 0.780251 3.5 0.928624 3.5 1.08333V1.66667H2.91667C2.1434 1.66759 1.40208 1.97518 0.855295 2.52196C0.308514 3.06874 0.00092625 3.81007 0 4.58333L0 5.16667H14V4.58333C13.9991 3.81007 13.6915 3.06874 13.1447 2.52196C12.5979 1.97518 11.8566 1.66759 11.0833 1.66667Z" fill="#212121"/>
</g>
<defs>
<clipPath id="clip0_19365_46349">
<rect width="14" height="14" fill="white" transform="translate(0 0.5)"/>
</clipPath>
</defs>
</svg>
