<svg width="23" height="22" viewBox="0 0 23 22" fill="none" xmlns="http://www.w3.org/2000/svg">
<g id="fi-rr-money" clip-path="url(#clip0_17966_44065)">
<path id="Vector" d="M17.9167 18.3327H5.08333C3.8682 18.3312 2.70326 17.8479 1.84403 16.9886C0.984808 16.1294 0.501456 14.9645 0.5 13.7493L0.5 8.24935C0.501456 7.03422 0.984808 5.86928 1.84403 5.01005C2.70326 4.15082 3.8682 3.66747 5.08333 3.66602H17.9167C19.1318 3.66747 20.2967 4.15082 21.156 5.01005C22.0152 5.86928 22.4985 7.03422 22.5 8.24935V13.7493C22.4985 14.9645 22.0152 16.1294 21.156 16.9886C20.2967 17.8479 19.1318 18.3312 17.9167 18.3327ZM5.08333 5.49935C4.35399 5.49935 3.65451 5.78908 3.13879 6.30481C2.62306 6.82053 2.33333 7.52 2.33333 8.24935V13.7493C2.33333 14.4787 2.62306 15.1782 3.13879 15.6939C3.65451 16.2096 4.35399 16.4993 5.08333 16.4993H17.9167C18.646 16.4993 19.3455 16.2096 19.8612 15.6939C20.3769 15.1782 20.6667 14.4787 20.6667 13.7493V8.24935C20.6667 7.52 20.3769 6.82053 19.8612 6.30481C19.3455 5.78908 18.646 5.49935 17.9167 5.49935H5.08333ZM11.5 14.666C10.7748 14.666 10.0659 14.451 9.46291 14.0481C8.85993 13.6452 8.38996 13.0725 8.11244 12.4025C7.83492 11.7325 7.76231 10.9953 7.90379 10.284C8.04527 9.57275 8.39448 8.91942 8.90728 8.40662C9.42007 7.89383 10.0734 7.54461 10.7847 7.40314C11.4959 7.26166 12.2332 7.33427 12.9032 7.61179C13.5732 7.88931 14.1458 8.35928 14.5487 8.96226C14.9516 9.56524 15.1667 10.2742 15.1667 10.9993C15.1667 11.9718 14.7804 12.9044 14.0927 13.5921C13.4051 14.2797 12.4725 14.666 11.5 14.666ZM11.5 9.16602C11.1374 9.16602 10.7829 9.27354 10.4815 9.47499C10.18 9.67644 9.94498 9.96276 9.80622 10.2978C9.66746 10.6328 9.63115 11.0014 9.70189 11.357C9.77263 11.7126 9.94724 12.0393 10.2036 12.2957C10.46 12.5521 10.7867 12.7267 11.1423 12.7975C11.498 12.8682 11.8666 12.8319 12.2016 12.6931C12.5366 12.5544 12.8229 12.3194 13.0244 12.0179C13.2258 11.7164 13.3333 11.3619 13.3333 10.9993C13.3333 10.5131 13.1402 10.0468 12.7964 9.70299C12.4525 9.35917 11.9862 9.16602 11.5 9.16602ZM5.08333 7.33268C4.90203 7.33268 4.72481 7.38644 4.57406 7.48717C4.42332 7.58789 4.30582 7.73106 4.23644 7.89856C4.16706 8.06605 4.14891 8.25037 4.18428 8.42818C4.21965 8.606 4.30695 8.76933 4.43515 8.89753C4.56335 9.02573 4.72668 9.11303 4.9045 9.1484C5.08232 9.18377 5.26663 9.16562 5.43413 9.09624C5.60163 9.02686 5.74479 8.90937 5.84551 8.75862C5.94624 8.60788 6 8.43065 6 8.24935C6 8.00623 5.90342 7.77308 5.73151 7.60117C5.55961 7.42926 5.32645 7.33268 5.08333 7.33268ZM17 8.24935C17 8.43065 17.0538 8.60788 17.1545 8.75862C17.2552 8.90937 17.3984 9.02686 17.5659 9.09624C17.7334 9.16562 17.9177 9.18377 18.0955 9.1484C18.2733 9.11303 18.4367 9.02573 18.5648 8.89753C18.693 8.76933 18.7803 8.606 18.8157 8.42818C18.8511 8.25037 18.8329 8.06605 18.7636 7.89856C18.6942 7.73106 18.5767 7.58789 18.4259 7.48717C18.2752 7.38644 18.098 7.33268 17.9167 7.33268C17.6736 7.33268 17.4404 7.42926 17.2685 7.60117C17.0966 7.77308 17 8.00623 17 8.24935ZM5.08333 12.8327C4.90203 12.8327 4.72481 12.8864 4.57406 12.9872C4.42332 13.0879 4.30582 13.2311 4.23644 13.3986C4.16706 13.5661 4.14891 13.7504 4.18428 13.9282C4.21965 14.106 4.30695 14.2693 4.43515 14.3975C4.56335 14.5257 4.72668 14.613 4.9045 14.6484C5.08232 14.6838 5.26663 14.6656 5.43413 14.5962C5.60163 14.5269 5.74479 14.4094 5.84551 14.2586C5.94624 14.1079 6 13.9306 6 13.7493C6 13.5062 5.90342 13.2731 5.73151 13.1012C5.55961 12.9293 5.32645 12.8327 5.08333 12.8327ZM17 13.7493C17 13.9306 17.0538 14.1079 17.1545 14.2586C17.2552 14.4094 17.3984 14.5269 17.5659 14.5962C17.7334 14.6656 17.9177 14.6838 18.0955 14.6484C18.2733 14.613 18.4367 14.5257 18.5648 14.3975C18.693 14.2693 18.7803 14.106 18.8157 13.9282C18.8511 13.7504 18.8329 13.5661 18.7636 13.3986C18.6942 13.2311 18.5767 13.0879 18.4259 12.9872C18.2752 12.8864 18.098 12.8327 17.9167 12.8327C17.6736 12.8327 17.4404 12.9293 17.2685 13.1012C17.0966 13.2731 17 13.5062 17 13.7493Z" fill="#C7C7CC"/>
</g>
<defs>
<clipPath id="clip0_17966_44065">
<rect width="22" height="22" fill="white" transform="translate(0.5)"/>
</clipPath>
</defs>
</svg>
