<svg width="14" height="15" viewBox="0 0 14 15" fill="none" xmlns="http://www.w3.org/2000/svg">
<g clip-path="url(#clip0_19365_28502)">
<path d="M0.19075 7.50065C0.207667 7.4464 0.21525 7.38982 0.2345 7.33615L1.80833 3.00373C2.01386 2.44158 2.38698 1.95604 2.87728 1.61273C3.36759 1.26941 3.95145 1.08485 4.55 1.08398H9.45C10.0486 1.08481 10.6326 1.26942 11.1229 1.61286C11.6132 1.9563 11.9863 2.442 12.1917 3.00432L13.7667 7.33615C13.7859 7.38982 13.7935 7.4464 13.8104 7.50065H0.19075ZM11.6667 8.66732V9.83398C11.6667 9.98869 11.6052 10.1371 11.4958 10.2465C11.3864 10.3559 11.238 10.4173 11.0833 10.4173C10.9286 10.4173 10.7802 10.3559 10.6709 10.2465C10.5615 10.1371 10.5 9.98869 10.5 9.83398V8.66732H3.5V9.83398C3.5 9.98869 3.43854 10.1371 3.32915 10.2465C3.21975 10.3559 3.07138 10.4173 2.91667 10.4173C2.76196 10.4173 2.61358 10.3559 2.50419 10.2465C2.39479 10.1371 2.33333 9.98869 2.33333 9.83398V8.66732H0V9.83398C0.000745719 10.4008 0.166661 10.9552 0.477458 11.4293C0.788254 11.9033 1.23046 12.2766 1.75 12.5033V13.334C1.75 13.6434 1.87292 13.9401 2.09171 14.1589C2.3105 14.3777 2.60725 14.5007 2.91667 14.5007C3.22609 14.5007 3.52283 14.3777 3.74162 14.1589C3.96042 13.9401 4.08333 13.6434 4.08333 13.334V12.7507H9.91667V13.334C9.91667 13.6434 10.0396 13.9401 10.2584 14.1589C10.4772 14.3777 10.7739 14.5007 11.0833 14.5007C11.3928 14.5007 11.6895 14.3777 11.9083 14.1589C12.1271 13.9401 12.25 13.6434 12.25 13.334V12.5033C12.7695 12.2766 13.2117 11.9033 13.5225 11.4293C13.8333 10.9552 13.9993 10.4008 14 9.83398V8.66732H11.6667Z" fill="#212121"/>
</g>
<defs>
<clipPath id="clip0_19365_28502">
<rect width="14" height="14" fill="white" transform="translate(0 0.5)"/>
</clipPath>
</defs>
</svg>
