<svg width="19" height="18" viewBox="0 0 19 18" fill="none" xmlns="http://www.w3.org/2000/svg">
<g id="fi-rr-angle-small-right">
<path id="Vector" d="M12.3239 7.41206L8.76145 3.97737C8.61603 3.83799 8.41931 3.75977 8.21426 3.75977C8.00922 3.75977 7.8125 3.83799 7.66708 3.97737C7.59434 4.04693 7.53659 4.12969 7.49719 4.22088C7.45779 4.31207 7.4375 4.40987 7.4375 4.50866C7.4375 4.60744 7.45779 4.70525 7.49719 4.79644C7.53659 4.88762 7.59434 4.97039 7.66708 5.03995L11.2373 8.46716C11.3101 8.53673 11.3678 8.61949 11.4072 8.71068C11.4466 8.80186 11.4669 8.89967 11.4669 8.99845C11.4669 9.09724 11.4466 9.19505 11.4072 9.28623C11.3678 9.37742 11.3101 9.46018 11.2373 9.52975L7.66708 12.957C7.52093 13.0969 7.43842 13.287 7.43769 13.4856C7.43696 13.6842 7.51808 13.8749 7.6632 14.0158C7.80832 14.1567 8.00556 14.2363 8.21152 14.237C8.41748 14.2377 8.6153 14.1595 8.76145 14.0195L12.3239 10.5848C12.76 10.1639 13.0049 9.59335 13.0049 8.99845C13.0049 8.40355 12.76 7.83298 12.3239 7.41206Z" fill="#212121"/>
</g>
</svg>
