<svg width="13" height="13" viewBox="0 0 13 13" fill="none" xmlns="http://www.w3.org/2000/svg">
<g id="fi-rr-angle-small-right">
<path id="Vector" d="M8.19966 5.43991L5.90466 3.14491C5.81098 3.05178 5.68425 2.99951 5.55216 2.99951C5.42006 2.99951 5.29334 3.05178 5.19966 3.14491C5.15279 3.19139 5.1156 3.24669 5.09021 3.30762C5.06483 3.36855 5.05176 3.4339 5.05176 3.49991C5.05176 3.56591 5.06483 3.63127 5.09021 3.6922C5.1156 3.75313 5.15279 3.80843 5.19966 3.85491L7.49966 6.14491C7.54652 6.19139 7.58372 6.24669 7.6091 6.30762C7.63449 6.36855 7.64756 6.4339 7.64756 6.49991C7.64756 6.56591 7.63449 6.63127 7.6091 6.6922C7.58372 6.75313 7.54652 6.80843 7.49966 6.85491L5.19966 9.14491C5.10551 9.2384 5.05235 9.36546 5.05188 9.49814C5.05141 9.63082 5.10367 9.75826 5.19716 9.85241C5.29065 9.94656 5.41771 9.99972 5.55039 10.0002C5.68307 10.0007 5.81051 9.9484 5.90466 9.85491L8.19966 7.55991C8.48056 7.27866 8.63834 6.89741 8.63834 6.49991C8.63834 6.10241 8.48056 5.72116 8.19966 5.43991Z" fill="#212121"/>
</g>
</svg>
