<svg width="20" height="11" viewBox="0 0 20 11" fill="none" xmlns="http://www.w3.org/2000/svg">
<path id="Vector" d="M19.2667 3.62593L16.0417 0.367592C15.9642 0.289485 15.872 0.22749 15.7705 0.185183C15.6689 0.142875 15.56 0.121094 15.45 0.121094C15.34 0.121094 15.2311 0.142875 15.1295 0.185183C15.028 0.22749 14.9358 0.289485 14.8583 0.367592V0.367592C14.7031 0.523728 14.616 0.734937 14.616 0.955092C14.616 1.17525 14.7031 1.38646 14.8583 1.54259L17.825 4.53426H0.833333C0.61232 4.53426 0.400358 4.62206 0.244078 4.77834C0.0877974 4.93462 0 5.14658 0 5.36759H0C0 5.58861 0.0877974 5.80057 0.244078 5.95685C0.400358 6.11313 0.61232 6.20093 0.833333 6.20093H17.875L14.8583 9.20926C14.7802 9.28673 14.7182 9.3789 14.6759 9.48044C14.6336 9.58199 14.6118 9.69092 14.6118 9.80093C14.6118 9.91094 14.6336 10.0199 14.6759 10.1214C14.7182 10.223 14.7802 10.3151 14.8583 10.3926C14.9358 10.4707 15.028 10.5327 15.1295 10.575C15.2311 10.6173 15.34 10.6391 15.45 10.6391C15.56 10.6391 15.6689 10.6173 15.7705 10.575C15.872 10.5327 15.9642 10.4707 16.0417 10.3926L19.2667 7.15926C19.7348 6.69051 19.9978 6.05509 19.9978 5.39259C19.9978 4.73009 19.7348 4.09468 19.2667 3.62593V3.62593Z" fill="white"/>
</svg>
