<svg width="19" height="18" viewBox="0 0 19 18" fill="none" xmlns="http://www.w3.org/2000/svg">
<g id="fi-sr-arrow-right" clip-path="url(#clip0_16917_20658)">
<path id="Vector" d="M14.8415 13.7957L17.7807 10.8565C18.258 10.3563 18.5243 9.69156 18.5243 9.00022C18.5243 8.30889 18.258 7.64412 17.7807 7.14397L14.8415 4.20472C14.6305 3.99367 14.3444 3.87507 14.046 3.875C13.7476 3.87493 13.4614 3.9934 13.2503 4.20435C13.0393 4.41529 12.9207 4.70144 12.9206 4.99983C12.9205 5.29822 13.039 5.58443 13.25 5.79547L15.335 7.88122L1.64746 7.89847C1.34909 7.89847 1.06294 8.017 0.851966 8.22798C0.640987 8.43896 0.522461 8.7251 0.522461 9.02347V9.02347C0.522461 9.32184 0.640987 9.60799 0.851966 9.81897C1.06294 10.0299 1.34909 10.1485 1.64746 10.1485L15.3207 10.1312L13.25 12.205C13.045 12.4172 12.9316 12.7013 12.9342 12.9963C12.9368 13.2913 13.0551 13.5734 13.2637 13.782C13.4722 13.9906 13.7544 14.1089 14.0494 14.1115C14.3444 14.114 14.6285 14.0007 14.8407 13.7957H14.8415Z" fill="white"/>
</g>
<defs>
<clipPath id="clip0_16917_20658">
<rect width="18" height="18" fill="white" transform="translate(0.5)"/>
</clipPath>
</defs>
</svg>
