<svg width="14" height="15" viewBox="0 0 14 15" fill="none" xmlns="http://www.w3.org/2000/svg">
<g id="fi-rr-arrow-right" clip-path="url(#clip0_16219_19932)">
<path id="Vector" d="M13.4867 6.28151L11.2292 4.00067C11.1749 3.946 11.1104 3.9026 11.0393 3.87299C10.9683 3.84337 10.892 3.82812 10.815 3.82812C10.738 3.82812 10.6617 3.84337 10.5907 3.87299C10.5196 3.9026 10.4551 3.946 10.4008 4.00067C10.2922 4.10997 10.2312 4.25782 10.2312 4.41192C10.2312 4.56603 10.2922 4.71388 10.4008 4.82317L12.4775 6.91734H0.583333C0.428624 6.91734 0.280251 6.9788 0.170854 7.0882C0.0614582 7.19759 0 7.34596 0 7.50067H0C0 7.65538 0.0614582 7.80376 0.170854 7.91315C0.280251 8.02255 0.428624 8.08401 0.583333 8.08401H12.5125L10.4008 10.1898C10.3462 10.2441 10.3028 10.3086 10.2731 10.3797C10.2435 10.4508 10.2283 10.527 10.2283 10.604C10.2283 10.681 10.2435 10.7573 10.2731 10.8283C10.3028 10.8994 10.3462 10.9639 10.4008 11.0182C10.4551 11.0728 10.5196 11.1162 10.5907 11.1459C10.6617 11.1755 10.738 11.1907 10.815 11.1907C10.892 11.1907 10.9683 11.1755 11.0393 11.1459C11.1104 11.1162 11.1749 11.0728 11.2292 11.0182L13.4867 8.75484C13.8144 8.42671 13.9985 7.98193 13.9985 7.51817C13.9985 7.05442 13.8144 6.60963 13.4867 6.28151Z" fill="#212121"/>
</g>
<defs>
<clipPath id="clip0_16219_19932">
<rect width="14" height="14" fill="white" transform="translate(0 0.5)"/>
</clipPath>
</defs>
</svg>
