<svg width="13" height="14" viewBox="0 0 13 14" fill="none" xmlns="http://www.w3.org/2000/svg">
<g id="fi-rr-bulb" clip-path="url(#clip0_11646_26355)">
<path id="Vector" d="M9.74571 1.24389C9.08456 0.651836 8.27485 0.251712 7.40373 0.0865764C6.5326 -0.0785595 5.63304 -0.00245535 4.80185 0.306699C3.97066 0.615853 3.23931 1.14635 2.68651 1.8411C2.13372 2.53586 1.7804 3.36856 1.66459 4.24959C1.56058 5.02211 1.64376 5.80838 1.9071 6.54185C2.17044 7.27532 2.60619 7.93441 3.17746 8.46334C3.53074 8.77386 3.81581 9.15456 4.0146 9.58131C4.21339 10.0081 4.32158 10.4715 4.3323 10.9424V11.0298C4.33287 11.561 4.54364 12.0702 4.91835 12.4458C5.29307 12.8214 5.80112 13.0327 6.33105 13.0332H6.66688C7.19681 13.0327 7.70486 12.8214 8.07958 12.4458C8.45429 12.0702 8.66506 11.561 8.66563 11.0298V10.7317C8.67374 10.3155 8.77145 9.90603 8.95206 9.5312C9.13268 9.15637 9.39195 8.82508 9.71213 8.55998C10.2314 8.10415 10.648 7.54293 10.9346 6.91351C11.2211 6.28408 11.3709 5.60081 11.374 4.90898C11.3772 4.21714 11.2337 3.53252 10.953 2.90048C10.6722 2.26843 10.2607 1.7034 9.74571 1.2428V1.24389ZM6.66688 11.9474H6.33105C6.08835 11.9471 5.85568 11.8503 5.68407 11.6783C5.51246 11.5063 5.41592 11.2731 5.41563 11.0298C5.41563 11.0298 5.41184 10.8886 5.4113 10.8615H7.5823V11.0298C7.58201 11.2731 7.48547 11.5063 7.31386 11.6783C7.14225 11.8503 6.90958 11.9471 6.66688 11.9474ZM8.99605 7.74448C8.37932 8.28066 7.93393 8.98713 7.71555 9.77562H7.04063V5.87515C7.35637 5.76326 7.62992 5.55632 7.82383 5.28264C8.01775 5.00896 8.12258 4.68191 8.12396 4.34624C8.12396 4.20224 8.0669 4.06414 7.96531 3.96232C7.86373 3.8605 7.72596 3.8033 7.5823 3.8033C7.43864 3.8033 7.30086 3.8605 7.19928 3.96232C7.0977 4.06414 7.04063 4.20224 7.04063 4.34624C7.04063 4.49023 6.98356 4.62833 6.88198 4.73015C6.7804 4.83197 6.64262 4.88917 6.49896 4.88917C6.35531 4.88917 6.21753 4.83197 6.11595 4.73015C6.01437 4.62833 5.9573 4.49023 5.9573 4.34624C5.9573 4.20224 5.90023 4.06414 5.79865 3.96232C5.69706 3.8605 5.55929 3.8033 5.41563 3.8033C5.27197 3.8033 5.1342 3.8605 5.03262 3.96232C4.93103 4.06414 4.87396 4.20224 4.87396 4.34624C4.87535 4.68191 4.98018 5.00896 5.1741 5.28264C5.36801 5.55632 5.64156 5.76326 5.9573 5.87515V9.77562H5.24121C4.99692 8.96621 4.53874 8.23812 3.91521 7.66847C3.38598 7.17418 3.00886 6.53846 2.82834 5.83632C2.64783 5.13419 2.67146 4.39495 2.89645 3.70584C3.12144 3.01673 3.5384 2.40651 4.09812 1.94719C4.65784 1.48787 5.33696 1.19862 6.05534 1.11358C6.20426 1.09692 6.35399 1.08858 6.50384 1.08861C7.43419 1.08583 8.33233 1.42991 9.02367 2.05395C9.42434 2.41207 9.74449 2.85147 9.96289 3.34301C10.1813 3.83455 10.293 4.36701 10.2905 4.90509C10.2881 5.44318 10.1715 5.97459 9.94863 6.4641C9.72575 6.95362 9.4016 7.39006 8.99767 7.74448H8.99605Z" fill="#212121"/>
</g>
<defs>
<clipPath id="clip0_11646_26355">
<rect width="13" height="13.0305" fill="white" transform="translate(0 0.00244141)"/>
</clipPath>
</defs>
</svg>
