<svg width="17" height="17" viewBox="0 0 17 17" fill="none" xmlns="http://www.w3.org/2000/svg">
<path d="M17.0004 9.92092C16.9995 9.62384 16.936 9.33028 16.8139 9.05944C16.6919 8.78859 16.514 8.54655 16.292 8.34912V7.08333C16.29 5.20535 15.543 3.40487 14.2151 2.07694C12.8872 0.749002 11.0867 0.00206238 9.2087 0L7.79203 0C5.91405 0.00206238 4.11357 0.749002 2.78564 2.07694C1.4577 3.40487 0.710762 5.20535 0.708699 7.08333V8.38454C0.488596 8.59225 0.313241 8.84273 0.193391 9.12063C0.0735398 9.39852 0.0117188 9.69797 0.0117188 10.0006C0.0117188 10.3032 0.0735398 10.6027 0.193391 10.8806C0.313241 11.1585 0.488596 11.409 0.708699 11.6167V12.0417C0.710199 13.3562 1.23308 14.6165 2.16262 15.5461C3.09216 16.4756 4.35246 16.9985 5.66703 17H11.3337C12.6483 16.9985 13.9086 16.4756 14.8381 15.5461C15.7677 14.6165 16.2905 13.3562 16.292 12.0417V11.4934C16.5141 11.2959 16.692 11.0538 16.8141 10.7828C16.9361 10.5118 16.9996 10.2181 17.0004 9.92092V9.92092ZM1.9922 10.7369C1.81558 10.6833 1.66372 10.5688 1.56366 10.4137C1.4636 10.2586 1.42184 10.0731 1.44582 9.89006C1.4698 9.70706 1.55796 9.53852 1.6946 9.41445C1.83125 9.29038 2.00749 9.21884 2.19195 9.21258H14.8754C15.0632 9.21258 15.2434 9.28721 15.3762 9.42005C15.5091 9.55289 15.5837 9.73305 15.5837 9.92092C15.5837 10.1088 15.5091 10.2889 15.3762 10.4218C15.2434 10.5546 15.0632 10.6292 14.8754 10.6292H12.042C10.6565 10.6292 9.22357 11.1874 7.5342 12.3866C7.19407 12.6229 6.78984 12.7495 6.37572 12.7495C5.9616 12.7495 5.55737 12.6229 5.21724 12.3866C5.05574 12.2719 4.90062 12.1522 4.74478 12.0325C3.97317 11.3415 3.0164 10.8912 1.9922 10.7369V10.7369ZM2.12537 7.08333C2.12705 5.58096 2.72462 4.1406 3.78696 3.07826C4.8493 2.01592 6.28966 1.41835 7.79203 1.41667H9.2087C10.7111 1.41835 12.1514 2.01592 13.2138 3.07826C14.2761 4.1406 14.8737 5.58096 14.8754 7.08333V7.79592L2.12537 7.803V7.08333ZM11.3337 15.5833H5.66703C4.75979 15.5809 3.88815 15.23 3.23229 14.6032C2.57643 13.9763 2.18649 13.1214 2.14307 12.2152C2.786 12.3933 3.38027 12.7147 3.88132 13.1552C4.05062 13.2862 4.22062 13.4165 4.3977 13.5419C4.97829 13.9453 5.66838 14.1615 6.37537 14.1615C7.08236 14.1615 7.77244 13.9453 8.35303 13.5419C9.40102 12.6781 10.6884 12.1561 12.042 12.0459H14.8754C14.8742 12.9845 14.5006 13.8842 13.8365 14.5475C13.1725 15.2108 12.2723 15.5833 11.3337 15.5833V15.5833ZM6.37537 3.54167C6.37537 3.3538 6.44999 3.17364 6.58283 3.0408C6.71567 2.90796 6.89584 2.83333 7.0837 2.83333C7.27156 2.83333 7.45173 2.90796 7.58457 3.0408C7.71741 3.17364 7.79203 3.3538 7.79203 3.54167C7.79203 3.72953 7.71741 3.9097 7.58457 4.04253C7.45173 4.17537 7.27156 4.25 7.0837 4.25C6.89584 4.25 6.71567 4.17537 6.58283 4.04253C6.44999 3.9097 6.37537 3.72953 6.37537 3.54167ZM4.25037 5.66667C4.25037 5.4788 4.32499 5.29864 4.45783 5.1658C4.59067 5.03296 4.77084 4.95833 4.9587 4.95833C5.14656 4.95833 5.32673 5.03296 5.45957 5.1658C5.59241 5.29864 5.66703 5.4788 5.66703 5.66667C5.66703 5.85453 5.59241 6.0347 5.45957 6.16753C5.32673 6.30037 5.14656 6.375 4.9587 6.375C4.77084 6.375 4.59067 6.30037 4.45783 6.16753C4.32499 6.0347 4.25037 5.85453 4.25037 5.66667V5.66667Z" fill="#212121"/>
</svg>
