<svg width="20" height="23" viewBox="0 0 20 23" fill="none" xmlns="http://www.w3.org/2000/svg">
<path d="M19.2675 9.04095L12.9467 2.18805C12.1644 1.3425 11.1047 0.867676 10 0.867676C8.89529 0.867676 7.83564 1.3425 7.05334 2.18805L0.73251 9.04095C0.499531 9.29189 0.314818 9.59047 0.189079 9.91937C0.0633394 10.2483 -0.000925334 10.601 1.00662e-05 10.957V19.8253C1.00662e-05 20.544 0.263402 21.2334 0.732243 21.7416C1.20108 22.2498 1.83697 22.5354 2.50001 22.5354H17.5C18.1631 22.5354 18.7989 22.2498 19.2678 21.7416C19.7366 21.2334 20 20.544 20 19.8253V10.957C20.0009 10.601 19.9367 10.2483 19.8109 9.91937C19.6852 9.59047 19.5005 9.29189 19.2675 9.04095V9.04095ZM12.5 20.7286H7.50001V17.1748C7.50001 16.4561 7.7634 15.7667 8.23224 15.2585C8.70109 14.7503 9.33697 14.4647 10 14.4647C10.6631 14.4647 11.2989 14.7503 11.7678 15.2585C12.2366 15.7667 12.5 16.4561 12.5 17.1748V20.7286ZM18.3333 19.8253C18.3333 20.0649 18.2455 20.2946 18.0893 20.4641C17.933 20.6335 17.721 20.7286 17.5 20.7286H14.1667V17.1748C14.1667 15.9769 13.7277 14.828 12.9463 13.981C12.1649 13.1339 11.1051 12.658 10 12.658C8.89494 12.658 7.83513 13.1339 7.05373 13.981C6.27233 14.828 5.83334 15.9769 5.83334 17.1748V20.7286H2.50001C2.279 20.7286 2.06704 20.6335 1.91075 20.4641C1.75447 20.2946 1.66668 20.0649 1.66668 19.8253V10.957C1.66745 10.7176 1.75517 10.4881 1.91084 10.3183L8.23168 3.46812C8.70143 2.96127 9.33723 2.67672 10 2.67672C10.6628 2.67672 11.2986 2.96127 11.7683 3.46812L18.0892 10.321C18.2442 10.4902 18.3319 10.7185 18.3333 10.957V19.8253Z" fill="#A3A2A4"/>
</svg>
