<svg width="20" height="23" viewBox="0 0 20 23" fill="none" xmlns="http://www.w3.org/2000/svg">
<g clip-path="url(#clip0_2787_15448)">
<path d="M10 14.3916C8.6193 14.3916 7.5 15.605 7.5 17.1017V22.5219H12.5V17.1017C12.5 15.605 11.3807 14.3916 10 14.3916Z" fill="#212121"/>
<path d="M14.1667 17.102V22.5222H17.5C18.8807 22.5222 20 21.3088 20 19.8121V11.5725C20.0002 11.1032 19.832 10.6522 19.5308 10.315L12.4492 2.01584C11.1996 0.550274 9.09074 0.460291 7.73879 1.81482C7.67457 1.87919 7.6127 1.94622 7.55336 2.01584L0.48418 10.3123C0.173945 10.6509 -0.000117128 11.1088 5.9134e-08 11.5861V19.8121C5.9134e-08 21.3088 1.1193 22.5222 2.5 22.5222H5.83332V17.102C5.84891 14.6387 7.68355 12.6271 9.89867 12.5692C12.1879 12.5093 14.1492 14.5551 14.1667 17.102Z" fill="#212121"/>
<path d="M10 14.3916C8.6193 14.3916 7.5 15.605 7.5 17.1017V22.5219H12.5V17.1017C12.5 15.605 11.3807 14.3916 10 14.3916Z" fill="#212121"/>
</g>
<defs>
<clipPath id="clip0_2787_15448">
<rect width="20" height="21.6807" fill="white" transform="translate(0 0.848633)"/>
</clipPath>
</defs>
</svg>
