<svg width="17" height="13" viewBox="0 0 17 13" fill="none" xmlns="http://www.w3.org/2000/svg">
<path fill-rule="evenodd" clip-rule="evenodd" d="M9.91658 0.125C9.52538 0.125 9.20825 0.442132 9.20825 0.833333C9.20825 1.22453 9.52538 1.54167 9.91658 1.54167H10.9146C11.2444 1.54167 11.5306 1.76933 11.6048 2.09072L11.8276 3.0564L6.8028 3.61472C6.55177 3.64261 6.29778 3.62553 6.05275 3.56427L2.35458 2.63972C1.15857 2.34071 0 3.2453 0 4.47813C0 5.3717 0.624207 6.14384 1.49793 6.33107L4.85243 7.0499C5.00286 7.08213 5.13698 7.162 5.23639 7.27525L4.56402 7.7982C4.08533 7.42837 3.48502 7.20833 2.83331 7.20833C1.26851 7.20833 0 8.47686 0 10.0417C0 11.6065 1.26851 12.875 2.83331 12.875C4.3981 12.875 5.66662 11.6065 5.66662 10.0417C5.66662 9.64171 5.58374 9.2611 5.43423 8.91609L5.90116 8.55292L6.41233 9.57528C6.77229 10.2952 7.50809 10.75 8.31297 10.75H8.68687C9.49176 10.75 10.2276 10.2952 10.5875 9.57528L12.4653 5.81968L12.8593 7.52725C11.9525 7.99968 11.3332 8.94836 11.3332 10.0417C11.3332 11.6065 12.6017 12.875 14.1665 12.875C15.7313 12.875 16.9998 11.6065 16.9998 10.0417C16.9998 8.50137 15.7708 7.24815 14.2399 7.20926L14.0762 6.5H14.5404C14.6504 6.5 14.7589 6.5256 14.8572 6.57478L15.9747 7.13355C16.3246 7.3085 16.7501 7.16668 16.9251 6.81678C17.1 6.46687 16.9582 6.0414 16.6083 5.86645L15.4908 5.30768C15.1957 5.16014 14.8703 5.08333 14.5404 5.08333H13.7493L13.5858 4.375H14.1665C14.5577 4.375 14.8749 4.05787 14.8749 3.66667C14.8749 3.27546 14.5577 2.95833 14.1665 2.95833H13.2589L12.9852 1.77217C12.7627 0.807994 11.9041 0.125 10.9146 0.125H9.91658ZM13.2001 9.00407L13.4763 10.2009C13.5643 10.5821 13.9446 10.8198 14.3258 10.7319C14.707 10.6439 14.9447 10.2636 14.8567 9.88239L14.5804 8.6851C15.1616 8.8622 15.5845 9.40255 15.5845 10.0417C15.5845 10.8248 14.9496 11.4596 14.1665 11.4596C13.3834 11.4596 12.7486 10.8248 12.7486 10.0417C12.7486 9.632 12.9223 9.26292 13.2001 9.00407ZM2.83331 8.62374C3.02262 8.62374 3.20326 8.66084 3.36837 8.72817L2.39843 9.48257C2.08963 9.72275 2.03401 10.1678 2.27418 10.4766C2.51435 10.7854 2.95937 10.841 3.26817 10.6008L4.23791 9.84657C4.24669 9.91035 4.25122 9.97548 4.25122 10.0417C4.25122 10.8248 3.6164 11.4596 2.83331 11.4596C2.05021 11.4596 1.41539 10.8248 1.41539 10.0417C1.41539 9.25857 2.05021 8.62374 2.83331 8.62374ZM1.41665 4.47813C1.41665 4.16695 1.7091 3.93861 2.01099 4.01409L5.70916 4.93864C6.11755 5.04073 6.54086 5.06921 6.95924 5.02272L11.5341 4.5144L9.32042 8.94173C9.20043 9.1817 8.95517 9.33328 8.68687 9.33328H8.31297C8.04468 9.33328 7.79941 9.1817 7.67943 8.94173L6.60466 6.79218C6.31597 6.21479 5.78047 5.79993 5.14926 5.66468L1.79476 4.94585C1.57421 4.89859 1.41665 4.70368 1.41665 4.47813Z" fill="#0F0F0F"/>
</svg>
