<svg width="9" height="11" viewBox="0 0 9 11" fill="none" xmlns="http://www.w3.org/2000/svg">
<path d="M2.71457 0.142853C2.12278 0.143562 1.55544 0.378961 1.13698 0.797415C0.71853 1.21587 0.483131 1.78321 0.482422 2.375V10.4107C0.482485 10.4919 0.504693 10.5716 0.546655 10.6411C0.588617 10.7106 0.648744 10.7673 0.720564 10.8052C0.792383 10.8431 0.873176 10.8607 0.954243 10.8561C1.03531 10.8515 1.11358 10.8248 1.18064 10.779L2.12081 10.1366L3.06099 10.779C3.13527 10.8299 3.2232 10.8571 3.31323 10.8571C3.40325 10.8571 3.49118 10.8299 3.56546 10.779L4.50296 10.1366L5.44046 10.779C5.51478 10.83 5.60279 10.8573 5.69291 10.8573C5.78303 10.8573 5.87104 10.83 5.94537 10.779L6.88287 10.137L7.82037 10.7786C7.88739 10.8242 7.96557 10.8508 8.04653 10.8553C8.12749 10.8599 8.20817 10.8423 8.2799 10.8045C8.35164 10.7667 8.41171 10.7101 8.45368 10.6407C8.49566 10.5713 8.51794 10.4918 8.51814 10.4107V2.375C8.51743 1.78321 8.28203 1.21587 7.86357 0.797415C7.44512 0.378961 6.87778 0.143562 6.28599 0.142853L2.71457 0.142853ZM5.39314 6.39285H2.71457C2.59616 6.39285 2.48261 6.34582 2.39889 6.2621C2.31517 6.17838 2.26814 6.06483 2.26814 5.94642C2.26814 5.82802 2.31517 5.71447 2.39889 5.63075C2.48261 5.54703 2.59616 5.5 2.71457 5.5H5.39314C5.51154 5.5 5.62509 5.54703 5.70881 5.63075C5.79253 5.71447 5.83957 5.82802 5.83957 5.94642C5.83957 6.06483 5.79253 6.17838 5.70881 6.2621C5.62509 6.34582 5.51154 6.39285 5.39314 6.39285ZM6.73242 4.16071C6.73242 4.27911 6.68539 4.39266 6.60167 4.47638C6.51795 4.5601 6.40439 4.60714 6.28599 4.60714H2.71457C2.59616 4.60714 2.48261 4.5601 2.39889 4.47638C2.31517 4.39266 2.26814 4.27911 2.26814 4.16071C2.26814 4.04231 2.31517 3.92876 2.39889 3.84504C2.48261 3.76132 2.59616 3.71428 2.71457 3.71428H6.28599C6.40439 3.71428 6.51795 3.76132 6.60167 3.84504C6.68539 3.92876 6.73242 4.04231 6.73242 4.16071Z" fill="#212121"/>
</svg>
