<svg width="11" height="11" viewBox="0 0 11 11" fill="none" xmlns="http://www.w3.org/2000/svg">
<g clip-path="url(#clip0_5864_6309)">
<path fill-rule="evenodd" clip-rule="evenodd" d="M2.48549 1.1473C2.48549 0.77747 2.7853 0.477661 3.15513 0.477661C3.52497 0.477661 3.82478 0.77747 3.82478 1.1473V1.48213H7.17299V1.1473C7.17299 0.77747 7.4728 0.477661 7.84263 0.477661C8.21247 0.477661 8.51228 0.77747 8.51228 1.1473V1.48213C9.62178 1.48213 10.5212 2.38155 10.5212 3.49105V8.51338C10.5212 9.62288 9.62178 10.5223 8.51228 10.5223H2.48549C1.37599 10.5223 0.476562 9.62288 0.476562 8.51338V3.49105C0.476562 2.38155 1.37599 1.48213 2.48549 1.48213V1.1473ZM7.17299 2.82141C7.17299 3.19124 7.4728 3.49105 7.84263 3.49105C8.21247 3.49105 8.51228 3.19124 8.51228 2.82141C8.88211 2.82141 9.18192 3.12122 9.18192 3.49105V4.49552H1.81585V3.49105C1.81585 3.12122 2.11566 2.82141 2.48549 2.82141C2.48549 3.19124 2.7853 3.49105 3.15513 3.49105C3.52497 3.49105 3.82478 3.19124 3.82478 2.82141H7.17299Z" fill="#212121"/>
</g>
<defs>
<clipPath id="clip0_5864_6309">
<rect width="10.7143" height="10.7143" fill="white" transform="translate(0.142578 0.142853)"/>
</clipPath>
</defs>
</svg>
