<svg width="20" height="18" viewBox="0 0 20 18" fill="none" xmlns="http://www.w3.org/2000/svg">
<path d="M16.0002 8.03125H4.00018C2.63654 8.36458 1.81836 9.49792 1.81836 11.3646C1.81836 13.2312 2.54563 13.6979 2.90927 13.6979H16.0002C17.7456 13.6979 18.182 12.1424 18.182 11.3646C18.182 8.96458 16.7275 8.14236 16.0002 8.03125Z" stroke="#212121" stroke-width="1.8" stroke-linecap="round"/>
<path d="M8.63672 7.69822V3.03156C8.63672 2.25378 9.01854 0.764891 10.5458 1.03156C11.0913 1.14267 11.9094 1.36491 13.2731 3.69824L15.7276 8.03158" stroke="#212121" stroke-width="1.8" stroke-linecap="round"/>
<path d="M12.9992 14.0312C12.8174 15.0313 12.9447 17.0313 14.9083 17.0313C15.5447 17.0313 16.7627 16.4313 16.5446 14.0312" stroke="#212121" stroke-width="1.8" stroke-linecap="round"/>
<path d="M3.51292 14.0312C3.3311 15.0313 3.45837 17.0313 5.42201 17.0313C6.05833 17.0313 7.27642 16.4313 7.05824 14.0312" stroke="#212121" stroke-width="1.8" stroke-linecap="round"/>
</svg>
