<svg width="15" height="15" viewBox="0 0 15 15" fill="none" xmlns="http://www.w3.org/2000/svg">
<g clip-path="url(#clip0_24064_47249)">
<path d="M3.12868 8.95222L4.86452 10.6881C5.09892 10.9224 5.41681 11.054 5.74827 11.054C6.07972 11.054 6.39761 10.9224 6.63201 10.6881L11.9928 5.32722C12.0687 5.24864 12.1107 5.14339 12.1098 5.03414C12.1088 4.92489 12.065 4.82039 11.9878 4.74313C11.9105 4.66588 11.806 4.62206 11.6968 4.62111C11.5875 4.62016 11.4823 4.66216 11.4037 4.73806L6.04285 10.0989C5.96471 10.177 5.85875 10.2209 5.74827 10.2209C5.63778 10.2209 5.53182 10.177 5.45368 10.0989L3.71785 8.36306C3.63926 8.28716 3.53401 8.24516 3.42476 8.24611C3.31552 8.24706 3.21101 8.29088 3.13376 8.36813C3.0565 8.44539 3.01268 8.54989 3.01173 8.65914C3.01079 8.76839 3.05278 8.87364 3.12868 8.95222Z" fill="#C7C7CC"/>
</g>
<defs>
<clipPath id="clip0_24064_47249">
<rect width="10" height="10" fill="white" transform="translate(2.5 2.5)"/>
</clipPath>
</defs>
</svg>
