<svg width="17" height="17" viewBox="0 0 17 17" fill="none" xmlns="http://www.w3.org/2000/svg">
<g clip-path="url(#clip0_5950_7325)">
<path d="M8.5 0C6.81886 0 5.17547 0.498516 3.77766 1.43251C2.37984 2.3665 1.29037 3.69402 0.647028 5.24719C0.00368293 6.80036 -0.164645 8.50943 0.163329 10.1583C0.491303 11.8071 1.30085 13.3217 2.4896 14.5104C3.67834 15.6992 5.1929 16.5087 6.84174 16.8367C8.49057 17.1646 10.1996 16.9963 11.7528 16.353C13.306 15.7096 14.6335 14.6202 15.5675 13.2223C16.5015 11.8245 17 10.1811 17 8.5C16.9976 6.24641 16.1013 4.08582 14.5077 2.49228C12.9142 0.898753 10.7536 0.00243743 8.5 0V0ZM8.5 15.5833C7.09905 15.5833 5.72956 15.1679 4.56471 14.3896C3.39987 13.6112 2.49198 12.505 1.95586 11.2107C1.41974 9.91637 1.27946 8.49214 1.55277 7.11811C1.82609 5.74408 2.50071 4.48195 3.49133 3.49133C4.48195 2.50071 5.74408 1.82608 7.11811 1.55277C8.49215 1.27946 9.91637 1.41973 11.2107 1.95585C12.505 2.49197 13.6113 3.39986 14.3896 4.56471C15.1679 5.72956 15.5833 7.09905 15.5833 8.5C15.5813 10.378 14.8343 12.1785 13.5064 13.5064C12.1785 14.8343 10.378 15.5813 8.5 15.5833Z" fill="#212121"/>
<path d="M8.50065 7.08356H7.79232C7.60445 7.08356 7.42429 7.15819 7.29145 7.29102C7.15861 7.42386 7.08398 7.60403 7.08398 7.79189C7.08398 7.97975 7.15861 8.15992 7.29145 8.29276C7.42429 8.4256 7.60445 8.50022 7.79232 8.50022H8.50065V12.7502C8.50065 12.9381 8.57528 13.1183 8.70811 13.2511C8.84095 13.3839 9.02112 13.4586 9.20898 13.4586C9.39684 13.4586 9.57701 13.3839 9.70985 13.2511C9.84268 13.1183 9.91731 12.9381 9.91731 12.7502V8.50022C9.91731 8.1245 9.76806 7.76417 9.50238 7.49849C9.2367 7.23281 8.87637 7.08356 8.50065 7.08356Z" fill="#212121"/>
<path d="M8.5 5.66644C9.0868 5.66644 9.5625 5.19075 9.5625 4.60394C9.5625 4.01714 9.0868 3.54144 8.5 3.54144C7.9132 3.54144 7.4375 4.01714 7.4375 4.60394C7.4375 5.19075 7.9132 5.66644 8.5 5.66644Z" fill="#212121"/>
</g>
<defs>
<clipPath id="clip0_5950_7325">
<rect width="17" height="17" fill="white"/>
</clipPath>
</defs>
</svg>
