<svg width="13" height="14" viewBox="0 0 13 14" fill="none" xmlns="http://www.w3.org/2000/svg">
<path fill-rule="evenodd" clip-rule="evenodd" d="M2.60293 1.16659C2.60293 0.844419 2.87176 0.583252 3.20337 0.583252C3.53498 0.583252 3.80381 0.844419 3.80381 1.16659V1.74992H8.60733V1.16659C8.60733 0.844419 8.87616 0.583252 9.20777 0.583252C9.53938 0.583252 9.80821 0.844419 9.80821 1.16659V1.74992H10.4087C11.4035 1.74992 12.21 2.53342 12.21 3.49992V11.6666C12.21 12.6331 11.4035 13.4166 10.4087 13.4166H2.00249C1.00765 13.4166 0.201172 12.6331 0.201172 11.6666V3.49992C0.201172 2.53342 1.00765 1.74992 2.00249 1.74992H2.60293V1.16659ZM8.60733 2.91659V3.49992C8.60733 3.82208 8.87616 4.08325 9.20777 4.08325C9.53938 4.08325 9.80821 3.82208 9.80821 3.49992V2.91659H10.4087C10.7403 2.91659 11.0091 3.17775 11.0091 3.49992V5.24992H1.40205V3.49992C1.40205 3.17775 1.67088 2.91659 2.00249 2.91659H2.60293V3.49992C2.60293 3.82208 2.87176 4.08325 3.20337 4.08325C3.53498 4.08325 3.80381 3.82208 3.80381 3.49992V2.91659H8.60733ZM1.40205 6.41659V11.6666C1.40205 11.9888 1.67088 12.2499 2.00249 12.2499H10.4087C10.7403 12.2499 11.0091 11.9888 11.0091 11.6666V6.41659H1.40205Z" fill="#212121"/>
</svg>
