<svg width="14" height="14" viewBox="0 0 14 14" fill="none" xmlns="http://www.w3.org/2000/svg">
<g clip-path="url(#clip0_6032_26879)">
<path d="M13.1796 8.92128C13.0754 8.81192 12.934 8.75049 12.7866 8.75049C12.6391 8.75049 12.4978 8.81192 12.3935 8.92128L10.8407 10.5505L9.28789 8.92128C9.18304 8.81502 9.0426 8.75622 8.89683 8.75755C8.75105 8.75888 8.61161 8.82023 8.50853 8.92839C8.40545 9.03654 8.34698 9.18285 8.34572 9.3358C8.34445 9.48874 8.40049 9.63609 8.50176 9.74611L10.0546 11.3754L8.50176 13.0046C8.44866 13.0584 8.40631 13.1228 8.37717 13.194C8.34803 13.2651 8.33269 13.3417 8.33205 13.4191C8.33141 13.4966 8.34548 13.5734 8.37343 13.6451C8.40139 13.7168 8.44267 13.7819 8.49487 13.8367C8.54707 13.8914 8.60914 13.9348 8.67747 13.9641C8.7458 13.9934 8.819 14.0082 8.89282 14.0075C8.96664 14.0068 9.0396 13.9907 9.10743 13.9602C9.17526 13.9296 9.23661 13.8852 9.28789 13.8294L10.8407 12.2002L12.3935 13.8294C12.4983 13.9357 12.6388 13.9945 12.7846 13.9932C12.9303 13.9918 13.0698 13.9305 13.1729 13.8223C13.2759 13.7142 13.3344 13.5679 13.3357 13.4149C13.3369 13.262 13.2809 13.1146 13.1796 13.0046L11.6268 11.3754L13.1796 9.74611C13.2839 9.63672 13.3424 9.48838 13.3424 9.3337C13.3424 9.17902 13.2839 9.03067 13.1796 8.92128V8.92128Z" fill="#212121"/>
<path d="M6.67156 12.8333C5.57197 12.8333 4.49707 12.4912 3.58279 11.8502C2.66852 11.2093 1.95593 10.2982 1.53513 9.23232C1.11434 8.16642 1.00424 6.99353 1.21876 5.86198C1.43327 4.73042 1.96278 3.69102 2.74031 2.87521C3.51783 2.05941 4.50847 1.50384 5.58693 1.27876C6.66539 1.05368 7.78325 1.16919 8.79913 1.61071C9.81502 2.05222 10.6833 2.79989 11.2942 3.75918C11.9051 4.71846 12.2312 5.84628 12.2312 7C12.2312 7.15471 12.2898 7.30309 12.394 7.41248C12.4983 7.52188 12.6397 7.58334 12.7871 7.58334C12.9346 7.58334 13.076 7.52188 13.1803 7.41248C13.2845 7.30309 13.3431 7.15471 13.3431 7C13.3431 5.61553 12.9518 4.26216 12.2188 3.11101C11.4857 1.95987 10.4437 1.06266 9.22465 0.532846C8.00558 0.003033 6.66416 -0.13559 5.37 0.134506C4.07585 0.404603 2.88709 1.07129 1.95406 2.05026C1.02102 3.02922 0.385618 4.2765 0.128195 5.63437C-0.129228 6.99224 0.00289069 8.3997 0.507845 9.67879C1.0128 10.9579 1.86791 12.0511 2.96504 12.8203C4.06217 13.5895 5.35205 14 6.67156 14C6.81901 14 6.96042 13.9385 7.06468 13.8291C7.16895 13.7198 7.22752 13.5714 7.22752 13.4167C7.22752 13.262 7.16895 13.1136 7.06468 13.0042C6.96042 12.8948 6.81901 12.8333 6.67156 12.8333Z" fill="#212121"/>
<path d="M6.67208 3.5C6.52463 3.5 6.38322 3.56146 6.27896 3.67085C6.1747 3.78025 6.11612 3.92862 6.11612 4.08333V6.7585L4.61113 8.33758C4.55803 8.39139 4.51568 8.45576 4.48654 8.52692C4.45741 8.59809 4.44207 8.67464 4.44143 8.75209C4.44079 8.82955 4.45485 8.90636 4.48281 8.97805C4.51076 9.04974 4.55204 9.11487 4.60424 9.16964C4.65644 9.22441 4.71852 9.26772 4.78684 9.29705C4.85517 9.32639 4.92838 9.34114 5.0022 9.34047C5.07602 9.3398 5.14897 9.32371 5.2168 9.29313C5.28463 9.26256 5.34598 9.21812 5.39726 9.16241L7.06515 7.41241C7.16942 7.30304 7.22801 7.15469 7.22804 7V4.08333C7.22804 3.92862 7.16947 3.78025 7.06521 3.67085C6.96094 3.56146 6.81953 3.5 6.67208 3.5V3.5Z" fill="#212121"/>
</g>
<defs>
<clipPath id="clip0_6032_26879">
<rect width="13.3431" height="14" fill="white"/>
</clipPath>
</defs>
</svg>
