<svg width="31" height="30" viewBox="0 0 31 30" fill="none" xmlns="http://www.w3.org/2000/svg">
<g id="fi-rr-exclamation" clip-path="url(#clip0_17918_19133)">
<path id="Vector" d="M15.5 0C12.5333 0 9.63319 0.879735 7.16645 2.52796C4.69972 4.17618 2.77713 6.51886 1.64181 9.25975C0.506499 12.0006 0.209449 15.0166 0.788228 17.9264C1.36701 20.8361 2.79562 23.5088 4.8934 25.6066C6.99119 27.7044 9.66394 29.133 12.5737 29.7118C15.4834 30.2906 18.4994 29.9935 21.2403 28.8582C23.9811 27.7229 26.3238 25.8003 27.972 23.3336C29.6203 20.8668 30.5 17.9667 30.5 15C30.4957 11.0231 28.914 7.21026 26.1019 4.39815C23.2897 1.58604 19.4769 0.00430135 15.5 0V0ZM15.5 27.5C13.0277 27.5 10.611 26.7669 8.55538 25.3934C6.49976 24.0199 4.89761 22.0676 3.95151 19.7835C3.00542 17.4995 2.75788 14.9861 3.24019 12.5614C3.72251 10.1366 4.91302 7.90932 6.66117 6.16117C8.40933 4.41301 10.6366 3.2225 13.0614 2.74018C15.4861 2.25787 17.9995 2.50541 20.2836 3.45151C22.5676 4.3976 24.5199 5.99976 25.8934 8.05537C27.2669 10.111 28 12.5277 28 15C27.9964 18.3141 26.6782 21.4914 24.3348 23.8348C21.9914 26.1782 18.8141 27.4964 15.5 27.5Z" fill="#212121"/>
<path id="Vector_2" d="M15.5 6.25C15.1685 6.25 14.8505 6.3817 14.6161 6.61612C14.3817 6.85054 14.25 7.16848 14.25 7.5V17.5C14.25 17.8315 14.3817 18.1495 14.6161 18.3839C14.8505 18.6183 15.1685 18.75 15.5 18.75C15.8315 18.75 16.1495 18.6183 16.3839 18.3839C16.6183 18.1495 16.75 17.8315 16.75 17.5V7.5C16.75 7.16848 16.6183 6.85054 16.3839 6.61612C16.1495 6.3817 15.8315 6.25 15.5 6.25Z" fill="#212121"/>
<path id="Vector_3" d="M16.75 22.5C16.75 21.8096 16.1904 21.25 15.5 21.25C14.8096 21.25 14.25 21.8096 14.25 22.5C14.25 23.1904 14.8096 23.75 15.5 23.75C16.1904 23.75 16.75 23.1904 16.75 22.5Z" fill="#212121"/>
</g>
<defs>
<clipPath id="clip0_17918_19133">
<rect width="30" height="30" fill="white" transform="translate(0.5)"/>
</clipPath>
</defs>
</svg>
