<svg width="24" height="24" viewBox="0 0 24 24" fill="none" xmlns="http://www.w3.org/2000/svg">
<g id="fi-rr-arrow-small-left">
<path id="Vector" d="M18.9674 11.0043H9.01501L12.2893 7.72999C12.3826 7.63747 12.4567 7.52739 12.5072 7.40611C12.5577 7.28484 12.5837 7.15475 12.5837 7.02337C12.5837 6.89199 12.5577 6.7619 12.5072 6.64062C12.4567 6.51935 12.3826 6.40927 12.2893 6.31675C12.1029 6.13139 11.8506 6.02734 11.5877 6.02734C11.3248 6.02734 11.0725 6.13139 10.8861 6.31675L6.61649 10.5963C6.24269 10.9678 6.03152 11.4725 6.0293 11.9996V11.9996C6.03414 12.5232 6.24511 13.0238 6.61649 13.3929L10.8861 17.6724C10.9789 17.7645 11.0889 17.8375 11.2099 17.8871C11.3309 17.9367 11.4605 17.962 11.5912 17.9616C11.722 17.9611 11.8514 17.9349 11.972 17.8844C12.0927 17.834 12.2022 17.7602 12.2943 17.6674C12.3865 17.5746 12.4594 17.4646 12.509 17.3436C12.5587 17.2226 12.584 17.093 12.5835 16.9623C12.583 16.8315 12.5568 16.7021 12.5063 16.5815C12.4559 16.4608 12.3821 16.3513 12.2893 16.2592L9.01501 12.9948H18.9674C19.2313 12.9948 19.4845 12.8899 19.6711 12.7033C19.8578 12.5166 19.9626 12.2635 19.9626 11.9996C19.9626 11.7356 19.8578 11.4825 19.6711 11.2958C19.4845 11.1092 19.2313 11.0043 18.9674 11.0043Z" fill="#212121"/>
</g>
</svg>
