<svg width="31" height="30" viewBox="0 0 31 30" fill="none" xmlns="http://www.w3.org/2000/svg">
<g id="fi-rr-pencil" clip-path="url(#clip0_17400_7368)">
<path id="Vector" d="M29.0663 1.43494C28.2165 0.586438 27.0647 0.109863 25.8638 0.109863C24.6629 0.109863 23.5111 0.586438 22.6613 1.43494L2.33127 21.7649C1.74908 22.3439 1.28747 23.0325 0.973141 23.7909C0.658811 24.5494 0.498003 25.3627 0.500019 26.1837V28.7499C0.500019 29.0815 0.631715 29.3994 0.866135 29.6338C1.10056 29.8682 1.4185 29.9999 1.75002 29.9999H4.31627C5.13722 30.0023 5.95048 29.8417 6.70896 29.5276C7.46745 29.2135 8.15609 28.752 8.73502 28.1699L29.0663 7.83869C29.9144 6.98894 30.3907 5.8374 30.3907 4.63682C30.3907 3.43624 29.9144 2.2847 29.0663 1.43494ZM6.96752 26.4024C6.26252 27.1028 5.30997 27.4971 4.31627 27.4999H3.00002V26.1837C2.99875 25.6911 3.09521 25.2031 3.28382 24.748C3.47242 24.2929 3.74941 23.8798 4.09877 23.5324L19.5275 8.10369L22.4025 10.9787L6.96752 26.4024ZM27.2975 6.07119L24.165 9.20494L21.29 6.33619L24.4238 3.20244C24.6125 3.01408 24.8366 2.86474 25.0831 2.76295C25.3295 2.66117 25.5937 2.60893 25.8604 2.60922C26.127 2.60951 26.391 2.66232 26.6373 2.76464C26.8836 2.86697 27.1073 3.01679 27.2956 3.20557C27.484 3.39434 27.6333 3.61837 27.7351 3.86486C27.8369 4.11135 27.8892 4.37547 27.8889 4.64215C27.8886 4.90883 27.8358 5.17284 27.7334 5.41911C27.6311 5.66538 27.4813 5.88908 27.2925 6.07744L27.2975 6.07119Z" fill="#212121"/>
</g>
<defs>
<clipPath id="clip0_17400_7368">
<rect width="30" height="30" fill="white" transform="translate(0.5)"/>
</clipPath>
</defs>
</svg>
