<svg width="19" height="19" viewBox="0 0 19 19" fill="none" xmlns="http://www.w3.org/2000/svg">
<g clip-path="url(#clip0_8941_10156)">
<path d="M17.461 8.68232L9.32312 13.3906L1.18524 8.68232C1.00873 8.58022 0.797376 8.54989 0.597674 8.59803C0.397973 8.64616 0.226283 8.76881 0.120375 8.93899C0.014467 9.10917 -0.0169836 9.31294 0.0329419 9.50548C0.0828673 9.69802 0.210079 9.86355 0.386592 9.96566L8.92418 14.9044C9.04489 14.9744 9.18307 15.0113 9.32389 15.0113C9.46472 15.0113 9.60289 14.9744 9.72361 14.9044L18.2612 9.96566C18.4377 9.86355 18.5649 9.69802 18.6148 9.50548C18.6648 9.31294 18.6333 9.10917 18.5274 8.93899C18.4215 8.76881 18.2498 8.64616 18.0501 8.59803C17.8504 8.54989 17.6391 8.58022 17.4625 8.68232H17.461Z" fill="#49454F"/>
<path d="M17.461 12.1L9.32311 16.8076L1.18524 12.1C1.09784 12.0495 1.00097 12.016 0.900153 12.0016C0.799337 11.9871 0.696554 11.9919 0.597672 12.0158C0.49879 12.0396 0.405745 12.082 0.32385 12.1405C0.241954 12.199 0.172813 12.2725 0.120373 12.3567C0.0679323 12.441 0.0332204 12.5344 0.0182186 12.6316C0.00321679 12.7288 0.00821898 12.8279 0.0329396 12.9232C0.082865 13.1157 0.210077 13.2813 0.38659 13.3834L8.92418 18.3222C9.04489 18.3921 9.18306 18.429 9.32389 18.429C9.46472 18.429 9.60289 18.3921 9.7236 18.3222L18.2612 13.3834C18.4377 13.2813 18.5649 13.1157 18.6148 12.9232C18.6648 12.7307 18.6333 12.5269 18.5274 12.3567C18.4215 12.1865 18.2498 12.0639 18.0501 12.0158C17.8504 11.9676 17.639 11.9979 17.4625 12.1H17.461Z" fill="#49454F"/>
<path d="M9.32325 11.5245C8.90458 11.5243 8.49385 11.4144 8.13497 11.2065L0.38595 6.72345C0.271195 6.65692 0.176244 6.5629 0.110326 6.45053C0.0444083 6.33816 0.00976563 6.21126 0.00976562 6.08216C0.00976563 5.95306 0.0444083 5.82615 0.110326 5.71378C0.176244 5.60141 0.271195 5.50739 0.38595 5.44086L8.13497 0.957802C8.49384 0.749946 8.9046 0.640137 9.32325 0.640137C9.7419 0.640137 10.1527 0.749946 10.5115 0.957802L18.2605 5.44086C18.3753 5.50739 18.4703 5.60141 18.5362 5.71378C18.6021 5.82615 18.6367 5.95306 18.6367 6.08216C18.6367 6.21126 18.6021 6.33816 18.5362 6.45053C18.4703 6.5629 18.3753 6.65692 18.2605 6.72345L10.5115 11.2065C10.1526 11.4144 9.74192 11.5243 9.32325 11.5245ZM2.29449 6.08216L8.93518 9.92318C9.05247 9.99082 9.18658 10.0265 9.32325 10.0265C9.45992 10.0265 9.59403 9.99082 9.71132 9.92318L16.352 6.08216L9.71132 2.24114C9.59403 2.17349 9.45992 2.13777 9.32325 2.13777C9.18658 2.13777 9.05247 2.17349 8.93518 2.24114L2.29449 6.08216Z" fill="#49454F"/>
</g>
<defs>
<clipPath id="clip0_8941_10156">
<rect width="18.6275" height="17.9592" fill="white" transform="translate(0.00976562 0.469482)"/>
</clipPath>
</defs>
</svg>
