<svg width="17" height="18" viewBox="0 0 17 18" fill="none" xmlns="http://www.w3.org/2000/svg">
<g id="fi-rr-angle-small-left">
<path id="Vector" d="M7.69738 9.64433C7.63311 9.58059 7.5821 9.50475 7.54728 9.42119C7.51247 9.33763 7.49455 9.248 7.49455 9.15748C7.49455 9.06695 7.51247 8.97733 7.54728 8.89377C7.5821 8.81021 7.63311 8.73437 7.69738 8.67062L10.8448 5.53005C10.9091 5.4663 10.9601 5.39046 10.9949 5.3069C11.0297 5.22334 11.0476 5.13371 11.0476 5.04319C11.0476 4.95267 11.0297 4.86304 10.9949 4.77948C10.9601 4.69592 10.9091 4.62008 10.8448 4.55633C10.7163 4.42862 10.5425 4.35693 10.3614 4.35693C10.1802 4.35693 10.0064 4.42862 9.87795 4.55633L6.73052 7.70376C6.34529 8.08948 6.12891 8.61233 6.12891 9.15748C6.12891 9.70262 6.34529 10.2255 6.73052 10.6112L9.87795 13.7586C10.0057 13.8853 10.1781 13.9567 10.358 13.9575C10.4482 13.958 10.5377 13.9407 10.6212 13.9066C10.7047 13.8725 10.7807 13.8222 10.8448 13.7586C10.9091 13.6949 10.9601 13.619 10.9949 13.5355C11.0297 13.4519 11.0476 13.3623 11.0476 13.2718C11.0476 13.1812 11.0297 13.0916 10.9949 13.0081C10.9601 12.9245 10.9091 12.8487 10.8448 12.7849L7.69738 9.64433Z" fill="#212121"/>
</g>
</svg>
