<svg width="8" height="16" viewBox="0 0 8 16" fill="none" xmlns="http://www.w3.org/2000/svg">
<path d="M2.49033 8.72203C2.39125 8.62375 2.3126 8.50683 2.25893 8.37801C2.20526 8.24919 2.17763 8.11101 2.17763 7.97146C2.17763 7.8319 2.20526 7.69373 2.25893 7.5649C2.3126 7.43608 2.39125 7.31916 2.49033 7.22088L7.34262 2.37917C7.4417 2.28089 7.52035 2.16397 7.57402 2.03515C7.62769 1.90633 7.65532 1.76815 7.65532 1.6286C7.65532 1.48904 7.62769 1.35087 7.57402 1.22205C7.52035 1.09322 7.4417 0.976302 7.34262 0.878027C7.14455 0.681133 6.87661 0.570618 6.59733 0.570618C6.31805 0.570618 6.05012 0.681133 5.85205 0.878027L0.99976 5.73031C0.405855 6.32496 0.0722656 7.13102 0.0722656 7.97146C0.0722656 8.81189 0.405855 9.61795 0.99976 10.2126L5.85205 15.0649C6.04895 15.2602 6.31472 15.3703 6.59205 15.3715C6.73117 15.3723 6.86909 15.3456 6.99789 15.293C7.12669 15.2404 7.24384 15.1629 7.34262 15.0649C7.4417 14.9666 7.52035 14.8497 7.57402 14.7209C7.62769 14.592 7.65532 14.4539 7.65532 14.3143C7.65532 14.1748 7.62769 14.0366 7.57402 13.9078C7.52035 13.7789 7.4417 13.662 7.34262 13.5637L2.49033 8.72203Z" fill="#212121"/>
</svg>
