<svg width="18" height="18" viewBox="0 0 18 18" fill="none" xmlns="http://www.w3.org/2000/svg">
<g id="fi-rr-map-marker" clip-path="url(#clip0_13417_11260)">
<path id="Vector" d="M8.99809 9C9.59143 9 10.1715 8.82405 10.6648 8.49441C11.1581 8.16476 11.5427 7.69623 11.7697 7.14805C11.9968 6.59987 12.0562 5.99667 11.9404 5.41473C11.8247 4.83279 11.539 4.29824 11.1194 3.87868C10.6999 3.45912 10.1653 3.1734 9.58336 3.05764C9.00142 2.94189 8.39822 3.0013 7.85004 3.22836C7.30186 3.45542 6.83332 3.83994 6.50368 4.33329C6.17404 4.82664 5.99809 5.40666 5.99809 6C5.99809 6.79565 6.31416 7.55871 6.87677 8.12132C7.43938 8.68393 8.20244 9 8.99809 9ZM8.99809 4.5C9.29476 4.5 9.58477 4.58797 9.83144 4.7528C10.0781 4.91762 10.2704 5.15189 10.3839 5.42597C10.4974 5.70006 10.5271 6.00166 10.4693 6.29264C10.4114 6.58361 10.2685 6.85088 10.0587 7.06066C9.84897 7.27044 9.5817 7.4133 9.29072 7.47118C8.99975 7.52906 8.69815 7.49935 8.42406 7.38582C8.14997 7.27229 7.91571 7.08003 7.75088 6.83336C7.58606 6.58668 7.49809 6.29667 7.49809 6C7.49809 5.60218 7.65612 5.22064 7.93743 4.93934C8.21873 4.65804 8.60026 4.5 8.99809 4.5ZM15.4931 6.86775L14.9538 6.6885C15.0509 5.84844 14.9692 4.99736 14.7143 4.19106C14.4593 3.38477 14.0368 2.64147 13.4745 2.00992C12.9121 1.37836 12.2226 0.87282 11.4511 0.526435C10.6797 0.18005 9.84373 0.000650611 8.99809 0C8.14141 0.000330727 7.29475 0.184271 6.51515 0.539426C5.73556 0.894582 5.04114 1.4127 4.47868 2.05888C3.91622 2.70506 3.4988 3.46428 3.25452 4.2854C3.01025 5.10652 2.9448 5.97045 3.06259 6.819C2.34486 6.95282 1.68118 7.29144 1.15159 7.794C0.784969 8.14256 0.493516 8.56242 0.295147 9.02777C0.0967791 9.49313 -0.00431216 9.99414 -0.00191134 10.5V13.5563C-0.000335148 14.3672 0.263433 15.156 0.750032 15.8048C1.23663 16.4536 1.91997 16.9277 2.69809 17.1562L4.85059 17.8312C5.21214 17.9438 5.58869 18.0007 5.96734 18C6.31083 17.9996 6.65268 17.9526 6.98359 17.8605L11.3186 16.578C11.7048 16.4726 12.1122 16.4726 12.4983 16.578L14.2886 17.178C14.7298 17.2854 15.1897 17.2912 15.6335 17.1951C16.0773 17.0989 16.4934 16.9032 16.8506 16.6228C17.2078 16.3424 17.4967 15.9845 17.6954 15.5762C17.8942 15.1679 17.9977 14.7199 17.9981 14.2657V10.404C17.9964 9.62806 17.7547 8.87163 17.3063 8.23841C16.8578 7.60519 16.2245 7.12616 15.4931 6.867V6.86775ZM5.81659 2.8215C6.23378 2.40262 6.72959 2.07024 7.27555 1.84345C7.82152 1.61666 8.40689 1.49991 8.99809 1.49991C9.58928 1.49991 10.1747 1.61666 10.7206 1.84345C11.2666 2.07024 11.7624 2.40262 12.1796 2.8215C13.0212 3.66836 13.4943 4.81336 13.4958 6.0073C13.4974 7.20124 13.0273 8.34747 12.1878 9.1965L9.52309 11.7878C9.38401 11.9241 9.19699 12.0005 9.00221 12.0005C8.80743 12.0005 8.62042 11.9241 8.48134 11.7878L5.81659 9.20775C4.97319 8.35904 4.49982 7.21113 4.49982 6.01462C4.49982 4.81812 4.97319 3.67021 5.81659 2.8215V2.8215ZM16.4981 14.2657C16.4985 14.4929 16.4472 14.7172 16.3479 14.9215C16.2486 15.1258 16.104 15.3048 15.9251 15.4448C15.756 15.5807 15.5591 15.6777 15.3484 15.7289C15.1376 15.7801 14.9181 15.7842 14.7056 15.741L12.9468 15.15C12.2816 14.9589 11.5765 14.9547 10.9091 15.138L6.57109 16.419C6.15429 16.534 5.7132 16.5264 5.30059 16.3973L3.13009 15.7222C2.66033 15.5864 2.24731 15.3018 1.95304 14.9113C1.65877 14.5207 1.49913 14.0453 1.49809 13.5563V10.5C1.4964 10.1968 1.55675 9.89653 1.67541 9.61755C1.79407 9.33857 1.96854 9.08681 2.18809 8.87775C2.53178 8.5502 2.9696 8.33876 3.43984 8.27325C3.74217 9.02263 4.19237 9.70343 4.76359 10.275L7.43884 12.8647C7.85697 13.2742 8.41888 13.5035 9.00409 13.5035C9.5893 13.5035 10.1512 13.2742 10.5693 12.8647L13.2416 10.2675C13.8399 9.66678 14.3034 8.94553 14.6013 8.15175L15.0041 8.28525C15.4409 8.44176 15.8187 8.72922 16.0861 9.1084C16.3535 9.48758 16.4973 9.94003 16.4981 10.404V14.2657Z" fill="#212121"/>
</g>
<defs>
<clipPath id="clip0_13417_11260">
<rect width="18" height="18" fill="white"/>
</clipPath>
</defs>
</svg>
