<svg width="43" height="33" viewBox="0 0 43 33" fill="none" xmlns="http://www.w3.org/2000/svg">
<rect width="43" height="33" rx="16.5" fill="#E6E8E4"/>
<g clip-path="url(#clip0_6986_9767)">
<path d="M29.2917 15.7917H22.2083V8.70833C22.2083 8.52047 22.1337 8.3403 22.0009 8.20747C21.868 8.07463 21.6879 8 21.5 8V8C21.3121 8 21.132 8.07463 20.9991 8.20747C20.8663 8.3403 20.7917 8.52047 20.7917 8.70833V15.7917H13.7083C13.5205 15.7917 13.3403 15.8663 13.2075 15.9991C13.0746 16.132 13 16.3121 13 16.5V16.5C13 16.6879 13.0746 16.868 13.2075 17.0009C13.3403 17.1337 13.5205 17.2083 13.7083 17.2083H20.7917V24.2917C20.7917 24.4795 20.8663 24.6597 20.9991 24.7925C21.132 24.9254 21.3121 25 21.5 25C21.6879 25 21.868 24.9254 22.0009 24.7925C22.1337 24.6597 22.2083 24.4795 22.2083 24.2917V17.2083H29.2917C29.4795 17.2083 29.6597 17.1337 29.7925 17.0009C29.9254 16.868 30 16.6879 30 16.5C30 16.3121 29.9254 16.132 29.7925 15.9991C29.6597 15.8663 29.4795 15.7917 29.2917 15.7917Z" fill="#6C6C6B"/>
</g>
<defs>
<clipPath id="clip0_6986_9767">
<rect width="17" height="17" fill="white" transform="translate(13 8)"/>
</clipPath>
</defs>
</svg>
