<svg width="17" height="17" viewBox="0 0 17 17" fill="none" xmlns="http://www.w3.org/2000/svg">
<g clip-path="url(#clip0_11186_18525)">
<path d="M1.89272 9.82156C2.62252 9.82156 3.21415 9.22994 3.21415 8.50014C3.21415 7.77033 2.62252 7.17871 1.89272 7.17871C1.16291 7.17871 0.571289 7.77033 0.571289 8.50014C0.571289 9.22994 1.16291 9.82156 1.89272 9.82156Z" fill="#212121"/>
<path d="M8.50014 9.82156C9.22994 9.82156 9.82156 9.22994 9.82156 8.50014C9.82156 7.77033 9.22994 7.17871 8.50014 7.17871C7.77033 7.17871 7.17871 7.77033 7.17871 8.50014C7.17871 9.22994 7.77033 9.82156 8.50014 9.82156Z" fill="#212121"/>
<path d="M15.1066 9.82156C15.8364 9.82156 16.428 9.22994 16.428 8.50014C16.428 7.77033 15.8364 7.17871 15.1066 7.17871C14.3768 7.17871 13.7852 7.77033 13.7852 8.50014C13.7852 9.22994 14.3768 9.82156 15.1066 9.82156Z" fill="#212121"/>
</g>
<defs>
<clipPath id="clip0_11186_18525">
<rect width="15.8571" height="15.8571" fill="white" transform="translate(0.571289 0.571289)"/>
</clipPath>
</defs>
</svg>
