<svg width="22" height="21" viewBox="0 0 22 21" fill="none" xmlns="http://www.w3.org/2000/svg">
<g id="calendar">
<path id="icon" fill-rule="evenodd" clip-rule="evenodd" d="M5.64369 2.16732C5.64369 1.70708 6.04344 1.33398 6.53655 1.33398C7.02966 1.33398 7.42941 1.70708 7.42941 2.16732V3.00065H14.5723V2.16732C14.5723 1.70708 14.972 1.33398 15.4651 1.33398C15.9582 1.33398 16.358 1.70708 16.358 2.16732V3.00065H17.2508C18.7302 3.00065 19.9294 4.11994 19.9294 5.50065V17.1673C19.9294 18.548 18.7302 19.6673 17.2508 19.6673H4.75084C3.2715 19.6673 2.07227 18.548 2.07227 17.1673V5.50065C2.07227 4.11994 3.2715 3.00065 4.75084 3.00065H5.64369V2.16732ZM14.5723 4.66732V5.50065C14.5723 5.96089 14.972 6.33398 15.4651 6.33398C15.9582 6.33398 16.358 5.96089 16.358 5.50065V4.66732H17.2508C17.7439 4.66732 18.1437 5.04041 18.1437 5.50065V8.00065H3.85798V5.50065C3.85798 5.04041 4.25773 4.66732 4.75084 4.66732H5.64369V5.50065C5.64369 5.96089 6.04344 6.33398 6.53655 6.33398C7.02966 6.33398 7.42941 5.96089 7.42941 5.50065V4.66732H14.5723ZM3.85798 9.66732V17.1673C3.85798 17.6276 4.25773 18.0007 4.75084 18.0007H17.2508C17.7439 18.0007 18.1437 17.6276 18.1437 17.1673V9.66732H3.85798Z" fill="#A3A2A4"/>
</g>
</svg>
