<svg width="12" height="12" viewBox="0 0 12 12" fill="none" xmlns="http://www.w3.org/2000/svg">
<g clip-path="url(#clip0_4990_20233)">
<path d="M11.6358 4.70939C10.8603 3.44639 9.09627 1.32739 6.00027 1.32739C2.90427 1.32739 1.14027 3.44639 0.36477 4.70939C0.125034 5.09715 -0.00195312 5.54401 -0.00195312 5.99989C-0.00195313 6.45577 0.125034 6.90264 0.36477 7.29039C1.14027 8.55339 2.90427 10.6724 6.00027 10.6724C9.09627 10.6724 10.8603 8.55339 11.6358 7.29039C11.8755 6.90264 12.0025 6.45577 12.0025 5.99989C12.0025 5.54401 11.8755 5.09715 11.6358 4.70939V4.70939ZM10.7833 6.76689C10.1173 7.84989 8.60977 9.67239 6.00027 9.67239C3.39077 9.67239 1.88327 7.84989 1.21727 6.76689C1.07484 6.53642 0.999395 6.27083 0.999395 5.99989C0.999395 5.72896 1.07484 5.46337 1.21727 5.23289C1.88327 4.14989 3.39077 2.32739 6.00027 2.32739C8.60977 2.32739 10.1173 4.14789 10.7833 5.23289C10.9257 5.46337 11.0011 5.72896 11.0011 5.99989C11.0011 6.27083 10.9257 6.53642 10.7833 6.76689V6.76689Z" fill="#212121"/>
<path d="M6 3.49992C5.50555 3.49992 5.0222 3.64655 4.61108 3.92125C4.19995 4.19595 3.87952 4.5864 3.6903 5.04322C3.50108 5.50003 3.45157 6.0027 3.54804 6.48765C3.6445 6.9726 3.8826 7.41806 4.23223 7.76769C4.58187 8.11732 5.02732 8.35542 5.51228 8.45189C5.99723 8.54835 6.49989 8.49884 6.95671 8.30962C7.41352 8.1204 7.80397 7.79997 8.07868 7.38885C8.35338 6.97773 8.5 6.49438 8.5 5.99992C8.49921 5.33713 8.23556 4.7017 7.76689 4.23303C7.29822 3.76436 6.6628 3.50072 6 3.49992V3.49992ZM6 7.49992C5.70333 7.49992 5.41332 7.41195 5.16665 7.24713C4.91997 7.08231 4.72771 6.84804 4.61418 6.57395C4.50065 6.29986 4.47095 5.99826 4.52882 5.70729C4.5867 5.41632 4.72956 5.14904 4.93934 4.93926C5.14912 4.72948 5.41639 4.58662 5.70737 4.52875C5.99834 4.47087 6.29994 4.50057 6.57403 4.6141C6.84812 4.72764 7.08238 4.91989 7.24721 5.16657C7.41203 5.41324 7.5 5.70325 7.5 5.99992C7.5 6.39775 7.34197 6.77928 7.06066 7.06058C6.77936 7.34189 6.39783 7.49992 6 7.49992Z" fill="#212121"/>
</g>
<defs>
<clipPath id="clip0_4990_20233">
<rect width="12" height="12" fill="white"/>
</clipPath>
</defs>
</svg>
