<svg width="18" height="18" viewBox="0 0 18 18" fill="none" xmlns="http://www.w3.org/2000/svg">
<g id="fi-rr-eye" clip-path="url(#clip0_13376_18301)">
<path id="Vector" d="M17.4537 7.06323C16.2904 5.16873 13.6444 1.99023 9.0004 1.99023C4.3564 1.99023 1.7104 5.16873 0.547155 7.06323C0.187551 7.64486 -0.00292969 8.31517 -0.00292969 8.99898C-0.00292969 9.6828 0.187551 10.3531 0.547155 10.9347C1.7104 12.8292 4.3564 16.0077 9.0004 16.0077C13.6444 16.0077 16.2904 12.8292 17.4537 10.9347C17.8133 10.3531 18.0037 9.6828 18.0037 8.99898C18.0037 8.31517 17.8133 7.64486 17.4537 7.06323V7.06323ZM16.1749 10.1495C15.1759 11.774 12.9147 14.5077 9.0004 14.5077C5.08615 14.5077 2.8249 11.774 1.8259 10.1495C1.61226 9.80377 1.49909 9.40539 1.49909 8.99898C1.49909 8.59258 1.61226 8.1942 1.8259 7.84848C2.8249 6.22398 5.08615 3.49023 9.0004 3.49023C12.9147 3.49023 15.1759 6.22098 16.1749 7.84848C16.3886 8.1942 16.5017 8.59258 16.5017 8.99898C16.5017 9.40539 16.3886 9.80377 16.1749 10.1495V10.1495Z" fill="#212121"/>
<path id="Vector_2" d="M9 5.25C8.25832 5.25 7.5333 5.46993 6.91661 5.88199C6.29993 6.29404 5.81928 6.87971 5.53545 7.56494C5.25162 8.25016 5.17736 9.00416 5.32206 9.73159C5.46675 10.459 5.8239 11.1272 6.34835 11.6517C6.8728 12.1761 7.54098 12.5333 8.26841 12.6779C8.99584 12.8226 9.74984 12.7484 10.4351 12.4645C11.1203 12.1807 11.706 11.7001 12.118 11.0834C12.5301 10.4667 12.75 9.74168 12.75 9C12.7488 8.0058 12.3533 7.05267 11.6503 6.34967C10.9473 5.64666 9.9942 5.25119 9 5.25V5.25ZM9 11.25C8.55499 11.25 8.11998 11.118 7.74997 10.8708C7.37996 10.6236 7.09157 10.2722 6.92127 9.86104C6.75098 9.4499 6.70642 8.9975 6.79323 8.56105C6.88005 8.12459 7.09434 7.72368 7.40901 7.40901C7.72368 7.09434 8.12459 6.88005 8.56105 6.79323C8.99751 6.70642 9.44991 6.75097 9.86104 6.92127C10.2722 7.09157 10.6236 7.37996 10.8708 7.74997C11.118 8.11998 11.25 8.55499 11.25 9C11.25 9.59674 11.0129 10.169 10.591 10.591C10.169 11.0129 9.59674 11.25 9 11.25Z" fill="#212121"/>
</g>
<defs>
<clipPath id="clip0_13376_18301">
<rect width="18" height="18" fill="white"/>
</clipPath>
</defs>
</svg>
