<svg width="23" height="23" viewBox="0 0 23 23" fill="none" xmlns="http://www.w3.org/2000/svg">
<g id="fi-rr-password">
<path id="Vector" d="M14.3757 16.2061C14.3757 16.4558 14.2747 16.6952 14.095 16.8718C13.9153 17.0484 13.6715 17.1476 13.4174 17.1476H9.58404C9.32987 17.1476 9.08612 17.0484 8.9064 16.8718C8.72668 16.6952 8.62571 16.4558 8.62571 16.2061C8.62571 15.9564 8.72668 15.7169 8.9064 15.5403C9.08612 15.3637 9.32987 15.2645 9.58404 15.2645H13.4174C13.6715 15.2645 13.9153 15.3637 14.095 15.5403C14.2747 15.7169 14.3757 15.9564 14.3757 16.2061ZM14.0949 7.06673C13.9152 6.89022 13.6715 6.79107 13.4174 6.79107C13.1633 6.79107 12.9195 6.89022 12.7398 7.06673L11.5007 8.28412L10.2616 7.06673C10.1732 6.97681 10.0674 6.90508 9.95051 6.85574C9.83359 6.80639 9.70784 6.78042 9.58059 6.77933C9.45335 6.77825 9.32715 6.80207 9.20938 6.84941C9.0916 6.89675 8.9846 6.96666 8.89462 7.05506C8.80464 7.14346 8.73348 7.24859 8.6853 7.36429C8.63711 7.48 8.61286 7.60398 8.61397 7.729C8.61507 7.85401 8.64151 7.97756 8.69174 8.09243C8.74196 8.2073 8.81497 8.31119 8.9065 8.39804L10.1456 9.61542L8.9065 10.8328C8.81497 10.9197 8.74196 11.0236 8.69174 11.1384C8.64151 11.2533 8.61507 11.3768 8.61397 11.5019C8.61286 11.6269 8.63711 11.7508 8.6853 11.8666C8.73348 11.9823 8.80464 12.0874 8.89462 12.1758C8.9846 12.2642 9.0916 12.3341 9.20938 12.3814C9.32715 12.4288 9.45335 12.4526 9.58059 12.4515C9.70784 12.4504 9.83359 12.4245 9.95051 12.3751C10.0674 12.3258 10.1732 12.254 10.2616 12.1641L11.5007 10.9467L12.7398 12.1641C12.9206 12.3356 13.1627 12.4305 13.4139 12.4284C13.6652 12.4262 13.9056 12.3272 14.0832 12.1526C14.2609 11.9781 14.3617 11.7419 14.3639 11.4951C14.3661 11.2482 14.2695 11.0104 14.0949 10.8328L12.8558 9.61542L14.0949 8.39804C14.2746 8.22148 14.3755 7.98204 14.3755 7.73239C14.3755 7.48273 14.2746 7.24329 14.0949 7.06673ZM21.084 15.2645H17.2507C16.9965 15.2645 16.7528 15.3637 16.5731 15.5403C16.3933 15.7169 16.2924 15.9564 16.2924 16.2061C16.2924 16.4558 16.3933 16.6952 16.5731 16.8718C16.7528 17.0484 16.9965 17.1476 17.2507 17.1476H21.084C21.3382 17.1476 21.582 17.0484 21.7617 16.8718C21.9414 16.6952 22.0424 16.4558 22.0424 16.2061C22.0424 15.9564 21.9414 15.7169 21.7617 15.5403C21.582 15.3637 21.3382 15.2645 21.084 15.2645ZM20.5225 9.61542L21.7616 8.39804C21.8531 8.31119 21.9261 8.2073 21.9763 8.09243C22.0266 7.97756 22.053 7.85401 22.0541 7.729C22.0552 7.60398 22.031 7.48 21.9828 7.36429C21.9346 7.24859 21.8634 7.14346 21.7735 7.05506C21.6835 6.96666 21.5765 6.89675 21.4587 6.84941C21.3409 6.80207 21.2147 6.77825 21.0875 6.77933C20.9602 6.78042 20.8345 6.80639 20.7176 6.85574C20.6006 6.90508 20.4949 6.97681 20.4065 7.06673L19.1674 8.28412L17.9282 7.06673C17.8398 6.97681 17.7341 6.90508 17.6172 6.85574C17.5003 6.80639 17.3745 6.78042 17.2473 6.77933C17.12 6.77825 16.9938 6.80207 16.876 6.84941C16.7583 6.89675 16.6513 6.96666 16.5613 7.05506C16.4713 7.14346 16.4001 7.24859 16.352 7.36429C16.3038 7.48 16.2795 7.60398 16.2806 7.729C16.2817 7.85401 16.3082 7.97756 16.3584 8.09243C16.4086 8.2073 16.4816 8.31119 16.5732 8.39804L17.8123 9.61542L16.5732 10.8328C16.4816 10.9197 16.4086 11.0236 16.3584 11.1384C16.3082 11.2533 16.2817 11.3768 16.2806 11.5019C16.2795 11.6269 16.3038 11.7508 16.352 11.8666C16.4001 11.9823 16.4713 12.0874 16.5613 12.1758C16.6513 12.2642 16.7583 12.3341 16.876 12.3814C16.9938 12.4288 17.12 12.4526 17.2473 12.4515C17.3745 12.4504 17.5003 12.4245 17.6172 12.3751C17.7341 12.3258 17.8398 12.254 17.9282 12.1641L19.1674 10.9467L20.4065 12.1641C20.5872 12.3356 20.8293 12.4305 21.0806 12.4284C21.3319 12.4262 21.5722 12.3272 21.7499 12.1526C21.9276 11.9781 22.0284 11.7419 22.0306 11.4951C22.0327 11.2482 21.9362 11.0104 21.7616 10.8328L20.5225 9.61542ZM5.75071 15.2645H1.91738C1.66321 15.2645 1.41945 15.3637 1.23973 15.5403C1.06001 15.7169 0.959042 15.9564 0.959042 16.2061C0.959042 16.4558 1.06001 16.6952 1.23973 16.8718C1.41945 17.0484 1.66321 17.1476 1.91738 17.1476H5.75071C6.00487 17.1476 6.24863 17.0484 6.42835 16.8718C6.60807 16.6952 6.70904 16.4558 6.70904 16.2061C6.70904 15.9564 6.60807 15.7169 6.42835 15.5403C6.24863 15.3637 6.00487 15.2645 5.75071 15.2645ZM6.42825 7.06673C6.24854 6.89022 6.00482 6.79107 5.75071 6.79107C5.49659 6.79107 5.25288 6.89022 5.07317 7.06673L3.83404 8.28412L2.59492 7.06673C2.50651 6.97681 2.40077 6.90508 2.28385 6.85574C2.16693 6.80639 2.04117 6.78042 1.91393 6.77933C1.78668 6.77825 1.66049 6.80207 1.54271 6.84941C1.42494 6.89675 1.31794 6.96666 1.22795 7.05506C1.13797 7.14346 1.06682 7.24859 1.01863 7.36429C0.970444 7.48 0.946196 7.60398 0.947302 7.729C0.948408 7.85401 0.974844 7.97756 1.02507 8.09243C1.07529 8.2073 1.1483 8.31119 1.23983 8.39804L2.47896 9.61542L1.23983 10.8328C1.1483 10.9197 1.07529 11.0236 1.02507 11.1384C0.974844 11.2533 0.948408 11.3768 0.947302 11.5019C0.946196 11.6269 0.970444 11.7508 1.01863 11.8666C1.06682 11.9823 1.13797 12.0874 1.22795 12.1758C1.31794 12.2642 1.42494 12.3341 1.54271 12.3814C1.66049 12.4288 1.78668 12.4526 1.91393 12.4515C2.04117 12.4504 2.16693 12.4245 2.28385 12.3751C2.40077 12.3258 2.50651 12.254 2.59492 12.1641L3.83404 10.9467L5.07317 12.1641C5.16157 12.254 5.26732 12.3258 5.38424 12.3751C5.50116 12.4245 5.62691 12.4504 5.75416 12.4515C5.8814 12.4526 6.0076 12.4288 6.12537 12.3814C6.24315 12.3341 6.35015 12.2642 6.44013 12.1758C6.53011 12.0874 6.60127 11.9823 6.64945 11.8666C6.69764 11.7508 6.72189 11.6269 6.72078 11.5019C6.71968 11.3768 6.69324 11.2533 6.64301 11.1384C6.59279 11.0236 6.51978 10.9197 6.42825 10.8328L5.18912 9.61542L6.42825 8.39804C6.60791 8.22148 6.70884 7.98204 6.70884 7.73239C6.70884 7.48273 6.60791 7.24329 6.42825 7.06673Z" fill="#212121"/>
</g>
</svg>
