<svg width="17" height="17" viewBox="0 0 17 17" fill="none" xmlns="http://www.w3.org/2000/svg">
<path d="M8.5 0C6.81886 0 5.17547 0.498516 3.77766 1.43251C2.37984 2.3665 1.29037 3.69402 0.647028 5.24719C0.00368293 6.80036 -0.164645 8.50943 0.163329 10.1583C0.491303 11.8071 1.30085 13.3217 2.4896 14.5104C3.67834 15.6992 5.1929 16.5087 6.84174 16.8367C8.49057 17.1646 10.1996 16.9963 11.7528 16.353C13.306 15.7096 14.6335 14.6202 15.5675 13.2223C16.5015 11.8245 17 10.1811 17 8.5C16.9976 6.24641 16.1013 4.08582 14.5077 2.49228C12.9142 0.898753 10.7536 0.00243743 8.5 0V0ZM14.081 12.8463C13.4763 12.3412 12.9839 11.7154 12.6353 11.0089L13.7211 10.5747C13.8957 10.505 14.0353 10.3688 14.1095 10.1962C14.1836 10.0235 14.1861 9.8284 14.1164 9.65388C14.0467 9.47935 13.9105 9.33966 13.7378 9.26554C13.5651 9.19142 13.3701 9.18893 13.1955 9.25863L12.172 9.66804C11.998 8.89859 11.998 8.1 12.172 7.33054L13.1955 7.73996C13.282 7.77447 13.3743 7.79162 13.4674 7.79043C13.5604 7.78925 13.6523 7.76975 13.7378 7.73304C13.8233 7.69634 13.9008 7.64316 13.9657 7.57653C14.0307 7.5099 14.0819 7.43112 14.1164 7.34471C14.1509 7.25829 14.168 7.16593 14.1669 7.07288C14.1657 6.97984 14.1462 6.88794 14.1095 6.80243C14.0728 6.71693 14.0196 6.63948 13.9529 6.57453C13.8863 6.50958 13.8075 6.45839 13.7211 6.42388L12.6353 5.98967C12.9839 5.28318 13.4763 4.65734 14.081 4.15225C15.0543 5.39193 15.5834 6.92245 15.5834 8.49858C15.5834 10.0747 15.0543 11.6052 14.081 12.8449V12.8463ZM2.91905 4.15367C3.52367 4.65875 4.0161 5.2846 4.36475 5.99108L3.27888 6.42529C3.10436 6.49499 2.96467 6.63116 2.89054 6.80385C2.81642 6.97654 2.81393 7.1716 2.88363 7.34613C2.95333 7.52065 3.0895 7.66034 3.26219 7.73446C3.43488 7.80859 3.62994 7.81107 3.80446 7.74138L4.828 7.33196C4.91182 7.71574 4.9555 8.10719 4.95834 8.5C4.9555 8.89281 4.91182 9.28426 4.828 9.66804L3.80446 9.25863C3.71805 9.22412 3.62568 9.20696 3.53264 9.20815C3.43959 9.20934 3.34769 9.22884 3.26219 9.26554C3.17668 9.30224 3.09924 9.35543 3.03429 9.42206C2.96933 9.48869 2.91814 9.56746 2.88363 9.65388C2.84912 9.74029 2.83197 9.83266 2.83315 9.9257C2.83434 10.0187 2.85384 10.1106 2.89054 10.1962C2.92725 10.2817 2.98043 10.3591 3.04706 10.4241C3.11369 10.489 3.19246 10.5402 3.27888 10.5747L4.36475 11.0089C4.0161 11.7154 3.52367 12.3412 2.91905 12.8463C1.9457 11.6067 1.41664 10.0761 1.41664 8.5C1.41664 6.92386 1.9457 5.39334 2.91905 4.15367V4.15367ZM3.9008 13.8763C4.65165 13.2293 5.2577 12.4314 5.67942 11.5345L6.82055 11.9914C6.90696 12.0259 6.99933 12.043 7.09237 12.0419C7.18541 12.0407 7.27731 12.0212 7.36282 11.9845C7.44833 11.9478 7.52577 11.8946 7.59072 11.8279C7.65568 11.7613 7.70687 11.6825 7.74138 11.5961C7.77589 11.5097 7.79304 11.4173 7.79185 11.3243C7.79067 11.2313 7.77117 11.1394 7.73446 11.0538C7.69776 10.9683 7.64458 10.8909 7.57795 10.8259C7.51132 10.761 7.43254 10.7098 7.34613 10.6753L6.16605 10.2035C6.30428 9.64622 6.37444 9.07421 6.375 8.5C6.37416 7.92698 6.30399 7.35617 6.16605 6.8L7.34613 6.32825C7.52065 6.25855 7.66034 6.12238 7.73446 5.94969C7.80859 5.777 7.81108 5.58194 7.74138 5.40742C7.67168 5.23289 7.53551 5.0932 7.36282 5.01908C7.19013 4.94496 6.99507 4.94247 6.82055 5.01217L5.67942 5.46904C5.25813 4.57086 4.65205 3.77169 3.9008 3.12375C5.18004 2.02245 6.812 1.41674 8.5 1.41674C10.188 1.41674 11.82 2.02245 13.0992 3.12375C12.3484 3.77066 11.7423 4.5686 11.3206 5.4655L10.1795 5.00863C10.093 4.97412 10.0007 4.95696 9.90764 4.95815C9.81459 4.95934 9.72269 4.97884 9.63719 5.01554C9.55168 5.05224 9.47424 5.10543 9.40929 5.17206C9.34433 5.23869 9.29314 5.31746 9.25863 5.40388C9.22412 5.49029 9.20697 5.58266 9.20815 5.6757C9.20934 5.76874 9.22884 5.86064 9.26554 5.94615C9.30225 6.03166 9.35543 6.1091 9.42206 6.17405C9.48869 6.23901 9.56746 6.2902 9.65388 6.32471L10.8375 6.8C10.5589 7.91861 10.5589 9.08848 10.8375 10.2071L9.65742 10.6788C9.4829 10.7485 9.34321 10.8847 9.26908 11.0574C9.19496 11.2301 9.19247 11.4251 9.26217 11.5997C9.33187 11.7742 9.46804 11.9139 9.64073 11.988C9.81342 12.0621 10.0085 12.0646 10.183 11.9949L11.3241 11.538C11.7458 12.4349 12.3519 13.2329 13.1028 13.8798C11.8235 14.9811 10.1915 15.5868 8.50355 15.5868C6.81555 15.5868 5.18358 14.9811 3.90434 13.8798L3.9008 13.8763Z" fill="#212121"/>
</svg>
