<svg width="21" height="20" viewBox="0 0 21 20" fill="none" xmlns="http://www.w3.org/2000/svg">
<g id="fi-rr-ban" clip-path="url(#clip0_17141_14336)">
<path id="Vector" d="M10.5 0C8.52219 0 6.58879 0.58649 4.9443 1.6853C3.29981 2.78412 2.01809 4.3459 1.26121 6.17317C0.504333 8.00043 0.306299 10.0111 0.692152 11.9509C1.078 13.8907 2.03041 15.6725 3.42894 17.0711C4.82746 18.4696 6.60929 19.422 8.5491 19.8079C10.4889 20.1937 12.4996 19.9957 14.3268 19.2388C16.1541 18.4819 17.7159 17.2002 18.8147 15.5557C19.9135 13.9112 20.5 11.9778 20.5 10C20.4971 7.34872 19.4426 4.80684 17.5679 2.9321C15.6932 1.05736 13.1513 0.00286757 10.5 0V0ZM10.5 1.66667C12.4221 1.66513 14.2849 2.33146 15.77 3.55167L4.05167 15.27C3.05214 14.0499 2.41972 12.5709 2.22802 11.0054C2.03632 9.43978 2.29322 7.85195 2.96883 6.4267C3.64443 5.00145 4.71095 3.7974 6.04424 2.9547C7.37752 2.11201 8.92273 1.66533 10.5 1.66667ZM10.5 18.3333C8.57795 18.3349 6.71507 17.6685 5.23 16.4483L16.9483 4.73C17.9479 5.95013 18.5803 7.42907 18.772 8.99465C18.9637 10.5602 18.7068 12.1481 18.0312 13.5733C17.3556 14.9986 16.2891 16.2026 14.9558 17.0453C13.6225 17.888 12.0773 18.3347 10.5 18.3333Z" fill="white"/>
</g>
<defs>
<clipPath id="clip0_17141_14336">
<rect width="20" height="20" fill="white" transform="translate(0.5)"/>
</clipPath>
</defs>
</svg>
