<svg width="18" height="18" viewBox="0 0 18 18" fill="none" xmlns="http://www.w3.org/2000/svg">
<g id="fi-rr-cursor-finger" clip-path="url(#clip0_13361_18288)">
<path id="Vector" d="M13.4854 7.03272L9.00036 6.13572V2.33097C9.00744 1.78856 8.82348 1.26095 8.48067 0.840538C8.13787 0.420127 7.65809 0.133718 7.12536 0.0314702C6.80267 -0.0230748 6.47196 -0.00656795 6.15631 0.0798395C5.84065 0.166247 5.54764 0.320475 5.29772 0.531767C5.0478 0.743058 4.84697 1.00633 4.70926 1.30321C4.57155 1.6001 4.50026 1.92345 4.50036 2.25072V7.24647L2.40861 9.97572C1.79511 10.6937 1.4738 11.6161 1.50839 12.5599C1.54298 13.5037 1.93094 14.4 2.59536 15.0712L4.39536 16.89C5.10167 17.5987 6.06031 17.9981 7.06086 18.0007H12.7504C13.7446 17.9995 14.6977 17.6041 15.4007 16.9011C16.1037 16.1981 16.4992 15.2449 16.5004 14.2507V10.71C16.4985 9.84348 16.1974 9.00422 15.648 8.33415C15.0987 7.66409 14.3347 7.20436 13.4854 7.03272V7.03272ZM15.0004 14.2507C15.0004 14.8475 14.7633 15.4198 14.3414 15.8417C13.9194 16.2637 13.3471 16.5007 12.7504 16.5007H7.06086C6.45986 16.499 5.88416 16.2586 5.46036 15.8325L3.66036 14.0115C3.25815 13.6022 3.02563 13.056 3.00949 12.4824C2.99336 11.9089 3.19479 11.3504 3.57336 10.9192L4.50036 9.70947V12.7507C4.50036 12.9496 4.57938 13.1404 4.72003 13.2811C4.86068 13.4217 5.05145 13.5007 5.25036 13.5007C5.44927 13.5007 5.64004 13.4217 5.78069 13.2811C5.92134 13.1404 6.00036 12.9496 6.00036 12.7507V2.25072C6.0003 2.14101 6.0243 2.03263 6.07068 1.9332C6.11705 1.83378 6.18468 1.74574 6.26878 1.6753C6.35289 1.60486 6.45142 1.55372 6.55744 1.5255C6.66345 1.49728 6.77437 1.49266 6.88236 1.51197C7.06395 1.55641 7.22462 1.66218 7.33722 1.81141C7.44982 1.96064 7.50745 2.14416 7.50036 2.33097V6.75072C7.50033 6.92362 7.56003 7.09122 7.66937 7.22516C7.7787 7.35909 7.93096 7.45114 8.10036 7.48572L13.1884 8.50347C13.6984 8.60614 14.1573 8.88182 14.4875 9.28388C14.8177 9.68595 14.9988 10.1897 15.0004 10.71V14.2507Z" fill="#212121"/>
</g>
<defs>
<clipPath id="clip0_13361_18288">
<rect width="18" height="18" fill="white"/>
</clipPath>
</defs>
</svg>
