<svg width="18" height="18" viewBox="0 0 18 18" fill="none" xmlns="http://www.w3.org/2000/svg">
<g id="fi-rr-hastag" clip-path="url(#clip0_13361_13387)">
<path id="Vector" d="M17.25 5.25011H13.6432L14.2432 0.851365C14.2565 0.75376 14.2505 0.654492 14.2254 0.559228C14.2004 0.463965 14.1568 0.374571 14.0972 0.296152C14.0375 0.217733 13.9631 0.151824 13.878 0.102188C13.7929 0.052552 13.6989 0.0201611 13.6013 0.00686477C13.5036 -0.00643157 13.4044 -0.000372986 13.3091 0.0246946C13.2139 0.0497622 13.1245 0.0933479 13.046 0.152963C12.9676 0.212578 12.9017 0.287056 12.8521 0.372143C12.8024 0.457229 12.77 0.55126 12.7568 0.648865L12.1298 5.25011H6.89325L7.49325 0.851365C7.50655 0.75376 7.50049 0.654492 7.47542 0.559228C7.45035 0.463965 7.40677 0.374571 7.34715 0.296152C7.28754 0.217733 7.21306 0.151824 7.12797 0.102188C7.04289 0.052552 6.94886 0.0201611 6.85125 0.00686479C6.75365 -0.00643155 6.65438 -0.000372967 6.55911 0.0246946C6.46385 0.0497622 6.37446 0.0933479 6.29604 0.152963C6.21762 0.212578 6.15171 0.287056 6.10207 0.372143C6.05244 0.457229 6.02005 0.55126 6.00675 0.648865L5.37975 5.25011H1.5C1.30109 5.25011 1.11032 5.32913 0.96967 5.46978C0.829018 5.61044 0.75 5.8012 0.75 6.00011C0.75 6.19903 0.829018 6.38979 0.96967 6.53044C1.11032 6.6711 1.30109 6.75011 1.5 6.75011H5.175L4.5615 11.2501H0.75C0.551088 11.2501 0.360322 11.3291 0.21967 11.4698C0.0790176 11.6104 0 11.8012 0 12.0001C0 12.199 0.0790176 12.3898 0.21967 12.5304C0.360322 12.6711 0.551088 12.7501 0.75 12.7501H4.35675L3.75675 17.1489C3.7299 17.346 3.78245 17.5457 3.90285 17.7041C4.02325 17.8625 4.20163 17.9665 4.39875 17.9934C4.59587 18.0202 4.79559 17.9677 4.95396 17.8473C5.11234 17.7269 5.2164 17.5485 5.24325 17.3514L5.87025 12.7501H11.1068L10.5067 17.1489C10.4799 17.346 10.5324 17.5457 10.6528 17.7041C10.7732 17.8625 10.9516 17.9665 11.1487 17.9934C11.3459 18.0202 11.5456 17.9677 11.704 17.8473C11.8623 17.7269 11.9664 17.5485 11.9933 17.3514L12.6202 12.7501H16.5C16.6989 12.7501 16.8897 12.6711 17.0303 12.5304C17.171 12.3898 17.25 12.199 17.25 12.0001C17.25 11.8012 17.171 11.6104 17.0303 11.4698C16.8897 11.3291 16.6989 11.2501 16.5 11.2501H12.825L13.4385 6.75011H17.25C17.4489 6.75011 17.6397 6.6711 17.7803 6.53044C17.921 6.38979 18 6.19903 18 6.00011C18 5.8012 17.921 5.61044 17.7803 5.46978C17.6397 5.32913 17.4489 5.25011 17.25 5.25011ZM11.3115 11.2501H6.075L6.6885 6.75011H11.925L11.3115 11.2501Z" fill="#212121"/>
</g>
<defs>
<clipPath id="clip0_13361_13387">
<rect width="18" height="18" fill="white"/>
</clipPath>
</defs>
</svg>
