<svg width="15" height="15" viewBox="0 0 15 15" fill="none" xmlns="http://www.w3.org/2000/svg">
<g clip-path="url(#clip0_17077_20420)">
<path d="M12.1113 7.5C12.1113 8.82608 11.5845 10.0979 10.6469 11.0355C9.70918 11.9732 8.43741 12.5 7.11133 12.5C5.78525 12.5 4.51348 11.9732 3.57579 11.0355C2.63811 10.0979 2.11133 8.82608 2.11133 7.5C2.11133 7.38949 2.15523 7.28351 2.23337 7.20537C2.31151 7.12723 2.41749 7.08333 2.52799 7.08333C2.6385 7.08333 2.74448 7.12723 2.82262 7.20537C2.90076 7.28351 2.94466 7.38949 2.94466 7.5C2.94466 8.32409 3.18903 9.12967 3.64687 9.81488C4.10471 10.5001 4.75545 11.0341 5.51681 11.3495C6.27817 11.6649 7.11595 11.7474 7.9242 11.5866C8.73246 11.4258 9.47489 11.029 10.0576 10.4463C10.6403 9.86356 11.0372 9.12113 11.1979 8.31288C11.3587 7.50462 11.2762 6.66684 10.9608 5.90549C10.6455 5.14413 10.1114 4.49338 9.4262 4.03554C8.741 3.5777 7.93542 3.33333 7.11133 3.33333C7.00082 3.33333 6.89484 3.28943 6.8167 3.21129C6.73856 3.13315 6.69466 3.02717 6.69466 2.91667C6.69466 2.80616 6.73856 2.70018 6.8167 2.62204C6.89484 2.5439 7.00082 2.5 7.11133 2.5C8.43697 2.50143 9.70791 3.02868 10.6453 3.96605C11.5827 4.90342 12.1099 6.17436 12.1113 7.5ZM6.39341 7.08333H5.44466C5.33415 7.08333 5.22817 7.12723 5.15003 7.20537C5.07189 7.28351 5.02799 7.38949 5.02799 7.5C5.02799 7.61051 5.07189 7.71649 5.15003 7.79463C5.22817 7.87277 5.33415 7.91667 5.44466 7.91667H6.39341C6.45704 8.02718 6.54526 8.12156 6.65123 8.1925C6.7572 8.26344 6.87807 8.30903 7.00449 8.32575C7.13091 8.34247 7.25949 8.32986 7.38025 8.28891C7.50102 8.24795 7.61074 8.17975 7.70091 8.08958C7.79108 7.99941 7.85928 7.88969 7.90024 7.76892C7.94119 7.64816 7.9538 7.51959 7.93708 7.39316C7.92036 7.26674 7.87477 7.14587 7.80383 7.0399C7.73289 6.93393 7.63851 6.84572 7.52799 6.78208V5.41667C7.52799 5.30616 7.4841 5.20018 7.40596 5.12204C7.32782 5.0439 7.22183 5 7.11133 5C7.00082 5 6.89484 5.0439 6.8167 5.12204C6.73856 5.20018 6.69466 5.30616 6.69466 5.41667V6.78208C6.56984 6.8547 6.46603 6.95851 6.39341 7.08333ZM2.87258 6.16C2.95499 6.16 3.03555 6.13556 3.10407 6.08978C3.17259 6.044 3.22599 5.97892 3.25753 5.90278C3.28906 5.82665 3.29732 5.74287 3.28124 5.66205C3.26516 5.58122 3.22548 5.50698 3.16721 5.44871C3.10893 5.39043 3.03469 5.35075 2.95387 5.33467C2.87304 5.3186 2.78926 5.32685 2.71313 5.35838C2.63699 5.38992 2.57192 5.44333 2.52613 5.51185C2.48035 5.58037 2.45591 5.66092 2.45591 5.74333C2.45591 5.85384 2.49981 5.95982 2.57795 6.03796C2.65609 6.1161 2.76207 6.16 2.87258 6.16ZM3.87008 4.66958C3.95249 4.66958 4.03305 4.64515 4.10157 4.59936C4.17009 4.55358 4.22349 4.4885 4.25503 4.41237C4.28656 4.33623 4.29482 4.25245 4.27874 4.17163C4.26266 4.0908 4.22298 4.01656 4.16471 3.95829C4.10643 3.90002 4.03219 3.86033 3.95137 3.84426C3.87054 3.82818 3.78676 3.83643 3.71063 3.86797C3.63449 3.8995 3.56942 3.95291 3.52363 4.02143C3.47785 4.08995 3.45341 4.17051 3.45341 4.25292C3.45341 4.36342 3.49731 4.4694 3.57545 4.54754C3.65359 4.62568 3.75957 4.66958 3.87008 4.66958ZM5.35258 3.68375C5.43499 3.68375 5.51555 3.65931 5.58407 3.61353C5.65259 3.56775 5.70599 3.50267 5.73753 3.42653C5.76906 3.3504 5.77732 3.26662 5.76124 3.1858C5.74516 3.10497 5.70548 3.03073 5.64721 2.97246C5.58893 2.91418 5.51469 2.8745 5.43387 2.85842C5.35304 2.84235 5.26926 2.8506 5.19313 2.88213C5.11699 2.91367 5.05192 2.96708 5.00613 3.0356C4.96035 3.10412 4.93591 3.18467 4.93591 3.26708C4.93591 3.37759 4.97981 3.48357 5.05795 3.56171C5.13609 3.63985 5.24207 3.68375 5.35258 3.68375Z" fill="#212121"/>
</g>
<defs>
<clipPath id="clip0_17077_20420">
<rect width="10" height="10" fill="white" transform="translate(2.11133 2.5)"/>
</clipPath>
</defs>
</svg>
