<svg width="13" height="13" viewBox="0 0 13 13" fill="none" xmlns="http://www.w3.org/2000/svg">
<g id="fi-rr-clock" clip-path="url(#clip0_13300_2598)">
<path id="Vector" d="M6.5 0.5C5.31331 0.5 4.15328 0.851894 3.16658 1.51118C2.17989 2.17047 1.41085 3.10754 0.956726 4.2039C0.5026 5.30026 0.38378 6.50666 0.615291 7.67054C0.846802 8.83443 1.41825 9.90353 2.25736 10.7426C3.09648 11.5818 4.16558 12.1532 5.32946 12.3847C6.49335 12.6162 7.69975 12.4974 8.7961 12.0433C9.89246 11.5892 10.8295 10.8201 11.4888 9.83342C12.1481 8.84673 12.5 7.68669 12.5 6.5C12.4983 4.90923 11.8656 3.38411 10.7407 2.25926C9.6159 1.13441 8.09077 0.501721 6.5 0.5V0.5ZM6.5 11.5C5.5111 11.5 4.5444 11.2068 3.72215 10.6573C2.89991 10.1079 2.25904 9.32705 1.88061 8.41342C1.50217 7.49979 1.40315 6.49445 1.59608 5.52455C1.789 4.55464 2.26521 3.66373 2.96447 2.96447C3.66373 2.2652 4.55465 1.789 5.52455 1.59607C6.49446 1.40315 7.49979 1.50216 8.41342 1.8806C9.32705 2.25904 10.1079 2.8999 10.6574 3.72215C11.2068 4.54439 11.5 5.51109 11.5 6.5C11.4985 7.82564 10.9713 9.09656 10.0339 10.0339C9.09656 10.9713 7.82564 11.4985 6.5 11.5Z" fill="#212121"/>
<path id="Vector_2" d="M6.50022 3.5C6.36761 3.5 6.24043 3.55268 6.14666 3.64645C6.0529 3.74021 6.00022 3.86739 6.00022 4V6.1625L4.31472 7.21849C4.202 7.28891 4.12187 7.40122 4.09196 7.53071C4.06205 7.6602 4.0848 7.79628 4.15522 7.90899C4.22563 8.02171 4.33794 8.10184 4.46743 8.13175C4.59693 8.16166 4.733 8.13891 4.84572 8.06849L6.76572 6.86849C6.83826 6.82304 6.89792 6.75973 6.93898 6.68461C6.98004 6.6095 7.00112 6.5251 7.00022 6.4395V4C7.00022 3.86739 6.94754 3.74021 6.85377 3.64645C6.76 3.55268 6.63283 3.5 6.50022 3.5Z" fill="#212121"/>
</g>
<defs>
<clipPath id="clip0_13300_2598">
<rect width="12" height="12" fill="white" transform="translate(0.5 0.5)"/>
</clipPath>
</defs>
</svg>
