<svg width="31" height="30" viewBox="0 0 31 30" fill="none" xmlns="http://www.w3.org/2000/svg">
<g id="fi-rr-shield-exclamation" clip-path="url(#clip0_17918_11875)">
<path id="Vector" d="M15.5 18.7509C15.1685 18.7509 14.8505 18.6192 14.6161 18.3848C14.3817 18.1504 14.25 17.8324 14.25 17.5009V7.50091C14.25 7.16939 14.3817 6.85145 14.6161 6.61702C14.8505 6.3826 15.1685 6.25091 15.5 6.25091C15.8315 6.25091 16.1495 6.3826 16.3839 6.61702C16.6183 6.85145 16.75 7.16939 16.75 7.50091V17.5009C16.75 17.8324 16.6183 18.1504 16.3839 18.3848C16.1495 18.6192 15.8315 18.7509 15.5 18.7509ZM16.4913 29.7009C19.1913 28.6159 28 24.3497 28 15.0547V8.59091C28.0014 7.27717 27.5882 5.9965 26.8193 4.9313C26.0503 3.86611 24.9649 3.07071 23.7175 2.65841L15.8938 0.0646577C15.6383 -0.0215526 15.3617 -0.0215526 15.1063 0.0646577L7.2825 2.65841C6.03514 3.07071 4.94969 3.86611 4.18075 4.9313C3.41182 5.9965 2.99862 7.27717 3 8.59091V15.0547C3 23.2572 11.7563 28.2747 14.4413 29.6172C14.7809 29.7792 15.1354 29.9077 15.5 30.0009C15.8389 29.9316 16.1708 29.8312 16.4913 29.7009ZM22.93 5.03091C23.6782 5.27893 24.3292 5.75638 24.7905 6.39545C25.2519 7.03452 25.5001 7.80271 25.5 8.59091V15.0547C25.5 22.7834 17.8913 26.4434 15.5588 27.3809C13.1988 26.2009 5.5 21.8247 5.5 15.0547V8.59091C5.4999 7.80271 5.74816 7.03452 6.20951 6.39545C6.67086 5.75638 7.32185 5.27893 8.07 5.03091L15.5 2.56841L22.93 5.03091ZM15.5 21.2509C15.2528 21.2509 15.0111 21.3242 14.8055 21.4616C14.6 21.5989 14.4398 21.7941 14.3452 22.0226C14.2505 22.251 14.2258 22.5023 14.274 22.7448C14.3223 22.9872 14.4413 23.21 14.6161 23.3848C14.7909 23.5596 15.0137 23.6787 15.2561 23.7269C15.4986 23.7751 15.75 23.7504 15.9784 23.6558C16.2068 23.5611 16.402 23.4009 16.5393 23.1954C16.6767 22.9898 16.75 22.7481 16.75 22.5009C16.75 22.1694 16.6183 21.8514 16.3839 21.617C16.1495 21.3826 15.8315 21.2509 15.5 21.2509Z" fill="#212121"/>
</g>
<defs>
<clipPath id="clip0_17918_11875">
<rect width="30" height="30" fill="white" transform="translate(0.5)"/>
</clipPath>
</defs>
</svg>
