<svg width="12" height="13" viewBox="0 0 12 13" fill="none" xmlns="http://www.w3.org/2000/svg">
<path d="M12 5.43201C12 5.39542 11.996 5.35895 11.988 5.32325L11.338 2.38236C11.2172 1.82418 10.9086 1.32458 10.464 0.967341C10.0194 0.610104 9.46579 0.416951 8.89597 0.420269H3.10397C2.5345 0.417412 1.98134 0.610776 1.53713 0.967975C1.09293 1.32517 0.784668 1.82451 0.66397 2.38236L0.0119702 5.32325C0.00397422 5.35895 -5.03475e-05 5.39542 -2.98329e-05 5.43201V5.93318C-0.000433237 6.42112 0.177431 6.89232 0.49997 7.25778V9.94257C0.500764 10.6069 0.764411 11.2438 1.23308 11.7136C1.70175 12.1834 2.33717 12.4476 2.99997 12.4484H8.99997C9.66277 12.4476 10.2982 12.1834 10.7669 11.7136C11.2355 11.2438 11.4992 10.6069 11.5 9.94257V7.25778C11.8225 6.89232 12.0004 6.42112 12 5.93318V5.43201ZM0.99997 5.48663L1.63997 2.59987C1.71249 2.26522 1.89748 1.96568 2.16398 1.75137C2.43047 1.53707 2.76232 1.42101 3.10397 1.42262H3.49997V2.92614C3.49997 3.05906 3.55265 3.18653 3.64642 3.28052C3.74019 3.37451 3.86736 3.42731 3.99997 3.42731C4.13258 3.42731 4.25976 3.37451 4.35352 3.28052C4.44729 3.18653 4.49997 3.05906 4.49997 2.92614V1.42262H7.49997V2.92614C7.49997 3.05906 7.55265 3.18653 7.64642 3.28052C7.74019 3.37451 7.86736 3.42731 7.99997 3.42731C8.13258 3.42731 8.25976 3.37451 8.35353 3.28052C8.44729 3.18653 8.49997 3.05906 8.49997 2.92614V1.42262H8.89597C9.23763 1.42101 9.56947 1.53707 9.83597 1.75137C10.1025 1.96568 10.2874 2.26522 10.36 2.59987L11 5.48663V5.93318C11 6.19902 10.8946 6.45397 10.7071 6.64195C10.5195 6.82992 10.2652 6.93553 9.99997 6.93553H9.49997C9.23476 6.93553 8.9804 6.82992 8.79286 6.64195C8.60533 6.45397 8.49997 6.19902 8.49997 5.93318C8.49997 5.80026 8.44729 5.67279 8.35353 5.5788C8.25976 5.48481 8.13258 5.43201 7.99997 5.43201C7.86736 5.43201 7.74019 5.48481 7.64642 5.5788C7.55265 5.67279 7.49997 5.80026 7.49997 5.93318C7.49997 6.19902 7.39461 6.45397 7.20708 6.64195C7.01954 6.82992 6.76519 6.93553 6.49997 6.93553H5.49997C5.23475 6.93553 4.9804 6.82992 4.79286 6.64195C4.60533 6.45397 4.49997 6.19902 4.49997 5.93318C4.49997 5.80026 4.44729 5.67279 4.35352 5.5788C4.25976 5.48481 4.13258 5.43201 3.99997 5.43201C3.86736 5.43201 3.74019 5.48481 3.64642 5.5788C3.55265 5.67279 3.49997 5.80026 3.49997 5.93318C3.49997 6.19902 3.39461 6.45397 3.20708 6.64195C3.01954 6.82992 2.76519 6.93553 2.49997 6.93553H1.99997C1.73475 6.93553 1.4804 6.82992 1.29286 6.64195C1.10533 6.45397 0.99997 6.19902 0.99997 5.93318V5.48663ZM8.99997 11.4461H2.99997C2.60215 11.4461 2.22061 11.2877 1.93931 11.0057C1.65801 10.7238 1.49997 10.3413 1.49997 9.94257V7.87423C1.66327 7.91661 1.83129 7.938 1.99997 7.93788H2.49997C2.78388 7.93802 3.06455 7.87743 3.32322 7.76015C3.5819 7.64287 3.81262 7.4716 3.99997 7.25778C4.18732 7.4716 4.41804 7.64287 4.67672 7.76015C4.93539 7.87743 5.21606 7.93802 5.49997 7.93788H6.49997C6.78388 7.93802 7.06455 7.87743 7.32322 7.76015C7.5819 7.64287 7.81262 7.4716 7.99997 7.25778C8.18732 7.4716 8.41804 7.64287 8.67672 7.76015C8.93539 7.87743 9.21606 7.93802 9.49997 7.93788H9.99997C10.1687 7.938 10.3367 7.91661 10.5 7.87423V9.94257C10.5 10.3413 10.3419 10.7238 10.0606 11.0057C9.77933 11.2877 9.3978 11.4461 8.99997 11.4461Z" fill="#212121"/>
</svg>
