<svg width="19" height="19" viewBox="0 0 19 19" fill="none" xmlns="http://www.w3.org/2000/svg">
<g clip-path="url(#clip0_8941_10178)">
<path d="M17.6383 3.5203C17.42 3.2677 17.1467 3.06455 16.8378 2.92526C16.5288 2.78598 16.1919 2.71398 15.8509 2.71438H3.30217L3.26957 2.45173C3.20286 1.90578 2.93069 1.40241 2.50467 1.03705C2.07865 0.67169 1.52839 0.469738 0.958214 0.469482L0.78591 0.469482C0.580064 0.469482 0.382648 0.548321 0.237093 0.688654C0.0915377 0.828988 0.00976563 1.01932 0.00976562 1.21778C0.00976563 1.41624 0.0915377 1.60658 0.237093 1.74691C0.382648 1.88724 0.580064 1.96608 0.78591 1.96608H0.958214C1.14832 1.96611 1.3318 2.0334 1.47386 2.15519C1.61592 2.27698 1.70668 2.4448 1.72892 2.62683L2.7969 11.3819C2.90777 12.2925 3.36153 13.132 4.07203 13.7413C4.78254 14.3506 5.70034 14.6872 6.65123 14.6872H14.7565C14.9624 14.6872 15.1598 14.6083 15.3053 14.468C15.4509 14.3277 15.5326 14.1373 15.5326 13.9389C15.5326 13.7404 15.4509 13.5501 15.3053 13.4097C15.1598 13.2694 14.9624 13.1906 14.7565 13.1906H6.65123C6.17084 13.1893 5.70263 13.0447 5.31078 12.7768C4.91893 12.5089 4.62263 12.1306 4.4625 11.694H13.7141C14.624 11.694 15.505 11.3858 16.2031 10.8233C16.9012 10.2607 17.3721 9.47953 17.5335 8.61622L18.1428 5.35812C18.2036 5.03486 18.19 4.70266 18.1028 4.38506C18.0156 4.06746 17.857 3.77223 17.6383 3.5203ZM16.6192 5.09248L16.0092 8.35057C15.9123 8.86914 15.6293 9.33832 15.2097 9.67596C14.7901 10.0136 14.2607 10.1982 13.7141 10.1974H4.21569L3.48534 4.21098H15.8509C15.9649 4.21032 16.0776 4.23389 16.1811 4.28001C16.2846 4.32613 16.3763 4.39367 16.4497 4.47783C16.523 4.56198 16.5763 4.66069 16.6056 4.76692C16.6349 4.87315 16.6395 4.9843 16.6192 5.09248Z" fill="#49454F"/>
<path d="M5.44291 18.4292C6.30021 18.4292 6.9952 17.7592 6.9952 16.9326C6.9952 16.1061 6.30021 15.436 5.44291 15.436C4.58561 15.436 3.89062 16.1061 3.89062 16.9326C3.89062 17.7592 4.58561 18.4292 5.44291 18.4292Z" fill="#49454F"/>
<path d="M13.2046 18.4292C14.0619 18.4292 14.7569 17.7592 14.7569 16.9326C14.7569 16.1061 14.0619 15.436 13.2046 15.436C12.3473 15.436 11.6523 16.1061 11.6523 16.9326C11.6523 17.7592 12.3473 18.4292 13.2046 18.4292Z" fill="#49454F"/>
</g>
<defs>
<clipPath id="clip0_8941_10178">
<rect width="18.6275" height="17.9592" fill="white" transform="translate(0.00976562 0.469482)"/>
</clipPath>
</defs>
</svg>
