<svg width="19" height="19" viewBox="0 0 19 19" fill="none" xmlns="http://www.w3.org/2000/svg">
<g clip-path="url(#clip0_8941_10137)">
<path d="M18.6372 7.95254C18.6373 7.89791 18.631 7.84346 18.6186 7.79016L17.6096 3.39914C17.4221 2.56571 16.9432 1.81976 16.253 1.28638C15.5628 0.752987 14.7034 0.464591 13.8189 0.469545H4.82807C3.94408 0.46528 3.08542 0.75399 2.39589 1.28732C1.70636 1.82065 1.22784 2.56622 1.04049 3.39914L0.0283941 7.79016C0.0159821 7.84346 0.00973484 7.89791 0.00976669 7.95254V8.70084C0.00914049 9.42938 0.285237 10.1329 0.785911 10.6786V14.6872C0.787143 15.6792 1.1964 16.6301 1.92391 17.3316C2.65142 18.033 3.63778 18.4275 4.66663 18.4287H13.9804C15.0092 18.4275 15.9956 18.033 16.7231 17.3316C17.4506 16.6301 17.8599 15.6792 17.8611 14.6872V10.6786C18.3618 10.1329 18.6379 9.42938 18.6372 8.70084V7.95254ZM1.56206 8.0341L2.55552 3.7239C2.66809 3.22422 2.95525 2.77698 3.36893 2.45701C3.78261 2.13704 4.29772 1.96375 4.82807 1.96614H5.44278V4.21104C5.44278 4.4095 5.52455 4.59984 5.6701 4.74017C5.81566 4.8805 6.01307 4.95934 6.21892 4.95934C6.42477 4.95934 6.62218 4.8805 6.76774 4.74017C6.91329 4.59984 6.99506 4.4095 6.99506 4.21104V1.96614H11.6519V4.21104C11.6519 4.4095 11.7337 4.59984 11.8793 4.74017C12.0248 4.8805 12.2222 4.95934 12.4281 4.95934C12.6339 4.95934 12.8313 4.8805 12.9769 4.74017C13.1224 4.59984 13.2042 4.4095 13.2042 4.21104V1.96614H13.8189C14.3493 1.96375 14.8644 2.13704 15.2781 2.45701C15.6917 2.77698 15.9789 3.22422 16.0915 3.7239L17.0849 8.0341V8.70084C17.0849 9.09776 16.9214 9.47843 16.6303 9.75909C16.3392 10.0398 15.9443 10.1974 15.5327 10.1974H14.7565C14.3448 10.1974 13.95 10.0398 13.6589 9.75909C13.3678 9.47843 13.2042 9.09776 13.2042 8.70084C13.2042 8.50238 13.1224 8.31204 12.9769 8.17171C12.8313 8.03138 12.6339 7.95254 12.4281 7.95254C12.2222 7.95254 12.0248 8.03138 11.8793 8.17171C11.7337 8.31204 11.6519 8.50238 11.6519 8.70084C11.6519 9.09776 11.4884 9.47843 11.1973 9.75909C10.9062 10.0398 10.5113 10.1974 10.0996 10.1974H8.54735C8.13566 10.1974 7.74083 10.0398 7.44972 9.75909C7.15861 9.47843 6.99506 9.09776 6.99506 8.70084C6.99506 8.50238 6.91329 8.31204 6.76774 8.17171C6.62218 8.03138 6.42477 7.95254 6.21892 7.95254C6.01307 7.95254 5.81566 8.03138 5.6701 8.17171C5.52455 8.31204 5.44278 8.50238 5.44278 8.70084C5.44278 9.09776 5.27923 9.47843 4.98812 9.75909C4.69701 10.0398 4.30218 10.1974 3.89049 10.1974H3.11434C2.70265 10.1974 2.30782 10.0398 2.01671 9.75909C1.7256 9.47843 1.56206 9.09776 1.56206 8.70084V8.0341ZM13.9804 16.9321H4.66663C4.04909 16.9321 3.45685 16.6956 3.02018 16.2746C2.58352 15.8536 2.3382 15.2826 2.3382 14.6872V11.599C2.59169 11.6623 2.8525 11.6942 3.11434 11.694H3.89049C4.33119 11.6943 4.76687 11.6038 5.16841 11.4287C5.56995 11.2536 5.9281 10.9978 6.21892 10.6786C6.50974 10.9978 6.86789 11.2536 7.26943 11.4287C7.67097 11.6038 8.10665 11.6943 8.54735 11.694H10.0996C10.5403 11.6943 10.976 11.6038 11.3776 11.4287C11.7791 11.2536 12.1373 10.9978 12.4281 10.6786C12.7189 10.9978 13.077 11.2536 13.4786 11.4287C13.8801 11.6038 14.3158 11.6943 14.7565 11.694H15.5327C15.7945 11.6942 16.0553 11.6623 16.3088 11.599V14.6872C16.3088 15.2826 16.0635 15.8536 15.6268 16.2746C15.1901 16.6956 14.5979 16.9321 13.9804 16.9321Z" fill="#49454F"/>
</g>
<defs>
<clipPath id="clip0_8941_10137">
<rect width="18.6275" height="17.9592" fill="white" transform="translate(0.00976562 0.469482)"/>
</clipPath>
</defs>
</svg>
