<svg width="13" height="12" viewBox="0 0 13 12" fill="none" xmlns="http://www.w3.org/2000/svg">
<g id="fi-rr-angle-small-right">
<path id="Vector" d="M8.19966 4.9404L5.90466 2.6454C5.81098 2.55227 5.68425 2.5 5.55216 2.5C5.42006 2.5 5.29334 2.55227 5.19966 2.6454C5.15279 2.69188 5.1156 2.74718 5.09021 2.80811C5.06483 2.86904 5.05176 2.93439 5.05176 3.0004C5.05176 3.0664 5.06483 3.13176 5.09021 3.19268C5.1156 3.25361 5.15279 3.30891 5.19966 3.3554L7.49966 5.6454C7.54652 5.69188 7.58372 5.74718 7.6091 5.80811C7.63449 5.86904 7.64756 5.93439 7.64756 6.0004C7.64756 6.0664 7.63449 6.13176 7.6091 6.19269C7.58372 6.25361 7.54652 6.30892 7.49966 6.3554L5.19966 8.6454C5.10551 8.73889 5.05235 8.86595 5.05188 8.99863C5.05141 9.13131 5.10367 9.25875 5.19716 9.3529C5.29065 9.44705 5.41771 9.50021 5.55039 9.50068C5.68307 9.50114 5.81051 9.44889 5.90466 9.3554L8.19966 7.0604C8.48056 6.77915 8.63834 6.3979 8.63834 6.0004C8.63834 5.6029 8.48056 5.22165 8.19966 4.9404Z" fill="#212121"/>
</g>
</svg>
