<svg width="17" height="17" viewBox="0 0 17 17" fill="none" xmlns="http://www.w3.org/2000/svg">
<path d="M15.6241 3.70428L10.4008 1.21591C9.25107 0.529134 7.82001 0.516948 6.6587 1.18403L1.37668 3.70428C1.35686 3.71421 1.33631 3.72483 1.31718 3.73616C0.0636972 4.45288 -0.371463 6.05005 0.34526 7.30353C0.588207 7.72847 0.945572 8.07663 1.37668 8.30846L2.83373 9.00264V12.4735C2.8346 14.0255 3.84447 15.3966 5.32636 15.8579C6.35762 16.1562 7.42692 16.3023 8.50041 16.2914C9.57374 16.3034 10.643 16.1586 11.6745 15.8614C13.1564 15.4002 14.1662 14.029 14.1671 12.477V9.00121L15.5838 8.32403V14.1664C15.5838 14.5576 15.9009 14.8747 16.2921 14.8747C16.6833 14.8747 17.0004 14.5576 17.0004 14.1664V5.66635C17.0051 4.83458 16.3484 4.0662 15.6241 3.70428ZM12.7504 12.477C12.7507 13.4053 12.1484 14.2265 11.2629 14.505C10.3649 14.7616 9.43428 14.8861 8.50038 14.8747C7.56647 14.8861 6.63589 14.7616 5.73788 14.505C4.85232 14.2265 4.25001 13.4053 4.25038 12.477V9.67769L6.59993 10.7969C7.17966 11.1411 7.84176 11.322 8.51598 11.3203C9.15773 11.3249 9.78869 11.155 10.3414 10.8287L12.7504 9.67766V12.477ZM15.0171 7.02991L9.67481 9.57991C8.92993 10.0136 8.00665 10.0014 7.27356 9.54803L2.04675 7.06178C1.46414 6.74761 1.24653 6.02063 1.56069 5.43805C1.66694 5.24102 1.82625 5.0777 2.02056 4.96653L7.3295 2.43071C8.07462 1.99794 8.9974 2.01019 9.73075 2.46258L14.954 4.95096C15.3381 5.16426 15.5785 5.56704 15.5837 6.00639C15.5844 6.42255 15.3701 6.80957 15.0171 7.02991Z" fill="#212121"/>
</svg>
