<svg width="24" height="24" viewBox="0 0 24 24" fill="none" xmlns="http://www.w3.org/2000/svg">
<g id="fi-sr-money" clip-path="url(#clip0_17966_44914)">
<path id="Vector" d="M19.5833 4H4.41667C2.98061 4.00159 1.60385 4.52888 0.588405 5.46622C-0.427045 6.40356 -0.99828 7.6744 -1 9L-1 15C-0.99828 16.3256 -0.427045 17.5964 0.588405 18.5338C1.60385 19.4711 2.98061 19.9984 4.41667 20H19.5833C21.0194 19.9984 22.3961 19.4711 23.4116 18.5338C24.427 17.5964 24.9983 16.3256 25 15V9C24.9983 7.6744 24.427 6.40356 23.4116 5.46622C22.3961 4.52888 21.0194 4.00159 19.5833 4V4ZM3.33333 17C3.11907 17 2.90962 16.9414 2.73147 16.8315C2.55331 16.7216 2.41446 16.5654 2.33246 16.3827C2.25047 16.2 2.22902 15.9989 2.27082 15.8049C2.31262 15.6109 2.41579 15.4327 2.5673 15.2929C2.71881 15.153 2.91184 15.0578 3.12199 15.0192C3.33213 14.9806 3.54995 15.0004 3.74791 15.0761C3.94586 15.1518 4.11505 15.28 4.23409 15.4444C4.35313 15.6089 4.41667 15.8022 4.41667 16C4.41667 16.2652 4.30253 16.5196 4.09937 16.7071C3.8962 16.8946 3.62065 17 3.33333 17ZM3.33333 9C3.11907 9 2.90962 8.94135 2.73147 8.83147C2.55331 8.72159 2.41446 8.56541 2.33246 8.38268C2.25047 8.19996 2.22902 7.99889 2.27082 7.80491C2.31262 7.61093 2.41579 7.43275 2.5673 7.29289C2.71881 7.15304 2.91184 7.0578 3.12199 7.01921C3.33213 6.98063 3.54995 7.00043 3.74791 7.07612C3.94586 7.15181 4.11505 7.27998 4.23409 7.44443C4.35313 7.60888 4.41667 7.80222 4.41667 8C4.41667 8.26522 4.30253 8.51957 4.09937 8.70711C3.8962 8.89464 3.62065 9 3.33333 9ZM12 16C11.1429 16 10.3051 15.7654 9.59253 15.3259C8.87992 14.8864 8.3245 14.2616 7.99652 13.5307C7.66854 12.7998 7.58273 11.9956 7.74993 11.2196C7.91713 10.4437 8.32984 9.73098 8.93587 9.17157C9.5419 8.61216 10.314 8.2312 11.1546 8.07686C11.9952 7.92252 12.8665 8.00173 13.6583 8.30448C14.4501 8.60723 15.1269 9.11992 15.603 9.77772C16.0792 10.4355 16.3333 11.2089 16.3333 12C16.3333 13.0609 15.8768 14.0783 15.0641 14.8284C14.2515 15.5786 13.1493 16 12 16ZM20.6667 17C20.4524 17 20.243 16.9414 20.0648 16.8315C19.8866 16.7216 19.7478 16.5654 19.6658 16.3827C19.5838 16.2 19.5623 15.9989 19.6041 15.8049C19.646 15.6109 19.7491 15.4327 19.9006 15.2929C20.0521 15.153 20.2452 15.0578 20.4553 15.0192C20.6655 14.9806 20.8833 15.0004 21.0812 15.0761C21.2792 15.1518 21.4484 15.28 21.5674 15.4444C21.6865 15.6089 21.75 15.8022 21.75 16C21.75 16.2652 21.6359 16.5196 21.4327 16.7071C21.2295 16.8946 20.954 17 20.6667 17ZM20.6667 9C20.4524 9 20.243 8.94135 20.0648 8.83147C19.8866 8.72159 19.7478 8.56541 19.6658 8.38268C19.5838 8.19996 19.5623 7.99889 19.6041 7.80491C19.646 7.61093 19.7491 7.43275 19.9006 7.29289C20.0521 7.15304 20.2452 7.0578 20.4553 7.01921C20.6655 6.98063 20.8833 7.00043 21.0812 7.07612C21.2792 7.15181 21.4484 7.27998 21.5674 7.44443C21.6865 7.60888 21.75 7.80222 21.75 8C21.75 8.26522 21.6359 8.51957 21.4327 8.70711C21.2295 8.89464 20.954 9 20.6667 9ZM14.1667 12C14.1667 12.3956 14.0396 12.7822 13.8015 13.1111C13.5634 13.44 13.2251 13.6964 12.8291 13.8478C12.4332 13.9991 11.9976 14.0387 11.5773 13.9616C11.157 13.8844 10.7709 13.6939 10.4679 13.4142C10.1649 13.1345 9.95857 12.7781 9.87497 12.3902C9.79136 12.0022 9.83427 11.6001 9.99826 11.2346C10.1623 10.8692 10.44 10.5568 10.7963 10.3371C11.1526 10.1173 11.5715 10 12 10C12.5746 10 13.1257 10.2107 13.5321 10.5858C13.9384 10.9609 14.1667 11.4696 14.1667 12Z" fill="#212121"/>
</g>
<defs>
<clipPath id="clip0_17966_44914">
<rect width="26" height="24" fill="white" transform="translate(-1)"/>
</clipPath>
</defs>
</svg>
