<svg width="17" height="18" viewBox="0 0 17 18" fill="none" xmlns="http://www.w3.org/2000/svg">
<g id="fi-sr-credit-card" clip-path="url(#clip0_16219_8612)">
<path id="Vector" d="M12.9614 2.57617H3.4109C2.5066 2.5773 1.63966 2.9508 1.00023 3.61474C0.360792 4.27869 0.0010832 5.17888 0 6.11784H16.3723C16.3712 5.17888 16.0115 4.27869 15.3721 3.61474C14.7326 2.9508 13.8657 2.5773 12.9614 2.57617Z" fill="#212121"/>
<path id="Vector_2" d="M0 11.7852C0.0010832 12.7241 0.360792 13.6243 1.00023 14.2882C1.63966 14.9522 2.5066 15.3257 3.4109 15.3268H12.9614C13.8657 15.3257 14.7326 14.9522 15.3721 14.2882C16.0115 13.6243 16.3712 12.7241 16.3723 11.7852V7.53516H0V11.7852ZM4.77526 11.431C4.77526 11.6411 4.71524 11.8465 4.6028 12.0213C4.49037 12.196 4.33055 12.3322 4.14358 12.4126C3.9566 12.493 3.75085 12.5141 3.55236 12.4731C3.35386 12.4321 3.17153 12.3309 3.02843 12.1823C2.88532 12.0337 2.78786 11.8444 2.74838 11.6383C2.7089 11.4322 2.72916 11.2185 2.80661 11.0244C2.88406 10.8302 3.01521 10.6643 3.18349 10.5475C3.35176 10.4308 3.5496 10.3685 3.75199 10.3685C4.02338 10.3685 4.28365 10.4804 4.47555 10.6797C4.66745 10.8789 4.77526 11.1492 4.77526 11.431Z" fill="#212121"/>
</g>
<defs>
<clipPath id="clip0_16219_8612">
<rect width="16.3723" height="17" fill="white" transform="translate(0 0.451172)"/>
</clipPath>
</defs>
</svg>
