<svg width="20" height="23" viewBox="0 0 20 23" fill="none" xmlns="http://www.w3.org/2000/svg">
<g id="Group">
<path id="Vector" d="M18.2506 4.16665H15.409C14.9704 2.03411 13.0945 0.50275 10.9173 0.5H9.08394C6.90676 0.50275 5.03083 2.03411 4.59229 4.16665H1.75064C1.24438 4.16665 0.833984 4.57705 0.833984 5.0833C0.833984 5.58956 1.24438 6 1.75064 6H2.66729V17.9167C2.67034 20.4467 4.72059 22.497 7.25064 22.5H12.7506C15.2807 22.497 17.3309 20.4467 17.334 17.9167V6H18.2506C18.7569 6 19.1673 5.58961 19.1673 5.08335C19.1673 4.57709 18.7569 4.16665 18.2506 4.16665ZM9.08398 16.0833C9.08398 16.5896 8.67359 17 8.16733 17C7.66103 17 7.25064 16.5896 7.25064 16.0833V10.5833C7.25064 10.0771 7.66103 9.6667 8.16729 9.6667C8.67355 9.6667 9.08394 10.0771 9.08394 10.5833V16.0833H9.08398ZM12.7506 16.0833C12.7506 16.5896 12.3402 17 11.834 17C11.3277 17 10.9173 16.5896 10.9173 16.0833V10.5833C10.9173 10.0771 11.3277 9.6667 11.834 9.6667C12.3402 9.6667 12.7506 10.0771 12.7506 10.5833V16.0833ZM6.49073 4.16665C6.88063 3.06876 7.91893 2.33472 9.08398 2.3333H10.9173C12.0824 2.33472 13.1207 3.06876 13.5106 4.16665H6.49073Z" fill="#212121"/>
</g>
</svg>
