<svg width="13" height="14" viewBox="0 0 13 14" fill="none" xmlns="http://www.w3.org/2000/svg">
<g id="fi-rr-layers" clip-path="url(#clip0_11646_26361)">
<path id="Vector" d="M12.1791 5.96116L6.49974 9.37733L0.82036 5.96116C0.697173 5.88708 0.549669 5.86508 0.410298 5.9C0.270927 5.93493 0.151106 6.02391 0.0771936 6.14739C0.00328108 6.27087 -0.0186681 6.41872 0.0161746 6.55842C0.0510173 6.69811 0.139798 6.81822 0.262985 6.8923L6.22132 10.4757C6.30557 10.5264 6.402 10.5532 6.50028 10.5532C6.59856 10.5532 6.69499 10.5264 6.77924 10.4757L12.7376 6.8923C12.8608 6.81822 12.9495 6.69811 12.9844 6.55842C13.0192 6.41872 12.9973 6.27087 12.9234 6.14739C12.8494 6.02391 12.7296 5.93493 12.5903 5.9C12.4509 5.86508 12.3034 5.88708 12.1802 5.96116H12.1791Z" fill="#212121"/>
<path id="Vector_2" d="M12.1791 8.44114L6.49973 11.8568L0.820359 8.44114C0.759362 8.40446 0.691755 8.38018 0.621396 8.36968C0.551038 8.35919 0.479306 8.36269 0.410297 8.37998C0.341287 8.39727 0.276352 8.42802 0.219197 8.47047C0.162043 8.51292 0.11379 8.56623 0.077192 8.62737C0.0405942 8.68851 0.0163689 8.75628 0.00589927 8.8268C-0.0045704 8.89733 -0.00107939 8.96923 0.016173 9.0384C0.0510157 9.1781 0.139796 9.2982 0.262984 9.37229L6.22132 12.9557C6.30556 13.0064 6.40199 13.0332 6.50028 13.0332C6.59856 13.0332 6.69499 13.0064 6.77923 12.9557L12.7376 9.37229C12.8608 9.2982 12.9495 9.1781 12.9844 9.0384C13.0192 8.8987 12.9973 8.75085 12.9234 8.62737C12.8494 8.5039 12.7296 8.41491 12.5903 8.37998C12.4509 8.34506 12.3034 8.36706 12.1802 8.44114H12.1791Z" fill="#212121"/>
<path id="Vector_3" d="M6.49983 8.02329C6.20764 8.02313 5.92099 7.94337 5.67054 7.79254L0.262537 4.5398C0.18245 4.49153 0.116184 4.42332 0.0701807 4.34178C0.0241769 4.26025 0 4.16817 0 4.0745C0 3.98083 0.0241769 3.88876 0.0701807 3.80722C0.116184 3.72569 0.18245 3.65747 0.262537 3.60921L5.67054 0.356463C5.92099 0.20565 6.20766 0.125977 6.49983 0.125977C6.792 0.125977 7.07867 0.20565 7.32912 0.356463L12.7371 3.60921C12.8172 3.65747 12.8835 3.72569 12.9295 3.80722C12.9755 3.88876 12.9997 3.98083 12.9997 4.0745C12.9997 4.16817 12.9755 4.26025 12.9295 4.34178C12.8835 4.42332 12.8172 4.49153 12.7371 4.5398L7.32912 7.79254C7.07866 7.94337 6.79201 8.02313 6.49983 8.02329ZM1.5945 4.0745L6.22899 6.8614C6.31085 6.91048 6.40445 6.9364 6.49983 6.9364C6.59521 6.9364 6.68881 6.91048 6.77066 6.8614L11.4052 4.0745L6.77066 1.2876C6.68881 1.23852 6.59521 1.2126 6.49983 1.2126C6.40445 1.2126 6.31085 1.23852 6.22899 1.2876L1.5945 4.0745Z" fill="#212121"/>
</g>
<defs>
<clipPath id="clip0_11646_26361">
<rect width="13" height="13.0305" fill="white" transform="translate(0 0.00244141)"/>
</clipPath>
</defs>
</svg>
