<svg width="19" height="18" viewBox="0 0 19 18" fill="none" xmlns="http://www.w3.org/2000/svg">
<g clip-path="url(#clip0_13123_17898)">
<path d="M9.48554 0.441406C7.75636 0.441406 6.06602 0.954166 4.62827 1.91484C3.19051 2.87552 2.06992 4.24097 1.40819 5.83852C0.746464 7.43607 0.573326 9.19396 0.910671 10.8899C1.24802 12.5859 2.08069 14.1437 3.3034 15.3664C4.52611 16.5891 6.08394 17.4218 7.77989 17.7591C9.47584 18.0965 11.2337 17.9233 12.8313 17.2616C14.4288 16.5999 15.7943 15.4793 16.755 14.0415C17.7156 12.6038 18.2284 10.9134 18.2284 9.18426C18.2259 6.86628 17.304 4.64396 15.6649 3.0049C14.0258 1.36584 11.8035 0.443913 9.48554 0.441406V0.441406ZM9.48554 16.47C8.04456 16.47 6.63594 16.0427 5.43781 15.2421C4.23968 14.4415 3.30585 13.3037 2.75441 11.9724C2.20298 10.6411 2.05869 9.17618 2.33982 7.76289C2.62094 6.3496 3.31483 5.05141 4.33376 4.03249C5.35268 3.01356 6.65087 2.31966 8.06416 2.03854C9.47746 1.75742 10.9424 1.9017 12.2737 2.45314C13.6049 3.00458 14.7428 3.93841 15.5434 5.13654C16.344 6.33467 16.7713 7.74329 16.7713 9.18426C16.7691 11.1159 16.0008 12.9678 14.635 14.3337C13.2691 15.6996 11.4172 16.4679 9.48554 16.47Z" fill="#212121"/>
<path d="M10.008 4.12923C9.58781 4.05268 9.15597 4.06941 8.74301 4.17822C8.33004 4.28704 7.94603 4.48529 7.61817 4.75894C7.2903 5.03259 7.02658 5.37496 6.84568 5.76181C6.66477 6.14867 6.5711 6.57055 6.57129 6.99762C6.57129 7.19085 6.64805 7.37616 6.78468 7.51279C6.92132 7.64943 7.10663 7.72619 7.29986 7.72619C7.49309 7.72619 7.6784 7.64943 7.81504 7.51279C7.95167 7.37616 8.02843 7.19085 8.02843 6.99762C8.02825 6.78325 8.07536 6.57149 8.16641 6.37743C8.25747 6.18336 8.39022 6.01178 8.5552 5.87491C8.72018 5.73804 8.91333 5.63926 9.12087 5.58561C9.32841 5.53195 9.54523 5.52475 9.75587 5.56452C10.0437 5.62039 10.3083 5.76078 10.5159 5.96777C10.7236 6.17476 10.8648 6.43895 10.9216 6.72659C10.9789 7.02851 10.9393 7.34083 10.8085 7.6189C10.6776 7.89696 10.4622 8.12654 10.193 8.2748C9.74725 8.53306 9.3789 8.90612 9.12633 9.35513C8.87376 9.80414 8.74622 10.3127 8.757 10.8277V11.369C8.757 11.5623 8.83376 11.7476 8.97039 11.8842C9.10703 12.0209 9.29234 12.0976 9.48557 12.0976C9.6788 12.0976 9.86411 12.0209 10.0007 11.8842C10.1374 11.7476 10.2141 11.5623 10.2141 11.369V10.8277C10.205 10.5742 10.2628 10.3227 10.3818 10.0986C10.5007 9.87455 10.6766 9.68575 10.8917 9.55126C11.4196 9.26134 11.8446 8.81501 12.1085 8.27364C12.3723 7.73227 12.462 7.12246 12.3651 6.52807C12.2682 5.93368 11.9896 5.3839 11.5675 4.95434C11.1454 4.52477 10.6006 4.23652 10.008 4.12923Z" fill="#212121"/>
<path d="M10.214 13.5547C10.214 13.1524 9.88779 12.8262 9.48541 12.8262C9.08303 12.8262 8.75684 13.1524 8.75684 13.5547C8.75684 13.9571 9.08303 14.2833 9.48541 14.2833C9.88779 14.2833 10.214 13.9571 10.214 13.5547Z" fill="#212121"/>
</g>
<defs>
<clipPath id="clip0_13123_17898">
<rect width="17.4857" height="17.4857" fill="white" transform="translate(0.742676 0.441406)"/>
</clipPath>
</defs>
</svg>
