<svg width="22" height="21" viewBox="0 0 22 21" fill="none" xmlns="http://www.w3.org/2000/svg">
<g id="fi-sr-ticket" clip-path="url(#clip0_17141_15036)">
<path id="Vector" d="M5.75 21H7.61375C8.00535 20.9963 8.38462 20.8626 8.69202 20.62C8.99942 20.3774 9.21753 20.0395 9.31212 19.6595C9.41343 19.2895 9.63349 18.9631 9.93846 18.7304C10.2434 18.4977 10.6164 18.3716 11 18.3716C11.3836 18.3716 11.7566 18.4977 12.0615 18.7304C12.3665 18.9631 12.5866 19.2895 12.6879 19.6595C12.7825 20.0395 13.0006 20.3774 13.308 20.62C13.6154 20.8626 13.9947 20.9963 14.3862 21H16.25C16.9462 21 17.6139 20.7234 18.1062 20.2312C18.5984 19.7389 18.875 19.0712 18.875 18.375V14.875H15.375C15.1429 14.875 14.9204 14.7828 14.7563 14.6187C14.5922 14.4546 14.5 14.2321 14.5 14C14.5 13.7679 14.5922 13.5454 14.7563 13.3813C14.9204 13.2172 15.1429 13.125 15.375 13.125H18.875V4.375C18.8736 3.2151 18.4122 2.10311 17.5921 1.28294C16.7719 0.462772 15.6599 0.00138938 14.5 0L14.3862 0C13.9947 0.00372034 13.6154 0.137387 13.308 0.380012C13.0006 0.622637 12.7825 0.960481 12.6879 1.3405C12.5866 1.71048 12.3665 2.03693 12.0615 2.26962C11.7566 2.50231 11.3836 2.62835 11 2.62835C10.6164 2.62835 10.2434 2.50231 9.93846 2.26962C9.63349 2.03693 9.41343 1.71048 9.31212 1.3405C9.21753 0.960481 8.99942 0.622637 8.69202 0.380012C8.38462 0.137387 8.00535 0.00372034 7.61375 0L7.5 0C6.3401 0.00138938 5.22811 0.462772 4.40794 1.28294C3.58777 2.10311 3.12639 3.2151 3.125 4.375V13.125H6.625C6.85706 13.125 7.07962 13.2172 7.24372 13.3813C7.40781 13.5454 7.5 13.7679 7.5 14C7.5 14.2321 7.40781 14.4546 7.24372 14.6187C7.07962 14.7828 6.85706 14.875 6.625 14.875H3.125V18.375C3.125 19.0712 3.40156 19.7389 3.89384 20.2312C4.38613 20.7234 5.05381 21 5.75 21ZM10.125 13.125H11.875C12.1071 13.125 12.3296 13.2172 12.4937 13.3813C12.6578 13.5454 12.75 13.7679 12.75 14C12.75 14.2321 12.6578 14.4546 12.4937 14.6187C12.3296 14.7828 12.1071 14.875 11.875 14.875H10.125C9.89294 14.875 9.67038 14.7828 9.50628 14.6187C9.34219 14.4546 9.25 14.2321 9.25 14C9.25 13.7679 9.34219 13.5454 9.50628 13.3813C9.67038 13.2172 9.89294 13.125 10.125 13.125V13.125Z" fill="white"/>
</g>
<defs>
<clipPath id="clip0_17141_15036">
<rect width="21" height="21" fill="white" transform="translate(0.5)"/>
</clipPath>
</defs>
</svg>
