<svg width="12" height="12" viewBox="0 0 12 12" fill="none" xmlns="http://www.w3.org/2000/svg">
<g clip-path="url(#clip0_4990_19986)">
<path d="M12 5.00009C12 4.96359 11.996 4.9272 11.988 4.89159L11.338 1.95759C11.2172 1.40071 10.9087 0.902279 10.4641 0.545879C10.0194 0.189478 9.46582 -0.00322242 8.896 8.77208e-05H3.104C2.53453 -0.00276243 1.98137 0.190149 1.53716 0.546511C1.09296 0.902873 0.784699 1.40104 0.664001 1.95759L0.0120007 4.89159C0.00400474 4.9272 -1.98299e-05 4.96359 6.84699e-07 5.00009V5.50009C-0.000402719 5.98689 0.177461 6.45698 0.500001 6.82159V9.50009C0.500795 10.1629 0.764442 10.7983 1.23311 11.267C1.70178 11.7356 2.3372 11.9993 3 12.0001H9C9.6628 11.9993 10.2982 11.7356 10.7669 11.267C11.2356 10.7983 11.4992 10.1629 11.5 9.50009V6.82159C11.8225 6.45698 12.0004 5.98689 12 5.50009V5.00009ZM1 5.05459L1.64 2.17459C1.71252 1.84071 1.89751 1.54188 2.16401 1.32808C2.43051 1.11428 2.76235 0.998489 3.104 1.00009H3.5V2.50009C3.5 2.6327 3.55268 2.75987 3.64645 2.85364C3.74022 2.94741 3.86739 3.00009 4 3.00009C4.13261 3.00009 4.25979 2.94741 4.35355 2.85364C4.44732 2.75987 4.5 2.6327 4.5 2.50009V1.00009H7.5V2.50009C7.5 2.6327 7.55268 2.75987 7.64645 2.85364C7.74022 2.94741 7.86739 3.00009 8 3.00009C8.13261 3.00009 8.25979 2.94741 8.35356 2.85364C8.44732 2.75987 8.5 2.6327 8.5 2.50009V1.00009H8.896C9.23766 0.998489 9.5695 1.11428 9.836 1.32808C10.1025 1.54188 10.2875 1.84071 10.36 2.17459L11 5.05459V5.50009C11 5.7653 10.8946 6.01966 10.7071 6.2072C10.5196 6.39473 10.2652 6.50009 10 6.50009H9.5C9.23479 6.50009 8.98043 6.39473 8.7929 6.2072C8.60536 6.01966 8.5 5.7653 8.5 5.50009C8.5 5.36748 8.44732 5.2403 8.35356 5.14654C8.25979 5.05277 8.13261 5.00009 8 5.00009C7.86739 5.00009 7.74022 5.05277 7.64645 5.14654C7.55268 5.2403 7.5 5.36748 7.5 5.50009C7.5 5.7653 7.39464 6.01966 7.20711 6.2072C7.01957 6.39473 6.76522 6.50009 6.5 6.50009H5.5C5.23478 6.50009 4.98043 6.39473 4.79289 6.2072C4.60536 6.01966 4.5 5.7653 4.5 5.50009C4.5 5.36748 4.44732 5.2403 4.35355 5.14654C4.25979 5.05277 4.13261 5.00009 4 5.00009C3.86739 5.00009 3.74022 5.05277 3.64645 5.14654C3.55268 5.2403 3.5 5.36748 3.5 5.50009C3.5 5.7653 3.39464 6.01966 3.20711 6.2072C3.01957 6.39473 2.76522 6.50009 2.5 6.50009H2C1.73478 6.50009 1.48043 6.39473 1.29289 6.2072C1.10536 6.01966 1 5.7653 1 5.50009V5.05459ZM9 11.0001H3C2.60218 11.0001 2.22065 10.8421 1.93934 10.5607C1.65804 10.2794 1.5 9.89791 1.5 9.50009V7.43659C1.6633 7.47887 1.83132 7.50021 2 7.50009H2.5C2.78391 7.50024 3.06458 7.43979 3.32325 7.32278C3.58193 7.20577 3.81265 7.0349 4 6.82159C4.18735 7.0349 4.41807 7.20577 4.67675 7.32278C4.93542 7.43979 5.21609 7.50024 5.5 7.50009H6.5C6.78391 7.50024 7.06458 7.43979 7.32325 7.32278C7.58193 7.20577 7.81265 7.0349 8 6.82159C8.18735 7.0349 8.41807 7.20577 8.67675 7.32278C8.93542 7.43979 9.21609 7.50024 9.5 7.50009H10C10.1687 7.50021 10.3367 7.47887 10.5 7.43659V9.50009C10.5 9.89791 10.342 10.2794 10.0607 10.5607C9.77936 10.8421 9.39783 11.0001 9 11.0001Z" fill="#212121"/>
</g>
<defs>
<clipPath id="clip0_4990_19986">
<rect width="12" height="12" fill="white"/>
</clipPath>
</defs>
</svg>
