<svg width="26" height="25" viewBox="0 0 26 25" fill="none" xmlns="http://www.w3.org/2000/svg">
<g clip-path="url(#clip0_18263_43116)">
<path d="M21.2506 5.16665H18.409C17.9704 3.03411 16.0945 1.50275 13.9173 1.5H12.0839C9.90676 1.50275 8.03083 3.03411 7.59229 5.16665H4.75064C4.24438 5.16665 3.83398 5.57705 3.83398 6.0833C3.83398 6.58956 4.24438 7 4.75064 7H5.66729V18.9167C5.67034 21.4467 7.72059 23.497 10.2506 23.5H15.7506C18.2807 23.497 20.3309 21.4467 20.334 18.9167V7H21.2506C21.7569 7 22.1673 6.58961 22.1673 6.08335C22.1673 5.57709 21.7569 5.16665 21.2506 5.16665ZM12.084 17.0833C12.084 17.5896 11.6736 18 11.1673 18C10.661 18 10.2506 17.5896 10.2506 17.0833V11.5833C10.2506 11.0771 10.661 10.6667 11.1673 10.6667C11.6735 10.6667 12.0839 11.0771 12.0839 11.5833V17.0833H12.084ZM15.7506 17.0833C15.7506 17.5896 15.3402 18 14.834 18C14.3277 18 13.9173 17.5896 13.9173 17.0833V11.5833C13.9173 11.0771 14.3277 10.6667 14.834 10.6667C15.3402 10.6667 15.7506 11.0771 15.7506 11.5833V17.0833ZM9.49073 5.16665C9.88063 4.06876 10.9189 3.33472 12.084 3.3333H13.9173C15.0824 3.33472 16.1207 4.06876 16.5106 5.16665H9.49073Z" fill="#212121"/>
</g>
<defs>
<clipPath id="clip0_18263_43116">
<rect width="22" height="22" fill="white" transform="translate(2 1.5)"/>
</clipPath>
</defs>
</svg>
