<svg width="14" height="15" viewBox="0 0 14 15" fill="none" xmlns="http://www.w3.org/2000/svg">
<g id="fi-sr-marker" clip-path="url(#clip0_16970_21667)">
<path id="Vector" d="M6.99998 0.524902C5.45645 0.5266 3.97661 1.14048 2.88511 2.23187C1.79361 3.32326 1.17959 4.80304 1.17773 6.34657C1.17773 7.84574 2.33857 10.1919 4.62815 13.3197C4.90072 13.6931 5.2576 13.9969 5.66975 14.2063C6.0819 14.4158 6.53768 14.5249 6.99998 14.5249C7.46229 14.5249 7.91807 14.4158 8.33022 14.2063C8.74237 13.9969 9.09925 13.6931 9.37182 13.3197C11.6614 10.1919 12.8222 7.84574 12.8222 6.34657C12.8204 4.80304 12.2064 3.32326 11.1149 2.23187C10.0234 1.14048 8.54352 0.5266 6.99998 0.524902ZM6.99998 8.66707C6.53849 8.66707 6.08737 8.53022 5.70365 8.27383C5.31994 8.01744 5.02087 7.65303 4.84426 7.22666C4.66766 6.8003 4.62145 6.33115 4.71148 5.87853C4.80152 5.4259 5.02375 5.01014 5.35007 4.68382C5.67639 4.3575 6.09215 4.13527 6.54477 4.04524C6.9974 3.9552 7.46655 4.00141 7.89291 4.17802C8.31927 4.35462 8.68369 4.65369 8.94008 5.03741C9.19647 5.42112 9.33332 5.87225 9.33332 6.33374C9.33332 6.95257 9.08748 7.54607 8.6499 7.98365C8.21232 8.42124 7.61882 8.66707 6.99998 8.66707Z" fill="#212121"/>
</g>
<defs>
<clipPath id="clip0_16970_21667">
<rect width="14" height="14" fill="white" transform="translate(0 0.5)"/>
</clipPath>
</defs>
</svg>
