<svg width="15" height="15" viewBox="0 0 15 15" fill="none" xmlns="http://www.w3.org/2000/svg">
<g clip-path="url(#clip0_5030_8862)">
<path d="M6.87987 1.61132L6.87549 11.2601C6.87549 11.4258 6.94134 11.5848 7.05855 11.702C7.17576 11.8192 7.33473 11.8851 7.50049 11.8851C7.66625 11.8851 7.82522 11.8192 7.94243 11.702C8.05964 11.5848 8.12549 11.4258 8.12549 11.2601L8.12987 1.62195L9.94987 3.44257C10.0671 3.55974 10.226 3.62556 10.3917 3.62556C10.5575 3.62556 10.7164 3.55974 10.8336 3.44257C10.9508 3.32537 11.0166 3.16642 11.0166 3.0007C11.0166 2.83497 10.9508 2.67603 10.8336 2.55882L8.82674 0.549447C8.65262 0.37521 8.44586 0.236991 8.2183 0.142688C7.99074 0.0483856 7.74682 -0.000152588 7.50049 -0.000152588C7.25416 -0.000152588 7.01025 0.0483856 6.78268 0.142688C6.55512 0.236991 6.34837 0.37521 6.17424 0.549447L4.16737 2.55695C4.0502 2.67415 3.98438 2.83309 3.98438 2.99882C3.98438 3.16455 4.0502 3.32349 4.16737 3.4407C4.28457 3.55787 4.44351 3.62369 4.60924 3.62369C4.77497 3.62369 4.93391 3.55787 5.05112 3.4407L6.87987 1.61132Z" fill="#49454F"/>
<path d="M13.75 10.6246V13.1246C13.75 13.2904 13.6842 13.4494 13.5669 13.5666C13.4497 13.6838 13.2908 13.7496 13.125 13.7496H1.875C1.70924 13.7496 1.55027 13.6838 1.43306 13.5666C1.31585 13.4494 1.25 13.2904 1.25 13.1246V10.6246C1.25 10.4589 1.18415 10.2999 1.06694 10.1827C0.949732 10.0655 0.79076 9.99963 0.625 9.99963C0.45924 9.99963 0.300269 10.0655 0.183058 10.1827C0.065848 10.2999 0 10.4589 0 10.6246L0 13.1246C0 13.6219 0.197544 14.0988 0.549175 14.4505C0.900805 14.8021 1.37772 14.9996 1.875 14.9996H13.125C13.6223 14.9996 14.0992 14.8021 14.4508 14.4505C14.8025 14.0988 15 13.6219 15 13.1246V10.6246C15 10.4589 14.9342 10.2999 14.8169 10.1827C14.6997 10.0655 14.5408 9.99963 14.375 9.99963C14.2092 9.99963 14.0503 10.0655 13.9331 10.1827C13.8158 10.2999 13.75 10.4589 13.75 10.6246Z" fill="#49454F"/>
</g>
<defs>
<clipPath id="clip0_5030_8862">
<rect width="15" height="15" fill="white"/>
</clipPath>
</defs>
</svg>
