<svg width="19" height="19" viewBox="0 0 19 19" fill="none" xmlns="http://www.w3.org/2000/svg">
<g clip-path="url(#clip0_7273_14681)">
<path d="M16.5458 3.39712C16.267 2.63413 15.7607 1.97513 15.0952 1.50918C14.4298 1.04324 13.6374 0.792812 12.825 0.791748H6.175C5.36266 0.792812 4.57022 1.04324 3.90479 1.50918C3.23935 1.97513 2.733 2.63413 2.45417 3.39712L0.31667 9.27683C0.106443 9.85592 -0.000732079 10.4674 3.76348e-06 11.0834V11.8751C0.00141636 12.4869 0.145221 13.0899 0.420034 13.6366C0.694848 14.1832 1.09312 14.6583 1.58334 15.0243C1.58334 15.0307 1.58334 15.0354 1.58334 15.0417V16.6251C1.58334 17.255 1.83356 17.8591 2.27896 18.3045C2.72436 18.7499 3.32845 19.0001 3.95834 19.0001C4.58823 19.0001 5.19232 18.7499 5.63772 18.3045C6.08311 17.8591 6.33334 17.255 6.33334 16.6251V15.8334H12.6667V16.6251C12.6667 17.255 12.9169 17.8591 13.3623 18.3045C13.8077 18.7499 14.4118 19.0001 15.0417 19.0001C15.6716 19.0001 16.2757 18.7499 16.721 18.3045C17.1664 17.8591 17.4167 17.255 17.4167 16.6251V15.0417C17.4167 15.0354 17.4167 15.0307 17.4167 15.0243C17.9069 14.6583 18.3052 14.1832 18.58 13.6366C18.8548 13.0899 18.9986 12.4869 19 11.8751V11.0834C19.0008 10.4676 18.8936 9.85642 18.6833 9.27762L16.5458 3.39712ZM3.94409 3.93862C4.11147 3.48117 4.41508 3.08604 4.81398 2.80647C5.21288 2.5269 5.68789 2.37634 6.175 2.37508H12.825C13.3124 2.37601 13.7878 2.52642 14.187 2.80601C14.5862 3.0856 14.89 3.48092 15.0575 3.93862L16.7897 8.70841H2.20955L3.94409 3.93862ZM4.75 16.6251C4.75 16.835 4.6666 17.0364 4.51813 17.1849C4.36966 17.3333 4.1683 17.4167 3.95834 17.4167C3.74837 17.4167 3.54701 17.3333 3.39854 17.1849C3.25008 17.0364 3.16667 16.835 3.16667 16.6251V15.7542C3.42723 15.8072 3.69246 15.8337 3.95834 15.8334H4.75V16.6251ZM15.8333 16.6251C15.8333 16.835 15.7499 17.0364 15.6015 17.1849C15.453 17.3333 15.2516 17.4167 15.0417 17.4167C14.8317 17.4167 14.6303 17.3333 14.4819 17.1849C14.3334 17.0364 14.25 16.835 14.25 16.6251V15.8334H15.0417C15.3075 15.8337 15.5728 15.8072 15.8333 15.7542V16.6251ZM17.4167 11.8751C17.4167 12.505 17.1664 13.1091 16.721 13.5545C16.2757 13.9999 15.6716 14.2501 15.0417 14.2501H3.95834C3.32845 14.2501 2.72436 13.9999 2.27896 13.5545C1.83356 13.1091 1.58334 12.505 1.58334 11.8751V11.0834C1.58656 10.8168 1.61868 10.5514 1.67913 10.2917H3.16667V11.0834C3.16667 11.2934 3.25008 11.4947 3.39854 11.6432C3.54701 11.7917 3.74837 11.8751 3.95834 11.8751C4.1683 11.8751 4.36966 11.7917 4.51813 11.6432C4.6666 11.4947 4.75 11.2934 4.75 11.0834V10.2917H14.25V11.0834C14.25 11.2934 14.3334 11.4947 14.4819 11.6432C14.6303 11.7917 14.8317 11.8751 15.0417 11.8751C15.2516 11.8751 15.453 11.7917 15.6015 11.6432C15.7499 11.4947 15.8333 11.2934 15.8333 11.0834V10.2917H17.3209C17.3814 10.5514 17.4135 10.8168 17.4167 11.0834V11.8751Z" fill="#49454F"/>
</g>
<defs>
<clipPath id="clip0_7273_14681">
<rect width="19" height="19" fill="white"/>
</clipPath>
</defs>
</svg>
