<svg width="25" height="8" viewBox="0 0 25 8" fill="none" xmlns="http://www.w3.org/2000/svg">
<g id="Logo">
<path id="Shape" d="M12.9195 2.66545C12.9055 3.69625 13.8984 4.27151 14.6463 4.61351C15.4148 4.96445 15.6729 5.18946 15.67 5.50324C15.6641 5.98355 15.057 6.19549 14.4887 6.20374C13.4973 6.21819 12.9209 5.95258 12.4626 5.75165L12.1055 7.31987C12.5653 7.51873 13.4166 7.69214 14.2995 7.69971C16.3718 7.69971 17.7276 6.73979 17.735 5.25139C17.743 3.36251 14.9507 3.25792 14.9697 2.4136C14.9763 2.15762 15.2366 1.88444 15.8071 1.81494C16.0895 1.77985 16.8689 1.75301 17.7526 2.13491L18.0994 0.617617C17.6242 0.455222 17.0134 0.299707 16.253 0.299707C14.3024 0.299707 12.9305 1.2727 12.9195 2.66545ZM21.4322 0.43045C21.0538 0.43045 20.7348 0.637572 20.5926 0.955482L17.6323 7.58823L19.7031 7.58823L20.1152 6.51959H22.6458L22.8848 7.58823H24.71L23.1173 0.43045H21.4322ZM21.7218 2.36406L22.3195 5.05184H20.6828L21.7218 2.36406ZM10.4087 0.43045L8.77638 7.58823H10.7497L12.3812 0.43045L10.4087 0.43045ZM7.48946 0.43045L5.43552 5.30231L4.6047 1.15985C4.50718 0.697439 4.1222 0.43045 3.69469 0.43045H0.336969L0.290039 0.638261C0.979329 0.778636 1.76248 1.00503 2.23692 1.24724C2.5273 1.39519 2.61016 1.52455 2.70549 1.87618L4.27912 7.58823H6.36459L9.56173 0.43045H7.48946Z" fill="white"/>
</g>
</svg>
