<svg width="37" height="24" viewBox="0 0 37 24" fill="none" xmlns="http://www.w3.org/2000/svg">
<rect y="0.899902" width="36.9999" height="22.2" rx="4" fill="#25459A"/>
<path d="M18.9195 10.6655C18.9055 11.6962 19.8984 12.2715 20.6463 12.6135C21.4148 12.9644 21.6729 13.1895 21.67 13.5032C21.6641 13.9835 21.057 14.1955 20.4887 14.2037C19.4973 14.2182 18.9209 13.9526 18.4626 13.7517L18.1055 15.3199C18.5653 15.5187 19.4166 15.6921 20.2995 15.6997C22.3718 15.6997 23.7276 14.7398 23.735 13.2514C23.743 11.3625 20.9507 11.2579 20.9697 10.4136C20.9763 10.1576 21.2366 9.88444 21.8071 9.81494C22.0895 9.77985 22.8689 9.75301 23.7526 10.1349L24.0994 8.61762C23.6242 8.45522 23.0134 8.29971 22.253 8.29971C20.3024 8.29971 18.9305 9.2727 18.9195 10.6655ZM27.4322 8.43045C27.0538 8.43045 26.7348 8.63757 26.5926 8.95548L23.6323 15.5882H25.7031L26.1152 14.5196L28.6458 14.5196L28.8848 15.5882H30.71L29.1173 8.43045H27.4322ZM27.7218 10.3641L28.3195 13.0518H26.6828L27.7218 10.3641ZM16.4087 8.43045L14.7764 15.5882H16.7497L18.3812 8.43045L16.4087 8.43045ZM13.4895 8.43045L11.4355 13.3023L10.6047 9.15985C10.5072 8.69744 10.1222 8.43045 9.69469 8.43045H6.33697L6.29004 8.63826C6.97933 8.77864 7.76248 9.00503 8.23692 9.24724C8.5273 9.39519 8.61016 9.52455 8.70549 9.87618L10.2791 15.5882H12.3646L15.5617 8.43045H13.4895Z" fill="white"/>
</svg>
