<svg width="51" height="51" viewBox="0 0 51 51" fill="none" xmlns="http://www.w3.org/2000/svg">
<g filter="url(#filter0_d_11646_26309)">
<rect x="7" y="6" width="37" height="37" rx="10" fill="white"/>
<rect x="7.5" y="6.5" width="36" height="36" rx="9.5" stroke="white"/>
</g>
<g clip-path="url(#clip0_11646_26309)">
<path d="M28.1425 16.5713H28.0566C27.7609 16.5741 27.4745 16.675 27.2424 16.8582C27.0103 17.0414 26.8456 17.2966 26.7742 17.5835C26.6977 17.8629 26.5315 18.1094 26.3012 18.2851C26.0709 18.4608 25.7893 18.556 25.4997 18.556C25.21 18.556 24.9284 18.4608 24.6981 18.2851C24.4678 18.1094 24.3016 17.8629 24.2251 17.5835C24.1537 17.2966 23.989 17.0414 23.7569 16.8582C23.5248 16.675 23.2384 16.5741 22.9427 16.5713H22.8568C21.981 16.5723 21.1413 16.9207 20.522 17.54C19.9027 18.1594 19.5543 18.999 19.5532 19.8749V30.4463C19.5532 30.972 19.7621 31.4762 20.1338 31.8479C20.5055 32.2196 21.0097 32.4284 21.5354 32.4284H22.9427C23.2384 32.4256 23.5248 32.3247 23.7569 32.1415C23.989 31.9583 24.1537 31.7032 24.2251 31.4162C24.3016 31.1368 24.4678 30.8903 24.6981 30.7146C24.9284 30.5389 25.21 30.4438 25.4997 30.4438C25.7893 30.4438 26.0709 30.5389 26.3012 30.7146C26.5315 30.8903 26.6977 31.1368 26.7742 31.4162C26.8456 31.7032 27.0103 31.9583 27.2424 32.1415C27.4745 32.3247 27.7609 32.4256 28.0566 32.4284H29.4639C29.9896 32.4284 30.4938 32.2196 30.8655 31.8479C31.2372 31.4762 31.4461 30.972 31.4461 30.4463V19.8749C31.445 18.999 31.0966 18.1594 30.4773 17.54C29.858 16.9207 29.0183 16.5723 28.1425 16.5713V16.5713ZM29.4639 31.107L28.048 31.0654C27.8928 30.5047 27.557 30.0109 27.0926 29.6606C26.6282 29.3102 26.0611 29.1229 25.4794 29.1276C24.8977 29.1323 24.3337 29.3289 23.8751 29.6868C23.4165 30.0447 23.0887 30.5439 22.9427 31.107H21.5354C21.3601 31.107 21.1921 31.0374 21.0682 30.9135C20.9443 30.7896 20.8747 30.6215 20.8747 30.4463V27.8034H22.1961C22.3713 27.8034 22.5394 27.7338 22.6633 27.6099C22.7872 27.486 22.8568 27.318 22.8568 27.1427C22.8568 26.9675 22.7872 26.7994 22.6633 26.6755C22.5394 26.5516 22.3713 26.482 22.1961 26.482H20.8747V19.8749C20.8747 19.3492 21.0835 18.845 21.4552 18.4733C21.8269 18.1016 22.3311 17.8927 22.8568 17.8927L22.9513 17.9343C23.106 18.4916 23.4389 18.9829 23.899 19.3333C24.3592 19.6837 24.9213 19.8739 25.4997 19.8749C26.0858 19.8699 26.6543 19.6735 27.1186 19.3157C27.5829 18.9579 27.9176 18.4583 28.0718 17.8927H28.1425C28.6682 17.8927 29.1724 18.1016 29.5441 18.4733C29.9158 18.845 30.1247 19.3492 30.1247 19.8749V26.482H28.8032C28.628 26.482 28.4599 26.5516 28.336 26.6755C28.2121 26.7994 28.1425 26.9675 28.1425 27.1427C28.1425 27.318 28.2121 27.486 28.336 27.6099C28.4599 27.7338 28.628 27.8034 28.8032 27.8034H30.1247V30.4463C30.1247 30.6215 30.055 30.7896 29.9311 30.9135C29.8072 31.0374 29.6392 31.107 29.4639 31.107Z" fill="#212121"/>
<path d="M26.1608 26.4819H24.8394C24.6642 26.4819 24.4961 26.5515 24.3722 26.6755C24.2483 26.7994 24.1787 26.9674 24.1787 27.1427C24.1787 27.3179 24.2483 27.4859 24.3722 27.6099C24.4961 27.7338 24.6642 27.8034 24.8394 27.8034H26.1608C26.3361 27.8034 26.5041 27.7338 26.628 27.6099C26.752 27.4859 26.8216 27.3179 26.8216 27.1427C26.8216 26.9674 26.752 26.7994 26.628 26.6755C26.5041 26.5515 26.3361 26.4819 26.1608 26.4819Z" fill="#212121"/>
</g>
<defs>
<filter id="filter0_d_11646_26309" x="0" y="0" width="51" height="51" filterUnits="userSpaceOnUse" color-interpolation-filters="sRGB">
<feFlood flood-opacity="0" result="BackgroundImageFix"/>
<feColorMatrix in="SourceAlpha" type="matrix" values="0 0 0 0 0 0 0 0 0 0 0 0 0 0 0 0 0 0 127 0" result="hardAlpha"/>
<feMorphology radius="1" operator="dilate" in="SourceAlpha" result="effect1_dropShadow_11646_26309"/>
<feOffset dy="1"/>
<feGaussianBlur stdDeviation="3"/>
<feComposite in2="hardAlpha" operator="out"/>
<feColorMatrix type="matrix" values="0 0 0 0 0.438333 0 0 0 0 0.438333 0 0 0 0 0.438333 0 0 0 0.2 0"/>
<feBlend mode="normal" in2="BackgroundImageFix" result="effect1_dropShadow_11646_26309"/>
<feBlend mode="normal" in="SourceGraphic" in2="effect1_dropShadow_11646_26309" result="shape"/>
</filter>
<clipPath id="clip0_11646_26309">
<rect width="15.8571" height="15.8571" fill="white" transform="translate(17.5713 16.5713)"/>
</clipPath>
</defs>
</svg>
