<svg width="19" height="18" viewBox="0 0 19 18" fill="none" xmlns="http://www.w3.org/2000/svg">
<g clip-path="url(#clip0_13005_17593)">
<path d="M11.6716 3.245C11.6739 3.38989 11.7185 3.53095 11.7999 3.65082C11.8813 3.77068 11.996 3.86413 12.1298 3.91966C13.3263 4.44611 14.3381 5.31816 15.0354 6.42384C15.7327 7.52952 16.0836 8.81836 16.043 10.1249C16.0148 11.864 15.2969 13.5206 14.0472 14.7303C12.7976 15.9401 11.1186 16.6039 9.37949 16.5757C7.64043 16.5475 5.9838 15.8296 4.77404 14.5799C3.56429 13.3303 2.90051 11.6512 2.92872 9.91216C2.9304 8.6417 3.30112 7.39908 3.99582 6.33537C4.69052 5.27166 5.67927 4.43267 6.84188 3.92039C6.97578 3.86453 7.09047 3.7708 7.17187 3.6507C7.25328 3.5306 7.29786 3.38935 7.30015 3.24428C7.30033 3.12494 7.27121 3.00739 7.21532 2.90195C7.15944 2.79651 7.07852 2.70641 6.97966 2.63957C6.8808 2.57273 6.76704 2.5312 6.64837 2.51862C6.5297 2.50604 6.40976 2.5228 6.29909 2.56743C4.60828 3.30048 3.22177 4.59384 2.37308 6.22966C1.5244 7.86549 1.26541 9.74382 1.63974 11.5483C2.01406 13.3527 2.99883 14.9731 4.42817 16.1363C5.85751 17.2996 7.64408 17.9347 9.48695 17.9347C11.3298 17.9347 13.1164 17.2996 14.5457 16.1363C15.9751 14.9731 16.9598 13.3527 17.3342 11.5483C17.7085 9.74382 17.4495 7.86549 16.6008 6.22966C15.7521 4.59384 14.3656 3.30048 12.6748 2.56743C12.564 2.52232 12.4437 2.5052 12.3247 2.51759C12.2057 2.52998 12.0915 2.5715 11.9924 2.63847C11.8932 2.70545 11.8121 2.79583 11.7561 2.90161C11.7002 3.0074 11.6711 3.12534 11.6716 3.245Z" fill="#212121"/>
<path d="M10.214 1.16998C10.214 0.767599 9.88779 0.441406 9.48541 0.441406C9.08303 0.441406 8.75684 0.767599 8.75684 1.16998V5.54141C8.75684 5.94379 9.08303 6.26998 9.48541 6.26998C9.88779 6.26998 10.214 5.94379 10.214 5.54141V1.16998Z" fill="#212121"/>
</g>
<defs>
<clipPath id="clip0_13005_17593">
<rect width="17.4857" height="17.4857" fill="white" transform="translate(0.742676 0.441406)"/>
</clipPath>
</defs>
</svg>
