<svg width="18" height="15" viewBox="0 0 18 15" fill="none" xmlns="http://www.w3.org/2000/svg">
<path d="M16.6322 6.52904H4.38734L8.41591 2.60955C8.53068 2.4988 8.62177 2.36704 8.68394 2.22186C8.7461 2.07669 8.77811 1.92098 8.77811 1.76371C8.77811 1.60643 8.7461 1.45072 8.68394 1.30555C8.62177 1.16037 8.53068 1.02861 8.41591 0.917857C8.18648 0.69597 7.87614 0.571426 7.55264 0.571426C7.22915 0.571426 6.9188 0.69597 6.68938 0.917857L1.43632 6.0406C0.976413 6.48538 0.716601 7.08947 0.713867 7.72038C0.719826 8.34714 0.979391 8.94638 1.43632 9.38825L6.68938 14.511C6.80355 14.6213 6.93893 14.7086 7.08779 14.768C7.23665 14.8274 7.39608 14.8577 7.55697 14.8571C7.71786 14.8566 7.87707 14.8252 8.0255 14.7648C8.17392 14.7044 8.30867 14.6161 8.42203 14.505C8.5354 14.3939 8.62516 14.2622 8.68621 14.1174C8.74725 13.9726 8.77838 13.8175 8.77781 13.6609C8.77724 13.5044 8.74499 13.3495 8.6829 13.2051C8.6208 13.0607 8.53008 12.9296 8.41591 12.8193L4.38734 8.91171H16.6322C16.957 8.91171 17.2684 8.7862 17.4981 8.56278C17.7277 8.33936 17.8567 8.03634 17.8567 7.72038C17.8567 7.40442 17.7277 7.1014 17.4981 6.87798C17.2684 6.65456 16.957 6.52904 16.6322 6.52904Z" fill="#79FFAF"/>
</svg>
