<svg width="18" height="15" viewBox="0 0 18 15" fill="none" xmlns="http://www.w3.org/2000/svg">
<path d="M16.6327 6.52988H4.38782L8.4164 2.61039C8.53117 2.49964 8.62226 2.36788 8.68443 2.2227C8.74659 2.07753 8.7786 1.92181 8.7786 1.76454C8.7786 1.60727 8.74659 1.45156 8.68443 1.30638C8.62226 1.16121 8.53117 1.02945 8.4164 0.918697C8.18697 0.69681 7.87662 0.572266 7.55313 0.572266C7.22964 0.572266 6.91929 0.69681 6.68987 0.918697L1.4368 6.04144C0.976901 6.48622 0.717089 7.09031 0.714355 7.72122C0.720315 8.34798 0.979879 8.94722 1.4368 9.38908L6.68987 14.5118C6.80404 14.6221 6.93942 14.7095 7.08828 14.7688C7.23714 14.8282 7.39657 14.8585 7.55746 14.858C7.71835 14.8574 7.87756 14.826 8.02598 14.7656C8.17441 14.7052 8.30915 14.6169 8.42252 14.5059C8.53588 14.3948 8.62565 14.2631 8.6867 14.1182C8.74774 13.9734 8.77887 13.8183 8.7783 13.6618C8.77773 13.5052 8.74548 13.3503 8.68338 13.2059C8.62129 13.0615 8.53057 12.9304 8.4164 12.8201L4.38782 8.91255H16.6327C16.9575 8.91255 17.2689 8.78704 17.4986 8.56362C17.7282 8.3402 17.8572 8.03718 17.8572 7.72122C17.8572 7.40525 17.7282 7.10223 17.4986 6.87882C17.2689 6.6554 16.9575 6.52988 16.6327 6.52988Z" fill="#212121"/>
</svg>
