<svg width="23" height="23" viewBox="0 0 23 23" fill="none" xmlns="http://www.w3.org/2000/svg">
<path d="M14.3755 16.2075C14.3755 16.4572 14.2745 16.6967 14.0948 16.8733C13.9151 17.0498 13.6713 17.149 13.4171 17.149H9.5838C9.32963 17.149 9.08588 17.0498 8.90615 16.8733C8.72643 16.6967 8.62546 16.4572 8.62546 16.2075C8.62546 15.9578 8.72643 15.7183 8.90615 15.5418C9.08588 15.3652 9.32963 15.266 9.5838 15.266H13.4171C13.6713 15.266 13.9151 15.3652 14.0948 15.5418C14.2745 15.7183 14.3755 15.9578 14.3755 16.2075ZM14.0947 7.0682C13.915 6.89169 13.6712 6.79253 13.4171 6.79253C13.163 6.79253 12.9193 6.89169 12.7396 7.0682L11.5005 8.28558L10.2613 7.0682C10.1729 6.97827 10.0672 6.90654 9.95027 6.8572C9.83335 6.80786 9.70759 6.78188 9.58035 6.7808C9.4531 6.77971 9.32691 6.80353 9.20913 6.85087C9.09136 6.89821 8.98436 6.96812 8.89438 7.05653C8.8044 7.14493 8.73324 7.25005 8.68505 7.36576C8.63687 7.48147 8.61262 7.60545 8.61372 7.73046C8.61483 7.85548 8.64127 7.97902 8.69149 8.09389C8.74172 8.20876 8.81472 8.31265 8.90626 8.3995L10.1454 9.61689L8.90626 10.8343C8.81472 10.9211 8.74172 11.025 8.69149 11.1399C8.64127 11.2548 8.61483 11.3783 8.61372 11.5033C8.61262 11.6283 8.63687 11.7523 8.68505 11.868C8.73324 11.9837 8.8044 12.0888 8.89438 12.1773C8.98436 12.2657 9.09136 12.3356 9.20913 12.3829C9.32691 12.4302 9.4531 12.4541 9.58035 12.453C9.70759 12.4519 9.83335 12.4259 9.95027 12.3766C10.0672 12.3272 10.1729 12.2555 10.2613 12.1656L11.5005 10.9482L12.7396 12.1656C12.9203 12.3371 13.1624 12.432 13.4137 12.4298C13.665 12.4277 13.9053 12.3287 14.083 12.1541C14.2607 11.9795 14.3615 11.7434 14.3637 11.4965C14.3658 11.2497 14.2692 11.0118 14.0947 10.8343L12.8555 9.61689L14.0947 8.3995C14.2743 8.22294 14.3753 7.98351 14.3753 7.73385C14.3753 7.48419 14.2743 7.24476 14.0947 7.0682ZM21.0838 15.266H17.2505C16.9963 15.266 16.7525 15.3652 16.5728 15.5418C16.3931 15.7183 16.2921 15.9578 16.2921 16.2075C16.2921 16.4572 16.3931 16.6967 16.5728 16.8733C16.7525 17.0498 16.9963 17.149 17.2505 17.149H21.0838C21.338 17.149 21.5817 17.0498 21.7614 16.8733C21.9412 16.6967 22.0421 16.4572 22.0421 16.2075C22.0421 15.9578 21.9412 15.7183 21.7614 15.5418C21.5817 15.3652 21.338 15.266 21.0838 15.266ZM20.5222 9.61689L21.7613 8.3995C21.8529 8.31265 21.9259 8.20876 21.9761 8.09389C22.0263 7.97902 22.0528 7.85548 22.0539 7.73046C22.055 7.60545 22.0307 7.48147 21.9825 7.36576C21.9344 7.25005 21.8632 7.14493 21.7732 7.05653C21.6832 6.96812 21.5762 6.89821 21.4585 6.85087C21.3407 6.80353 21.2145 6.77971 21.0872 6.7808C20.96 6.78188 20.8342 6.80786 20.7173 6.8572C20.6004 6.90654 20.4947 6.97827 20.4063 7.0682L19.1671 8.28558L17.928 7.0682C17.8396 6.97827 17.7339 6.90654 17.6169 6.8572C17.5 6.80786 17.3743 6.78188 17.247 6.7808C17.1198 6.77971 16.9936 6.80353 16.8758 6.85087C16.758 6.89821 16.651 6.96812 16.561 7.05653C16.4711 7.14493 16.3999 7.25005 16.3517 7.36576C16.3035 7.48147 16.2793 7.60545 16.2804 7.73046C16.2815 7.85548 16.3079 7.97902 16.3582 8.09389C16.4084 8.20876 16.4814 8.31265 16.5729 8.3995L17.812 9.61689L16.5729 10.8343C16.4814 10.9211 16.4084 11.025 16.3582 11.1399C16.3079 11.2548 16.2815 11.3783 16.2804 11.5033C16.2793 11.6283 16.3035 11.7523 16.3517 11.868C16.3999 11.9837 16.4711 12.0888 16.561 12.1773C16.651 12.2657 16.758 12.3356 16.8758 12.3829C16.9936 12.4302 17.1198 12.4541 17.247 12.453C17.3743 12.4519 17.5 12.4259 17.6169 12.3766C17.7339 12.3272 17.8396 12.2555 17.928 12.1656L19.1671 10.9482L20.4063 12.1656C20.587 12.3371 20.8291 12.432 21.0803 12.4298C21.3316 12.4277 21.572 12.3287 21.7497 12.1541C21.9273 11.9795 22.0281 11.7434 22.0303 11.4965C22.0325 11.2497 21.9359 11.0118 21.7613 10.8343L20.5222 9.61689ZM5.75046 15.266H1.91713C1.66297 15.266 1.41921 15.3652 1.23949 15.5418C1.05976 15.7183 0.958798 15.9578 0.958798 16.2075C0.958798 16.4572 1.05976 16.6967 1.23949 16.8733C1.41921 17.0498 1.66297 17.149 1.91713 17.149H5.75046C6.00463 17.149 6.24839 17.0498 6.42811 16.8733C6.60783 16.6967 6.7088 16.4572 6.7088 16.2075C6.7088 15.9578 6.60783 15.7183 6.42811 15.5418C6.24839 15.3652 6.00463 15.266 5.75046 15.266ZM6.42801 7.0682C6.24829 6.89169 6.00458 6.79253 5.75046 6.79253C5.49635 6.79253 5.25264 6.89169 5.07292 7.0682L3.8338 8.28558L2.59467 7.0682C2.50627 6.97827 2.40052 6.90654 2.2836 6.8572C2.16668 6.80786 2.04093 6.78188 1.91368 6.7808C1.78644 6.77971 1.66024 6.80353 1.54247 6.85087C1.42469 6.89821 1.31769 6.96812 1.22771 7.05653C1.13773 7.14493 1.06657 7.25005 1.01839 7.36576C0.970199 7.48147 0.945952 7.60545 0.947058 7.73046C0.948163 7.85548 0.9746 7.97902 1.02483 8.09389C1.07505 8.20876 1.14806 8.31265 1.23959 8.3995L2.47871 9.61689L1.23959 10.8343C1.14806 10.9211 1.07505 11.025 1.02483 11.1399C0.9746 11.2548 0.948163 11.3783 0.947058 11.5033C0.945952 11.6283 0.970199 11.7523 1.01839 11.868C1.06657 11.9837 1.13773 12.0888 1.22771 12.1773C1.31769 12.2657 1.42469 12.3356 1.54247 12.3829C1.66024 12.4302 1.78644 12.4541 1.91368 12.453C2.04093 12.4519 2.16668 12.4259 2.2836 12.3766C2.40052 12.3272 2.50627 12.2555 2.59467 12.1656L3.8338 10.9482L5.07292 12.1656C5.16133 12.2555 5.26707 12.3272 5.38399 12.3766C5.50091 12.4259 5.62667 12.4519 5.75391 12.453C5.88116 12.4541 6.00735 12.4302 6.12513 12.3829C6.2429 12.3356 6.3499 12.2657 6.43988 12.1773C6.52986 12.0888 6.60102 11.9837 6.64921 11.868C6.6974 11.7523 6.72164 11.6283 6.72054 11.5033C6.71943 11.3783 6.69299 11.2548 6.64277 11.1399C6.59254 11.025 6.51954 10.9211 6.42801 10.8343L5.18888 9.61689L6.42801 8.3995C6.60767 8.22294 6.70859 7.98351 6.70859 7.73385C6.70859 7.48419 6.60767 7.24476 6.42801 7.0682Z" fill="#212121"/>
</svg>
