<svg width="12" height="13" viewBox="0 0 12 13" fill="none" xmlns="http://www.w3.org/2000/svg">
<g clip-path="url(#clip0_1_373)">
<path d="M11.6358 5.18761C10.8603 3.92164 9.09627 1.79767 6.00027 1.79767C2.90427 1.79767 1.14027 3.92164 0.36477 5.18761C0.125034 5.57627 -0.00195312 6.02419 -0.00195312 6.48114C-0.00195313 6.93809 0.125034 7.386 0.36477 7.77467C1.14027 9.04063 2.90427 11.1646 6.00027 11.1646C9.09627 11.1646 10.8603 9.04063 11.6358 7.77467C11.8755 7.386 12.0025 6.93809 12.0025 6.48114C12.0025 6.02419 11.8755 5.57627 11.6358 5.18761V5.18761ZM10.7833 7.24994C10.1173 8.33548 8.60977 10.1623 6.00027 10.1623C3.39077 10.1623 1.88327 8.33548 1.21727 7.24994C1.07484 7.01892 0.999395 6.75271 0.999395 6.48114C0.999395 6.20956 1.07484 5.94335 1.21727 5.71234C1.88327 4.62679 3.39077 2.80002 6.00027 2.80002C8.60977 2.80002 10.1173 4.62479 10.7833 5.71234C10.9257 5.94335 11.0011 6.20956 11.0011 6.48114C11.0011 6.75271 10.9257 7.01892 10.7833 7.24994V7.24994Z" fill="#212121"/>
<path d="M5.99989 3.97528C5.50544 3.97528 5.02209 4.12225 4.61097 4.3976C4.19985 4.67294 3.87941 5.06431 3.6902 5.5222C3.50098 5.98008 3.45147 6.48393 3.54793 6.97002C3.64439 7.45611 3.8825 7.90261 4.23213 8.25307C4.58176 8.60352 5.02722 8.84218 5.51217 8.93887C5.99712 9.03556 6.49979 8.98593 6.9566 8.79627C7.41342 8.60661 7.80386 8.28542 8.07857 7.87334C8.35327 7.46125 8.49989 6.97676 8.49989 6.48115C8.4991 5.8168 8.23545 5.17988 7.76678 4.71011C7.29812 4.24034 6.66269 3.97608 5.99989 3.97528V3.97528ZM5.99989 7.98467C5.70322 7.98467 5.41321 7.89649 5.16654 7.73128C4.91987 7.56607 4.72761 7.33125 4.61407 7.05652C4.50054 6.78179 4.47084 6.47948 4.52872 6.18783C4.58659 5.89617 4.72946 5.62827 4.93923 5.418C5.14901 5.20773 5.41629 5.06453 5.70726 5.00652C5.99823 4.9485 6.29983 4.97828 6.57392 5.09208C6.84801 5.20587 7.08228 5.39858 7.2471 5.64584C7.41192 5.89309 7.49989 6.18378 7.49989 6.48115C7.49989 6.87991 7.34186 7.26233 7.06055 7.5443C6.77925 7.82626 6.39772 7.98467 5.99989 7.98467Z" fill="#212121"/>
</g>
<defs>
<clipPath id="clip0_1_373">
<rect width="12" height="12.0282" fill="white" transform="translate(0 0.467163)"/>
</clipPath>
</defs>
</svg>
