<svg width="19" height="19" viewBox="0 0 19 19" fill="none" xmlns="http://www.w3.org/2000/svg">
<g clip-path="url(#clip0_8941_10168)">
<path d="M18.071 7.51755C16.8672 5.62735 14.1289 2.45605 9.32304 2.45605C4.51716 2.45605 1.77892 5.62735 0.575119 7.51755C0.20298 8.09786 0.00585938 8.76664 0.00585938 9.44891C0.00585937 10.1312 0.20298 10.8 0.575119 11.3803C1.77892 13.2705 4.51716 16.4418 9.32304 16.4418C14.1289 16.4418 16.8672 13.2705 18.071 11.3803C18.4431 10.8 18.6402 10.1312 18.6402 9.44891C18.6402 8.76664 18.4431 8.09786 18.071 7.51755ZM16.7476 10.5968C15.7138 12.2176 13.3737 14.9452 9.32304 14.9452C5.27234 14.9452 2.93227 12.2176 1.89844 10.5968C1.67735 10.2519 1.56024 9.8544 1.56024 9.44891C1.56024 9.04343 1.67735 8.64595 1.89844 8.30102C2.93227 6.6802 5.27234 3.95265 9.32304 3.95265C13.3737 3.95265 15.7138 6.67721 16.7476 8.30102C16.9687 8.64595 17.0858 9.04343 17.0858 9.44891C17.0858 9.8544 16.9687 10.2519 16.7476 10.5968Z" fill="#49454F"/>
<path d="M9.32408 5.70752C8.55655 5.70752 7.80625 5.92695 7.16807 6.33808C6.52989 6.7492 6.03249 7.33354 5.73876 8.01721C5.44504 8.70088 5.36819 9.45317 5.51793 10.1789C5.66767 10.9047 6.03727 11.5714 6.58 12.0947C7.12273 12.6179 7.8142 12.9743 8.56699 13.1186C9.31978 13.263 10.1001 13.1889 10.8092 12.9057C11.5183 12.6225 12.1244 12.143 12.5508 11.5277C12.9772 10.9124 13.2048 10.189 13.2048 9.44902C13.2036 8.45707 12.7943 7.5061 12.0668 6.80469C11.3393 6.10328 10.3529 5.70871 9.32408 5.70752ZM9.32408 11.6939C8.86356 11.6939 8.41338 11.5623 8.03047 11.3156C7.64756 11.0689 7.34912 10.7183 7.17289 10.3081C6.99666 9.8979 6.95055 9.44653 7.04039 9.01106C7.13023 8.57559 7.35199 8.17559 7.67763 7.86163C8.00327 7.54768 8.41816 7.33387 8.86983 7.24725C9.3215 7.16063 9.78967 7.20509 10.2151 7.375C10.6406 7.54491 11.0043 7.83265 11.2601 8.20182C11.516 8.57099 11.6525 9.00502 11.6525 9.44902C11.6525 10.0444 11.4072 10.6154 10.9705 11.0364C10.5339 11.4574 9.94162 11.6939 9.32408 11.6939Z" fill="#49454F"/>
</g>
<defs>
<clipPath id="clip0_8941_10168">
<rect width="18.6275" height="17.9592" fill="white" transform="translate(0.00976562 0.469482)"/>
</clipPath>
</defs>
</svg>
