<svg width="19" height="18" viewBox="0 0 19 18" fill="none" xmlns="http://www.w3.org/2000/svg">
<g id="fi-rr-money" clip-path="url(#clip0_12872_17335)">
<path id="Vector" d="M14.5855 15.0126H4.38553C3.41974 15.0115 2.49384 14.6273 1.81092 13.9444C1.128 13.2614 0.743833 12.3355 0.742676 11.3698L0.742676 6.99833C0.743833 6.03254 1.128 5.10663 1.81092 4.42371C2.49384 3.7408 3.41974 3.35663 4.38553 3.35547H14.5855C15.5513 3.35663 16.4772 3.7408 17.1601 4.42371C17.8431 5.10663 18.2272 6.03254 18.2284 6.99833V11.3698C18.2272 12.3355 17.8431 13.2614 17.1601 13.9444C16.4772 14.6273 15.5513 15.0115 14.5855 15.0126ZM4.38553 4.81261C3.80585 4.81261 3.2499 5.04289 2.84 5.45279C2.4301 5.86269 2.19982 6.41864 2.19982 6.99833V11.3698C2.19982 11.9494 2.4301 12.5054 2.84 12.9153C3.2499 13.3252 3.80585 13.5555 4.38553 13.5555H14.5855C15.1652 13.5555 15.7212 13.3252 16.1311 12.9153C16.541 12.5054 16.7712 11.9494 16.7712 11.3698V6.99833C16.7712 6.41864 16.541 5.86269 16.1311 5.45279C15.7212 5.04289 15.1652 4.81261 14.5855 4.81261H4.38553ZM9.48553 12.0983C8.90914 12.0983 8.34569 11.9274 7.86644 11.6072C7.38719 11.287 7.01366 10.8318 6.79308 10.2993C6.57251 9.76677 6.5148 9.18081 6.62724 8.61549C6.73969 8.05018 7.01725 7.5309 7.42482 7.12333C7.83239 6.71576 8.35167 6.4382 8.91698 6.32575C9.4823 6.2133 10.0683 6.27102 10.6008 6.49159C11.1333 6.71217 11.5884 7.0857 11.9087 7.56495C12.2289 8.0442 12.3998 8.60765 12.3998 9.18404C12.3998 9.95696 12.0928 10.6982 11.5462 11.2448C10.9997 11.7913 10.2584 12.0983 9.48553 12.0983ZM9.48553 7.7269C9.19734 7.7269 8.91561 7.81236 8.67599 7.97247C8.43636 8.13258 8.2496 8.36016 8.13931 8.62642C8.02902 8.89267 8.00016 9.18566 8.05639 9.46831C8.11261 9.75097 8.25139 10.0106 8.45518 10.2144C8.65896 10.4182 8.9186 10.557 9.20126 10.6132C9.48392 10.6694 9.7769 10.6406 10.0432 10.5303C10.3094 10.42 10.537 10.2332 10.6971 9.99359C10.8572 9.75396 10.9427 9.47224 10.9427 9.18404C10.9427 8.79758 10.7892 8.42695 10.5159 8.15368C10.2426 7.88042 9.87199 7.7269 9.48553 7.7269ZM4.38553 6.26975C4.24144 6.26975 4.10057 6.31248 3.98076 6.39254C3.86095 6.4726 3.76756 6.58638 3.71242 6.71951C3.65728 6.85264 3.64285 6.99913 3.67096 7.14046C3.69907 7.28179 3.76846 7.41161 3.87036 7.5135C3.97225 7.6154 4.10207 7.68479 4.2434 7.7129C4.38472 7.74101 4.53122 7.72658 4.66435 7.67144C4.79747 7.61629 4.91126 7.52291 4.99132 7.4031C5.07137 7.28329 5.1141 7.14242 5.1141 6.99833C5.1141 6.8051 5.03734 6.61978 4.90071 6.48315C4.76408 6.34651 4.57876 6.26975 4.38553 6.26975ZM13.857 6.99833C13.857 7.14242 13.8997 7.28329 13.9797 7.4031C14.0598 7.52291 14.1736 7.61629 14.3067 7.67144C14.4398 7.72658 14.5863 7.74101 14.7277 7.7129C14.869 7.68479 14.9988 7.6154 15.1007 7.5135C15.2026 7.41161 15.272 7.28179 15.3001 7.14046C15.3282 6.99913 15.3138 6.85264 15.2586 6.71951C15.2035 6.58638 15.1101 6.4726 14.9903 6.39254C14.8705 6.31248 14.7296 6.26975 14.5855 6.26975C14.3923 6.26975 14.207 6.34651 14.0704 6.48315C13.9337 6.61978 13.857 6.8051 13.857 6.99833ZM4.38553 10.6412C4.24144 10.6412 4.10057 10.6839 3.98076 10.764C3.86095 10.844 3.76756 10.9578 3.71242 11.0909C3.65728 11.2241 3.64285 11.3706 3.67096 11.5119C3.69907 11.6532 3.76846 11.783 3.87036 11.8849C3.97225 11.9868 4.10207 12.0562 4.2434 12.0843C4.38472 12.1124 4.53122 12.098 4.66435 12.0429C4.79747 11.9877 4.91126 11.8943 4.99132 11.7745C5.07137 11.6547 5.1141 11.5139 5.1141 11.3698C5.1141 11.1765 5.03734 10.9912 4.90071 10.8546C4.76408 10.7179 4.57876 10.6412 4.38553 10.6412ZM13.857 11.3698C13.857 11.5139 13.8997 11.6547 13.9797 11.7745C14.0598 11.8943 14.1736 11.9877 14.3067 12.0429C14.4398 12.098 14.5863 12.1124 14.7277 12.0843C14.869 12.0562 14.9988 11.9868 15.1007 11.8849C15.2026 11.783 15.272 11.6532 15.3001 11.5119C15.3282 11.3706 15.3138 11.2241 15.2586 11.0909C15.2035 10.9578 15.1101 10.844 14.9903 10.764C14.8705 10.6839 14.7296 10.6412 14.5855 10.6412C14.3923 10.6412 14.207 10.7179 14.0704 10.8546C13.9337 10.9912 13.857 11.1765 13.857 11.3698Z" fill="#212121"/>
</g>
<defs>
<clipPath id="clip0_12872_17335">
<rect width="17.4857" height="17.4857" fill="white" transform="translate(0.742676 0.441406)"/>
</clipPath>
</defs>
</svg>
