<svg width="23" height="23" viewBox="0 0 23 23" fill="none" xmlns="http://www.w3.org/2000/svg">
<path d="M22.4306 9.75877L22.3146 9.27506H11.6135V13.7248H18.0073C17.3434 16.8217 14.2631 18.4519 11.7469 18.4519C9.91618 18.4519 7.98634 17.6953 6.70902 16.4792C6.0351 15.8273 5.49867 15.0513 5.13043 14.1955C4.7622 13.3397 4.56938 12.4209 4.56304 11.4918C4.56304 9.61754 5.4204 7.74273 6.66795 6.50951C7.91549 5.27629 9.79964 4.58629 11.673 4.58629C13.8185 4.58629 15.3561 5.70552 15.9311 6.21596L19.1496 3.07061C18.2054 2.25552 15.6118 0.20166 11.5693 0.20166C8.45045 0.20166 5.45993 1.37537 3.27391 3.51598C1.11663 5.62381 0 8.67181 0 11.4999C0 14.328 1.05656 17.2237 3.1471 19.3482C5.38087 21.6139 8.5444 22.7982 11.8019 22.7982C14.7657 22.7982 17.575 21.6572 19.5772 19.5872C21.5456 17.5495 22.5636 14.73 22.5636 11.7743C22.5636 10.53 22.4363 9.79105 22.4306 9.75877Z" fill="black"/>
</svg>
