<svg width="17" height="13" viewBox="0 0 17 13" fill="none" xmlns="http://www.w3.org/2000/svg">
<path d="M13.4583 0.125H3.54167C2.6027 0.126125 1.70252 0.499625 1.03857 1.16357C0.374625 1.82752 0.00112473 2.7277 0 3.66667L0 9.33333C0.00112473 10.2723 0.374625 11.1725 1.03857 11.8364C1.70252 12.5004 2.6027 12.8739 3.54167 12.875H13.4583C14.3973 12.8739 15.2975 12.5004 15.9614 11.8364C16.6254 11.1725 16.9989 10.2723 17 9.33333V3.66667C16.9989 2.7277 16.6254 1.82752 15.9614 1.16357C15.2975 0.499625 14.3973 0.126125 13.4583 0.125V0.125ZM3.54167 1.54167H13.4583C14.0219 1.54167 14.5624 1.76555 14.9609 2.16406C15.3594 2.56258 15.5833 3.10308 15.5833 3.66667H1.41667C1.41667 3.10308 1.64055 2.56258 2.03906 2.16406C2.43758 1.76555 2.97808 1.54167 3.54167 1.54167V1.54167ZM13.4583 11.4583H3.54167C2.97808 11.4583 2.43758 11.2345 2.03906 10.8359C1.64055 10.4374 1.41667 9.89692 1.41667 9.33333V5.08333H15.5833V9.33333C15.5833 9.89692 15.3594 10.4374 14.9609 10.8359C14.5624 11.2345 14.0219 11.4583 13.4583 11.4583Z" fill="#212121"/>
</svg>
