<svg width="10" height="10" viewBox="0 0 10 10" fill="none" xmlns="http://www.w3.org/2000/svg">
<path d="M8.92913 4.64287H5.3577V1.07144C5.3577 0.976717 5.32007 0.885876 5.2531 0.818899C5.18612 0.751922 5.09528 0.714294 5.00056 0.714294V0.714294C4.90584 0.714294 4.815 0.751922 4.74802 0.818899C4.68104 0.885876 4.64341 0.976717 4.64341 1.07144V4.64287H1.07199C0.977266 4.64287 0.886426 4.68049 0.819448 4.74747C0.752471 4.81445 0.714844 4.90529 0.714844 5.00001H0.714844C0.714844 5.09473 0.752471 5.18557 0.819448 5.25255C0.886426 5.31952 0.977266 5.35715 1.07199 5.35715H4.64341V8.92858C4.64341 9.0233 4.68104 9.11414 4.74802 9.18112C4.815 9.2481 4.90584 9.28572 5.00056 9.28572C5.09528 9.28572 5.18612 9.2481 5.2531 9.18112C5.32007 9.11414 5.3577 9.0233 5.3577 8.92858V5.35715H8.92913C9.02385 5.35715 9.11469 5.31952 9.18167 5.25255C9.24864 5.18557 9.28627 5.09473 9.28627 5.00001C9.28627 4.90529 9.24864 4.81445 9.18167 4.74747C9.11469 4.68049 9.02385 4.64287 8.92913 4.64287Z" fill="#212121"/>
</svg>
