<svg width="17" height="17" viewBox="0 0 17 17" fill="none" xmlns="http://www.w3.org/2000/svg">
<path d="M14.8042 3.0395C14.5547 2.35682 14.1016 1.76719 13.5063 1.35029C12.9109 0.933392 12.2018 0.709326 11.475 0.708374H5.525C4.79817 0.709326 4.08914 0.933392 3.49376 1.35029C2.89837 1.76719 2.44532 2.35682 2.19584 3.0395L0.283337 8.30029C0.0952383 8.81842 -0.000655019 9.36549 3.36732e-06 9.91671V10.625C0.00126727 11.1724 0.129935 11.712 0.37582 12.2011C0.621706 12.6902 0.978059 13.1153 1.41667 13.4428C1.41667 13.4485 1.41667 13.4527 1.41667 13.4584V14.875C1.41667 15.4386 1.64055 15.9791 2.03907 16.3776C2.43758 16.7762 2.97809 17 3.54167 17C4.10526 17 4.64576 16.7762 5.04427 16.3776C5.44279 15.9791 5.66667 15.4386 5.66667 14.875V14.1667H11.3333V14.875C11.3333 15.4386 11.5572 15.9791 11.9557 16.3776C12.3542 16.7762 12.8948 17 13.4583 17C14.0219 17 14.5624 16.7762 14.9609 16.3776C15.3595 15.9791 15.5833 15.4386 15.5833 14.875V13.4584C15.5833 13.4527 15.5833 13.4485 15.5833 13.4428C16.0219 13.1153 16.3783 12.6902 16.6242 12.2011C16.8701 11.712 16.9987 11.1724 17 10.625V9.91671C17.0007 9.36572 16.9048 8.81887 16.7167 8.301L14.8042 3.0395ZM3.52892 3.524C3.67869 3.1147 3.95033 2.76116 4.30724 2.51102C4.66415 2.26088 5.08917 2.12617 5.525 2.12504H11.475C11.9111 2.12588 12.3364 2.26045 12.6936 2.51061C13.0508 2.76077 13.3227 3.11448 13.4725 3.524L15.0223 7.79171H1.97696L3.52892 3.524ZM4.25 14.875C4.25 15.0629 4.17538 15.2431 4.04254 15.3759C3.9097 15.5087 3.72953 15.5834 3.54167 15.5834C3.35381 15.5834 3.17364 15.5087 3.0408 15.3759C2.90796 15.2431 2.83334 15.0629 2.83334 14.875V14.0959C3.06647 14.1432 3.30378 14.1669 3.54167 14.1667H4.25V14.875ZM14.1667 14.875C14.1667 15.0629 14.092 15.2431 13.9592 15.3759C13.8264 15.5087 13.6462 15.5834 13.4583 15.5834C13.2705 15.5834 13.0903 15.5087 12.9575 15.3759C12.8246 15.2431 12.75 15.0629 12.75 14.875V14.1667H13.4583C13.6962 14.1669 13.9335 14.1432 14.1667 14.0959V14.875ZM15.5833 10.625C15.5833 11.1886 15.3595 11.7291 14.9609 12.1276C14.5624 12.5262 14.0219 12.75 13.4583 12.75H3.54167C2.97809 12.75 2.43758 12.5262 2.03907 12.1276C1.64055 11.7291 1.41667 11.1886 1.41667 10.625V9.91671C1.41956 9.67819 1.44829 9.44069 1.50238 9.20837H2.83334V9.91671C2.83334 10.1046 2.90796 10.2847 3.0408 10.4176C3.17364 10.5504 3.35381 10.625 3.54167 10.625C3.72953 10.625 3.9097 10.5504 4.04254 10.4176C4.17538 10.2847 4.25 10.1046 4.25 9.91671V9.20837H12.75V9.91671C12.75 10.1046 12.8246 10.2847 12.9575 10.4176C13.0903 10.5504 13.2705 10.625 13.4583 10.625C13.6462 10.625 13.8264 10.5504 13.9592 10.4176C14.092 10.2847 14.1667 10.1046 14.1667 9.91671V9.20837H15.4976C15.5518 9.44069 15.5805 9.67819 15.5833 9.91671V10.625Z" fill="#212121"/>
</svg>
