<svg width="12" height="13" viewBox="0 0 12 13" fill="none" xmlns="http://www.w3.org/2000/svg">
<g clip-path="url(#clip0_1_376)">
<path d="M11.2423 6.0146L5.99976 9.16798L0.757256 6.0146C0.643544 5.94621 0.507387 5.9259 0.378737 5.95814C0.250087 5.99038 0.139483 6.07252 0.0712556 6.1865C0.00302869 6.30048 -0.0172321 6.43696 0.0149304 6.56591C0.0470929 6.69486 0.129044 6.80572 0.242756 6.87411L5.74276 10.1819C5.82052 10.2287 5.90953 10.2534 6.00026 10.2534C6.09098 10.2534 6.17999 10.2287 6.25776 10.1819L11.7578 6.87411C11.8715 6.80572 11.9534 6.69486 11.9856 6.56591C12.0177 6.43696 11.9975 6.30048 11.9293 6.1865C11.861 6.07252 11.7504 5.99038 11.6218 5.95814C11.4931 5.9259 11.357 5.94621 11.2433 6.0146H11.2423Z" fill="#212121"/>
<path d="M11.2423 8.30372L5.99975 11.4566L0.757254 8.30372C0.70095 8.26986 0.638543 8.24745 0.573597 8.23776C0.50865 8.22807 0.442436 8.2313 0.378735 8.24727C0.315034 8.26323 0.255094 8.29161 0.202336 8.33079C0.149578 8.36997 0.105037 8.41919 0.0712542 8.47563C0.0374716 8.53206 0.0151098 8.59462 0.00544548 8.65972C-0.00421883 8.72481 -0.000996362 8.79118 0.0149289 8.85503C0.0470914 8.98399 0.129043 9.09485 0.242754 9.16324L5.74275 12.471C5.82052 12.5178 5.90953 12.5426 6.00025 12.5426C6.09098 12.5426 6.17999 12.5178 6.25775 12.471L11.7578 9.16324C11.8715 9.09485 11.9534 8.98399 11.9856 8.85503C12.0177 8.72608 11.9975 8.5896 11.9293 8.47563C11.861 8.36165 11.7504 8.2795 11.6218 8.24727C11.4931 8.21503 11.357 8.23534 11.2433 8.30372H11.2423Z" fill="#212121"/>
<path d="M5.99995 7.91813C5.73024 7.91798 5.46564 7.84435 5.23445 7.70513L0.242449 4.7026C0.168522 4.65804 0.107354 4.59507 0.064889 4.51981C0.0224239 4.44455 0.000106812 4.35955 0.000106812 4.27309C0.000106812 4.18663 0.0224239 4.10163 0.064889 4.02637C0.107354 3.95111 0.168522 3.88814 0.242449 3.84358L5.23445 0.841052C5.46564 0.701841 5.73025 0.628296 5.99995 0.628296C6.26965 0.628296 6.53426 0.701841 6.76545 0.841052L11.7574 3.84358C11.8314 3.88814 11.8925 3.95111 11.935 4.02637C11.9775 4.10163 11.9998 4.18663 11.9998 4.27309C11.9998 4.35955 11.9775 4.44455 11.935 4.51981C11.8925 4.59507 11.8314 4.65804 11.7574 4.7026L6.76545 7.70513C6.53426 7.84435 6.26966 7.91798 5.99995 7.91813V7.91813ZM1.47195 4.27309L5.74995 6.84561C5.82551 6.89092 5.9119 6.91484 5.99995 6.91484C6.08799 6.91484 6.17439 6.89092 6.24995 6.84561L10.5279 4.27309L6.24995 1.70057C6.17439 1.65526 6.08799 1.63134 5.99995 1.63134C5.9119 1.63134 5.82551 1.65526 5.74995 1.70057V1.70057L1.47195 4.27309Z" fill="#212121"/>
</g>
<defs>
<clipPath id="clip0_1_376">
<rect width="12" height="12.0282" fill="white" transform="translate(0 0.514099)"/>
</clipPath>
</defs>
</svg>
