<svg width="23" height="23" viewBox="0 0 23 23" fill="none" xmlns="http://www.w3.org/2000/svg">
<g clip-path="url(#clip0_11032_22846)">
<path d="M22.9559 5.41943L14.8887 13.3452C13.9891 14.2267 12.7705 14.7217 11.5 14.7217C10.2295 14.7217 9.01085 14.2267 8.11133 13.3452L0.0440833 5.41943C0.0306667 5.56819 0 5.70283 0 5.85065V17.1489C0.0015217 18.397 0.506845 19.5935 1.40513 20.476C2.30341 21.3585 3.5213 21.855 4.79167 21.8565H18.2083C19.4787 21.855 20.6966 21.3585 21.5949 20.476C22.4932 19.5935 22.9985 18.397 23 17.1489V5.85065C23 5.70283 22.9693 5.56819 22.9559 5.41943Z" fill="#212121"/>
<path d="M13.5337 12.0139L22.2871 3.41307C21.8631 2.7223 21.265 2.15053 20.5506 1.75292C19.8362 1.35531 19.0296 1.14527 18.2085 1.14307H4.7918C3.97072 1.14527 3.16407 1.35531 2.44966 1.75292C1.73525 2.15053 1.13718 2.7223 0.713135 3.41307L9.46655 12.0139C10.0066 12.5423 10.7379 12.8391 11.5001 12.8391C12.2624 12.8391 12.9936 12.5423 13.5337 12.0139V12.0139Z" fill="#212121"/>
</g>
<defs>
<clipPath id="clip0_11032_22846">
<rect width="23" height="22.5965" fill="white" transform="translate(0 0.20166)"/>
</clipPath>
</defs>
</svg>
