<svg width="17" height="17" viewBox="0 0 17 17" fill="none" xmlns="http://www.w3.org/2000/svg">
<path d="M5.78306 5.66681C5.37275 5.66039 4.97741 5.51167 4.6646 5.24606C4.01212 4.64768 3.61684 3.81979 3.56172 2.93619C3.3896 1.17031 4.35293 0.128353 5.39347 0.012186C5.64419 -0.0156114 5.89793 0.00731361 6.13961 0.0795967C6.38128 0.15188 6.60594 0.272043 6.80022 0.432936C7.09006 0.694193 7.32537 1.01018 7.49264 1.36271C7.65991 1.71524 7.75584 2.09737 7.77489 2.4871C7.93356 4.13327 7.17422 5.66681 5.78306 5.66681ZM5.55072 1.41681C5.14201 1.46214 4.89835 2.04227 4.97201 2.79523C4.99254 3.30107 5.20119 3.78102 5.5571 4.14106C5.62453 4.20729 5.71412 4.24616 5.80856 4.25014C6.05718 4.22252 6.45739 3.5836 6.36318 2.62098C6.12093 1.29923 5.56843 1.41681 5.55072 1.42035V1.41681ZM2.24139 9.91681C1.83108 9.91039 1.43574 9.76167 1.12293 9.49606C0.470458 8.89768 0.0751739 8.06979 0.0200565 7.18619C-0.152068 5.42031 0.811265 4.37835 1.85181 4.26219C2.10251 4.23471 2.35617 4.25779 2.5978 4.33006C2.83943 4.40233 3.06411 4.52232 3.25856 4.68294C3.54839 4.94419 3.78371 5.26018 3.95098 5.61271C4.11825 5.96524 4.21417 6.34736 4.23322 6.7371C4.39189 8.38327 3.59643 9.91681 2.24139 9.91681ZM2.00906 5.66681C1.60035 5.71214 1.35668 6.29227 1.43035 7.04523C1.45087 7.55107 1.65952 8.03102 2.01543 8.39106C2.08352 8.45631 2.17273 8.495 2.26689 8.50014C2.51551 8.47252 2.91572 7.8336 2.82151 6.87098C2.63381 5.57614 2.02676 5.66681 2.00906 5.67035V5.66681ZM11.2174 5.66681C10.0076 5.67531 9.06831 4.13256 9.2291 2.48498C9.24815 2.09524 9.34407 1.71312 9.51134 1.36058C9.67861 1.00805 9.91393 0.692068 10.2038 0.430811C10.3979 0.270883 10.622 0.151447 10.863 0.0795482C11.104 0.00764978 11.357 -0.0152547 11.607 0.012186C12.6475 0.128353 13.6108 1.17031 13.4387 2.93619C13.3838 3.82004 12.9885 4.64821 12.3358 5.24677C12.0229 5.51212 11.6276 5.66059 11.2174 5.66681V5.66681ZM10.6394 2.62098C10.5452 3.58077 10.9454 4.21969 11.194 4.25014C11.2867 4.2465 11.375 4.2101 11.4433 4.14744C11.7993 3.7874 12.0079 3.30745 12.0284 2.8016C12.1772 0.945061 10.7669 1.06619 10.6394 2.62098ZM14.7591 9.91681C13.4401 9.91681 12.61 8.38256 12.7708 6.73498C12.7898 6.34524 12.8857 5.96312 13.053 5.61058C13.2203 5.25805 13.4556 4.94207 13.7454 4.68081C13.9392 4.5203 14.1633 4.40035 14.4043 4.32807C14.6454 4.2558 14.8985 4.23267 15.1486 4.26006C16.1892 4.37623 17.1525 5.41819 16.9804 7.18406C16.9254 8.06791 16.5302 8.89609 15.8775 9.49464C15.5649 9.76076 15.1695 9.90999 14.7591 9.91681V9.91681ZM14.1811 6.87098C14.0868 7.83077 14.4871 8.46969 14.7357 8.50014C14.8281 8.49527 14.916 8.45904 14.985 8.39744C15.3409 8.0374 15.5496 7.55745 15.5701 7.0516C15.6409 6.29864 15.4001 5.71852 14.9914 5.67319C14.9737 5.66681 14.2483 5.60377 14.1811 6.87098ZM11.3336 17.0001C10.7281 17.0122 10.1301 16.8642 9.60026 16.5709C9.26112 16.3922 8.88355 16.2989 8.50022 16.2989C8.11689 16.2989 7.73933 16.3922 7.40018 16.5709C5.26597 17.7673 2.77831 16.4526 2.83356 13.4585C2.83356 10.1754 6.02601 7.08348 8.50022 7.08348C10.9744 7.08348 14.1669 10.1746 14.1669 13.4585C14.1669 15.5438 13.0017 17.0001 11.3336 17.0001ZM8.50022 14.8751C9.1056 14.8632 9.70343 15.011 10.2335 15.3037C11.8181 16.1664 12.775 14.997 12.7502 13.4585C12.7502 11.0643 10.2562 8.50014 8.50022 8.50014C6.74426 8.50014 4.25022 11.0643 4.25022 13.4585C4.22756 14.9949 5.17672 16.1664 6.76693 15.3037C7.29701 15.011 7.89484 14.8632 8.50022 14.8751Z" fill="#212121"/>
</svg>
