<svg width="21" height="13" viewBox="0 0 21 13" fill="none" xmlns="http://www.w3.org/2000/svg">
<path d="M16.7309 12.0947L20.16 8.66562C20.7168 8.08212 21.0275 7.30655 21.0275 6.5C21.0275 5.69344 20.7168 4.91787 20.16 4.33437L16.7309 0.905243C16.4848 0.659022 16.151 0.520651 15.8028 0.520569C15.4547 0.520487 15.1208 0.658701 14.8746 0.904806C14.6284 1.15091 14.49 1.48474 14.4899 1.83287C14.4898 2.181 14.628 2.5149 14.8741 2.76112L17.3066 5.19449L1.33789 5.21462C0.989794 5.21462 0.655955 5.3529 0.409813 5.59904C0.163671 5.84518 0.0253906 6.17902 0.0253906 6.52712C0.0253906 6.87522 0.163671 7.20906 0.409813 7.4552C0.655955 7.70134 0.989794 7.83962 1.33789 7.83962L17.29 7.8195L14.8741 10.2389C14.6351 10.4864 14.5028 10.818 14.5058 11.1621C14.5087 11.5062 14.6468 11.8354 14.8901 12.0788C15.1335 12.3221 15.4627 12.4601 15.8068 12.4631C16.1509 12.4661 16.4825 12.3338 16.73 12.0947H16.7309Z" fill="#212121"/>
</svg>
