<svg width="6" height="9" viewBox="0 0 6 9" fill="none" xmlns="http://www.w3.org/2000/svg">
<path d="M4.53124 3.15938L2.04716 0.675299C1.89474 0.522949 1.68804 0.437388 1.47253 0.437439C1.25703 0.43749 1.05037 0.523148 0.898016 0.67557C0.745666 0.827992 0.660105 1.03469 0.660156 1.2502C0.660207 1.46571 0.745866 1.67237 0.898288 1.82472L3.38237 4.30826C3.40759 4.33342 3.4276 4.3633 3.44125 4.39621C3.45491 4.42911 3.46193 4.46438 3.46193 4.50001C3.46193 4.53563 3.45491 4.57091 3.44125 4.60381C3.4276 4.63671 3.40759 4.6666 3.38237 4.69176L0.898288 7.1753C0.745866 7.32765 0.660207 7.53431 0.660156 7.74982C0.660105 7.96532 0.745666 8.17202 0.898016 8.32445C1.05037 8.47687 1.25703 8.56253 1.47253 8.56258C1.68804 8.56263 1.89474 8.47707 2.04716 8.32472L4.53124 5.84063C4.88616 5.48474 5.08546 5.00263 5.08546 4.50001C5.08546 3.99739 4.88616 3.51528 4.53124 3.15938Z" fill="#212121"/>
</svg>
