<svg width="22" height="22" viewBox="0 0 22 22" fill="none" xmlns="http://www.w3.org/2000/svg">
<path d="M6.41683 12.8332C6.41683 12.3269 6.82724 11.9165 7.3335 11.9165C7.83976 11.9165 8.25016 12.3269 8.25016 12.8332C8.25016 13.3394 7.83976 13.7498 7.3335 13.7498C6.82724 13.7498 6.41683 13.3394 6.41683 12.8332Z" fill="#212121"/>
<path d="M7.3335 15.5832C6.82724 15.5832 6.41683 15.9936 6.41683 16.4998C6.41683 17.0061 6.82724 17.4165 7.3335 17.4165C7.83976 17.4165 8.25016 17.0061 8.25016 16.4998C8.25016 15.9936 7.83976 15.5832 7.3335 15.5832Z" fill="#212121"/>
<path d="M10.0835 12.8332C10.0835 12.3269 10.4939 11.9165 11.0002 11.9165C11.5064 11.9165 11.9168 12.3269 11.9168 12.8332C11.9168 13.3394 11.5064 13.7498 11.0002 13.7498C10.4939 13.7498 10.0835 13.3394 10.0835 12.8332Z" fill="#212121"/>
<path d="M11.0002 15.5832C10.4939 15.5832 10.0835 15.9936 10.0835 16.4998C10.0835 17.0061 10.4939 17.4165 11.0002 17.4165C11.5064 17.4165 11.9168 17.0061 11.9168 16.4998C11.9168 15.9936 11.5064 15.5832 11.0002 15.5832Z" fill="#212121"/>
<path d="M13.7502 12.8332C13.7502 12.3269 14.1606 11.9165 14.6668 11.9165C15.1731 11.9165 15.5835 12.3269 15.5835 12.8332C15.5835 13.3394 15.1731 13.7498 14.6668 13.7498C14.1606 13.7498 13.7502 13.3394 13.7502 12.8332Z" fill="#212121"/>
<path d="M14.6668 15.5832C14.1606 15.5832 13.7502 15.9936 13.7502 16.4998C13.7502 17.0061 14.1606 17.4165 14.6668 17.4165C15.1731 17.4165 15.5835 17.0061 15.5835 16.4998C15.5835 15.9936 15.1731 15.5832 14.6668 15.5832Z" fill="#212121"/>
<path fill-rule="evenodd" clip-rule="evenodd" d="M5.50016 1.83317C5.50016 1.32691 5.91057 0.916504 6.41683 0.916504C6.92309 0.916504 7.3335 1.32691 7.3335 1.83317V2.74984H14.6668V1.83317C14.6668 1.32691 15.0772 0.916504 15.5835 0.916504C16.0898 0.916504 16.5002 1.32691 16.5002 1.83317V2.74984H17.4168C18.9356 2.74984 20.1668 3.98106 20.1668 5.49984V18.3332C20.1668 19.852 18.9356 21.0832 17.4168 21.0832H4.5835C3.06471 21.0832 1.8335 19.852 1.8335 18.3332V5.49984C1.8335 3.98105 3.06471 2.74984 4.5835 2.74984H5.50016V1.83317ZM14.6668 4.58317V5.49984C14.6668 6.0061 15.0772 6.4165 15.5835 6.4165C16.0898 6.4165 16.5002 6.0061 16.5002 5.49984V4.58317H17.4168C17.9231 4.58317 18.3335 4.99358 18.3335 5.49984V8.24984H3.66683V5.49984C3.66683 4.99358 4.07724 4.58317 4.5835 4.58317H5.50016V5.49984C5.50016 6.0061 5.91057 6.4165 6.41683 6.4165C6.92309 6.4165 7.3335 6.0061 7.3335 5.49984V4.58317H14.6668ZM3.66683 10.0832V18.3332C3.66683 18.8394 4.07724 19.2498 4.5835 19.2498H17.4168C17.9231 19.2498 18.3335 18.8394 18.3335 18.3332V10.0832H3.66683Z" fill="#212121"/>
<rect x="3.6665" y="10.0835" width="14.6667" height="9.16667" fill="#212121"/>
<circle cx="14.6667" cy="12.8332" r="0.916667" fill="#79FFAF"/>
<ellipse cx="11.0002" cy="12.8332" rx="0.916667" ry="0.916667" fill="#79FFAF"/>
<ellipse cx="7.33317" cy="12.8332" rx="0.916667" ry="0.916667" fill="#79FFAF"/>
<circle cx="14.6667" cy="16.5002" r="0.916667" fill="#79FFAF"/>
<ellipse cx="11.0002" cy="16.5002" rx="0.916667" ry="0.916667" fill="#79FFAF"/>
<ellipse cx="7.33317" cy="16.5002" rx="0.916667" ry="0.916667" fill="#79FFAF"/>
</svg>
