<svg width="17" height="17" viewBox="0 0 17 17" fill="none" xmlns="http://www.w3.org/2000/svg">
<g clip-path="url(#clip0_5135_4981)">
<path d="M14.4481 3.21427H12.3999C12.2465 2.46859 11.8408 1.79859 11.2511 1.31717C10.6613 0.835756 9.92367 0.572372 9.16239 0.571411L7.84096 0.571411C7.07968 0.572372 6.34201 0.835756 5.75228 1.31717C5.16254 1.79859 4.75681 2.46859 4.60346 3.21427H2.55525C2.38001 3.21427 2.21196 3.28388 2.08805 3.40779C1.96414 3.5317 1.89453 3.69975 1.89453 3.87498C1.89453 4.05022 1.96414 4.21827 2.08805 4.34218C2.21196 4.46609 2.38001 4.5357 2.55525 4.5357H3.21596V13.125C3.21701 14.0008 3.5654 14.8405 4.18471 15.4598C4.80403 16.0791 5.64369 16.4275 6.51953 16.4286H10.4838C11.3597 16.4275 12.1993 16.0791 12.8186 15.4598C13.4379 14.8405 13.7863 14.0008 13.7874 13.125V4.5357H14.4481C14.6233 4.5357 14.7914 4.46609 14.9153 4.34218C15.0392 4.21827 15.1088 4.05022 15.1088 3.87498C15.1088 3.69975 15.0392 3.5317 14.9153 3.40779C14.7914 3.28388 14.6233 3.21427 14.4481 3.21427V3.21427ZM7.84096 1.89284H9.16239C9.57221 1.89334 9.97185 2.02061 10.3065 2.25719C10.6411 2.49377 10.8944 2.82808 11.0316 3.21427H5.9718C6.10895 2.82808 6.36222 2.49377 6.69686 2.25719C7.0315 2.02061 7.43114 1.89334 7.84096 1.89284V1.89284ZM12.466 13.125C12.466 13.6507 12.2571 14.1548 11.8854 14.5266C11.5137 14.8983 11.0095 15.1071 10.4838 15.1071H6.51953C5.99383 15.1071 5.48967 14.8983 5.11794 14.5266C4.74622 14.1548 4.53739 13.6507 4.53739 13.125V4.5357H12.466V13.125Z" fill="#212121"/>
<path d="M7.18024 12.4639C7.35548 12.4639 7.52353 12.3943 7.64744 12.2703C7.77135 12.1464 7.84096 11.9784 7.84096 11.8032V7.83887C7.84096 7.66364 7.77135 7.49559 7.64744 7.37168C7.52353 7.24777 7.35548 7.17816 7.18024 7.17816C7.00501 7.17816 6.83696 7.24777 6.71305 7.37168C6.58914 7.49559 6.51953 7.66364 6.51953 7.83887V11.8032C6.51953 11.9784 6.58914 12.1464 6.71305 12.2703C6.83696 12.3943 7.00501 12.4639 7.18024 12.4639Z" fill="#212121"/>
<path d="M9.82283 12.4639C9.99806 12.4639 10.1661 12.3943 10.29 12.2703C10.4139 12.1464 10.4835 11.9784 10.4835 11.8032V7.83887C10.4835 7.66364 10.4139 7.49559 10.29 7.37168C10.1661 7.24777 9.99806 7.17816 9.82283 7.17816C9.64759 7.17816 9.47954 7.24777 9.35563 7.37168C9.23172 7.49559 9.16211 7.66364 9.16211 7.83887V11.8032C9.16211 11.9784 9.23172 12.1464 9.35563 12.2703C9.47954 12.3943 9.64759 12.4639 9.82283 12.4639Z" fill="#212121"/>
</g>
<defs>
<clipPath id="clip0_5135_4981">
<rect width="15.8571" height="15.8571" fill="white" transform="translate(0.572266 0.571411)"/>
</clipPath>
</defs>
</svg>
