<svg width="19" height="19" viewBox="0 0 19 19" fill="none" xmlns="http://www.w3.org/2000/svg">
<g clip-path="url(#clip0_8941_10126)">
<path d="M9.32288 9.44908C10.2439 9.44908 11.1443 9.18575 11.9101 8.69241C12.6759 8.19906 13.2728 7.49785 13.6253 6.67745C13.9777 5.85705 14.07 4.9543 13.8903 4.08336C13.7106 3.21243 13.2671 2.41242 12.6158 1.78452C11.9645 1.15661 11.1347 0.728994 10.2314 0.555755C9.32805 0.382515 8.39171 0.471428 7.54078 0.81125C6.68984 1.15107 5.96254 1.72654 5.45084 2.46488C4.93914 3.20323 4.66602 4.07128 4.66602 4.95928C4.66725 6.14968 5.15828 7.29099 6.03134 8.13273C6.90441 8.97447 8.08818 9.44789 9.32288 9.44908ZM9.32288 1.96608C9.93691 1.96608 10.5371 2.14163 11.0477 2.47053C11.5582 2.79942 11.9562 3.2669 12.1911 3.81383C12.4261 4.36077 12.4876 4.9626 12.3678 5.54322C12.248 6.12385 11.9523 6.65718 11.5181 7.07579C11.084 7.4944 10.5308 7.77947 9.92855 7.89496C9.32632 8.01046 8.7021 7.95118 8.13481 7.72463C7.56752 7.49809 7.08265 7.11444 6.74152 6.62221C6.40038 6.12998 6.2183 5.55128 6.2183 4.95928C6.2183 4.16543 6.54539 3.4041 7.12761 2.84277C7.70983 2.28144 8.4995 1.96608 9.32288 1.96608Z" fill="#49454F"/>
<path d="M9.32319 10.946C7.4712 10.948 5.69566 11.6582 4.38611 12.9208C3.07655 14.1833 2.33994 15.8952 2.33789 17.6807C2.33789 17.8792 2.41966 18.0695 2.56522 18.2099C2.71077 18.3502 2.90819 18.429 3.11403 18.429C3.31988 18.429 3.5173 18.3502 3.66285 18.2099C3.80841 18.0695 3.89018 17.8792 3.89018 17.6807C3.89018 16.2915 4.46258 14.9592 5.48147 13.9768C6.50036 12.9945 7.88226 12.4426 9.32319 12.4426C10.7641 12.4426 12.146 12.9945 13.1649 13.9768C14.1838 14.9592 14.7562 16.2915 14.7562 17.6807C14.7562 17.8792 14.838 18.0695 14.9835 18.2099C15.1291 18.3502 15.3265 18.429 15.5323 18.429C15.7382 18.429 15.9356 18.3502 16.0812 18.2099C16.2267 18.0695 16.3085 17.8792 16.3085 17.6807C16.3064 15.8952 15.5698 14.1833 14.2603 12.9208C12.9507 11.6582 11.1752 10.948 9.32319 10.946Z" fill="#49454F"/>
</g>
<defs>
<clipPath id="clip0_8941_10126">
<rect width="18.6275" height="17.9592" fill="white" transform="translate(0.00976562 0.469482)"/>
</clipPath>
</defs>
</svg>
