<svg width="20" height="20" viewBox="0 0 20 20" fill="none" xmlns="http://www.w3.org/2000/svg">
<g clip-path="url(#clip0_8934_2254)">
<path d="M9.99998 0.488281C7.89516 0.490597 5.8772 1.3277 4.38879 2.81596C2.90038 4.30422 2.06307 6.3221 2.06055 8.42692C2.06055 10.4712 3.6435 13.6706 6.76566 17.9358C7.13734 18.445 7.624 18.8592 8.18603 19.1448C8.74805 19.4304 9.36956 19.5792 9.99998 19.5792C10.6304 19.5792 11.2519 19.4304 11.8139 19.1448C12.376 18.8592 12.8626 18.445 13.2343 17.9358C16.3565 13.6706 17.9394 10.4712 17.9394 8.42692C17.9369 6.3221 17.0996 4.30422 15.6112 2.81596C14.1228 1.3277 12.1048 0.490597 9.99998 0.488281ZM9.99998 11.5912C9.37067 11.5912 8.7555 11.4046 8.23226 11.055C7.70901 10.7054 7.30119 10.2084 7.06036 9.62705C6.81954 9.04565 6.75653 8.40589 6.8793 7.78868C7.00207 7.17146 7.30511 6.60452 7.75009 6.15953C8.19508 5.71455 8.76202 5.41151 9.37924 5.28874C9.99645 5.16597 10.6362 5.22898 11.2176 5.4698C11.799 5.71063 12.2959 6.11845 12.6456 6.64169C12.9952 7.16494 13.1818 7.78011 13.1818 8.40942C13.1818 9.25329 12.8466 10.0626 12.2499 10.6593C11.6532 11.256 10.8438 11.5912 9.99998 11.5912Z" fill="#212121"/>
</g>
<defs>
<clipPath id="clip0_8934_2254">
<rect width="19.0909" height="19.0909" fill="white" transform="translate(0.45459 0.45459)"/>
</clipPath>
</defs>
</svg>
