<svg width="20" height="20" viewBox="0 0 20 20" fill="none" xmlns="http://www.w3.org/2000/svg">
<g clip-path="url(#clip0_8934_1364)">
<path d="M10.0001 12.3799C8.68219 12.3799 7.61377 13.4483 7.61377 14.7662V19.539H12.3865V14.7662C12.3865 13.4483 11.3181 12.3799 10.0001 12.3799Z" fill="#212121"/>
<path d="M13.9773 14.7663V19.539H17.1591C18.4771 19.539 19.5455 18.4706 19.5455 17.1526V9.89729C19.5457 9.48404 19.3851 9.08693 19.0976 8.79002L12.3379 1.48215C11.1452 0.191652 9.13212 0.112417 7.84162 1.30515C7.78032 1.36183 7.72125 1.42085 7.66461 1.48215L0.916761 8.78763C0.620629 9.08578 0.454478 9.489 0.45459 9.90922V17.1526C0.45459 18.4706 1.52301 19.539 2.84095 19.539H6.02276V14.7663C6.03764 12.5972 7.78889 10.8259 9.90332 10.7749C12.0885 10.7222 13.9607 12.5236 13.9773 14.7663Z" fill="#212121"/>
<path d="M10.0001 12.3799C8.68219 12.3799 7.61377 13.4483 7.61377 14.7662V19.539H12.3865V14.7662C12.3865 13.4483 11.3181 12.3799 10.0001 12.3799Z" fill="#212121"/>
</g>
<defs>
<clipPath id="clip0_8934_1364">
<rect width="19.0909" height="19.0909" fill="white" transform="translate(0.45459 0.454102)"/>
</clipPath>
</defs>
</svg>
