<svg width="15" height="15" viewBox="0 0 15 15" fill="none" xmlns="http://www.w3.org/2000/svg">
<path d="M13.7503 1.24981C13.555 1.05453 13.2901 0.944824 13.0138 0.944824C12.7376 0.944824 12.4727 1.05453 12.2774 1.24981L7.5003 6.0269L2.72322 1.24981C2.52787 1.05453 2.26297 0.944824 1.98676 0.944824C1.71054 0.944824 1.44564 1.05453 1.2503 1.24981C1.05502 1.44515 0.945312 1.71006 0.945312 1.98627C0.945312 2.26248 1.05502 2.52739 1.2503 2.72273L6.02738 7.49981L1.2503 12.2769C1.05502 12.4722 0.945313 12.7371 0.945312 13.0134C0.945313 13.2896 1.05502 13.5545 1.2503 13.7498C1.44564 13.9451 1.71054 14.0548 1.98676 14.0548C2.26297 14.0548 2.52787 13.9451 2.72322 13.7498L7.5003 8.97273L12.2774 13.7498C12.4727 13.9451 12.7376 14.0548 13.0138 14.0548C13.2901 14.0548 13.555 13.9451 13.7503 13.7498C13.9456 13.5545 14.0553 13.2896 14.0553 13.0134C14.0553 12.7371 13.9456 12.4722 13.7503 12.2769L8.97322 7.49981L13.7503 2.72273C13.9456 2.52739 14.0553 2.26248 14.0553 1.98627C14.0553 1.71006 13.9456 1.44515 13.7503 1.24981Z" fill="#212121"/>
</svg>
