<svg width="20" height="20" viewBox="0 0 20 20" fill="none" xmlns="http://www.w3.org/2000/svg">
<g clip-path="url(#clip0_8814_1232)">
<path d="M18.75 9.20459H10.7955V1.25004C10.7955 1.03908 10.7117 0.83675 10.5625 0.687573C10.4133 0.538396 10.211 0.45459 10 0.45459V0.45459C9.78908 0.45459 9.58675 0.538396 9.43757 0.687573C9.2884 0.83675 9.20459 1.03908 9.20459 1.25004V9.20459H1.25004C1.03908 9.20459 0.83675 9.2884 0.687573 9.43757C0.538396 9.58675 0.45459 9.78908 0.45459 10H0.45459C0.45459 10.211 0.538396 10.4133 0.687573 10.5625C0.83675 10.7117 1.03908 10.7955 1.25004 10.7955H9.20459V18.75C9.20459 18.961 9.2884 19.1633 9.43757 19.3125C9.58675 19.4617 9.78908 19.5455 10 19.5455C10.211 19.5455 10.4133 19.4617 10.5625 19.3125C10.7117 19.1633 10.7955 18.961 10.7955 18.75V10.7955H18.75C18.961 10.7955 19.1633 10.7117 19.3125 10.5625C19.4617 10.4133 19.5455 10.211 19.5455 10C19.5455 9.78908 19.4617 9.58675 19.3125 9.43757C19.1633 9.2884 18.961 9.20459 18.75 9.20459Z" fill="#212121"/>
</g>
<defs>
<clipPath id="clip0_8814_1232">
<rect width="19.0909" height="19.0909" fill="white" transform="translate(0.45459 0.45459)"/>
</clipPath>
</defs>
</svg>
