<svg width="20" height="20" viewBox="0 0 20 20" fill="none" xmlns="http://www.w3.org/2000/svg">
<g clip-path="url(#clip0_8814_1877)">
<path d="M15.5682 3.63641H14.6932C14.5086 2.73867 14.0201 1.93202 13.3101 1.35243C12.6001 0.772843 11.712 0.455747 10.7955 0.45459L9.20459 0.45459C8.28806 0.455747 7.39996 0.772843 6.68996 1.35243C5.97996 1.93202 5.49148 2.73867 5.30686 3.63641H4.43186C3.37741 3.63767 2.36651 4.05711 1.6209 4.80272C0.875291 5.54833 0.455853 6.55923 0.45459 7.61368L0.45459 10H19.5455V7.61368C19.5442 6.55923 19.1248 5.54833 18.3792 4.80272C17.6336 4.05711 16.6227 3.63767 15.5682 3.63641ZM6.96459 3.63641C7.12852 3.17273 7.43171 2.77103 7.83267 2.48625C8.23363 2.20147 8.71279 2.04754 9.20459 2.0455H10.7955C11.2873 2.04754 11.7665 2.20147 12.1674 2.48625C12.5684 2.77103 12.8716 3.17273 13.0355 3.63641H6.96459Z" fill="#212121"/>
<path d="M10.7955 12.3863C10.7955 12.5972 10.7117 12.7996 10.5625 12.9487C10.4133 13.0979 10.211 13.1817 10 13.1817C9.78908 13.1817 9.58675 13.0979 9.43757 12.9487C9.2884 12.7996 9.20459 12.5972 9.20459 12.3863V11.5908H0.45459V15.5681C0.455853 16.6225 0.875291 17.6334 1.6209 18.379C2.36651 19.1246 3.37741 19.5441 4.43186 19.5453H15.5682C16.6227 19.5441 17.6336 19.1246 18.3792 18.379C19.1248 17.6334 19.5442 16.6225 19.5455 15.5681V11.5908H10.7955V12.3863Z" fill="#212121"/>
</g>
<defs>
<clipPath id="clip0_8814_1877">
<rect width="19.0909" height="19.0909" fill="white" transform="translate(0.45459 0.45459)"/>
</clipPath>
</defs>
</svg>
