<svg width="30" height="30" viewBox="0 0 30 30" fill="none" xmlns="http://www.w3.org/2000/svg">
<g clip-path="url(#clip0_2753_13044)">
<path d="M23.32 1.16308L8.08002 16.4031C7.49795 16.982 7.0365 17.6707 6.72238 18.4291C6.40826 19.1876 6.24771 20.0009 6.25002 20.8218V22.5006C6.25002 22.8321 6.38172 23.15 6.61614 23.3845C6.85056 23.6189 7.1685 23.7506 7.50002 23.7506H9.17877C9.99973 23.7529 10.813 23.5923 11.5715 23.2782C12.33 22.9641 13.0186 22.5026 13.5975 21.9206L28.8375 6.68058C29.568 5.94829 29.9783 4.95617 29.9783 3.92183C29.9783 2.88749 29.568 1.89537 28.8375 1.16308C28.0946 0.452946 27.1065 0.0566406 26.0788 0.0566406C25.0511 0.0566406 24.0629 0.452946 23.32 1.16308ZM27.07 4.91308L11.83 20.1531C11.1252 20.8536 10.1725 21.248 9.17877 21.2506H8.75002V20.8218C8.75263 19.8281 9.14698 18.8754 9.84752 18.1706L25.0875 2.93058C25.3545 2.67552 25.7095 2.5332 26.0788 2.5332C26.448 2.5332 26.803 2.67552 27.07 2.93058C27.3325 3.19372 27.4798 3.55019 27.4798 3.92183C27.4798 4.29346 27.3325 4.64994 27.07 4.91308Z" fill="#212121"/>
<path d="M28.75 11.2238C28.4185 11.2238 28.1005 11.3554 27.8661 11.5899C27.6317 11.8243 27.5 12.1422 27.5 12.4738V18.75H22.5C21.5054 18.75 20.5516 19.1451 19.8484 19.8484C19.1451 20.5516 18.75 21.5054 18.75 22.5V27.5H6.25C5.25544 27.5 4.30161 27.1049 3.59835 26.4017C2.89509 25.6984 2.5 24.7446 2.5 23.75V6.25C2.5 5.25544 2.89509 4.30161 3.59835 3.59835C4.30161 2.89509 5.25544 2.5 6.25 2.5H17.5525C17.884 2.5 18.202 2.3683 18.4364 2.13388C18.6708 1.89946 18.8025 1.58152 18.8025 1.25C18.8025 0.918479 18.6708 0.600537 18.4364 0.366117C18.202 0.131696 17.884 0 17.5525 0L6.25 0C4.59301 0.00198482 3.00445 0.661103 1.83277 1.83277C0.661103 3.00445 0.00198482 4.59301 0 6.25L0 23.75C0.00198482 25.407 0.661103 26.9956 1.83277 28.1672C3.00445 29.3389 4.59301 29.998 6.25 30H20.4288C21.2499 30.0023 22.0633 29.8418 22.822 29.5277C23.5807 29.2136 24.2696 28.7521 24.8488 28.17L28.1688 24.8475C28.7509 24.2686 29.2125 23.58 29.5269 22.8215C29.8412 22.063 30.002 21.2498 30 20.4288V12.4738C30 12.1422 29.8683 11.8243 29.6339 11.5899C29.3995 11.3554 29.0815 11.2238 28.75 11.2238ZM23.0813 26.4025C22.5788 26.9038 21.9433 27.2508 21.25 27.4025V22.5C21.25 22.1685 21.3817 21.8505 21.6161 21.6161C21.8505 21.3817 22.1685 21.25 22.5 21.25H27.4063C27.2516 21.9419 26.905 22.5762 26.4063 23.08L23.0813 26.4025Z" fill="#212121"/>
</g>
<defs>
<clipPath id="clip0_2753_13044">
<rect width="30" height="30" fill="white"/>
</clipPath>
</defs>
</svg>
