<svg width="393" height="460" viewBox="0 0 393 460" fill="none" xmlns="http://www.w3.org/2000/svg">
<g clip-path="url(#clip0_9854_31685)">
<rect width="1179" height="426" fill="#EDFFF4"/>
<rect x="357.606" y="89" width="75.1275" height="241" fill="#B1B1B1" fill-opacity="0.5"/>
<rect x="371.63" y="66" width="46.0782" height="23" fill="#959A97" fill-opacity="0.7"/>
<path d="M306.26 112L323.274 118.5V330H306.26V112Z" fill="#A1AEA6" fill-opacity="0.5"/>
<path d="M251.426 330.5V112H306.239V330.5H251.426Z" fill="#E3E3E3" fill-opacity="0.5"/>
<path d="M169.022 64L117.198 74V329H169.022V64Z" fill="#D1D6D3" fill-opacity="0.5"/>
<path d="M168.82 64L215.9 82C215.9 82 216.811 329 215.9 329H168.82V64Z" fill="#8E8E8E" fill-opacity="0.67"/>
<path d="M20.0332 60L20.5532 329H88.1488V101.346L20.0332 60Z" fill="#BDBBBB" fill-opacity="0.4"/>
<path d="M0 70L20.4789 60L21.0178 330H0V70Z" fill="#BDBBBB" fill-opacity="0.8"/>
<path d="M240.817 289.273C112.51 280.714 18.5 317.783 0 326.698V425H1179V295.261C1045.55 277.297 1022.13 340.041 922.63 346.158C784.662 354.641 752.837 283.008 622.111 297.98C539.33 307.461 566.923 325.425 415.409 325.425C355.707 322.654 308.136 293.764 240.817 289.273Z" fill="#79FFAF" fill-opacity="0.95"/>
<path d="M908.813 360.5C1080.91 357.799 1150.43 305.5 1179 298V426H0V352C41.1046 335 67.171 312.5 186.475 312.5C326.33 312.5 355.404 391.822 511.802 351C668.2 310.178 745.313 363.066 908.813 360.5Z" fill="#57CC86" fill-opacity="0.5"/>
<path d="M93.2 323.78C84.4997 334.5 68.239 338.54 43.9998 334.5C31.9997 332.5 8.54921 316.449 19.8533 287.685C26.9997 269.5 54.9665 268.16 74.7188 279.025C95.8812 288.653 102.474 312.352 93.2 323.78Z" fill="#9EFBC4" fill-opacity="0.9"/>
<path d="M56.5 316.8V379.3H63L61.5 310.3C64.7 307.5 68.5 302.466 70 300.3C66.6667 303.633 59.7 310.3 58.5 310.3C57.3 310.3 56.6667 303.633 56.5 300.3V310.3L53 306.8C55.4 310.4 56.3333 314.966 56.5 316.8Z" fill="#4BB274" stroke="#4BB274" stroke-width="0.5"/>
<path d="M169.819 245.546C168.076 276.839 151.983 296.406 117.16 303.744C101.022 307.145 47.5134 315.974 53.4588 245.546C56.2859 212.057 82.3365 186.341 114.612 185.118C147.736 180.226 172.367 199.794 169.819 245.546Z" fill="#51E48D" fill-opacity="0.69"/>
<path d="M108.059 285.52V379H117.803L115.555 275.799C120.352 271.611 126.048 264.082 128.297 260.842C123.3 265.827 112.856 275.799 111.057 275.799C109.258 275.799 108.309 265.827 108.059 260.842V275.799L102.812 270.564C106.41 275.948 107.809 282.778 108.059 285.52Z" fill="#CEFFE2"/>
<path d="M1179 380H0V460H1179V380Z" fill="#BFBFBF"/>
<g clip-path="url(#clip1_9854_31685)">
<path d="M119.957 403L113 410L185.5 410L192.5 403H119.957Z" fill="white" fill-opacity="0.73"/>
<path d="M31.9565 403L25 410L97.5 410L104.5 403H31.9565Z" fill="white" fill-opacity="0.73"/>
<path d="M-56.0435 403L-63 410L9.5 410L16.5 403H-56.0435Z" fill="white" fill-opacity="0.73"/>
<path d="M207.957 403L201 410L273.5 410L280.5 403H207.957Z" fill="white" fill-opacity="0.73"/>
<path d="M295.957 403L289 410L361.5 410L368.5 403H295.957Z" fill="white" fill-opacity="0.73"/>
<path d="M383.957 403L377 410L449.5 410L456.5 403H383.957Z" fill="white" fill-opacity="0.73"/>
</g>
</g>
<defs>
<clipPath id="clip0_9854_31685">
<rect width="393" height="460" fill="white"/>
</clipPath>
<clipPath id="clip1_9854_31685">
<rect width="1161.99" height="6.91358" fill="white" transform="translate(0 402.716)"/>
</clipPath>
</defs>
</svg>
