<svg width="12" height="13" viewBox="0 0 12 13" fill="none" xmlns="http://www.w3.org/2000/svg">
<g id="fi-rr-car" clip-path="url(#clip0_16970_21682)">
<path id="Vector" d="M10.45 2.6455C10.2739 2.16361 9.9541 1.7474 9.53382 1.45312C9.11355 1.15884 8.61306 1.00067 8.1 1H3.9C3.38694 1.00067 2.88646 1.15884 2.46618 1.45312C2.04591 1.7474 1.72611 2.16361 1.55 2.6455L0.200002 6.359C0.067227 6.72474 -0.000462366 7.11091 2.37693e-06 7.5V8C0.00089454 8.3864 0.0917186 8.76728 0.265285 9.11251C0.438851 9.45773 0.690394 9.75781 1 9.989C1 9.993 1 9.996 1 10V11C1 11.3978 1.15804 11.7794 1.43934 12.0607C1.72065 12.342 2.10218 12.5 2.5 12.5C2.89783 12.5 3.27936 12.342 3.56066 12.0607C3.84197 11.7794 4 11.3978 4 11V10.5H8V11C8 11.3978 8.15804 11.7794 8.43934 12.0607C8.72065 12.342 9.10218 12.5 9.5 12.5C9.89783 12.5 10.2794 12.342 10.5607 12.0607C10.842 11.7794 11 11.3978 11 11V10C11 9.996 11 9.993 11 9.989C11.3096 9.75781 11.5612 9.45773 11.7347 9.11251C11.9083 8.76728 11.9991 8.3864 12 8V7.5C12.0005 7.11107 11.9328 6.72505 11.8 6.3595L10.45 2.6455ZM2.491 2.9875C2.59672 2.69858 2.78847 2.44902 3.04041 2.27245C3.29234 2.09588 3.59235 2.00079 3.9 2H8.1C8.40782 2.00059 8.70805 2.09558 8.96019 2.27217C9.21232 2.44875 9.40423 2.69842 9.51 2.9875L10.604 6H1.3955L2.491 2.9875ZM3 11C3 11.1326 2.94732 11.2598 2.85356 11.3536C2.75979 11.4473 2.63261 11.5 2.5 11.5C2.36739 11.5 2.24022 11.4473 2.14645 11.3536C2.05268 11.2598 2 11.1326 2 11V10.45C2.16457 10.4834 2.33208 10.5002 2.5 10.5H3V11ZM10 11C10 11.1326 9.94732 11.2598 9.85356 11.3536C9.75979 11.4473 9.63261 11.5 9.5 11.5C9.36739 11.5 9.24022 11.4473 9.14645 11.3536C9.05268 11.2598 9 11.1326 9 11V10.5H9.5C9.66793 10.5002 9.83544 10.4834 10 10.45V11ZM11 8C11 8.39782 10.842 8.77936 10.5607 9.06066C10.2794 9.34196 9.89783 9.5 9.5 9.5H2.5C2.10218 9.5 1.72065 9.34196 1.43934 9.06066C1.15804 8.77936 1 8.39782 1 8V7.5C1.00204 7.33164 1.02233 7.16399 1.0605 7H2V7.5C2 7.63261 2.05268 7.75979 2.14645 7.85355C2.24022 7.94732 2.36739 8 2.5 8C2.63261 8 2.75979 7.94732 2.85356 7.85355C2.94732 7.75979 3 7.63261 3 7.5V7H9V7.5C9 7.63261 9.05268 7.75979 9.14645 7.85355C9.24022 7.94732 9.36739 8 9.5 8C9.63261 8 9.75979 7.94732 9.85356 7.85355C9.94732 7.75979 10 7.63261 10 7.5V7H10.9395C10.9777 7.16399 10.998 7.33163 11 7.5V8Z" fill="#212121"/>
</g>
<defs>
<clipPath id="clip0_16970_21682">
<rect width="12" height="12" fill="white" transform="translate(0 0.5)"/>
</clipPath>
</defs>
</svg>
