<svg width="15" height="12" viewBox="0 0 15 12" fill="none" xmlns="http://www.w3.org/2000/svg">
<path d="M9.5289 1.17045C9.22122 1.2935 9.07156 1.64268 9.19461 1.95036C9.31767 2.25803 9.66685 2.40769 9.97452 2.28464L9.5289 1.17045ZM12.2602 2.18247L12.4965 2.73395L13.5995 2.26124L13.3632 1.70976L12.2602 2.18247ZM9.97452 2.28464C10.1224 2.22548 10.2715 2.15995 10.413 2.09732C10.5575 2.03333 10.6936 1.97259 10.8294 1.91599C11.1054 1.80103 11.3368 1.72222 11.5346 1.69254C11.7254 1.66392 11.8419 1.68747 11.9239 1.73208C12.0051 1.77628 12.1326 1.88476 12.2602 2.18247L13.3632 1.70976C13.1629 1.24249 12.8806 0.886519 12.4974 0.678005C12.1149 0.469905 11.7122 0.452479 11.3566 0.505822C11.008 0.558112 10.6657 0.684212 10.3679 0.808296C10.2169 0.871231 10.0661 0.938549 9.92716 1.00006C9.78515 1.06293 9.65421 1.12033 9.5289 1.17045L9.97452 2.28464Z" fill="#212121"/>
<path d="M7.34763 6.09885L4.06909 2.82031" stroke="#212121" stroke-width="1.2" stroke-linecap="round"/>
<circle cx="3.41318" cy="9.15878" r="2.2414" stroke="#212121" stroke-width="1.2"/>
<circle cx="11.7188" cy="9.15878" r="2.2414" stroke="#212121" stroke-width="1.2"/>
<path d="M5.38013 7.84733L10.6258 3.91309" stroke="#212121" stroke-width="1.2" stroke-linecap="round"/>
<path d="M11.7188 6.53606L9.75171 1.72754" stroke="#212121" stroke-width="1.2" stroke-linecap="square"/>
<path d="M2.97607 2.82031H6.25461" stroke="#212121" stroke-width="1.2" stroke-linecap="square"/>
</svg>
