<svg width="17" height="12" viewBox="0 0 17 12" fill="none" xmlns="http://www.w3.org/2000/svg">
<g id="fi-rr-moto">
<path id="Vector 94" d="M14.3243 2.14893C13.3457 2.14893 13.3457 2.63823 13.3457 3.12754C13.3457 4.10615 13.9981 4.3508 14.3243 4.3508C14.7157 4.3508 14.8136 4.0246 14.8136 3.8615V2.88288C14.8136 2.29572 14.4874 2.14893 14.3243 2.14893Z" fill="#95BEA5" stroke="#212121" stroke-linecap="round"/>
<path id="Vector 91" d="M5.76172 4.59521H9.67617" stroke="#212121"/>
<path id="Vector 90" d="M5.06027 6.03985C4.16321 5.87675 1.94477 5.76936 1.3576 7.53086C1.11295 8.67257 1.30867 10.956 4.04879 10.956C4.94587 10.956 6.69112 10.4178 6.49539 8.26482" stroke="#212121"/>
<path id="Vector 89" d="M2.33643 3.37209C3.55969 3.37213 5.76157 2.88273 5.76157 4.59541C5.76157 5.57402 4.6198 6.55261 4.04894 7.28655C3.72274 7.69431 3.55964 8.50981 5.27221 8.50982C5.27221 8.50982 6.37715 8.56048 6.98478 8.26515C7.77702 7.88009 8.45269 6.55259 8.45269 6.55259C8.45269 6.55259 9.18665 5.32932 10.1653 4.35071C10.9816 3.53439 11.6332 3.12743 13.1011 3.12744" stroke="#212121" stroke-linecap="round" stroke-linejoin="round"/>
<path id="Vector 92" d="M7.71826 0.680835C9.18618 0.436215 10.2268 0.591048 10.6541 1.65939C11.0814 2.72774 13.1006 8.50972 13.1006 8.50972" stroke="#212121" stroke-linecap="round"/>
<path id="Vector 93" d="M15.3028 7.28658C14.52 5.52508 13.1011 5.81869 12.3671 5.8186C10.4099 6.21009 10.1652 8.26514 10.4098 9.24375C11.1439 11.4456 13.5087 11.201 14.3242 10.7117C14.9766 10.3039 16.0857 9.04808 15.3028 7.28658Z" stroke="#212121" stroke-linecap="round"/>
</g>
</svg>
