<svg width="16" height="13" viewBox="0 0 16 13" fill="none" xmlns="http://www.w3.org/2000/svg">
<g id="fi-rr-van">
<path id="Vector 95" d="M13.376 5.76074H2.904C1.714 5.99874 1 6.80794 1 8.14074C1 9.47354 1.63467 9.80674 1.952 9.80674H13.376C14.8992 9.80674 15.28 8.69607 15.28 8.14074C15.28 6.42714 14.0107 5.84008 13.376 5.76074Z" stroke="#212121" stroke-width="1.2" stroke-linecap="round"/>
<path id="Vector 96" d="M6.95068 5.52276V2.19077C6.95068 1.63543 7.28388 0.572367 8.61668 0.762766C9.09268 0.842104 9.80668 1.00078 10.9967 2.66678L13.1387 5.76077" stroke="#212121" stroke-width="1.2" stroke-linecap="round"/>
<path id="Vector 97" d="M10.7582 10.0444C10.5996 10.7584 10.7106 12.1864 12.4242 12.1864C12.9795 12.1864 14.0425 11.758 13.8521 10.0444" stroke="#212121" stroke-width="1.2" stroke-linecap="round"/>
<path id="Vector 98" d="M2.47991 10.0444C2.32125 10.7584 2.43231 12.1864 4.14591 12.1864C4.70121 12.1864 5.76419 11.758 5.57379 10.0444" stroke="#212121" stroke-width="1.2" stroke-linecap="round"/>
</g>
</svg>
