<svg width="12" height="12" viewBox="0 0 12 12" fill="none" xmlns="http://www.w3.org/2000/svg">
<g clip-path="url(#clip0_9172_864)">
<path d="M10.2155 2.09734C10.0433 1.62626 9.73069 1.21939 9.31985 0.931717C8.90901 0.644041 8.41975 0.489426 7.91821 0.48877H3.81247C3.31093 0.489426 2.82167 0.644041 2.41083 0.931717C1.99999 1.21939 1.68737 1.62626 1.51521 2.09734L0.195514 5.72749C0.0657182 6.08502 -0.000451989 6.46252 2.32358e-06 6.84288V7.33166C0.000874463 7.70939 0.0896601 8.08173 0.259331 8.4192C0.429002 8.75668 0.674899 9.05002 0.977558 9.27602C0.977558 9.27993 0.977558 9.28286 0.977558 9.28677V10.2643C0.977558 10.6532 1.13205 11.0262 1.40704 11.3012C1.68203 11.5762 2.055 11.7307 2.44389 11.7307C2.83279 11.7307 3.20576 11.5762 3.48075 11.3012C3.75574 11.0262 3.91023 10.6532 3.91023 10.2643V9.77555H7.82045V10.2643C7.82045 10.6532 7.97494 11.0262 8.24993 11.3012C8.52492 11.5762 8.89789 11.7307 9.28679 11.7307C9.67568 11.7307 10.0486 11.5762 10.3236 11.3012C10.5986 11.0262 10.7531 10.6532 10.7531 10.2643V9.28677C10.7531 9.28286 10.7531 9.27993 10.7531 9.27602C11.0558 9.05002 11.3017 8.75668 11.4713 8.4192C11.641 8.08173 11.7298 7.70939 11.7307 7.33166V6.84288C11.7312 6.46268 11.665 6.08533 11.5352 5.72798L10.2155 2.09734ZM2.43509 2.43166C2.53844 2.14923 2.72589 1.90527 2.97217 1.73266C3.21845 1.56006 3.51173 1.4671 3.81247 1.46633H7.91821C8.21912 1.4669 8.51261 1.55976 8.75909 1.73239C9.00556 1.90501 9.19316 2.14907 9.29656 2.43166L10.366 5.37655H1.36418L2.43509 2.43166ZM2.93267 10.2643C2.93267 10.394 2.88117 10.5183 2.78951 10.6099C2.69785 10.7016 2.57352 10.7531 2.44389 10.7531C2.31426 10.7531 2.18994 10.7016 2.09827 10.6099C2.00661 10.5183 1.95511 10.394 1.95511 10.2643V9.72667C2.11599 9.75934 2.27974 9.77572 2.44389 9.77555H2.93267V10.2643ZM9.77556 10.2643C9.77556 10.394 9.72407 10.5183 9.6324 10.6099C9.54074 10.7016 9.41642 10.7531 9.28679 10.7531C9.15715 10.7531 9.03283 10.7016 8.94117 10.6099C8.8495 10.5183 8.79801 10.394 8.79801 10.2643V9.77555H9.28679C9.45094 9.77572 9.61469 9.75934 9.77556 9.72667V10.2643ZM10.7531 7.33166C10.7531 7.72056 10.5986 8.09353 10.3236 8.36852C10.0486 8.64351 9.67568 8.798 9.28679 8.798H2.44389C2.055 8.798 1.68203 8.64351 1.40704 8.36852C1.13205 8.09353 0.977558 7.72056 0.977558 7.33166V6.84288C0.97955 6.6783 0.99938 6.51442 1.0367 6.35411H1.95511V6.84288C1.95511 6.97252 2.00661 7.09684 2.09827 7.1885C2.18994 7.28017 2.31426 7.33166 2.44389 7.33166C2.57352 7.33166 2.69785 7.28017 2.78951 7.1885C2.88117 7.09684 2.93267 6.97252 2.93267 6.84288V6.35411H8.79801V6.84288C8.79801 6.97252 8.8495 7.09684 8.94117 7.1885C9.03283 7.28017 9.15715 7.33166 9.28679 7.33166C9.41642 7.33166 9.54074 7.28017 9.6324 7.1885C9.72407 7.09684 9.77556 6.97252 9.77556 6.84288V6.35411H10.694C10.7313 6.51441 10.7512 6.6783 10.7531 6.84288V7.33166Z" fill="#585454"/>
</g>
<defs>
<clipPath id="clip0_9172_864">
<rect width="11.7307" height="11.7307" fill="white"/>
</clipPath>
</defs>
</svg>
