<svg width="24" height="25" viewBox="0 0 24 25" fill="none" xmlns="http://www.w3.org/2000/svg">
<g clip-path="url(#clip0_9172_296)">
<path d="M20.9 4.791C20.5478 3.82722 19.9082 2.9948 19.0676 2.40623C18.2271 1.81767 17.2261 1.50134 16.2 1.5H7.80001C6.77388 1.50134 5.77291 1.81767 4.93236 2.40623C4.09181 2.9948 3.45222 3.82722 3.10001 4.791L0.400005 12.218C0.134454 12.9495 -0.000924732 13.7218 4.75387e-06 14.5V15.5C0.00178908 16.2728 0.183437 17.0346 0.53057 17.725C0.877702 18.4155 1.38079 19.0156 2.00001 19.478C2.00001 19.486 2.00001 19.492 2.00001 19.5V21.5C2.00001 22.2956 2.31608 23.0587 2.87868 23.6213C3.44129 24.1839 4.20436 24.5 5.00001 24.5C5.79565 24.5 6.55872 24.1839 7.12133 23.6213C7.68394 23.0587 8.00001 22.2956 8.00001 21.5V20.5H16V21.5C16 22.2956 16.3161 23.0587 16.8787 23.6213C17.4413 24.1839 18.2044 24.5 19 24.5C19.7957 24.5 20.5587 24.1839 21.1213 23.6213C21.6839 23.0587 22 22.2956 22 21.5V19.5C22 19.492 22 19.486 22 19.478C22.6192 19.0156 23.1223 18.4155 23.4694 17.725C23.8166 17.0346 23.9982 16.2728 24 15.5V14.5C24.001 13.7221 23.8656 12.9501 23.6 12.219L20.9 4.791ZM4.98201 5.475C5.19344 4.89717 5.57694 4.39805 6.08081 4.04491C6.58469 3.69177 7.18471 3.50159 7.80001 3.5H16.2C16.8156 3.50118 17.4161 3.69117 17.9204 4.04434C18.4246 4.3975 18.8085 4.89685 19.02 5.475L21.208 11.5H2.791L4.98201 5.475ZM6.00001 21.5C6.00001 21.7652 5.89465 22.0196 5.70711 22.2071C5.51958 22.3946 5.26522 22.5 5.00001 22.5C4.73479 22.5 4.48043 22.3946 4.2929 22.2071C4.10536 22.0196 4.00001 21.7652 4.00001 21.5V20.4C4.32913 20.4668 4.66416 20.5003 5.00001 20.5H6.00001V21.5ZM20 21.5C20 21.7652 19.8946 22.0196 19.7071 22.2071C19.5196 22.3946 19.2652 22.5 19 22.5C18.7348 22.5 18.4804 22.3946 18.2929 22.2071C18.1054 22.0196 18 21.7652 18 21.5V20.5H19C19.3359 20.5003 19.6709 20.4668 20 20.4V21.5ZM22 15.5C22 16.2956 21.6839 17.0587 21.1213 17.6213C20.5587 18.1839 19.7957 18.5 19 18.5H5.00001C4.20436 18.5 3.44129 18.1839 2.87868 17.6213C2.31608 17.0587 2.00001 16.2956 2.00001 15.5V14.5C2.00408 14.1633 2.04465 13.828 2.12101 13.5H4.00001V14.5C4.00001 14.7652 4.10536 15.0196 4.2929 15.2071C4.48043 15.3946 4.73479 15.5 5.00001 15.5C5.26522 15.5 5.51958 15.3946 5.70711 15.2071C5.89465 15.0196 6.00001 14.7652 6.00001 14.5V13.5H18V14.5C18 14.7652 18.1054 15.0196 18.2929 15.2071C18.4804 15.3946 18.7348 15.5 19 15.5C19.2652 15.5 19.5196 15.3946 19.7071 15.2071C19.8946 15.0196 20 14.7652 20 14.5V13.5H21.879C21.9554 13.828 21.996 14.1633 22 14.5V15.5Z" fill="#212121"/>
</g>
<defs>
<clipPath id="clip0_9172_296">
<rect width="24" height="24" fill="white" transform="translate(0 0.5)"/>
</clipPath>
</defs>
</svg>
