<svg width="24" height="25" viewBox="0 0 24 25" fill="none" xmlns="http://www.w3.org/2000/svg">
<path fill-rule="evenodd" clip-rule="evenodd" d="M13.9999 3.5C13.4476 3.5 12.9999 3.94771 12.9999 4.49999C12.9999 5.05227 13.4476 5.49998 13.9999 5.49998H15.4088C15.8745 5.49998 16.2785 5.82139 16.3832 6.27511L16.6978 7.63841L9.60395 8.42662C9.24956 8.46599 8.89098 8.44187 8.54506 8.35539L3.32411 7.05016C1.63563 6.62804 0 7.90509 0 9.64554C0 10.907 0.881233 11.9971 2.11472 12.2614L6.8505 13.2762C7.06286 13.3217 7.25221 13.4345 7.39254 13.5944L6.44333 14.3327C5.76753 13.8105 4.92002 13.4999 3.99996 13.4999C1.79084 13.4999 0 15.2908 0 17.4999C0 19.709 1.79084 21.4998 3.99996 21.4998C6.20908 21.4998 7.99993 19.709 7.99993 17.4999C7.99993 16.9352 7.88293 16.3979 7.67186 15.9108L8.33105 15.3981L9.0527 16.8414C9.56088 17.8578 10.5997 18.4998 11.736 18.4998H12.2638C13.4001 18.4998 14.4389 17.8578 14.9471 16.8415L17.5981 11.5395L18.1544 13.9501C16.8741 14.6171 15.9999 15.9564 15.9999 17.4999C15.9999 19.709 17.7907 21.4998 19.9998 21.4998C22.2089 21.4998 23.9998 19.709 23.9998 17.4999C23.9998 15.3254 22.2646 13.5561 20.1033 13.5012L19.8723 12.4999H20.5277C20.6829 12.4999 20.836 12.5361 20.9749 12.6055L22.5526 13.3943C23.0466 13.6413 23.6472 13.4411 23.8942 12.9471C24.1412 12.4532 23.941 11.8525 23.447 11.6055L21.8693 10.8167C21.4527 10.6084 20.9934 10.4999 20.5277 10.4999H19.4107L19.18 9.49995H19.9998C20.5521 9.49995 20.9998 9.05223 20.9998 8.49995C20.9998 7.94767 20.5521 7.49996 19.9998 7.49996H18.7184L18.332 5.8254C18.0179 4.46422 16.8058 3.5 15.4088 3.5H13.9999ZM18.6355 16.035L19.0254 17.7247C19.1496 18.2629 19.6865 18.5984 20.2247 18.4743C20.7628 18.3501 21.0984 17.8132 20.9742 17.275L20.5841 15.5847C21.4046 15.8348 22.0016 16.5976 22.0016 17.4999C22.0016 18.6054 21.1054 19.5016 19.9998 19.5016C18.8943 19.5016 17.9981 18.6054 17.9981 17.4999C17.9981 16.9215 18.2433 16.4005 18.6355 16.035ZM3.99996 15.4981C4.26723 15.4981 4.52226 15.5505 4.75535 15.6455L3.38601 16.7106C2.95007 17.0496 2.87154 17.6779 3.2106 18.1139C3.54967 18.5498 4.17794 18.6283 4.61388 18.2893L5.98293 17.2244C5.99532 17.3145 6.00173 17.4064 6.00173 17.4999C6.00173 18.6054 5.10551 19.5016 3.99996 19.5016C2.89442 19.5016 1.9982 18.6054 1.9982 17.4999C1.9982 16.3943 2.89442 15.4981 3.99996 15.4981ZM1.99998 9.64554C1.99998 9.20623 2.41284 8.88387 2.83904 8.99042L8.05999 10.2957C8.63653 10.4398 9.23416 10.48 9.82481 10.4144L16.2834 9.69675L13.1582 15.947C12.9888 16.2858 12.6426 16.4998 12.2638 16.4998H11.736C11.3572 16.4998 11.0109 16.2858 10.8415 15.947L9.32423 12.9124C8.91666 12.0973 8.16066 11.5116 7.26955 11.3206L2.53377 10.3058C2.22242 10.2391 1.99998 9.96396 1.99998 9.64554Z" fill="#212121"/>
</svg>
