<svg width="23" height="18" viewBox="0 0 23 18" fill="none" xmlns="http://www.w3.org/2000/svg">
<path d="M20.1665 3.74854C18.7285 3.74854 18.7285 4.45005 18.7285 5.15156C18.7285 6.55458 19.6871 6.90533 20.1664 6.90533C20.7416 6.90533 20.8854 6.43766 20.8854 6.20382V4.8008C20.8854 3.95899 20.4061 3.74854 20.1665 3.74854Z" fill="#212121" stroke="#212121" stroke-width="2" stroke-linecap="round"/>
<path d="M7.58472 7.25635H13.3365" stroke="#212121" stroke-width="2"/>
<path d="M6.14645 9.01049C4.82833 8.77666 1.9764 8.94034 1.11363 11.4658C0.754139 13.1026 1.04173 16.3764 5.06799 16.3764C6.38614 16.3764 8.95057 15.6047 8.66298 12.518" stroke="#212121" stroke-width="2"/>
<path d="M2.55225 5.50261C4.34968 5.50266 7.58507 4.80102 7.58507 7.25646C7.58507 8.65948 5.90738 10.0625 5.06858 11.1147C4.58926 11.6993 4.3496 12.8685 6.86601 12.8685C6.86601 12.8685 8.48959 12.9411 9.38242 12.5177C10.5465 11.9657 11.5393 10.0624 11.5393 10.0624C11.5393 10.0624 12.6178 8.30865 14.0558 6.90563C15.2552 5.73529 16.2127 5.15185 18.3696 5.15186" stroke="#212121" stroke-width="2" stroke-linecap="round" stroke-linejoin="round"/>
<path d="M10.4597 1.64445C12.6166 1.29374 14.1457 1.51573 14.7736 3.0474C15.4014 4.57907 18.3684 12.8686 18.3684 12.8686" stroke="#212121" stroke-width="2" stroke-linecap="round"/>
<path d="M21.6043 11.1148C20.4539 8.58932 18.3691 9.01026 17.2906 9.01014C14.4147 9.5714 14.0552 12.5177 14.4145 13.9207C15.4932 17.0775 18.968 16.7268 20.1663 16.0253C21.125 15.4407 22.7546 13.6402 21.6043 11.1148Z" stroke="#212121" stroke-width="2" stroke-linecap="round"/>
</svg>
