<svg width="28" height="24" viewBox="0 0 28 24" fill="none" xmlns="http://www.w3.org/2000/svg">
<path d="M23.3333 10.7632H4.66664C2.54543 11.1891 1.27271 12.6373 1.27271 15.0224C1.27271 17.4076 2.40402 18.0039 2.96967 18.0039H23.3333C26.0485 18.0039 26.7272 16.0163 26.7272 15.0224C26.7272 11.9558 24.4646 10.9052 23.3333 10.7632Z" stroke="#212121" stroke-width="1.8" stroke-linecap="round"/>
<path d="M11.8804 10.3367V4.37371C11.8804 3.37988 12.4743 1.47741 14.8501 1.81816C15.6986 1.96014 16.9713 2.2441 19.0925 5.22559L22.9107 10.7626" stroke="#212121" stroke-width="1.8" stroke-linecap="round"/>
<path d="M18.6667 18.4292C18.3839 19.707 18.5819 22.2625 21.6364 22.2625C22.6263 22.2625 24.5211 21.4959 24.1817 18.4292" stroke="#212121" stroke-width="1.8" stroke-linecap="round"/>
<path d="M3.91015 18.4292C3.62732 19.707 3.8253 22.2625 6.87985 22.2625C7.86968 22.2625 9.76449 21.4959 9.42509 18.4292" stroke="#212121" stroke-width="1.8" stroke-linecap="round"/>
</svg>
