<svg width="20" height="20" viewBox="0 0 20 20" fill="none" xmlns="http://www.w3.org/2000/svg">
<g clip-path="url(#clip0_9172_2626)">
<path d="M19.9996 11.6717C19.9986 11.3222 19.9238 10.9768 19.7802 10.6582C19.6366 10.3395 19.4274 10.0548 19.1663 9.8225V8.33333C19.1638 6.12394 18.2851 4.00573 16.7228 2.44346C15.1605 0.881179 13.0423 0.00242633 10.8329 0L9.16625 0C6.95686 0.00242633 4.83865 0.881179 3.27637 2.44346C1.7141 4.00573 0.835343 6.12394 0.832917 8.33333V9.86417C0.573971 10.1085 0.367672 10.4032 0.226671 10.7301C0.08567 11.0571 0.0129395 11.4094 0.0129395 11.7654C0.0129395 12.1215 0.08567 12.4738 0.226671 12.8007C0.367672 13.1276 0.573971 13.4223 0.832917 13.6667V14.1667C0.834681 15.7132 1.44983 17.1959 2.54341 18.2895C3.63699 19.3831 5.1197 19.9982 6.66625 20H13.3329C14.8795 19.9982 16.3622 19.3831 17.4558 18.2895C18.5493 17.1959 19.1645 15.7132 19.1663 14.1667V13.5217C19.4275 13.2893 19.6368 13.0044 19.7804 12.6856C19.924 12.3668 19.9987 12.0213 19.9996 11.6717ZM2.34292 12.6317C2.13513 12.5686 1.95647 12.4339 1.83875 12.2514C1.72103 12.069 1.67191 11.8507 1.70012 11.6354C1.72833 11.4201 1.83205 11.2218 1.9928 11.0758C2.15356 10.9299 2.36091 10.8457 2.57792 10.8383H17.4996C17.7206 10.8383 17.9326 10.9261 18.0888 11.0824C18.2451 11.2387 18.3329 11.4507 18.3329 11.6717C18.3329 11.8927 18.2451 12.1046 18.0888 12.2609C17.9326 12.4172 17.7206 12.505 17.4996 12.505H14.1662C12.5362 12.505 10.8504 13.1617 8.86292 14.5725C8.46276 14.8504 7.9872 14.9994 7.5 14.9994C7.0128 14.9994 6.53724 14.8504 6.13708 14.5725C5.94708 14.4375 5.76458 14.2967 5.58125 14.1558C4.67347 13.343 3.54786 12.8132 2.34292 12.6317ZM2.49958 8.33333C2.50157 6.56583 3.20458 4.87129 4.4544 3.62148C5.70421 2.37167 7.39875 1.66865 9.16625 1.66667H10.8329C12.6004 1.66865 14.295 2.37167 15.5448 3.62148C16.7946 4.87129 17.4976 6.56583 17.4996 8.33333V9.17167L2.49958 9.18V8.33333ZM13.3329 18.3333H6.66625C5.5989 18.3305 4.57344 17.9177 3.80184 17.1802C3.03024 16.4427 2.57149 15.437 2.52042 14.3708C3.2768 14.5804 3.97594 14.9584 4.56542 15.4767C4.76458 15.6308 4.96458 15.7842 5.17292 15.9317C5.85597 16.4063 6.66783 16.6606 7.49958 16.6606C8.33134 16.6606 9.1432 16.4063 9.82625 15.9317C11.0592 14.9155 12.5738 14.3012 14.1662 14.1717H17.4996C17.4983 15.2759 17.0587 16.3344 16.2774 17.1147C15.4962 17.895 14.4371 18.3333 13.3329 18.3333ZM7.49958 4.16667C7.49958 3.94565 7.58738 3.73369 7.74366 3.57741C7.89994 3.42113 8.1119 3.33333 8.33292 3.33333C8.55393 3.33333 8.76589 3.42113 8.92217 3.57741C9.07845 3.73369 9.16625 3.94565 9.16625 4.16667C9.16625 4.38768 9.07845 4.59964 8.92217 4.75592C8.76589 4.9122 8.55393 5 8.33292 5C8.1119 5 7.89994 4.9122 7.74366 4.75592C7.58738 4.59964 7.49958 4.38768 7.49958 4.16667ZM4.99958 6.66667C4.99958 6.44565 5.08738 6.23369 5.24366 6.07741C5.39994 5.92113 5.6119 5.83333 5.83292 5.83333C6.05393 5.83333 6.26589 5.92113 6.42217 6.07741C6.57845 6.23369 6.66625 6.44565 6.66625 6.66667C6.66625 6.88768 6.57845 7.09964 6.42217 7.25592C6.26589 7.4122 6.05393 7.5 5.83292 7.5C5.6119 7.5 5.39994 7.4122 5.24366 7.25592C5.08738 7.09964 4.99958 6.88768 4.99958 6.66667Z" fill="#79FFAF"/>
</g>
<defs>
<clipPath id="clip0_9172_2626">
<rect width="20" height="20" fill="white"/>
</clipPath>
</defs>
</svg>
