<svg width="15" height="15" viewBox="0 0 15 15" fill="none" xmlns="http://www.w3.org/2000/svg">
<g clip-path="url(#clip0_9172_3132)">
<path d="M10.7149 1.6665C10.0715 1.67651 9.44204 1.85613 8.89022 2.18723C8.33839 2.51833 7.8837 2.98917 7.57207 3.55222C7.26043 2.98917 6.80574 2.51833 6.25392 2.18723C5.70209 1.85613 5.07267 1.67651 4.42921 1.6665C3.40346 1.71107 2.43704 2.15979 1.74109 2.91464C1.04513 3.66948 0.67621 4.66909 0.714925 5.69508C0.714925 8.29336 3.44978 11.1311 5.7435 13.0551C6.25562 13.4854 6.90313 13.7214 7.57207 13.7214C8.24101 13.7214 8.88851 13.4854 9.40064 13.0551C11.6944 11.1311 14.4292 8.29336 14.4292 5.69508C14.4679 4.66909 14.099 3.66948 13.403 2.91464C12.7071 2.15979 11.7407 1.71107 10.7149 1.6665ZM8.66635 12.1808C8.36006 12.4387 7.9725 12.5802 7.57207 12.5802C7.17164 12.5802 6.78408 12.4387 6.47778 12.1808C3.54178 9.71736 1.85778 7.35393 1.85778 5.69508C1.81872 4.97206 2.06713 4.26292 2.54885 3.72233C3.03056 3.18174 3.70649 2.85356 4.42921 2.80936C5.15193 2.85356 5.82786 3.18174 6.30957 3.72233C6.79129 4.26292 7.0397 4.97206 7.00064 5.69508C7.00064 5.84663 7.06084 5.99197 7.16801 6.09914C7.27517 6.2063 7.42052 6.2665 7.57207 6.2665C7.72362 6.2665 7.86896 6.2063 7.97613 6.09914C8.08329 5.99197 8.1435 5.84663 8.1435 5.69508C8.10443 4.97206 8.35285 4.26292 8.83456 3.72233C9.31627 3.18174 9.9922 2.85356 10.7149 2.80936C11.4376 2.85356 12.1136 3.18174 12.5953 3.72233C13.077 4.26292 13.3254 4.97206 13.2864 5.69508C13.2864 7.35393 11.6024 9.71736 8.66635 12.1785V12.1808Z" fill="#212121"/>
</g>
<defs>
<clipPath id="clip0_9172_3132">
<rect width="13.7143" height="13.7143" fill="white" transform="translate(0.714355 0.571289)"/>
</clipPath>
</defs>
</svg>
