<svg width="20" height="20" viewBox="0 0 20 20" fill="none" xmlns="http://www.w3.org/2000/svg">
<g clip-path="url(#clip0_9172_506)">
<path d="M19.2655 0.726492C19.005 0.46665 18.6902 0.267817 18.3436 0.144323C17.9971 0.0208281 17.6274 -0.0242536 17.2613 0.0123259C14.9338 0.237326 7.10634 1.20649 4.08301 4.22649C2.63782 5.67562 1.78084 7.60885 1.67758 9.65284C1.57431 11.6968 2.23207 13.7066 3.52385 15.294L0.240518 18.5773C0.0887199 18.7345 0.00472462 18.945 0.0066233 19.1635C0.00852198 19.382 0.0961627 19.591 0.250669 19.7455C0.405176 19.9 0.614186 19.9877 0.832683 19.9896C1.05118 19.9915 1.26168 19.9075 1.41885 19.7557L4.70218 16.4723C6.28926 17.7658 8.29957 18.425 10.3444 18.3223C12.3893 18.2196 14.3235 17.3625 15.773 15.9165C18.8363 12.8523 19.773 5.04899 19.9888 2.73066C20.0241 2.36389 19.9775 1.99385 19.8524 1.64727C19.7274 1.30068 19.5269 0.986192 19.2655 0.726492ZM14.5988 14.7348C13.4626 15.8669 11.9532 16.5468 10.3524 16.6475C8.75163 16.7483 7.16889 16.263 5.89968 15.2823L13.9263 7.25566C14.0781 7.09849 14.1621 6.88799 14.1602 6.66949C14.1583 6.45099 14.0707 6.24198 13.9162 6.08748C13.7617 5.93297 13.5527 5.84533 13.3342 5.84343C13.1157 5.84153 12.9052 5.92553 12.748 6.07733L4.71718 14.104C3.73633 12.8348 3.25096 11.2521 3.35171 9.65124C3.45246 8.05041 4.13244 6.54098 5.26468 5.40483C7.35551 3.31483 13.1205 2.08316 17.4222 1.67066C17.544 1.6588 17.667 1.67393 17.7823 1.71497C17.8976 1.75602 18.0025 1.82196 18.0894 1.90812C18.1764 1.99428 18.2433 2.09853 18.2854 2.21347C18.3275 2.32842 18.3437 2.45122 18.333 2.57316C17.9163 7.06233 16.7155 12.614 14.5947 14.7348H14.5988Z" fill="#79FFAF"/>
</g>
<defs>
<clipPath id="clip0_9172_506">
<rect width="20" height="20" fill="white"/>
</clipPath>
</defs>
</svg>
