<svg width="11" height="11" viewBox="0 0 11 11" fill="none" xmlns="http://www.w3.org/2000/svg">
<g clip-path="url(#clip0_9172_2783)">
<path d="M5.49992 0.0195312C4.28714 0.0208655 3.12441 0.503199 2.26681 1.36072C1.4092 2.21824 0.926749 3.38092 0.925293 4.5937C0.925293 5.77162 1.83738 7.61503 3.63633 10.0726C3.8505 10.366 4.1309 10.6047 4.45474 10.7692C4.77857 10.9338 5.13668 11.0195 5.49992 11.0195C5.86316 11.0195 6.22127 10.9338 6.5451 10.7692C6.86893 10.6047 7.14934 10.366 7.3635 10.0726C9.16246 7.61503 10.0745 5.77162 10.0745 4.5937C10.0731 3.38092 9.59064 2.21824 8.73303 1.36072C7.87542 0.503199 6.71269 0.0208655 5.49992 0.0195312ZM5.49992 6.41695C5.13732 6.41695 4.78286 6.30943 4.48137 6.10798C4.17988 5.90653 3.9449 5.6202 3.80614 5.2852C3.66738 4.9502 3.63107 4.58158 3.70181 4.22595C3.77255 3.87032 3.94716 3.54365 4.20356 3.28725C4.45995 3.03086 4.78662 2.85625 5.14225 2.78551C5.49788 2.71477 5.86651 2.75108 6.2015 2.88984C6.5365 3.0286 6.82283 3.26358 7.02428 3.56507C7.22573 3.86656 7.33325 4.22102 7.33325 4.58361C7.33325 5.06985 7.1401 5.53616 6.79628 5.87998C6.45246 6.22379 5.98615 6.41695 5.49992 6.41695Z" fill="#212121"/>
</g>
<defs>
<clipPath id="clip0_9172_2783">
<rect width="11" height="11" fill="white"/>
</clipPath>
</defs>
</svg>
