<svg width="15" height="15" viewBox="0 0 15 15" fill="none" xmlns="http://www.w3.org/2000/svg">
<g clip-path="url(#clip0_9172_887)">
<path d="M7.50009 0.0263672C5.8463 0.0281866 4.26076 0.685914 3.0913 1.85526C1.92183 3.02461 1.26395 4.61008 1.26196 6.26387C1.26196 7.87012 2.50571 10.3839 4.95884 13.7351C5.25088 14.1352 5.63325 14.4607 6.07484 14.6851C6.51643 14.9094 7.00476 15.0264 7.50009 15.0264C7.99542 15.0264 8.48375 14.9094 8.92534 14.6851C9.36693 14.4607 9.7493 14.1352 10.0413 13.7351C12.4945 10.3839 13.7382 7.87012 13.7382 6.26387C13.7362 4.61008 13.0783 3.02461 11.9089 1.85526C10.7394 0.685914 9.15387 0.0281866 7.50009 0.0263672ZM7.50009 8.75012C7.00563 8.75012 6.52229 8.6035 6.11116 8.32879C5.70004 8.05409 5.37961 7.66364 5.19039 7.20683C5.00117 6.75001 4.95166 6.24734 5.04812 5.76239C5.14459 5.27744 5.38269 4.83198 5.73232 4.48235C6.08195 4.13272 6.52741 3.89462 7.01236 3.79815C7.49731 3.70169 7.99998 3.7512 8.4568 3.94042C8.91361 4.12964 9.30406 4.45007 9.57876 4.86119C9.85347 5.27232 10.0001 5.75566 10.0001 6.25012C10.0001 6.91316 9.7367 7.54904 9.26785 8.01789C8.79901 8.48673 8.16313 8.75012 7.50009 8.75012Z" fill="#35764F"/>
</g>
<defs>
<clipPath id="clip0_9172_887">
<rect width="15" height="15" fill="white"/>
</clipPath>
</defs>
</svg>
