<svg width="16" height="12" viewBox="0 0 16 12" fill="none" xmlns="http://www.w3.org/2000/svg">
<path d="M13.4413 2.58887C12.4846 2.58887 12.4846 3.06719 12.4846 3.54552C12.4846 4.50216 13.1224 4.74133 13.4413 4.74133C13.8239 4.74133 13.9196 4.42244 13.9196 4.263V3.30635C13.9196 2.73236 13.6007 2.58887 13.4413 2.58887Z" stroke="#585454" stroke-linecap="round"/>
<path d="M5.07104 4.98047H8.89764" stroke="#585454"/>
<path d="M4.38534 6.39294C3.50842 6.2335 1.33977 6.12852 0.76578 7.85048C0.526618 8.96657 0.717947 11.1987 3.39656 11.1987C4.27351 11.1987 5.97959 10.6726 5.78826 8.56797" stroke="#585454"/>
<path d="M1.7229 3.78506C2.91871 3.78509 5.07117 3.30668 5.07117 4.98092C5.07117 5.93757 3.95502 6.89419 3.39698 7.61166C3.0781 8.01027 2.91866 8.80746 4.59279 8.80747C4.59279 8.80747 5.67294 8.857 6.26692 8.5683C7.04138 8.19188 7.70189 6.89417 7.70189 6.89417C7.70189 6.89417 8.41938 5.69836 9.37603 4.74171C10.174 3.94371 10.811 3.54589 12.246 3.5459" stroke="#585454" stroke-linecap="round" stroke-linejoin="round"/>
<path d="M6.98364 1.15416C8.41861 0.915029 9.43587 1.06639 9.85359 2.11076C10.2713 3.15513 12.2452 8.80734 12.2452 8.80734" stroke="#585454" stroke-linecap="round"/>
<path d="M14.3981 7.61113C13.6327 5.88917 12.2457 6.17619 11.5282 6.1761C9.61494 6.5588 9.37573 8.56773 9.61482 9.52438C10.3324 11.6768 12.6442 11.4377 13.4414 10.9594C14.0792 10.5608 15.1634 9.3331 14.3981 7.61113Z" stroke="#585454" stroke-linecap="round"/>
</svg>
