<svg width="17" height="13" viewBox="0 0 17 13" fill="none" xmlns="http://www.w3.org/2000/svg">
<path d="M14.3241 2.64893C13.3455 2.64893 13.3455 3.13823 13.3455 3.62754C13.3455 4.60615 13.9979 4.8508 14.3241 4.8508C14.7155 4.8508 14.8134 4.5246 14.8134 4.3615V3.38288C14.8134 2.79572 14.4872 2.64893 14.3241 2.64893Z" fill="#95BEA5" stroke="#212121" stroke-linecap="round"/>
<path d="M5.76147 5.09521H9.67592" stroke="#212121"/>
<path d="M5.06003 6.53985C4.16297 6.37675 1.94453 6.26936 1.35736 8.03086C1.11271 9.17257 1.30843 11.456 4.04854 11.456C4.94563 11.456 6.69087 10.9178 6.49515 8.76482" stroke="#212121"/>
<path d="M2.33643 3.87209C3.55969 3.87213 5.76157 3.38273 5.76157 5.09541C5.76157 6.07402 4.6198 7.05261 4.04894 7.78655C3.72274 8.19431 3.55964 9.00981 5.27221 9.00982C5.27221 9.00982 6.37715 9.06048 6.98478 8.76515C7.77702 8.38009 8.45269 7.05259 8.45269 7.05259C8.45269 7.05259 9.18665 5.82932 10.1653 4.85071C10.9816 4.03439 11.6332 3.62743 13.1011 3.62744" stroke="#212121" stroke-linecap="round" stroke-linejoin="round"/>
<path d="M7.71802 1.18084C9.18593 0.936215 10.2265 1.09105 10.6539 2.15939C11.0812 3.22774 13.1004 9.00972 13.1004 9.00972" stroke="#212121" stroke-linecap="round"/>
<path d="M15.3024 7.78658C14.5195 6.02508 13.1006 6.31869 12.3666 6.3186C10.4094 6.71009 10.1647 8.76514 10.4093 9.74375C11.1434 11.9456 13.5082 11.701 14.3237 11.2117C14.9762 10.8039 16.0852 9.54808 15.3024 7.78658Z" stroke="#212121" stroke-linecap="round"/>
</svg>
