<svg width="15" height="15" viewBox="0 0 15 15" fill="none" xmlns="http://www.w3.org/2000/svg">
<path d="M14.2568 1.55322L3.67969 12.1274C3.90835 12.2389 4.15916 12.2975 4.41352 12.2988H6.225C6.37654 12.2984 6.52192 12.3586 6.62876 12.4661L7.61046 13.4472C8.14282 13.9833 8.86692 14.285 9.62238 14.2856C9.9343 14.2853 10.2441 14.2342 10.5395 14.1343C11.5581 13.8003 12.299 12.9173 12.451 11.8562L14.3807 2.69026C14.4728 2.30834 14.429 1.90629 14.2568 1.55322Z" fill="#212121"/>
<path d="M12.3263 0.615519L3.1827 2.54181C1.62037 2.75645 0.527853 4.19697 0.742492 5.7593C0.827271 6.37629 1.11143 6.94867 1.55168 7.38917L2.53282 8.3703C2.64006 8.47751 2.70026 8.62298 2.70015 8.77463V10.5861C2.70147 10.8405 2.76004 11.0913 2.87148 11.3199L13.4468 0.742889C13.0993 0.572099 12.7033 0.527099 12.3263 0.615519Z" fill="#212121"/>
</svg>
