<svg width="15" height="15" viewBox="0 0 15 15" fill="none" xmlns="http://www.w3.org/2000/svg">
<g id="fi-rr-clock" clip-path="url(#clip0_16970_16340)">
<path id="Vector" d="M7.57178 0.5C6.18731 0.5 4.83393 0.910543 3.68279 1.67971C2.53164 2.44888 1.63444 3.54213 1.10462 4.82122C0.57481 6.1003 0.436187 7.50777 0.706284 8.86563C0.97638 10.2235 1.64307 11.4708 2.62203 12.4497C3.601 13.4287 4.84828 14.0954 6.20615 14.3655C7.56402 14.6356 8.97148 14.497 10.2506 13.9672C11.5296 13.4373 12.6229 12.5401 13.3921 11.389C14.1612 10.2378 14.5718 8.88447 14.5718 7.5C14.5698 5.6441 13.8316 3.86479 12.5193 2.55247C11.207 1.24015 9.42768 0.502007 7.57178 0.5V0.5ZM7.57178 13.3333C6.41806 13.3333 5.29024 12.9912 4.33095 12.3502C3.37167 11.7093 2.62399 10.7982 2.18248 9.73232C1.74097 8.66642 1.62545 7.49353 1.85053 6.36197C2.07561 5.23042 2.63118 4.19102 3.44699 3.37521C4.2628 2.5594 5.3022 2.00383 6.43375 1.77875C7.56531 1.55367 8.7382 1.66919 9.8041 2.1107C10.87 2.55221 11.781 3.29989 12.422 4.25917C13.063 5.21846 13.4051 6.34628 13.4051 7.5C13.4034 9.04658 12.7883 10.5293 11.6947 11.6229C10.6011 12.7165 9.11836 13.3316 7.57178 13.3333Z" fill="#212121"/>
<path id="Vector_2" d="M7.57219 4C7.41748 4 7.26911 4.06146 7.15971 4.17085C7.05032 4.28025 6.98886 4.42862 6.98886 4.58333V7.10625L5.02244 8.33824C4.89094 8.42039 4.79746 8.55142 4.76256 8.7025C4.72766 8.85357 4.75421 9.01232 4.83636 9.14383C4.91851 9.27533 5.04954 9.36881 5.20061 9.40371C5.35169 9.43861 5.51044 9.41206 5.64194 9.32991L7.88194 7.92991C7.96658 7.87688 8.03618 7.80302 8.08408 7.71538C8.13198 7.62775 8.15658 7.52928 8.15553 7.42941V4.58333C8.15553 4.42862 8.09407 4.28025 7.98467 4.17085C7.87528 4.06146 7.7269 4 7.57219 4Z" fill="#212121"/>
</g>
<defs>
<clipPath id="clip0_16970_16340">
<rect width="14" height="14" fill="white" transform="translate(0.571777 0.5)"/>
</clipPath>
</defs>
</svg>
