<svg width="20" height="20" viewBox="0 0 20 20" fill="none" xmlns="http://www.w3.org/2000/svg">
<g clip-path="url(#clip0_9172_1965)">
<path d="M19.7549 18.5783L14.7808 13.6041C16.1363 11.9463 16.8027 9.83087 16.6423 7.69543C16.4818 5.55999 15.5068 3.5679 13.9187 2.13123C12.3307 0.694554 10.2512 -0.0767949 8.11045 -0.0232684C5.96966 0.0302581 3.93134 0.904564 2.4171 2.41881C0.902855 3.93305 0.0285491 5.97137 -0.0249774 8.11216C-0.0785039 10.253 0.692845 12.3324 2.12952 13.9205C3.5662 15.5085 5.55828 16.4836 7.69372 16.644C9.82916 16.8044 11.9446 16.138 13.6024 14.7825L18.5766 19.7566C18.7338 19.9084 18.9443 19.9924 19.1628 19.9905C19.3813 19.9886 19.5903 19.901 19.7448 19.7465C19.8993 19.592 19.9869 19.383 19.9888 19.1645C19.9907 18.946 19.9067 18.7355 19.7549 18.5783ZM8.33242 15.0008C7.01388 15.0008 5.72495 14.6098 4.62862 13.8773C3.53229 13.1447 2.67781 12.1035 2.17322 10.8854C1.66864 9.66718 1.53662 8.32673 1.79385 7.03353C2.05109 5.74032 2.68602 4.55243 3.61837 3.62008C4.55072 2.68773 5.73861 2.05279 7.03182 1.79556C8.32502 1.53832 9.66547 1.67035 10.8836 2.17493C12.1018 2.67952 13.143 3.534 13.8756 4.63033C14.6081 5.72665 14.9991 7.01559 14.9991 8.33413C14.9971 10.1016 14.2941 11.7962 13.0443 13.046C11.7945 14.2958 10.0999 14.9988 8.33242 15.0008Z" fill="#79FFAF"/>
</g>
<defs>
<clipPath id="clip0_9172_1965">
<rect width="20" height="20" fill="white"/>
</clipPath>
</defs>
</svg>
