<svg width="19" height="18" viewBox="0 0 19 18" fill="none" xmlns="http://www.w3.org/2000/svg">
<g clip-path="url(#clip0_9172_402)">
<path d="M18.0305 16.5013L13.6806 12.1514C14.866 10.7016 15.4488 8.85166 15.3085 6.98422C15.1682 5.11677 14.3155 3.3747 12.9268 2.11832C11.5381 0.861952 9.71955 0.187408 7.84743 0.234216C5.97531 0.281025 4.19279 1.04561 2.86859 2.36981C1.54439 3.69401 0.779805 5.47653 0.732996 7.34865C0.686187 9.22077 1.36073 11.0393 2.6171 12.428C3.87348 13.8167 5.61555 14.6694 7.483 14.8097C9.35044 14.9501 11.2004 14.3672 12.6502 13.1818L17.0001 17.5317C17.1375 17.6645 17.3216 17.7379 17.5127 17.7363C17.7037 17.7346 17.8865 17.658 18.0216 17.5229C18.1568 17.3877 18.2334 17.205 18.2351 17.0139C18.2367 16.8228 18.1633 16.6387 18.0305 16.5013ZM8.04154 13.3728C6.88847 13.3728 5.7613 13.0308 4.80256 12.3902C3.84383 11.7496 3.09658 10.8391 2.65532 9.7738C2.21406 8.70851 2.09861 7.53629 2.32356 6.40538C2.54851 5.27447 3.10377 4.23567 3.91911 3.42033C4.73445 2.60499 5.77325 2.04973 6.90416 1.82478C8.03507 1.59983 9.20729 1.71528 10.2726 2.15654C11.3379 2.5978 12.2484 3.34505 12.889 4.30379C13.5296 5.26252 13.8715 6.3897 13.8715 7.54276C13.8698 9.08844 13.255 10.5703 12.1621 11.6633C11.0691 12.7562 9.58722 13.371 8.04154 13.3728Z" fill="#8C8B8E"/>
</g>
<defs>
<clipPath id="clip0_9172_402">
<rect width="17.49" height="17.49" fill="white" transform="translate(0.754883 0.254883)"/>
</clipPath>
</defs>
</svg>
