<svg width="20" height="20" viewBox="0 0 20 20" fill="none" xmlns="http://www.w3.org/2000/svg">
<g id="fi-rr-sunrise" clip-path="url(#clip0_9172_1188)">
<path id="Vector" d="M-0.000305807 10C-0.000305807 9.77899 0.0874916 9.56702 0.243772 9.41074C0.400052 9.25446 0.612014 9.16667 0.833028 9.16667H4.23219C4.29807 8.70917 4.41953 8.26141 4.59386 7.83333L1.65136 6.12417C1.55313 6.0713 1.46651 5.99926 1.39664 5.9123C1.32677 5.82534 1.27507 5.72524 1.24461 5.61793C1.21414 5.51062 1.20553 5.39829 1.21929 5.28759C1.23304 5.17689 1.26888 5.07008 1.32468 4.97349C1.38049 4.8769 1.45511 4.79249 1.54414 4.72528C1.63316 4.65806 1.73478 4.6094 1.84296 4.58219C1.95114 4.55498 2.06368 4.54976 2.17391 4.56684C2.28415 4.58393 2.38983 4.62298 2.48469 4.68167L5.43053 6.38833C5.71262 6.03457 6.03446 5.71441 6.38969 5.43417L4.68136 2.48667C4.57869 2.29588 4.55436 2.0726 4.61353 1.86418C4.6727 1.65575 4.81072 1.47857 4.99833 1.37019C5.18593 1.26181 5.40837 1.23075 5.61849 1.28361C5.8286 1.33647 6.00987 1.46908 6.12386 1.65333L7.83303 4.59417C8.26136 4.42075 8.70903 4.2996 9.16636 4.23333V0.833333C9.16636 0.61232 9.25416 0.400358 9.41044 0.244078C9.56672 0.0877974 9.77868 0 9.99969 0C10.2207 0 10.4327 0.0877974 10.5889 0.244078C10.7452 0.400358 10.833 0.61232 10.833 0.833333V4.23333C11.2904 4.2996 11.738 4.42075 12.1664 4.59417L13.8722 1.65083C13.9862 1.46658 14.1675 1.33397 14.3776 1.28111C14.5877 1.22825 14.8101 1.25931 14.9977 1.36769C15.1853 1.47607 15.3234 1.65325 15.3825 1.86168C15.4417 2.0701 15.4174 2.29338 15.3147 2.48417L13.6064 5.43083C13.9615 5.71121 14.2835 6.03104 14.5664 6.38417L17.5089 4.67833C17.6996 4.57566 17.9229 4.55133 18.1314 4.6105C18.3398 4.66967 18.517 4.80769 18.6253 4.9953C18.7337 5.18291 18.7648 5.40535 18.7119 5.61546C18.6591 5.82558 18.5264 6.00684 18.3422 6.12083L15.408 7.82833C15.5843 8.26022 15.7077 8.71183 15.7755 9.17333L19.1664 9.16667C19.3874 9.16667 19.5993 9.25446 19.7556 9.41074C19.9119 9.56702 19.9997 9.77899 19.9997 10C19.9997 10.221 19.9119 10.433 19.7556 10.5893C19.5993 10.7455 19.3874 10.8333 19.1664 10.8333H15.768C15.3687 10.8319 14.9832 10.6872 14.6816 10.4255C14.38 10.1639 14.1824 9.80261 14.1247 9.4075C13.9722 8.42288 13.4726 7.52528 12.7161 6.87689C11.9595 6.22851 10.996 5.87212 9.99969 5.87212C9.00334 5.87212 8.03985 6.22851 7.28333 6.87689C6.52681 7.52528 6.02717 8.42288 5.87469 9.4075C5.81702 9.80246 5.61951 10.1636 5.31809 10.4253C5.01666 10.6869 4.63134 10.8317 4.23219 10.8333H0.833028C0.612014 10.8333 0.400052 10.7455 0.243772 10.5893C0.0874916 10.433 -0.000305807 10.221 -0.000305807 10ZM19.7864 13.8042C19.6387 13.6398 19.4318 13.5407 19.2111 13.5288C18.9905 13.517 18.7741 13.5932 18.6097 13.7408C18.3901 13.9164 18.1333 14.0395 17.8589 14.1006C17.5845 14.1618 17.2998 14.1595 17.0264 14.0938C16.7531 14.0281 16.4983 13.9008 16.2817 13.7216C16.065 13.5425 15.8922 13.3162 15.7764 13.06C15.7374 12.9423 15.6721 12.835 15.5855 12.7464C15.4989 12.6577 15.3931 12.59 15.2764 12.5483C15.0682 12.4749 14.8393 12.4872 14.6401 12.5823C14.4409 12.6775 14.2876 12.8478 14.2139 13.0558C14.0593 13.381 13.8159 13.6558 13.5116 13.8484C13.2074 14.0409 12.8548 14.1433 12.4948 14.1438C12.1347 14.1442 11.7819 14.0426 11.4772 13.8508C11.1725 13.659 10.9283 13.3848 10.773 13.06C10.734 12.9423 10.6687 12.8349 10.5821 12.7462C10.4954 12.6574 10.3898 12.5894 10.273 12.5475C10.1698 12.5111 10.0605 12.4953 9.95117 12.5011C9.84189 12.5069 9.73481 12.5342 9.63607 12.5814C9.53733 12.6286 9.44885 12.6948 9.3757 12.7762C9.30254 12.8576 9.24613 12.9526 9.20969 13.0558C9.05508 13.3808 8.81161 13.6554 8.50746 13.8478C8.2033 14.0401 7.8509 14.1425 7.49101 14.1429C7.13112 14.1433 6.77846 14.0419 6.47385 13.8502C6.16923 13.6586 5.92509 13.3846 5.76969 13.06C5.73064 12.9423 5.66534 12.8349 5.57872 12.7462C5.4921 12.6574 5.38643 12.5894 5.26969 12.5475C5.1665 12.5111 5.05713 12.4953 4.94784 12.5011C4.83855 12.5069 4.73148 12.5342 4.63274 12.5814C4.534 12.6286 4.44552 12.6948 4.37236 12.7762C4.2992 12.8576 4.2428 12.9526 4.20636 13.0558C4.09241 13.3125 3.92103 13.5395 3.70543 13.7194C3.48984 13.8994 3.2358 14.0274 2.9629 14.0936C2.69001 14.1597 2.40556 14.1624 2.13149 14.1012C1.85742 14.0401 1.60106 13.9168 1.38219 13.7408C1.21524 13.6129 1.00609 13.5529 0.796699 13.5727C0.58731 13.5926 0.393174 13.6909 0.253237 13.8479C0.1133 14.0049 0.0379143 14.209 0.0422031 14.4193C0.0464919 14.6296 0.130138 14.8305 0.276361 14.9817C0.941248 15.5525 1.7971 15.8514 2.67281 15.8184C3.54851 15.7855 4.37953 15.4233 4.99969 14.8042C5.67008 15.4532 6.5666 15.8161 7.49969 15.8161C8.43279 15.8161 9.32931 15.4532 9.99969 14.8042C10.67 15.4534 11.5665 15.8164 12.4997 15.8164C13.4328 15.8164 14.3294 15.4534 14.9997 14.8042C15.6198 15.4234 16.4507 15.7858 17.3264 15.8189C18.2021 15.8519 19.058 15.5532 19.723 14.9825C19.8047 14.9094 19.8711 14.8208 19.9185 14.722C19.9659 14.6232 19.9933 14.5159 19.9992 14.4065C20.0051 14.297 19.9893 14.1875 19.9528 14.0841C19.9163 13.9808 19.8597 13.8856 19.7864 13.8042ZM19.7864 17.9708C19.6387 17.8064 19.4318 17.7074 19.2111 17.6955C18.9905 17.6836 18.7741 17.7599 18.6097 17.9075C18.3901 18.0831 18.1333 18.2061 17.8589 18.2673C17.5845 18.3285 17.2998 18.3261 17.0264 18.2604C16.7531 18.1948 16.4983 18.0675 16.2817 17.8883C16.065 17.7091 15.8922 17.4828 15.7764 17.2267C15.7374 17.109 15.6721 17.0017 15.5855 16.913C15.4989 16.8244 15.3931 16.7566 15.2764 16.715C15.0682 16.6416 14.8393 16.6538 14.6401 16.749C14.4409 16.8441 14.2876 17.0144 14.2139 17.2225C14.0589 17.5475 13.8151 17.822 13.5107 18.0142C13.2062 18.2064 12.8535 18.3084 12.4934 18.3084C12.1334 18.3084 11.7807 18.2064 11.4762 18.0142C11.1718 17.822 10.9279 17.5475 10.773 17.2225C10.734 17.1048 10.6687 16.9974 10.5821 16.9087C10.4954 16.8199 10.3898 16.7519 10.273 16.71C10.1698 16.6735 10.0605 16.6578 9.95117 16.6636C9.84189 16.6694 9.73481 16.6967 9.63607 16.7439C9.53733 16.7911 9.44885 16.8573 9.3757 16.9387C9.30254 17.0201 9.24613 17.1151 9.20969 17.2183C9.05469 17.5431 8.81089 17.8174 8.5065 18.0094C8.20211 18.2014 7.84958 18.3033 7.48969 18.3033C7.12981 18.3033 6.77727 18.2014 6.47289 18.0094C6.1685 17.8174 5.9247 17.5431 5.76969 17.2183C5.73064 17.1006 5.66534 16.9933 5.57872 16.9045C5.4921 16.8157 5.38643 16.7478 5.26969 16.7058C5.1665 16.6694 5.05713 16.6536 4.94784 16.6594C4.83855 16.6653 4.73148 16.6926 4.63274 16.7398C4.534 16.787 4.44552 16.8531 4.37236 16.9345C4.2992 17.016 4.2428 17.111 4.20636 17.2142C4.09241 17.4708 3.92103 17.6979 3.70543 17.8778C3.48984 18.0577 3.2358 18.1857 2.9629 18.2519C2.69001 18.3181 2.40556 18.3207 2.13149 18.2595C1.85742 18.1984 1.60106 18.0751 1.38219 17.8992C1.21654 17.7525 0.999426 17.6777 0.778602 17.6911C0.557777 17.7046 0.351337 17.8052 0.204694 17.9708C0.0580516 18.1365 -0.0167808 18.3536 -0.00334071 18.5744C0.0100994 18.7952 0.110711 19.0017 0.276361 19.1483C0.941248 19.7192 1.7971 20.018 2.67281 19.9851C3.54851 19.9522 4.37953 19.59 4.99969 18.9708C5.67008 19.6199 6.5666 19.9827 7.49969 19.9827C8.43279 19.9827 9.32931 19.6199 9.99969 18.9708C10.67 19.6201 11.5665 19.9831 12.4997 19.9831C13.4328 19.9831 14.3294 19.6201 14.9997 18.9708C15.6198 19.5901 16.4507 19.9525 17.3264 19.9855C18.2021 20.0186 19.058 19.7199 19.723 19.1492C19.8047 19.076 19.8711 18.9875 19.9185 18.8887C19.9659 18.7898 19.9933 18.6826 19.9992 18.5731C20.0051 18.4637 19.9893 18.3541 19.9528 18.2508C19.9163 18.1474 19.8597 18.0523 19.7864 17.9708Z" fill="#79FFAF"/>
</g>
<defs>
<clipPath id="clip0_9172_1188">
<rect width="20" height="20" fill="white"/>
</clipPath>
</defs>
</svg>
