<svg width="16" height="14" viewBox="0 0 16 14" fill="none" xmlns="http://www.w3.org/2000/svg">
<path d="M13.376 6.26074H2.904C1.714 6.49874 1 7.30794 1 8.64074C1 9.97354 1.63467 10.3067 1.952 10.3067H13.376C14.8992 10.3067 15.28 9.19607 15.28 8.64074C15.28 6.92714 14.0107 6.34008 13.376 6.26074Z" stroke="#212121" stroke-width="1.2" stroke-linecap="round"/>
<path d="M6.95068 6.02276V2.69077C6.95068 2.13543 7.28388 1.07237 8.61668 1.26277C9.09268 1.3421 9.80668 1.50078 10.9967 3.16678L13.1387 6.26077" stroke="#212121" stroke-width="1.2" stroke-linecap="round"/>
<path d="M10.758 10.5444C10.5993 11.2584 10.7104 12.6864 12.424 12.6864C12.9793 12.6864 14.0423 12.258 13.8519 10.5444" stroke="#212121" stroke-width="1.2" stroke-linecap="round"/>
<path d="M2.47967 10.5444C2.321 11.2584 2.43207 12.6864 4.14567 12.6864C4.70096 12.6864 5.76395 12.258 5.57355 10.5444" stroke="#212121" stroke-width="1.2" stroke-linecap="round"/>
</svg>
