<svg width="16" height="14" viewBox="0 0 16 14" fill="none" xmlns="http://www.w3.org/2000/svg">
<path d="M12.8289 6.14258H2.59198C1.42869 6.37524 0.730713 7.16627 0.730713 8.46916C0.730713 9.77204 1.35113 10.0978 1.66135 10.0978H12.8289C14.3179 10.0978 14.6902 9.01203 14.6902 8.46916C14.6902 6.79402 13.4494 6.22013 12.8289 6.14258Z" stroke="#585454" stroke-width="1.2" stroke-linecap="round"/>
<path d="M6.54785 5.90956V2.65235C6.54785 2.10948 6.87357 1.07027 8.17646 1.2564C8.64177 1.33396 9.33975 1.48907 10.503 3.11768L12.597 6.14223" stroke="#585454" stroke-width="1.2" stroke-linecap="round"/>
<path d="M9.26976 10.3301C9.11465 11.0281 9.22323 12.424 10.8984 12.424C11.4412 12.424 12.4803 12.0052 12.2942 10.3301" stroke="#585454" stroke-width="1.2" stroke-linecap="round"/>
<path d="M1.17723 10.3301C1.02212 11.0281 1.1307 12.424 2.80584 12.424C3.34867 12.424 4.3878 12.0052 4.20167 10.3301" stroke="#585454" stroke-width="1.2" stroke-linecap="round"/>
</svg>
